<svg width="628" height="486" viewBox="0 0 628 486" fill="none" xmlns="http://www.w3.org/2000/svg">
<g clip-path="url(#clip0)">
<path d="M480.738 442.432C499.205 442.432 514.175 411.877 514.175 374.186C514.175 336.494 499.205 305.939 480.738 305.939C462.271 305.939 447.301 336.494 447.301 374.186C447.301 411.877 462.271 442.432 480.738 442.432Z" fill="#87AA62"/>
<path d="M477.635 485.862C491.01 405.483 477.773 325.448 477.635 324.689L475.016 325.103C475.154 325.93 488.322 405.551 475.016 485.449L477.635 485.862Z" fill="#476458"/>
<path d="M451.294 359.527L450.059 361.836L480.273 377.998L481.509 375.688L451.294 359.527Z" fill="#476458"/>
<path d="M512.201 367.61L481.993 383.778L483.229 386.088L513.437 369.92L512.201 367.61Z" fill="#476458"/>
<path d="M561.126 399.623C597.26 399.623 626.553 339.871 626.553 266.163C626.553 192.454 597.26 132.702 561.126 132.702C524.992 132.702 495.699 192.454 495.699 266.163C495.699 339.871 524.992 399.623 561.126 399.623Z" fill="#87AA62"/>
<path d="M553.817 484.414C579.947 327.447 554.093 171.1 553.817 169.514L551.197 169.928C551.473 171.513 577.258 327.447 551.197 483.932L553.817 484.414Z" fill="#476458"/>
<path d="M502.906 238.653L501.67 240.963L560.822 272.602L562.058 270.292L502.906 238.653Z" fill="#476458"/>
<path d="M623.312 254.481L564.166 286.133L565.402 288.443L624.548 256.79L623.312 254.481Z" fill="#476458"/>
<path d="M409.175 484.828H61.2899C58.6011 484.828 56.4639 482.691 56.4639 480.003V260.165C56.4639 257.477 58.6011 255.34 61.2899 255.34H409.175C411.864 255.34 414.001 257.477 414.001 260.165V479.934C414.001 482.622 411.864 484.828 409.175 484.828Z" fill="#3A374D"/>
<path d="M93.2792 282.018C92.1072 282.018 91.2109 282.914 91.2109 284.086V456.151C91.2109 457.323 92.1072 458.219 93.2792 458.219H377.186C378.358 458.219 379.254 457.323 379.254 456.151V284.086C379.254 282.914 378.358 282.018 377.186 282.018H93.2792Z" fill="white"/>
<path d="M380.012 315.383H87.2812V326.275H380.012V315.383Z" fill="#3A374D"/>
<path d="M380.012 368.74H87.2812V379.632H380.012V368.74Z" fill="#3A374D"/>
<path d="M253.227 339.648H130.854V350.54H253.227V339.648Z" fill="#3A374D"/>
<path d="M380.012 425.06H87.2812V435.952H380.012V425.06Z" fill="#3A374D"/>
<path d="M136.3 281.329H125.407V431.747H136.3V281.329Z" fill="#3A374D"/>
<path d="M339.819 281.329H328.926V374.806H339.819V281.329Z" fill="#3A374D"/>
<path d="M257.433 281.329H246.54V458.908H257.433V281.329Z" fill="#3A374D"/>
<path d="M195.039 370.532H184.146V458.908H195.039V370.532Z" fill="#3A374D"/>
<path d="M251.986 389.489C259.677 389.489 265.913 383.255 265.913 375.564C265.913 367.874 259.677 361.639 251.986 361.639C244.295 361.639 238.06 367.874 238.06 375.564C238.06 383.255 244.295 389.489 251.986 389.489Z" fill="#476458"/>
<path d="M627.724 486H0V484.483H628L627.724 486Z" fill="#3F3D56"/>
<path d="M253.641 292.841C301.121 292.841 339.612 254.354 339.612 206.877C339.612 159.401 301.121 120.914 253.641 120.914C206.16 120.914 167.669 159.401 167.669 206.877C167.669 254.354 206.16 292.841 253.641 292.841Z" fill="#476458"/>
<path d="M254.468 346.542L227.373 300.148L200.21 253.823L253.916 253.478L307.692 253.134L281.08 299.872L254.468 346.542Z" fill="#476458"/>
<path d="M254.33 237.14C271.35 237.14 285.148 223.344 285.148 206.326C285.148 189.308 271.35 175.511 254.33 175.511C237.31 175.511 223.513 189.308 223.513 206.326C223.513 223.344 237.31 237.14 254.33 237.14Z" fill="white"/>
<path d="M251.641 0.413614C251.641 0.413614 233.233 -4.7566 227.787 20.3362C222.34 45.4289 226.477 58.1821 226.477 58.1821L267.498 53.3566C267.567 53.4255 279.218 8.06553 251.641 0.413614Z" fill="#2F2E41"/>
<path d="M224.133 109.264C224.133 109.264 197.176 111.952 201.933 122.844C206.69 133.736 206.759 134.701 206.759 134.701L230.475 176.959L238.197 168.963C238.197 168.963 229.579 150.074 229.579 144.008C229.579 137.941 220.617 127.325 220.617 127.325L236.336 126.015L224.133 109.264Z" fill="#FFB9B9"/>
<path d="M298.039 122.155L307.002 141.664C307.002 141.664 313.758 148.42 321.066 175.305C328.374 202.19 330.029 201.225 330.029 201.225L318.791 203.5C318.791 203.5 306.312 174.34 302.107 172.134C297.901 169.928 292.8 149.385 292.8 149.385L278.046 130.841L282.527 120.914L298.039 122.155Z" fill="#FFB9B9"/>
<path d="M287.147 99.7506L300.936 125.395C300.936 125.395 283.631 117.398 281.08 134.977L265.43 122.844C265.43 122.844 243.644 129.876 230.545 127.325C230.545 127.325 234.406 115.123 220.617 109.677L251.71 105.817L250.4 99.0613L253.572 92.6502L287.147 99.7506Z" fill="#2F2E41"/>
<path d="M232.406 171.169C232.406 171.169 223.788 169.859 225.994 177.58L230.475 192.952C230.475 192.952 224.684 208.67 233.647 205.154C242.609 201.638 248.401 179.854 248.401 179.854C248.401 179.854 252.261 163.172 248.401 163.172C244.54 163.172 232.406 160.621 233.647 163.172C234.888 165.723 232.406 171.169 232.406 171.169Z" fill="#2F2E41"/>
<path d="M329.133 196.813C329.133 196.813 317.895 193.917 315.345 198.398C312.794 202.879 313.414 217.631 313.414 217.907C313.414 218.183 317.275 221.423 318.516 221.423C319.757 221.423 327.823 235.831 338.716 230.729C349.609 225.628 329.133 196.813 329.133 196.813Z" fill="#2F2E41"/>
<path d="M260.773 29.0853C261.877 22.2831 257.257 15.8739 250.454 14.7699C243.652 13.666 237.242 18.2853 236.138 25.0875C235.034 31.8897 239.653 38.2989 246.456 39.4029C253.259 40.5068 259.669 35.8875 260.773 29.0853Z" fill="#FFB9B9"/>
<path d="M258.673 29.6425C258.673 29.6425 261.224 43.0851 263.499 45.0153C265.774 46.9455 246.539 49.8408 246.539 49.8408C246.539 49.8408 249.435 40.5345 245.918 35.7779C242.402 31.0213 258.673 29.6425 258.673 29.6425Z" fill="#FFB9B9"/>
<path d="M292.318 105.817C290.112 105.817 284.596 104.921 278.322 103.749C272.945 102.715 267.016 101.543 262.397 100.578C257.433 99.5438 253.848 98.7855 253.848 98.7855C253.848 98.7855 252.538 106.782 248.401 105.817C244.816 104.99 234.061 67.5575 231.165 57.217C230.752 55.6315 231.372 54.046 232.751 53.1498L247.505 44.1881L251.297 45.6357C251.297 45.6357 257.639 40.7413 261.362 40.6034C265.085 40.4655 271.497 39.5694 271.497 39.5694C271.497 39.5694 278.874 40.1898 280.115 45.6357C281.356 51.0817 282.045 84.9983 286.871 91.1336C291.697 97.2689 298.385 105.817 292.318 105.817Z" fill="#D0CDE1"/>
<path d="M247.436 123.809C247.436 123.809 247.436 136.287 255.778 134.357C264.12 132.426 256.398 120.914 256.398 120.914L247.436 123.809Z" fill="#FFB9B9"/>
<path d="M270.531 125.05C270.531 125.05 267.635 139.803 261.569 137.528C255.502 135.253 261.569 122.155 261.569 122.155L270.531 125.05Z" fill="#FFB9B9"/>
<path opacity="0.15" d="M283.976 90.1685C283.976 90.1685 280.873 97.6826 278.322 103.818C272.945 102.784 267.016 101.612 262.396 100.647C262.741 99.7507 263.224 98.9234 263.775 98.1651C266.05 95.6145 264.741 94.9941 264.741 94.9941C262.81 91.1336 264.396 86.0324 264.396 86.0324C260.535 75.7609 266.326 62.9387 266.326 62.9387L283.976 90.1685Z" fill="black"/>
<path d="M267.291 62.9387C267.291 62.9387 261.5 75.7609 265.361 86.0323C265.361 86.0323 263.775 91.1336 265.706 94.994C265.706 94.994 267.016 95.6145 264.74 98.1651C262.465 100.716 260.604 109.677 262.19 111.608C263.775 113.538 259.914 117.054 260.88 118.984C261.845 120.914 259.294 123.465 259.294 123.465C259.294 123.465 268.877 125.395 270.532 128.29C270.532 128.29 272.462 126.015 271.497 123.465C270.532 120.914 271.152 119.949 272.117 118.363C273.083 116.778 275.978 113.262 276.254 111.608C276.53 109.953 284.872 90.1685 284.872 90.1685L280.942 53.977L267.291 62.9387Z" fill="#D0CDE1"/>
<path d="M233.992 53.977L233.372 54.1149C231.648 54.4596 230.407 55.9072 230.407 57.6996C230.407 60.9396 230.614 66.5923 231.372 74.52C232.682 87.3421 237.164 106.575 238.129 108.437C239.646 111.814 241.369 115.123 243.231 118.363C246.126 123.189 246.747 121.534 246.126 123.809C245.713 125.05 246.126 126.429 247.091 127.325C247.091 127.325 252.883 120.914 258.605 124.43C259.018 123.534 259.225 122.569 259.225 121.534C259.225 119.949 260.191 118.363 258.605 117.398C257.019 116.433 259.57 112.297 257.019 110.022C254.468 107.747 254.124 108.092 254.468 105.886C254.606 104.369 254.399 102.853 253.848 101.405L233.992 53.977Z" fill="#D0CDE1"/>
<path d="M253.089 11.0298C253.089 11.0298 247.918 24.7481 235.232 30.4698L233.164 18.2681L253.089 11.0298Z" fill="#2F2E41"/>
<path d="M260.604 25.6443C261.594 25.6443 262.397 24.1319 262.397 22.2664C262.397 20.4008 261.594 18.8885 260.604 18.8885C259.614 18.8885 258.812 20.4008 258.812 22.2664C258.812 24.1319 259.614 25.6443 260.604 25.6443Z" fill="#FFB9B9"/>
</g>
<defs>
<clipPath id="clip0">
<rect width="628" height="486" fill="white"/>
</clipPath>
</defs>
</svg>
