<?xml version="1.0"?>
<svg xmlns="http://www.w3.org/2000/svg" xmlns:xlink="http://www.w3.org/1999/xlink" version="1.1" id="Capa_1" x="0px" y="0px" viewBox="0 0 512.002 512.002" style="enable-background:new 0 0 512.002 512.002;" xml:space="preserve" width="512px" height="512px"><g><g>
	<g>
		<path d="M510.861,222.689L423.992,83.694c-0.924-1.479-2.334-2.589-3.988-3.141L258.373,26.675c-1.539-0.513-3.204-0.513-4.743,0    L91.999,80.554c-1.654,0.552-3.064,1.662-3.988,3.141L1.141,222.689c-2.195,3.512-1.128,8.139,2.384,10.334l27.403,17.13v220.559    h-9.236c-4.142,0-7.5,3.358-7.5,7.5c0,4.142,3.358,7.5,7.5,7.5H490.31c4.142,0,7.5-3.358,7.5-7.5c0-4.142-3.358-7.5-7.5-7.5    h-9.236V250.153l27.403-17.13C511.989,230.828,513.056,226.201,510.861,222.689z M176.298,470.712l79.703-66.419l79.703,66.419    H176.298z M163.083,462.198V326.86l81.203,67.669L163.083,462.198z M348.918,462.199l-81.202-67.67l33.256-27.713    c3.182-2.652,3.612-7.381,0.96-10.563c-2.652-3.183-7.382-3.612-10.563-0.96L256,384.767l-79.703-66.419h159.406l-17.561,14.634    c-3.182,2.651-3.612,7.381-0.96,10.563c1.483,1.78,3.617,2.699,5.766,2.699c1.693,0,3.396-0.57,4.797-1.738l21.173-17.644V462.199    z M356.375,303.348H146.346v-18.473h219.31v18.473h-9.271C356.382,303.348,356.378,303.348,356.375,303.348z M478.504,234.069    l-76.52-122.427c-0.924-1.479-2.334-2.589-3.988-3.14l-139.624-46.54c-1.539-0.513-3.204-0.513-4.743,0L161.58,92.645    c-3.93,1.31-6.053,5.558-4.744,9.487c1.31,3.93,5.557,6.054,9.487,4.744l89.678-29.892l134.693,44.896l75.38,120.603v228.229    H363.919V318.348h9.237c4.142,0,7.5-3.358,7.5-7.5v-33.473c0-4.142-3.358-7.5-7.5-7.5h-234.31c-4.142,0-7.5,3.358-7.5,7.5v33.473    c0,4.142,3.358,7.5,7.5,7.5h9.236v152.364H45.928V242.483l75.38-120.603l14.265-4.755c3.93-1.31,6.053-5.557,4.744-9.487    c-1.31-3.93-5.558-6.053-9.487-4.744l-16.824,5.608c-1.654,0.551-3.064,1.662-3.988,3.14l-76.52,122.427l-15.662-9.791    L99.301,93.931l156.7-52.235l156.7,52.235l81.465,130.348L478.504,234.069z" data-original="#000000" class="active-path" data-old_color="#000000" fill="#476458"/>
	</g>
</g><g>
	<g>
		<path d="M314.578,127.616H197.424c-4.142,0-7.5,3.358-7.5,7.5v100.418c0,4.142,3.358,7.5,7.5,7.5h117.154    c4.142,0,7.5-3.358,7.5-7.5V135.116C322.078,130.974,318.72,127.616,314.578,127.616z M307.078,228.034h-43.577v-59.445    c0-4.143-3.358-7.5-7.5-7.5c-4.142,0-7.5,3.357-7.5,7.5v59.445h-43.577v-85.418h102.154V228.034z" data-original="#000000" class="active-path" data-old_color="#000000" fill="#476458"/>
	</g>
</g></g> </svg>
