<svg xmlns="http://www.w3.org/2000/svg" xmlns:xlink="http://www.w3.org/1999/xlink" version="1.1" style="enable-background:new 0 0 477.867 477.867;" xml:space="preserve" width="477.867" height="477.867"><rect id="backgroundrect" width="100%" height="100%" x="0" y="0" fill="none" stroke="none"/>

















<g class="currentLayer" style=""><title>Layer 1</title><g id="svg_1" class="" fill="#476458" fill-opacity="1">
	<g id="svg_2" fill="#476458" fill-opacity="1">
		<path d="M426.667,51.2h-51.2V17.067C375.467,7.641,367.826,0,358.4,0s-17.067,7.641-17.067,17.067V51.2h-204.8V17.067    C136.533,7.641,128.892,0,119.467,0S102.4,7.641,102.4,17.067V51.2H51.2C22.923,51.2,0,74.123,0,102.4v324.267    c0,28.277,22.923,51.2,51.2,51.2h375.467c28.277,0,51.2-22.923,51.2-51.2V102.4C477.867,74.123,454.944,51.2,426.667,51.2z     M443.733,426.667c0,9.426-7.641,17.067-17.067,17.067H51.2c-9.426,0-17.067-7.641-17.067-17.067V204.8h409.6V426.667z     M443.733,170.667h-409.6V102.4c0-9.426,7.641-17.067,17.067-17.067h51.2v34.133c0,9.426,7.641,17.067,17.067,17.067    s17.067-7.641,17.067-17.067V85.333h204.8v34.133c0,9.426,7.641,17.067,17.067,17.067s17.067-7.641,17.067-17.067V85.333h51.2    c9.426,0,17.067,7.641,17.067,17.067V170.667z" id="svg_3" fill="#476458" fill-opacity="1"/>
	</g>
</g><g id="svg_4" class="selected" fill-opacity="1" fill="#476458">
	<g id="svg_5" fill="#476458">
		<path d="M353.5294505763054,243.934 c-6.614,-6.388 -17.099,-6.388 -23.712,0 L205.3494505763054,368.401 l-56.201,-56.201 c-6.78,-6.548 -17.584,-6.36 -24.132,0.41900000000000004 c-6.388,6.614 -6.388,17.099 0,23.713 l68.267,68.267 c6.665,6.662 17.468,6.662 24.132,0 l136.533,-136.533 C360.4964505763054,261.286 360.3084505763054,250.482 353.5294505763054,243.934 z" id="svg_6" fill="#476458"/>
	</g>
</g><g id="svg_7">
</g><g id="svg_8">
</g><g id="svg_9">
</g><g id="svg_10">
</g><g id="svg_11">
</g><g id="svg_12">
</g><g id="svg_13">
</g><g id="svg_14">
</g><g id="svg_15">
</g><g id="svg_16">
</g><g id="svg_17">
</g><g id="svg_18">
</g><g id="svg_19">
</g><g id="svg_20">
</g><g id="svg_21">
</g></g></svg>