<svg width="91" height="88" viewBox="0 0 91 88" fill="none" xmlns="http://www.w3.org/2000/svg">
<path d="M45 0.125999C20.187 0.125999 0 16.598 0 36.844C0 43.229 2.035 49.514 5.887 55.024C8.602 58.908 14.52 63.692 14.772 63.895C14.948 64.038 15.193 64.625 15.169 64.856C15.163 64.917 14.528 70.942 13.56 74.403C11.887 80.387 10.795 82.62 10.788 82.635C9.642 84.883 10.549 86.305 10.992 86.813C11.34 87.21 12.122 87.876 13.466 87.876C13.985 87.876 14.536 87.772 15.108 87.571C15.302 87.502 19.964 85.821 27.729 80.994C31.581 78.6 37.176 73.89 37.411 73.692C37.686 73.461 38.453 73.215 38.946 73.215C38.976 73.219 42.18 73.555 45.002 73.555C69.815 73.555 90.002 57.086 90.002 36.844C90 16.598 69.813 0.125999 45 0.125999ZM45 68.762C42.46 68.762 39.483 68.453 39.451 68.45C37.766 68.267 35.607 68.943 34.294 70.049C33.346 70.842 28.452 74.901 25.197 76.922C21.324 79.331 18.284 80.905 16.247 81.866C16.765 80.417 17.415 78.408 18.175 75.693C19.188 72.077 19.819 66.457 19.938 65.345C20.128 63.5 19.218 61.32 17.774 60.158C17.545 59.97 12.097 55.54 9.815 52.274C6.53 47.577 4.793 42.24 4.793 36.842C4.792 19.241 22.83 4.919 45 4.919C67.17 4.919 85.208 19.241 85.208 36.844C85.208 54.443 67.17 68.762 45 68.762Z" fill="black"/>
</svg>
