<svg width="35" height="35" viewBox="0 0 35 35" fill="none" xmlns="http://www.w3.org/2000/svg">
<path d="M22.754 5.85519C19.7385 5.85149 16.8294 6.97031 14.5935 8.99365C12.016 5.69153 7.35711 4.87696 3.8125 7.10921C0.267613 9.34116 -1.01145 13.8945 0.852498 17.646C2.71645 21.3972 7.11803 23.128 11.0378 21.6511C11.2031 22.1939 11.4075 22.7238 11.6488 23.2373C9.26489 24.8066 8.20641 27.7632 9.05229 30.489C9.89816 33.2145 12.4446 35.0525 15.2979 34.9967C18.1515 34.941 20.6239 33.005 21.3628 30.2482C25.8734 30.7679 30.3009 28.7474 32.8641 24.9996C35.4271 21.2518 35.7043 16.3928 33.5839 12.3777C31.4635 8.36265 27.2945 5.85177 22.754 5.85519ZM1.18692 14.0157C1.18208 11.0073 3.10466 8.33419 5.95822 7.38158C8.81178 6.42897 11.9548 7.41118 13.7581 9.81903C11.669 12.0686 10.5098 15.0261 10.5132 18.096C10.5149 18.9068 10.5969 19.7151 10.7574 20.5098C8.60515 21.3725 6.16457 21.1092 4.24569 19.8071C2.32681 18.5052 1.18066 16.3347 1.18692 14.0157ZM15.1764 33.8341C12.279 33.8341 9.93032 31.4854 9.93032 28.588C9.93032 25.6909 12.279 23.342 15.1764 23.342C18.0738 23.342 20.4224 25.6909 20.4224 28.588C20.4193 31.484 18.0723 33.8309 15.1764 33.8341ZM22.754 29.1709C22.3558 29.1681 21.9582 29.1439 21.5626 29.0981C21.576 28.9296 21.5882 28.7602 21.5882 28.588C21.5882 26.4383 20.5104 24.4315 18.7184 23.2438C16.9262 22.0561 14.6581 21.8458 12.678 22.6834C12.3883 22.0544 12.1594 21.3992 11.9949 20.7267C11.7855 19.8654 11.6793 18.9822 11.679 18.096C11.679 11.9796 16.6376 7.02097 22.754 7.02097C28.8707 7.02097 33.829 11.9796 33.829 18.096C33.829 24.2126 28.8707 29.1709 22.754 29.1709Z" fill="#476458"/>
<path d="M5.26689 26.2565C5.26689 25.9346 5.0059 25.6736 4.684 25.6736C4.3621 25.6736 4.10111 25.9346 4.10111 26.2565C4.10111 27.2225 3.31813 28.0052 2.35242 28.0052C2.03052 28.0052 1.76953 28.2662 1.76953 28.5881C1.76953 28.91 2.03052 29.1709 2.35242 29.1709C3.31813 29.1709 4.10111 29.9539 4.10111 30.9196C4.10111 31.2415 4.3621 31.5025 4.684 31.5025C5.0059 31.5025 5.26689 31.2415 5.26689 30.9196C5.26689 29.9539 6.04987 29.1709 7.01557 29.1709C7.33747 29.1709 7.59847 28.91 7.59847 28.5881C7.59847 28.2662 7.33747 28.0052 7.01557 28.0052C6.04987 28.0052 5.26689 27.2225 5.26689 26.2565ZM4.684 29.1892C4.51437 28.9603 4.31172 28.758 4.08317 28.5881C4.31172 28.4184 4.51437 28.2158 4.684 27.9872C4.85391 28.2158 5.05628 28.4184 5.28511 28.5881C5.05628 28.758 4.85391 28.9603 4.684 29.1892Z" fill="#476458"/>
<path d="M28.583 5.27229C28.583 5.59419 28.844 5.85518 29.1659 5.85518C29.4878 5.85518 29.7488 5.59419 29.7488 5.27229C29.7488 4.30658 30.5318 3.52361 31.4975 3.52361C31.8194 3.52361 32.0804 3.26261 32.0804 2.94071C32.0804 2.61881 31.8194 2.35782 31.4975 2.35782C30.5318 2.35782 29.7488 1.57513 29.7488 0.609139C29.7488 0.287238 29.4878 0.0262451 29.1659 0.0262451C28.844 0.0262451 28.583 0.287238 28.583 0.609139C28.583 1.57513 27.8001 2.35782 26.8344 2.35782C26.5125 2.35782 26.2515 2.61881 26.2515 2.94071C26.2515 3.26261 26.5125 3.52361 26.8344 3.52361C27.8001 3.52361 28.583 4.30658 28.583 5.27229ZM29.1659 2.33989C29.3358 2.56844 29.5382 2.77108 29.767 2.94071C29.5382 3.11063 29.3358 3.31299 29.1659 3.54182C28.9963 3.31299 28.7937 3.11063 28.5651 2.94071C28.7937 2.77108 28.9963 2.56844 29.1659 2.33989Z" fill="#476458"/>
<path d="M30.3315 18.096C29.3658 18.096 28.5828 17.3133 28.5828 16.3473C28.5828 16.0254 28.3218 15.7644 27.9999 15.7644C27.678 15.7644 27.417 16.0254 27.417 16.3473C27.417 17.3133 26.634 18.096 25.6683 18.096C25.3464 18.096 25.0854 18.357 25.0854 18.6789C25.0854 19.0008 25.3464 19.2618 25.6683 19.2618C26.634 19.2618 27.417 20.0447 27.417 21.0104C27.417 21.3323 27.678 21.5933 27.9999 21.5933C28.3218 21.5933 28.5828 21.3323 28.5828 21.0104C28.5828 20.0447 29.3658 19.2618 30.3315 19.2618C30.6534 19.2618 30.9144 19.0008 30.9144 18.6789C30.9144 18.357 30.6534 18.096 30.3315 18.096ZM27.9999 19.28C27.8303 19.0511 27.6276 18.8488 27.3991 18.6789C27.6276 18.5092 27.8303 18.3066 27.9999 18.078C28.1698 18.3066 28.3722 18.5092 28.601 18.6789C28.3722 18.8488 28.1698 19.0511 27.9999 19.28Z" fill="#476458"/>
<path d="M23.9198 13.4328C23.9198 13.1109 23.6588 12.8499 23.3369 12.8499C22.3712 12.8499 21.5882 12.0672 21.5882 11.1012C21.5882 10.7793 21.3272 10.5183 21.0053 10.5183C20.6834 10.5183 20.4224 10.7793 20.4224 11.1012C20.4224 12.0672 19.6394 12.8499 18.6737 12.8499C18.3518 12.8499 18.0908 13.1109 18.0908 13.4328C18.0908 13.7547 18.3518 14.0157 18.6737 14.0157C19.6394 14.0157 20.4224 14.7986 20.4224 15.7643C20.4224 16.0862 20.6834 16.3472 21.0053 16.3472C21.3272 16.3472 21.5882 16.0862 21.5882 15.7643C21.5882 14.7986 22.3712 14.0157 23.3369 14.0157C23.6588 14.0157 23.9198 13.7547 23.9198 13.4328ZM21.0053 14.0339C20.8357 13.8051 20.633 13.6027 20.4045 13.4328C20.633 13.2631 20.8357 13.0605 21.0053 12.832C21.1752 13.0605 21.3776 13.2631 21.6064 13.4328C21.3776 13.6027 21.1752 13.8051 21.0053 14.0339Z" fill="#476458"/>
<path d="M7.01562 23.9249H8.18141V25.0907H7.01562V23.9249Z" fill="#476458"/>
<path d="M1.18701 32.0853H2.3528V33.2511H1.18701V32.0853Z" fill="#476458"/>
<path d="M34.4119 30.3367C34.4119 29.371 33.6289 28.588 32.6632 28.588C31.6975 28.588 30.9146 29.371 30.9146 30.3367C30.9146 31.3027 31.6975 32.0854 32.6632 32.0854C33.6289 32.0854 34.4119 31.3027 34.4119 30.3367ZM32.0803 30.3367C32.0803 30.0148 32.3413 29.7538 32.6632 29.7538C32.9851 29.7538 33.2461 30.0148 33.2461 30.3367C33.2461 30.6586 32.9851 30.9196 32.6632 30.9196C32.3413 30.9196 32.0803 30.6586 32.0803 30.3367Z" fill="#476458"/>
<path d="M17.5079 4.10648C17.5079 2.81887 16.4639 1.7749 15.1763 1.7749C13.8887 1.7749 12.8447 2.81887 12.8447 4.10648C12.8447 5.39436 13.8887 6.43805 15.1763 6.43805C16.4639 6.43805 17.5079 5.39436 17.5079 4.10648ZM14.0105 4.10648C14.0105 3.46268 14.5325 2.94069 15.1763 2.94069C15.8201 2.94069 16.3421 3.46268 16.3421 4.10648C16.3421 4.75056 15.8201 5.27226 15.1763 5.27226C14.5325 5.27226 14.0105 4.75056 14.0105 4.10648Z" fill="#476458"/>
<path d="M21.0054 2.94067H22.1712V4.10646H21.0054V2.94067Z" fill="#476458"/>
<path d="M23.3369 24.5078H24.5027V25.6736H23.3369V24.5078Z" fill="#476458"/>
<path d="M26.834 32.0853H27.9998V33.2511H26.834V32.0853Z" fill="#476458"/>
<path d="M7.01562 15.1815H8.18141V16.3473H7.01562V15.1815Z" fill="#476458"/>
<path d="M2.35271 15.2342L3.5185 15.1292C3.51565 15.1013 3.2854 12.3271 4.82119 10.6408C5.70236 9.74594 6.92791 9.27604 8.18165 9.3526V8.18681C6.59833 8.10313 5.05685 8.7125 3.95852 9.85637C2.07692 11.9176 2.34275 15.1001 2.35271 15.2342Z" fill="#476458"/>
<path d="M23.3369 8.18677V9.35255C23.6284 9.35255 30.4221 9.47693 31.504 17.5902L32.6592 17.4362C31.4391 8.29293 23.418 8.18677 23.3369 8.18677Z" fill="#476458"/>
</svg>
