<svg width="31" height="31" viewBox="0 0 31 31" fill="none" xmlns="http://www.w3.org/2000/svg">
<path d="M30.581 0H0.418892C0.187649 0 0 0.187257 0 0.418892V3.77027C0 4.0019 0.187649 4.18916 0.418892 4.18916H1.67565V8.79729V30.581C1.67565 30.8127 1.8633 30.9999 2.09454 30.9999H5.44591H25.554H28.9054C29.137 30.9999 29.3243 30.8127 29.3243 30.581V8.79729V4.18916H30.581C30.8127 4.18916 30.9999 4.0019 30.9999 3.77027V0.418892C31 0.187257 30.8127 0 30.581 0ZM5.02702 28.9054V30.1621H2.51351V9.21618H5.02702V28.9054ZM25.1351 30.1621H5.86489V29.3243H25.1351V30.1621ZM11.3108 26.8108H10.969C11.1424 26.3244 11.6032 25.9729 12.1487 25.9729C12.8415 25.9729 13.4054 26.5368 13.4054 27.2297C13.4054 27.9225 12.8415 28.4864 12.1487 28.4864C11.6032 28.4864 11.1424 28.1349 10.969 27.6485H11.3108C11.542 27.6485 11.7297 27.4613 11.7297 27.2297C11.7297 26.998 11.542 26.8108 11.3108 26.8108ZM19.1475 26.9335C19.2292 27.0152 19.3364 27.0563 19.4437 27.0563C19.551 27.0563 19.6582 27.0152 19.7399 26.9335L19.9825 26.691C20.0621 26.8577 20.1082 27.0395 20.1082 27.2297C20.1082 27.5657 19.9775 27.8811 19.7403 28.1183C19.2502 28.6084 18.453 28.6084 17.9629 28.1183C17.7254 27.8811 17.5947 27.5657 17.5947 27.2297C17.5947 26.8938 17.7254 26.5783 17.9625 26.3412C18.2076 26.0961 18.5293 25.9738 18.8514 25.9738C19.0362 25.9738 19.2192 26.0191 19.3893 26.0995L19.1476 26.3412C18.9837 26.505 18.9837 26.7698 19.1475 26.9335ZM17.1757 25.9855C17.1179 25.908 17.0597 25.8306 16.9909 25.7606C17.2075 25.6986 17.4204 25.6282 17.6252 25.541C17.5372 25.6047 17.4497 25.6696 17.3701 25.7488C17.2967 25.8222 17.2364 25.9039 17.1757 25.9855ZM17.1857 28.4865H17.1652C17.1686 28.4823 17.1724 28.4786 17.1757 28.4739C17.179 28.4781 17.1828 28.4819 17.1857 28.4865ZM15.5 25.1351C12.9592 25.1351 10.8918 23.0677 10.8918 20.527C10.8918 18.8257 11.4812 18.0876 11.88 17.7826C12.0736 18.3453 12.3693 18.7579 12.7623 19.0134C13.3194 19.3749 13.8535 19.2731 13.9126 19.261C14.0094 19.2396 14.0961 19.1852 14.1564 19.1064C15.5879 17.241 15.8744 15.344 15.9196 14.399C17.14 14.8611 20.1081 16.4091 20.1081 20.527C20.1081 23.0677 18.0407 25.1351 15.5 25.1351ZM15.7962 28.1183L16.0379 28.3599C15.5712 28.5815 14.9969 28.5041 14.611 28.1183C14.3739 27.8811 14.2432 27.5657 14.2432 27.2297C14.2432 26.8938 14.3739 26.5783 14.611 26.3412C14.8561 26.0961 15.1778 25.9738 15.5 25.9738C15.8217 25.9738 16.1438 26.0961 16.3889 26.3412C16.626 26.5783 16.7567 26.8938 16.7567 27.2297C16.7567 27.4199 16.7106 27.6017 16.631 27.7685L16.3885 27.5259C16.2247 27.3622 15.9595 27.3622 15.7962 27.5259C15.6324 27.6897 15.6324 27.9544 15.7962 28.1183ZM13.8239 25.9855C13.6979 25.8163 13.5487 25.6667 13.3782 25.5423C13.5818 25.6286 13.7938 25.6985 14.0091 25.7601C13.9399 25.8305 13.8821 25.908 13.8239 25.9855ZM13.8344 28.4865H13.8134C13.8168 28.4823 13.8209 28.4781 13.8238 28.4739C13.8272 28.4781 13.831 28.4822 13.8344 28.4865ZM25.1351 28.4865H20.5169C20.7909 28.1249 20.9459 27.6914 20.9459 27.2297C20.9459 26.6701 20.7281 26.1443 20.3326 25.7489C19.7574 25.1737 18.9296 25.0124 18.2036 25.2478C19.8395 24.3069 20.9459 22.5454 20.9459 20.5271C20.9459 14.7099 15.647 13.4285 15.5934 13.4159C15.4635 13.387 15.3265 13.421 15.2255 13.5081C15.1246 13.5957 15.0713 13.7264 15.0822 13.86C15.0844 13.8835 15.2523 16.1879 13.6043 18.4459C13.3425 18.4274 12.7983 18.2439 12.5574 17.0861C12.5118 16.8774 12.312 16.7363 12.1021 16.7593C11.6698 16.8058 10.054 17.5825 10.054 20.5271C10.054 22.5458 11.1608 24.3078 12.7971 25.2483C12.5918 25.1808 12.3765 25.1352 12.1486 25.1352C10.9937 25.1351 10.054 26.0748 10.054 27.2297C10.054 27.7031 10.2178 28.1355 10.4839 28.4865H5.86489V9.21618H25.1351V28.4865ZM28.4865 30.1621H25.973V28.9054V9.21618H28.4865V30.1621ZM28.4865 5.86489H28.0676C27.836 5.86489 27.6487 6.05214 27.6487 6.28378C27.6487 6.51541 27.836 6.70267 28.0676 6.70267H28.4865V8.37832H25.5541H5.44599H2.51351V6.70267H2.9324C3.16365 6.70267 3.3513 6.51541 3.3513 6.28378C3.3513 6.05214 3.16365 5.86489 2.9324 5.86489H2.51351V4.18916H28.4865V5.86489ZM30.1621 3.35137H28.9054H2.09462H0.837863V0.837863H30.1621V3.35137Z" fill="#476458"/>
<path d="M18.8517 20.108C18.6205 20.108 18.4328 20.2953 18.4328 20.5269C18.4328 22.1435 17.1174 23.4593 15.5004 23.4593C15.2692 23.4593 15.0815 23.6466 15.0815 23.8782C15.0815 24.1099 15.2692 24.2971 15.5004 24.2971C17.5791 24.2971 19.2707 22.6059 19.2707 20.5268C19.2706 20.2953 19.083 20.108 18.8517 20.108Z" fill="#476458"/>
<path d="M27.2294 25.1351C26.9982 25.1351 26.8105 25.3224 26.8105 25.554V28.9054C26.8105 29.137 26.9982 29.3243 27.2294 29.3243C27.4607 29.3243 27.6483 29.137 27.6483 28.9054V25.554C27.6483 25.3224 27.4607 25.1351 27.2294 25.1351Z" fill="#476458"/>
<path d="M3.77046 25.1351C3.53921 25.1351 3.35156 25.3224 3.35156 25.554V28.9054C3.35156 29.137 3.53921 29.3243 3.77046 29.3243C4.0017 29.3243 4.18935 29.137 4.18935 28.9054V25.554C4.18935 25.3224 4.0017 25.1351 3.77046 25.1351Z" fill="#476458"/>
<path d="M16.3378 1.67566H15.4999C15.2687 1.67566 15.0811 1.86292 15.0811 2.09455C15.0811 2.32619 15.2687 2.51352 15.4999 2.51352H16.3378C16.5691 2.51352 16.7567 2.32627 16.7567 2.09463C16.7567 1.86292 16.5691 1.67566 16.3378 1.67566Z" fill="#476458"/>
<path d="M27.2299 1.67566H26.392C26.1608 1.67566 25.9731 1.86292 25.9731 2.09455C25.9731 2.32619 26.1608 2.51352 26.392 2.51352H27.2299C27.4611 2.51352 27.6488 2.32627 27.6488 2.09463C27.6488 1.86292 27.4611 1.67566 27.2299 1.67566Z" fill="#476458"/>
<path d="M22.2027 5.86484H16.6797C16.5062 5.37848 16.0454 5.02698 15.5 5.02698C14.9545 5.02698 14.4937 5.37848 14.3203 5.86484H8.79731C8.56607 5.86484 8.37842 6.0521 8.37842 6.28373C8.37842 6.51537 8.56607 6.70263 8.79731 6.70263H14.3204C14.4938 7.18899 14.9545 7.54049 15.5 7.54049C16.0454 7.54049 16.5062 7.18899 16.6797 6.70263H22.2027C22.434 6.70263 22.6216 6.51537 22.6216 6.28373C22.6216 6.0521 22.434 5.86484 22.2027 5.86484ZM15.5 6.70263C15.2691 6.70263 15.0811 6.51498 15.0811 6.28373C15.0811 6.05249 15.2692 5.86484 15.5 5.86484C15.7308 5.86484 15.9189 6.05249 15.9189 6.28373C15.919 6.51498 15.7308 6.70263 15.5 6.70263Z" fill="#476458"/>
</svg>
