<svg width="36" height="36" viewBox="0 0 36 36" fill="none" xmlns="http://www.w3.org/2000/svg">
<g clip-path="url(#clip0)">
<path d="M5.11084 6.39331C4.81943 6.39331 4.5835 6.62924 4.5835 6.92065V10.3371H3.34644V6.724C3.34644 6.43259 3.1105 6.19666 2.81909 6.19666C2.52768 6.19666 2.29175 6.43259 2.29175 6.724V10.3371H1.05469V6.724C1.05469 6.43259 0.818756 6.19666 0.527344 6.19666C0.235931 6.19666 0 6.43259 0 6.724V13.5624C0 14.218 0.364197 14.8907 0.885223 15.198C1.03931 15.2887 1.30023 15.8567 1.30023 16.1709V20.1334C1.30023 23.3878 1.27139 26.5752 0.923126 29.7928C0.707794 31.7802 0.588867 33.4612 0.588867 33.8633C0.588867 35.1541 1.56857 36.1652 2.81909 36.1652C4.06961 36.1652 5.04932 35.1541 5.04932 33.8633C5.04932 33.4612 4.93039 31.7805 4.71506 29.7928C4.36679 26.5749 4.33795 23.3875 4.33795 20.1336V16.2005C4.33795 15.8344 4.62634 15.3054 4.94302 15.0909C5.45554 14.7437 5.63818 14.0739 5.63818 13.5627V6.92065C5.63818 6.62924 5.40198 6.39331 5.11084 6.39331ZM2.81909 35.1105C2.14893 35.1105 1.64355 34.5743 1.64355 33.863C1.64355 33.5397 1.75616 31.8959 1.9715 29.9062C2.32553 26.6364 2.35492 23.4177 2.35492 20.1334V16.7062L3.28299 16.7202V20.1336C3.28299 23.4174 3.31238 26.6359 3.66641 29.9062C3.88202 31.8959 3.99463 33.5397 3.99463 33.863C3.99463 34.5743 3.48926 35.1105 2.81909 35.1105ZM4.5835 13.5624C4.5835 13.8464 4.4838 14.1282 4.35168 14.2178C3.88916 14.5306 3.51315 15.0975 3.3588 15.6663L2.28049 15.6504C2.14783 15.1321 1.84406 14.5391 1.42108 14.2895C1.2225 14.1722 1.05469 13.8393 1.05469 13.5624V11.3918H4.5835V13.5624Z" fill="#476458"/>
<path d="M25.4252 29.7052C23.4331 31.3611 20.9068 32.273 18.3115 32.273C12.1713 32.273 7.17578 27.2775 7.17578 21.1372C7.17578 18.5425 8.08765 16.0165 9.74329 14.0244C9.9295 13.8003 9.89874 13.468 9.6749 13.2817C9.45077 13.0955 9.11816 13.1263 8.93222 13.3501C7.11948 15.5315 6.12109 18.297 6.12109 21.1372C6.12109 27.8592 11.5895 33.3277 18.3115 33.3277C21.1523 33.3277 23.9181 32.3293 26.0995 30.5163C26.3233 30.33 26.3541 29.9974 26.1678 29.7736C25.9816 29.5495 25.649 29.519 25.4252 29.7052Z" fill="#476458"/>
<path d="M18.3116 8.94678C15.489 8.94678 12.7369 9.9339 10.5624 11.7263C10.3377 11.9117 10.3059 12.244 10.491 12.4687C10.6764 12.6934 11.0085 12.7255 11.2334 12.5404C13.2195 10.9032 15.7331 10.0017 18.3116 10.0017C24.4519 10.0017 29.4474 14.9972 29.4474 21.1375C29.4474 23.7182 28.5443 26.2338 26.9049 28.2206C26.7195 28.445 26.751 28.7777 26.9757 28.963C27.074 29.0441 27.193 29.0836 27.3113 29.0836C27.4632 29.0836 27.614 29.0183 27.7181 28.8919C29.5133 26.7166 30.5021 23.9626 30.5021 21.1375C30.5021 14.4155 25.0333 8.94678 18.3116 8.94678Z" fill="#476458"/>
<path d="M18.3115 30.9892C23.7439 30.9892 28.1635 26.5697 28.1635 21.1372C28.1635 15.705 23.7439 11.2855 18.3115 11.2855C12.8793 11.2855 8.45947 15.705 8.45947 21.1372C8.45947 26.5697 12.8793 30.9892 18.3115 30.9892ZM18.3115 12.3402C23.1625 12.3402 27.1088 16.2865 27.1088 21.1372C27.1088 25.9883 23.1625 29.9345 18.3115 29.9345C13.4607 29.9345 9.51416 25.9883 9.51416 21.1372C9.51416 16.2865 13.4607 12.3402 18.3115 12.3402Z" fill="#476458"/>
<path d="M35.9998 6.52654C35.9996 6.33647 35.8675 6.16152 35.7021 6.06813C35.5368 5.97475 35.3341 5.97749 35.1712 6.07555C32.8979 7.44115 31.4858 9.93724 31.4858 12.5893V20.6956C31.4858 21.0398 31.6556 21.3784 31.9637 21.6492C32.2406 21.8928 32.6097 22.065 32.9814 22.1376V24.1505C32.9814 26.0319 32.6562 28.8928 32.4186 30.9818C32.2667 32.3172 32.1469 33.3719 32.1469 33.8344C32.1469 36.0987 33.6046 36.2745 34.0511 36.2745C34.9932 36.2745 35.9998 35.6337 35.9998 33.8322C35.9996 33.81 35.9998 6.52654 35.9998 6.52654ZM32.5405 20.6956V12.5893C32.5405 10.6335 33.4321 8.77654 34.9174 7.54469C34.924 11.4116 34.9295 16.8625 34.9339 21.0864L33.4994 21.1123C33.4799 21.1125 33.4604 21.1139 33.4411 21.1164C33.1994 21.1482 32.8638 21.0362 32.66 20.8571C32.5617 20.7709 32.5405 20.7069 32.5405 20.6956ZM34.0511 35.2198C33.841 35.2198 33.2016 35.2198 33.2016 33.8344C33.2016 33.4318 33.3244 32.3515 33.4667 31.1008C33.707 28.9867 34.036 26.0915 34.036 24.1503V22.1573L34.9166 22.1417C34.935 31.5701 34.9452 33.8149 34.9452 33.8344C34.9452 34.4667 34.79 35.2198 34.0511 35.2198Z" fill="#476458"/>
</g>
<defs>
<clipPath id="clip0">
<rect width="36" height="36" fill="white"/>
</clipPath>
</defs>
</svg>
