<svg width="36" height="32" viewBox="0 0 36 32" fill="none" xmlns="http://www.w3.org/2000/svg">
<path d="M34.555 17.2557C35.353 17.2557 36 16.6087 36 15.8107V11.0699C36 10.2719 35.353 9.62495 34.555 9.62495H32.9862V5.67541C32.9862 5.51139 32.9277 5.35279 32.8211 5.22816L29.2087 0.99651C28.9617 0.707691 28.5274 0.673803 28.2386 0.920736C28.2114 0.943958 28.1862 0.969331 28.1628 0.99651L24.5505 5.22816C24.4439 5.35279 24.3853 5.51139 24.3853 5.67541V9.62495H22.3211V5.67541C22.3211 5.51139 22.2625 5.35279 22.156 5.22816L18.5229 0.99651C18.2759 0.707691 17.8416 0.673803 17.5528 0.920736C17.5257 0.943958 17.5004 0.969331 17.4771 0.99651L13.8716 5.22816C13.765 5.35279 13.7064 5.51139 13.7064 5.67541V9.62495H11.6422V5.67541C11.6422 5.51139 11.5836 5.35279 11.4771 5.22816L7.83716 0.99651C7.59014 0.707691 7.15579 0.673803 6.86706 0.920736C6.83988 0.943958 6.81459 0.969331 6.79128 0.99651L3.1789 5.22816C3.07233 5.35279 3.01376 5.51139 3.01376 5.67541V9.62495H1.44495C0.646961 9.62495 0 10.2719 0 11.0699V15.8107C0 16.6087 0.646961 17.2557 1.44495 17.2557H3.01376V19.547H1.44495C0.646961 19.547 0 20.1939 0 20.9919V25.7327C0 26.5307 0.646961 27.1777 1.44495 27.1777H3.01376V30.5561C3.01376 30.9361 3.32185 31.2442 3.70183 31.2442H10.9197C11.2997 31.2442 11.6078 30.9361 11.6078 30.5561V27.1708H13.672V30.5493C13.672 30.9292 13.9801 31.2373 14.3601 31.2373H21.6124C21.9924 31.2373 22.3005 30.9292 22.3005 30.5493V27.1708H24.3647V30.5493C24.3647 30.9292 24.6728 31.2373 25.0528 31.2373H32.2982C32.6782 31.2373 32.9862 30.9292 32.9862 30.5493V27.1708H34.555C35.353 27.1708 36 26.5239 36 25.7259V20.985C36 20.187 35.353 19.5401 34.555 19.5401H32.9862V17.2557H34.555ZM25.7683 5.93L28.6927 2.48963L31.617 5.93V9.62495H25.7683V5.93ZM15.0826 5.93L18.0069 2.48963L20.9312 5.93V9.62495H15.0757L15.0826 5.93ZM4.39679 5.93L7.3211 2.48963L10.2454 5.93V9.62495H4.38991L4.39679 5.93ZM4.38991 29.8681V27.1708H10.2317L10.2385 29.8681H4.38991ZM15.0757 29.8681V27.1708H20.9174L20.9243 29.8681H15.0757ZM31.6101 29.8681H25.7683V27.1708H31.6101V29.8681ZM34.555 20.9231C34.5931 20.9231 34.6239 20.9539 34.6239 20.9919V25.7327C34.6239 25.7708 34.5931 25.8016 34.555 25.8016H1.44495C1.40694 25.8016 1.37615 25.7708 1.37615 25.7327V20.985C1.37615 20.947 1.40694 20.9162 1.44495 20.9162L34.555 20.9231ZM4.38991 19.547V17.2557H10.2317V19.547H4.38991ZM11.6078 19.547V17.2557H13.672V19.547H11.6078ZM15.0482 19.547V17.2557H20.8899V19.547H15.0482ZM22.2661 19.547V17.2557H24.3303V19.547H22.2661ZM25.7064 19.547V17.2557H31.5482V19.547H25.7064ZM1.44495 15.8795C1.40694 15.8795 1.37615 15.8487 1.37615 15.8107V11.0699C1.37615 11.0319 1.40694 11.0011 1.44495 11.0011H34.555C34.5931 11.0011 34.6239 11.0319 34.6239 11.0699L34.5688 15.8107C34.5688 15.8487 34.538 15.8795 34.5 15.8795H1.44495Z" fill="#476458"/>
<path d="M7.31416 14.4414C7.86898 14.4414 8.31874 13.9917 8.31874 13.4368C8.31874 12.882 7.86898 12.4323 7.31416 12.4323C6.75934 12.4323 6.30957 12.882 6.30957 13.4368C6.30957 13.9917 6.75934 14.4414 7.31416 14.4414Z" fill="#476458"/>
<path d="M7.31416 24.3634C7.86898 24.3634 8.31874 23.9137 8.31874 23.3588C8.31874 22.804 7.86898 22.3542 7.31416 22.3542C6.75934 22.3542 6.30957 22.804 6.30957 23.3588C6.30957 23.9137 6.75934 24.3634 7.31416 24.3634Z" fill="#476458"/>
<path d="M17.9997 14.4414C18.5545 14.4414 19.0043 13.9917 19.0043 13.4368C19.0043 12.882 18.5545 12.4323 17.9997 12.4323C17.4449 12.4323 16.9951 12.882 16.9951 13.4368C16.9951 13.9917 17.4449 14.4414 17.9997 14.4414Z" fill="#476458"/>
<path d="M17.9997 24.3634C18.5545 24.3634 19.0043 23.9137 19.0043 23.3588C19.0043 22.804 18.5545 22.3542 17.9997 22.3542C17.4449 22.3542 16.9951 22.804 16.9951 23.3588C16.9951 23.9137 17.4449 24.3634 17.9997 24.3634Z" fill="#476458"/>
<path d="M28.6857 14.4414C29.2406 14.4414 29.6903 13.9917 29.6903 13.4368C29.6903 12.882 29.2406 12.4323 28.6857 12.4323C28.1309 12.4323 27.6812 12.882 27.6812 13.4368C27.6812 13.9917 28.1309 14.4414 28.6857 14.4414Z" fill="#476458"/>
<path d="M28.6857 24.3634C29.2406 24.3634 29.6903 23.9137 29.6903 23.3588C29.6903 22.804 29.2406 22.3542 28.6857 22.3542C28.1309 22.3542 27.6812 22.804 27.6812 23.3588C27.6812 23.9137 28.1309 24.3634 28.6857 24.3634Z" fill="#476458"/>
</svg>
