<svg width="35" height="31" viewBox="0 0 35 31" fill="none" xmlns="http://www.w3.org/2000/svg">
<path d="M32.8125 0.916748H2.1875C0.981436 0.916748 0 1.89818 0 3.10425V23.5209C0 24.727 0.981436 25.7084 2.1875 25.7084H14.5833V27.2791L6.44287 28.6353C6.04618 28.7009 5.77787 29.0772 5.8435 29.4739C5.90331 29.8312 6.21243 30.0834 6.56243 30.0834C6.60181 30.0834 6.64118 30.0805 6.68199 30.0732L15.3708 28.625H19.6277L28.3164 30.0732C28.3572 30.0805 28.3981 30.0834 28.4375 30.0834C28.7889 30.0834 29.0981 29.831 29.155 29.4738C29.2221 29.0771 28.9523 28.7009 28.5556 28.6352L20.4167 27.279V25.7084H32.8125C34.0186 25.7084 35 24.7269 35 23.5209V3.10425C35 1.89818 34.0186 0.916748 32.8125 0.916748ZM18.9583 27.1667H16.0416V25.7084H18.9583V27.1667ZM33.5417 23.5209C33.5417 23.9234 33.215 24.25 32.8125 24.25H2.1875C1.785 24.25 1.45831 23.9234 1.45831 23.5209V3.10425C1.45831 2.70175 1.785 2.37506 2.1875 2.37506H32.8125C33.215 2.37506 33.5417 2.70175 33.5417 3.10425V23.5209Z" fill="#476458"/>
<path d="M17.4998 16.9584C16.6948 16.9584 16.0415 17.6117 16.0415 18.4167C16.0415 19.2217 16.6948 19.8751 17.4998 19.8751C18.3048 19.8751 18.9581 19.2218 18.9581 18.4168C18.9581 17.6118 18.3048 16.9584 17.4998 16.9584Z" fill="#476458"/>
<path d="M12.8598 13.0471C12.5754 13.3314 12.5754 13.7938 12.8598 14.0781C13.1441 14.3625 13.6065 14.3625 13.8908 14.0781C15.88 12.0889 19.1204 12.0889 21.1096 14.0781C21.2525 14.2196 21.4391 14.2911 21.6258 14.2911C21.8125 14.2911 21.9977 14.2211 22.1406 14.0781C22.425 13.7938 22.425 13.3314 22.1406 13.0471C19.5813 10.4892 15.4191 10.4892 12.8598 13.0471Z" fill="#476458"/>
<path d="M10.7973 10.9851C10.5129 11.2695 10.5129 11.7318 10.7973 12.0161C11.0816 12.3005 11.544 12.3005 11.8283 12.0161C14.955 8.88802 20.0431 8.88802 23.1713 12.0161C23.3142 12.1576 23.5008 12.2291 23.6875 12.2291C23.8742 12.2291 24.0608 12.1576 24.2023 12.0161C24.4867 11.7318 24.4867 11.2695 24.2023 10.9851C20.5068 7.28964 14.4927 7.28964 10.7973 10.9851Z" fill="#476458"/>
<path d="M14.9218 15.1106C14.6374 15.395 14.6374 15.8573 14.9218 16.1417C15.2062 16.4261 15.6685 16.4261 15.9528 16.1417C16.7783 15.3163 18.2205 15.3163 19.046 16.1417C19.1889 16.2831 19.3755 16.3546 19.5622 16.3546C19.7489 16.3546 19.9355 16.2832 20.077 16.1417C20.3614 15.8573 20.3614 15.395 20.077 15.1106C18.7018 13.734 16.297 13.734 14.9218 15.1106Z" fill="#476458"/>
</svg>
