<svg width="939" height="761" viewBox="0 0 939 761" fill="none" xmlns="http://www.w3.org/2000/svg">
<g clip-path="url(#clip0)">
<path d="M937.7 758.4H0V760.4H937.7V758.4Z" fill="#3F3D56"/>
<path d="M474.7 206.2H470.7V96.7C470.7 61.7 442.3 33.3 407.3 33.3H175.2C140.2 33.3 111.8 61.7 111.8 96.7V697.7C111.8 732.7 140.2 761.1 175.2 761.1H407.3C442.3 761.1 470.7 732.7 470.7 697.7V284.2H474.7V206.2Z" fill="#3F3D56"/>
<path d="M457.2 97.1V697.2C457.2 723.4 436 744.5 409.9 744.5H176.7C150.6 744.5 129.4 723.3 129.4 697.2V97.1C129.4 71 150.6 49.8 176.7 49.8H205C200.3 61.3 205.8 74.4 217.3 79.1C220 80.2 222.9 80.8001 225.8 80.8001H358.8C371.2 80.8001 381.3 70.7 381.3 58.3C381.3 55.4 380.7 52.5 379.6 49.8H409.9C436 49.8 457.2 71 457.2 97.1Z" fill="white"/>
<path d="M234.7 210.9C268.942 210.9 296.7 183.142 296.7 148.9C296.7 114.658 268.942 86.8999 234.7 86.8999C200.459 86.8999 172.7 114.658 172.7 148.9C172.7 183.142 200.459 210.9 234.7 210.9Z" fill="#ECCE62"/>
<path d="M391.541 446.045C396.087 399.93 381.46 360.742 358.87 358.515C336.28 356.287 314.282 391.865 309.735 437.979C305.189 484.093 319.816 523.282 342.406 525.509C364.996 527.736 386.994 492.159 391.541 446.045Z" fill="#87AA62"/>
<path d="M340.9 579.1C334.2 479.1 360.1 382.7 360.4 381.7L363.5 382.6C363.2 383.6 337.5 479.5 344.1 578.9L340.9 579.1Z" fill="#3F3D56"/>
<path d="M388.47 427.518L349.485 443.676L350.749 446.725L389.733 430.566L388.47 427.518Z" fill="#3F3D56"/>
<path d="M312.878 430.07L311.043 432.813L346.115 456.28L347.951 453.538L312.878 430.07Z" fill="#3F3D56"/>
<path d="M345.115 311.329C354.013 221.079 325.358 144.381 281.113 140.019C236.867 135.656 193.786 205.282 184.888 295.532C175.99 385.782 204.644 462.48 248.89 466.842C293.135 471.205 336.217 401.579 345.115 311.329Z" fill="#E6E6E6"/>
<path d="M247.5 571.5C234.4 376.2 285 187.9 285.5 186L288.6 186.9C288.1 188.8 237.7 376.6 250.7 571.4L247.5 571.5Z" fill="#3F3D56"/>
<path d="M339.545 276.704L263.331 308.293L264.595 311.342L340.808 279.752L339.545 276.704Z" fill="#3F3D56"/>
<path d="M190.312 281.502L188.477 284.245L257.042 330.123L258.877 327.381L190.312 281.502Z" fill="#3F3D56"/>
<path d="M573.842 234.626C586.019 111.123 546.833 6.16756 486.319 0.201147C425.804 -5.76526 366.876 89.5167 354.699 213.019C342.523 336.522 381.708 441.478 442.223 447.444C502.738 453.41 561.666 358.128 573.842 234.626Z" fill="#87AA62"/>
<path d="M441.1 590.6C423.2 323.4 492.4 65.8 493.1 63.2L496.2 64.0999C495.5 66.6999 426.5 323.8 444.3 590.4L441.1 590.6Z" fill="#3F3D56"/>
<path d="M566.586 187.772L462.289 231.001L463.553 234.05L567.85 190.82L566.586 187.772Z" fill="#3F3D56"/>
<path d="M361.826 194.366L359.991 197.109L453.822 259.892L455.658 257.15L361.826 194.366Z" fill="#3F3D56"/>
<path d="M129.3 587.2L127.3 699.7C127.3 726.3 150.5 747.9 176.6 747.9H409.8C436 747.9 459.1 726.3 459.1 699.7L457.1 588.2C339.6 542.7 230.9 545.5 129.3 587.2Z" fill="#87AA62"/>
<path d="M626.8 196.1L639.2 186.2C629.6 185.1 625.6 190.4 624 194.6C616.5 191.5 608.3 195.6 608.3 195.6L633.1 204.6C631.9 201.1 629.7 198.2 626.8 196.1Z" fill="#3F3D56"/>
<path d="M323.4 108.4L335.8 98.5C326.2 97.4 322.2 102.7 320.6 106.9C313.1 103.8 304.9 107.9 304.9 107.9L329.7 116.9C328.5 113.5 326.3 110.6 323.4 108.4Z" fill="#3F3D56"/>
<path d="M818.3 69.2999L830.7 59.3999C821.1 58.2999 817.1 63.5999 815.5 67.7999C808 64.6999 799.8 68.7999 799.8 68.7999L824.6 77.7999C823.3 74.3999 821.2 71.4999 818.3 69.2999Z" fill="#3F3D56"/>
<path d="M798.7 526L798.5 542.9C798.4 549 793.4 553.9 787.3 553.8C786.6 553.8 785.9 553.7 785.1 553.6C779.1 552.3 775.3 546.5 776.6 540.5C776.8 539.6 777.1 538.8 777.5 538L783.2 526.3L794.9 441.3L790.4 384.5L812.4 383.4L817.1 448.4L798.7 526Z" fill="#FFB9B9"/>
<path d="M690.9 615.8L669.8 729.7L680.3 728.1L719.4 613.4L690.9 615.8Z" fill="#FFB9B9"/>
<path d="M792.2 617L805.6 733.8L817 732.1L819.8 616.2L792.2 617Z" fill="#FFB9B9"/>
<path d="M912.6 582.9C882.3 607.3 846.8 643 811.4 629.7C774.5 615.8 731.9 614.9 684 621.1C695.5 549.3 709.6 481.3 727.9 419.4L788.9 429.2C789.8 430.2 787.6 435.9 788.5 436.9C805.6 456.2 823.1 471.2 833.7 491.1C849.3 520.7 870.4 547.1 895.8 568.8L912.6 582.9Z" fill="#E6E6E6"/>
<path opacity="0.5" d="M938.2 595.5C907.9 620.5 844.3 662.4 809 648.7C772.1 634.4 728.3 635.5 680.4 641.9C682.7 627.2 685.1 612.6 687.7 598.2C698.1 539.8 887.5 560.3 913.1 582.6L938.2 595.5Z" fill="#E6E6E6"/>
<path d="M816.1 387C804.7 383.7 793.1 385.3 781.3 390.4L785.6 358.3C784.7 350.9 789.9 344.2 797.3 343.3C804.7 342.4 811.4 347.6 812.3 355L816.1 387Z" fill="#2F2E41"/>
<path d="M764.1 319.8C776.692 319.8 786.9 309.592 786.9 297C786.9 284.408 776.692 274.2 764.1 274.2C751.508 274.2 741.3 284.408 741.3 297C741.3 309.592 751.508 319.8 764.1 319.8Z" fill="#FFB9B9"/>
<path d="M806.4 360.4L756.4 348.6C763.8 337.9 762.3 325.4 756.4 312L780.8 307.1C783.5 316.4 786.8 324.8 791.4 331.5L806.4 360.4Z" fill="#FFB9B9"/>
<path d="M788.9 432.4L727.1 423.5L729.2 411.9C728.2 381.7 733.2 357 742.6 336.4L797.1 339.7C811.5 351.2 816.3 371 808.8 387.8L789.8 425.1L788.9 432.4Z" fill="#2F2E41"/>
<path d="M681.8 759.1C678.9 760.4 676.6 749.9 674.2 752.2C667.5 758.8 657.2 760.3 648.2 757.4H651.3C649.1 756.7 647.9 754.3 648.6 752.1C648.6 752 648.6 752 648.7 751.9C649.2 750.6 650.3 749.6 651.6 749.3L658.8 747.5L670 727.7L682.2 726.1L682.5 726.6C687.3 734.3 688.5 743.7 685.9 752.4C684.8 755.7 683.4 758.3 681.8 759.1Z" fill="#2F2E41"/>
<path d="M816.8 759.1C813.9 760.4 811.6 749.9 809.2 752.2C802.5 758.8 792.2 760.3 783.2 757.4H786.3C784.1 756.7 782.9 754.3 783.6 752.1C783.6 752 783.6 752 783.7 751.9C784.2 750.6 785.3 749.6 786.6 749.3L793.8 747.5L805 727.7L817.2 726.1L817.5 726.6C822.3 734.3 823.5 743.7 820.9 752.4C819.9 755.7 818.5 758.3 816.8 759.1Z" fill="#2F2E41"/>
<path d="M792.5 392.9H791.9C780.9 383.4 771.3 372.7 779.1 359.3C772.6 342.7 765.3 325.4 765.7 314.8C766.2 306.9 763.6 299.1 758.6 293C751.6 284.9 750.1 281.2 737.4 284.3C737.2 271 747.8 260.1 761.1 259.9C761.5 259.9 761.9 259.9 762.3 259.9L770.2 260.2C776.3 260.4 795.7 262.9 799.8 266.9C804.1 271.2 806.1 277.2 805.3 283.2C804.5 289.8 806.6 295.7 812.2 300.6C822.9 311.7 827.3 323.1 821.2 335.3C816.6 348.2 816.8 358.8 828.6 363.9C832.6 378.6 807.7 392.9 792.5 392.9Z" fill="#2F2E41"/>
<path d="M674.901 463.741C678.064 460.816 675.794 453.219 669.831 446.772C663.869 440.326 656.471 437.471 653.309 440.396C650.147 443.321 652.417 450.918 658.379 457.365C664.342 463.811 671.739 466.666 674.901 463.741Z" fill="#3F3D56"/>
<path d="M695.7 413.6C708.292 413.6 718.5 403.392 718.5 390.8C718.5 378.208 708.292 368 695.7 368C683.108 368 672.9 378.208 672.9 390.8C672.9 403.392 683.108 413.6 695.7 413.6Z" fill="#ECCE62"/>
<path d="M734 536.3C723.8 531.7 714.2 525.6 705.7 518.3C688.4 503.4 675.9 481.9 674.9 458.8C674 436.6 683.4 415.7 693.4 396.3C694.7 393.9 695.9 391.4 697.2 389C697.7 388.1 699.2 388.7 698.7 389.6C688.4 409.2 677.5 430 676.5 452.6C675.5 476.4 687.1 499.2 704.5 515C713.4 523 723.6 529.7 734.5 534.6" fill="#3F3D56"/>
<path d="M686.945 390.154L685.873 390.401L689.317 405.308L690.389 405.06L686.945 390.154Z" fill="#3F3D56"/>
<path d="M702.699 511.709C706.974 511.174 709.555 503.676 708.464 494.963C707.374 486.249 703.024 479.619 698.75 480.154C694.475 480.689 691.894 488.186 692.985 496.9C694.075 505.614 698.425 512.244 702.699 511.709Z" fill="#3F3D56"/>
<path d="M727.9 509.7L725.6 526.5C724.8 532.5 719.2 536.8 713.2 536C712.5 535.9 711.8 535.7 711.1 535.5C705.3 533.5 702.3 527.2 704.2 521.5C704.5 520.7 704.9 519.9 705.4 519.1L712.4 508.2L734.4 425.2L736.8 368.3L758.8 369.9L755.5 435L727.9 509.7Z" fill="#FFB9B9"/>
<path d="M761.7 380.3C750.8 375.6 739 375.8 726.7 379.5L734.8 348.2C734.8 340.8 740.8 334.8 748.2 334.8C755.6 334.8 761.6 340.8 761.6 348.2V380.3H761.7Z" fill="#2F2E41"/>
</g>
<defs>
<clipPath id="clip0">
<rect width="938.2" height="761" fill="white"/>
</clipPath>
</defs>
</svg>
