<?xml version="1.0" ?><svg viewBox="0 0 64 64" xmlns="http://www.w3.org/2000/svg"><g id="outline"><path d="M54,42.2V8a1,1,0,0,0-1-1H48V6a3,3,0,0,0-6,0V7H38V6a3,3,0,0,0-6,0V7H24V6a3,3,0,0,0-6,0V7H14V6A3,3,0,0,0,8,6V7H3A1,1,0,0,0,2,8V52a1,1,0,0,0,1,1H42.051A10,10,0,1,0,54,42.2ZM44,6a1,1,0,0,1,2,0v4H44ZM34,6a1,1,0,0,1,2,0v4H34ZM20,6a1,1,0,0,1,2,0v4H20ZM10,8V6a1,1,0,0,1,2,0v4H10ZM4,9H8v2a1,1,0,0,0,1,1h4a1,1,0,0,0,1-1V9h4v2a1,1,0,0,0,1,1h4a1,1,0,0,0,1-1V9h8v2a1,1,0,0,0,1,1h4a1,1,0,0,0,1-1V9h4v2a1,1,0,0,0,1,1h4a1,1,0,0,0,1-1V9h4v4H4ZM4,51V15H52V42a10.013,10.013,0,0,0-9.949,9Zm48,9a8,8,0,1,1,8-8A8.009,8.009,0,0,1,52,60Z"/><path d="M49.8,47.4l-1.6,1.2,3,4a1,1,0,0,0,.636.386l6,1,.328-1.972-5.6-.935Z"/><path d="M40,20a3,3,0,0,0-3,3c0,.011,0,.021,0,.032l-3.518,2.111a1,1,0,0,0-.285.257l-5.414,7.218-6.205-4.431A1,1,0,0,0,20.2,28.4l-5.432,7.244L10,32.465V19H8V46a1,1,0,0,0,1,1H41V45H10V34.868l4.445,2.964A1,1,0,0,0,15.8,37.6l5.414-7.218,6.205,4.431A1,1,0,0,0,28.8,34.6l5.883-7.843,3.041-1.825A2.994,2.994,0,1,0,40,20Zm0,4a1,1,0,1,1,1-1A1,1,0,0,1,40,24Z"/><rect height="2" width="4" x="26" y="37"/><rect height="2" width="4" x="19" y="24"/><rect height="2" width="4" x="13" y="40"/></g></svg>