<?xml version="1.0" encoding="utf-8"?>
<!-- Generator: Adobe Illustrator 20.0.0, SVG Export Plug-In . SVG Version: 6.00 Build 0)  -->
<svg version="1.1" id="Layer_1" xmlns="http://www.w3.org/2000/svg" xmlns:xlink="http://www.w3.org/1999/xlink" x="0px" y="0px"
	 viewBox="0 0 400 400" style="enable-background:new 0 0 400 400;" xml:space="preserve">
<style type="text/css">
	.st0{fill:#77777A;stroke:#77777A;stroke-width:0.6027;stroke-miterlimit:10;}
	.st1{fill-rule:evenodd;clip-rule:evenodd;fill:#77777A;stroke:#77777A;stroke-width:0.6027;stroke-miterlimit:10;}
	.st2{fill-rule:evenodd;clip-rule:evenodd;fill:#77777A;stroke:#77777A;stroke-width:0.1745;stroke-miterlimit:10;}
	.st3{clip-path:url(#SVGID_2_);}
	.st4{fill-rule:evenodd;clip-rule:evenodd;fill:#006A50;}
	.st5{fill-rule:evenodd;clip-rule:evenodd;fill:#BBB9B9;stroke:#BBB9B9;stroke-width:1.0434;stroke-miterlimit:10;}
	.st6{fill-rule:evenodd;clip-rule:evenodd;fill:#77777A;}
	.st7{fill-rule:evenodd;clip-rule:evenodd;fill:none;stroke:#77777A;stroke-width:2.3778;stroke-miterlimit:10;}
	.st8{clip-path:url(#SVGID_4_);}
	.st9{fill:#F1673A;}
	.st10{fill:#FFC656;stroke:#FFD13F;stroke-width:1.1044;stroke-miterlimit:10;}
	.st11{fill:#FFFFFF;}
	.st12{fill-rule:evenodd;clip-rule:evenodd;fill:#FFFFFF;}
	.st13{fill-rule:evenodd;clip-rule:evenodd;fill:#FFC656;}
	.st14{fill-rule:evenodd;clip-rule:evenodd;fill:#FFC656;stroke:#FFD13F;stroke-width:1.1044;stroke-miterlimit:10;}
	.st15{fill:#4DB86C;}
	.st16{fill:#77777A;}
	.st17{fill:#006A50;stroke:#006A50;stroke-width:1.0191;stroke-miterlimit:10;}
	.st18{fill-rule:evenodd;clip-rule:evenodd;fill:none;stroke:#77777A;stroke-width:2.7175;stroke-miterlimit:10;}
</style>
<g>
	<path class="st0" d="M270.1,160.7c0-0.8,0-1.7,0-2.5c0-0.2,0-0.4,0-0.7c0-0.8,0-1.7,0-2.5c0-1.9-0.1-3.9-0.1-5.8
		c0-1.9-0.1-3.8-0.2-5.7c0-0.9-0.1-1.9-0.1-2.8c0-1-0.1-2-0.1-3c-0.1-2.1-0.2-4.2-0.3-6.3c-0.1-1.8-0.2-3.6-0.3-5.4
		c-0.1-1.2-0.2-2.3-0.3-3.5l0,0c0,1.3-0.1,2.6-0.1,4c0,0.9,0,1.7,0,2.6c0,0.6,0,1.1,0.1,1.7c0,0.3,0,0.7,0,1c0,0.9,0.1,1.8,0.1,2.7
		c0.1,1,0.1,2.1,0.2,3.1c0,1.1,0.1,2.2,0.1,3.2c0,1,0.1,1.9,0.1,2.9c0,1,0.1,1.9,0.1,2.8c0,1,0.1,1.9,0.1,2.9c0,1,0,1.9,0.1,2.9
		c0,1.8,0,3.6,0.1,5.3c0,1,0,2,0,3"/>
	<path class="st0" d="M259.2,167.5c0-0.2,0-0.3,0-0.5c0-0.2,0-0.3,0-0.5c0-0.4,0-0.7,0.1-1.1c0-0.7,0.1-1.4,0.1-2.1
		c0-0.6,0-1.3,0-1.9c0-0.2,0-0.3,0-0.5c0-0.6,0-1.3,0-1.9c0-1.5,0-2.9-0.1-4.4c0-1.4-0.1-2.9-0.1-4.3c0-0.7-0.1-1.4-0.1-2.1
		c0-0.8-0.1-1.5-0.1-2.3c-0.1-1.6-0.1-3.1-0.2-4.7c-0.1-1.4-0.2-2.7-0.3-4.1c-0.1-0.9-0.2-1.7-0.3-2.6h0c0,1-0.1,2-0.1,3
		c0,0.7,0,1.3,0,2c0,0.4,0,0.8,0,1.3c0,0.3,0,0.5,0,0.8c0,0.7,0.1,1.4,0.1,2.1c0,0.8,0.1,1.6,0.1,2.4c0,0.8,0.1,1.6,0.1,2.5
		c0,0.7,0.1,1.5,0.1,2.2c0,0.7,0.1,1.4,0.1,2.1c0,0.7,0.1,1.4,0.1,2.2c0,0.7,0,1.5,0.1,2.2c0,1.3,0,2.7,0,4c0,0.7,0,1.5,0,2.2
		c0,0.7,0,1.5,0.1,2.2c0,0.3,0,0.6,0,0.9c0,0.1,0,0.3,0,0.4c0,0.1,0,0.2,0.1,0.4l0,0C259.2,167.5,259.2,167.5,259.2,167.5
		L259.2,167.5z"/>
	<polygon class="st0" points="263.5,135.2 258.4,136.1 258.3,135.4 263.5,134.6 	"/>
	<path class="st0" d="M264.2,148.7c0-0.6,0-1.3,0-1.9c0-1.5-0.1-2.9-0.1-4.4c0-1.4-0.1-2.9-0.1-4.3c0-0.7-0.1-1.4-0.1-2.1
		c0-0.8-0.1-1.5-0.1-2.3c-0.1-1.6-0.1-3.1-0.2-4.7c-0.1-1.4-0.2-2.7-0.3-4.1c-0.1-0.9-0.2-1.7-0.3-2.6h0c0,1-0.1,2-0.1,3
		c0,0.7,0,1.3,0,2c0,0.4,0,0.8,0,1.3c0,0.3,0,0.5,0,0.8c0,0.7,0.1,1.4,0.1,2.1c0,0.8,0.1,1.6,0.1,2.4c0,0.8,0.1,1.6,0.1,2.4
		c0,0.7,0.1,1.5,0.1,2.2c0,0.7,0.1,1.4,0.1,2.1c0,0.7,0,1.4,0.1,2.2c0,0.7,0,1.5,0.1,2.2"/>
	<polygon class="st0" points="263.1,122.9 268.3,123.8 268.3,123 263.1,122.3 	"/>
	<g>
		<path class="st1" d="M229.7,140.4c-0.2,0.9-0.2,1.7-0.2,2.7c0,1-0.2,2-0.2,3c-0.2,3.7,0.3,7.3,0.2,11c-1.1,3.1,0.8,4.9-1,7.4
			c-0.7,1-1.9,1-2.6,0c-0.4-0.5-0.6-0.6-1,0c-1.1,1.6-2.5,2.6-4.2,2.4c-0.9-0.1-2.3-1.4-2.4-2.9c-0.2-2.1-0.5-4.1-0.6-6.1
			c-0.1-0.6,0.1-1.1,0.1-1.7c0-0.5,0-1.1,0-1.6c0-0.2-0.1-0.4-0.1-0.6c0.6-3.5-0.7-7-0.3-10.6c0-0.2-0.3-0.6-0.5-0.6
			c-2.3-0.2-4.5-1.4-6.7-2c-1.3-0.4-2.8-0.4-4.1-0.1c-2.6,0.5-5.2,1.3-7.9,2c0,1.2,0,2.6,0,3.9c0,1,0.4,1.4,1,1.3
			c0.7-0.1,1.5-0.4,2.2-0.6c1.5-0.3,3.1-0.7,4.6-1c0.4-0.1,0.6-0.2,0.6-0.9c-0.1-1.1,0.3-1.9,1-1.8c0.8,0,0.7,0.9,0.7,1.6
			c0,0.1,0,0.2,0.1,0.6c1.1,0,2.2,0,3.3,0c1.1,0.1,2.3,0.2,3.4,0.4c0.3,0.1,0.5,0.6,0.8,0.9c-0.2,0.3-0.4,0.8-0.7,1
			c-0.5,0.2-1.1,0.4-1.7,0.4c-2.9,0.2-5.8,0.3-8.7,0.4c-1.4,0-2.8-0.2-4.2-0.2c-0.5,0-1.1,0.2-1.5,0.6c-0.7,0.7-1,1.6-0.8,2.9
			c0.1,0.8,0,1.7,0,2.6c0,0.3-0.1,0.6-0.1,0.8c0.6,1.8-0.1,3.4-0.2,5.1c0,0.7,0.2,1.5,0.3,2.2c0.1,1.1,0.3,2.3,0.3,3.4
			c0,0.4-0.4,1-0.6,1c-0.2,0.1-0.7-0.4-0.8-0.7c-0.1-1.1-0.2-2.3-0.1-3.4c0.3-2.4-0.6-3.9-2.4-3.9c-1.5,0-2.9,0.2-4.3-0.7
			c-0.3-0.2-0.6,0-0.9,0c-1.7,0.2-3.3-0.2-4.7-1.5c-0.3-0.3-0.8-0.7-0.9-1.2c-0.3-1.2-0.8-1.2-1.6-1.2c-2.4,0.1-4.8,0.2-7.1-1.1
			c-0.5-0.3-0.9-0.6-1.4-1c-0.5-0.4-0.9-0.5-1.3,0.2c-1.3,2.1-3.1,2.4-4.9,1.9c-1.2-0.3-2-1.5-2.4-3c-0.2-0.9-0.5-1.4-1.2-1.5
			c-1-0.1-1.6-1-2.1-2c-0.9-1.6-1-3.5-1-5.5c0-2,0-4,0-6c0-0.6-0.2-1.2-0.4-1.7c-0.2-0.4-0.7-0.9-0.9-0.8c-0.3,0.1-0.6,0.8-0.6,1.2
			c-0.1,1-0.1,2-0.1,3c-0.1,2.3,0,4.7-0.4,7c-0.3,1.7-1.2,3.3-1.9,4.9c-0.4,0.7-0.8,1.2-0.2,2.1c0.1,0.2-0.1,0.8-0.1,1.2
			c-0.3-0.1-0.9-0.1-1-0.4c-0.4-1.2-1-1-1.7-0.7c-0.7,0.2-0.9,0.9-0.9,1.9c0,0.5,0,1,0.2,1.5c0.7,3-0.5,4.2-2.2,4.4
			c-2.8,0.3-5.7,0.4-8.5,0c-1.2-0.2-1.8,0-2.4,1.3c-0.7,1.4-1.9,1.7-3.1,1.9c-0.7,0.1-1.1,0.4-0.8,1.5c0.1,0.3,0,0.6,0,0.9
			c0,1.4-0.1,2.7,1.4,2.8c0.3,0,0.6,0.5,0.9,0.7c0.6,0.6,0.8,1.5,0.3,2.1c-0.3,0.4-1.1,0.4-1.5,0.2c-0.4-0.2-0.8-1-1-1.6
			c-0.4-1-0.8-1.5-1.8-1.3c-4,1.2-8,1.2-12,0.7c-2.5-0.3-4.7-1.7-6-4.7c-0.5-1.2-0.5-3-0.5-4.5c0-0.9-0.1-1.1-0.8-1
			c-1.9,0.3-2.4-0.3-3.2-2.7c-0.3-1-0.9-2-1.4-2.9c-0.3-0.5-0.7-0.4-1,0.1c-0.2,0.3-0.4,0.6-0.6,0.8c-0.6,0.5-1.2,1.1-1.9,0.5
			c-0.8-0.7-1.4-1.6-1.4-3c-0.1-1.6-0.2-3.2-0.3-4.8c-0.1-1.2-0.6-2-1.2-2.8c-0.6-0.8-1.1-1.6-1.9-2.5c-0.2,0.3-0.4,0.7-0.7,1.1
			c-1.9,2.2-2.4,5.2-2.2,8.3c0.1,2.3-1.1,3.5-2.1,4.7c-0.3,0.3-1.1-0.2-1.6-0.6c-0.4-0.3-0.7-0.9-0.9-1.4c-0.4-0.8-0.8-0.7-1,0
			c-0.3,0.8-0.5,1.7-0.7,2.6c-0.2,1.1-0.1,2.2-0.3,3.2c-0.2,0.9-0.6,1-1.1,0.3c0,0,0-0.1-0.1-0.1c-1.2-1.5-1.7-1.4-2.2,0.8
			c-0.5,2.2-0.8,2.4-2.5,2.5c-0.6,0-1.2,0.2-1.8,0.2c-1.3,0-2.1-0.8-2.1-2.5c-0.1-3.2-0.1-6.5-0.1-9.7c0-1.5-0.1-11.2-1.1-12.3
			c-0.9-0.8-0.8-2.3-0.7-3.7c0.1-0.7,0-1.5-0.1-2.2c0-0.8-0.1-1.6-0.1-2.5c0-1.3-0.3-2.4-1-3.6c-0.7,1.8-1.3,3.5-1.2,5.6
			c0.1,1.6,0.2,3.2,0.1,4.8c-0.1,0.8-0.5,1.8-0.9,2.4c-0.7,0.9-1,10.3-0.9,11.6c0.4,2.7-1,4.9-2.9,4.9c-1.8,0-3.1,0.9-4,3
			c-1,2.3-2.5,2.9-4.3,3.1c-0.5,0-1.1,0-1.6-0.1c-1.6-0.3-3.1-0.2-4.7,0.4c-1,0.4-2.1,0.4-3.1,0.6c-0.5,0.1-1,0.3-1.5,0.4
			c-0.1-0.1-0.1-0.2-0.2-0.3c0.2-0.2,0.4-0.6,0.6-0.6c0.8-0.1,1.6-0.1,2.4-0.3c1.3-0.3,2.6-0.8,3.9-0.9c1.5-0.1,2.9,0,4.4,0.1
			c1.7,0.1,3-1,3.9-2.9c0.9-1.8,1.9-3.1,3.6-2.9c1,0.1,2-0.3,2.5-1.6c0.3-0.7,0.5-1.6,0.4-2.4c-0.1-1.7,0.1-11.6,1.2-12.5
			c0.6-0.5,1-2.3,0.7-3.3c-0.1-0.2-0.4-0.3-0.6-0.6c-0.2-0.3-0.6-0.6-0.6-1c0-0.2,0.4-0.5,0.6-0.8c0.1-0.2,0.4-0.5,0.4-0.6
			c-0.3-2.3,0.5-4.2,1.2-6.1c0.3-0.8,0.3-1.4,0.1-2.1c-0.3-1.1-0.3-2.2,0.6-3.3c0.2,0.6,0.4,1,0.5,1.5c0.1,0.2,0.1,0.5,0,0.7
			c-0.3,1.6,0,3.1,0.4,4.6c0.3,1,0.3,2.1,0.4,3.2c0.1,1,0.1,2,1.1,2.1c0.2,0,0.4,0.4,0.4,0.6c0,0.3-0.2,0.6-0.4,0.8
			c-0.2,0.3-0.7,0.5-0.7,0.7c0,1-0.1,2.4,0.4,2.8c1.1,1.2,1.4,11.2,1.3,13c-0.1,3,0,6.1,0,9.1c0,1.6,0.4,2.1,1.5,2.1
			c0.7,0,1.4,0,2.1,0c1.3,0,1.4-0.1,1.9-1.8c0.2-0.7,0.5-1.5,0.8-2.1c0.5-0.9,1-0.9,1.6,0c0.2,0.3,0.4,0.7,0.6,1.1
			c0.1,0,0.2-0.1,0.3-0.1c0.1-0.6,0.3-1.3,0.3-1.9c-0.1-1.9,0.3-3.4,1.3-4.8c0.2-0.3,0.2-0.9,0.3-1.4c0.1-0.5,0.2-0.9,0.4-1.4
			c0-0.1,0.4,0,0.4,0.1c0.1,0.5,0.1,1,0.2,1.5c0,0.4-0.1,0.9,0,1.3c0.3,1.2,1,2.6,1.8,2.2c0.8-0.4,1.3-1.9,2-3
			c0-0.1-0.2-0.5-0.3-0.6c-0.4-0.1-0.9,0-0.8-0.8c0-0.8,0.5-0.8,1-0.8c0.1,0,0.2-0.1,0.2-0.1c0.1-1.2,0.2-2.4,0.5-3.5
			c0.3-1.1,0.8-2,1.3-3c0.3-0.7,0.8-1.2,1.1-1.9c0.4-0.9,0.6-1.8,0.5-2.9c-0.2-1.7-0.2-3.5-0.2-5.2c0-0.7,0.2-1.7,0.9-1.7
			c0.2,0,0.6,1.1,0.6,1.7c0,1.4-0.1,2.9-0.4,4.3c-0.6,2.7,0.2,4.7,1.7,6.3c1,1,1.5,2.3,1.4,4c0,0.6,0,1.2,0,1.8
			c0.2,0.1,0.4,0,0.6,0.1c0.3,0.2,0.6,0.5,0.8,0.8c-0.2,0.3-0.4,0.8-0.6,0.9c-0.7,0.4-0.5,0.9-0.3,1.5c0.8,1.7,1.8,1.6,2.8-0.2
			c0.3-0.6,0.6-1.1,0.3-2c-0.2-0.5,0.1-1.3,0.2-2.1c0.9,0.5,1,1.3,0.9,2.1c-0.2,1.2,0.3,2,0.7,2.9c0.5,1,0.9,2.3,1.4,3.3
			c0.3,0.6,0.8,1.3,1.3,1.3c0.6,0.1,1.2-0.4,1.8-0.8c0.1-0.1,0-0.7,0-1.1c-0.1-1-0.2-2-0.2-2.9c0-0.5,0.4-1.1,0.7-1.3
			c0.2-0.1,0.7,0.4,0.9,0.8c0.6,1.1,0.7,2.6-0.1,3.7c-1.2,1.8-0.9,3.9-0.8,5.9c0.2,2.2,1.4,3.5,2.8,4.5c1.5,1.1,3.1,1.5,4.7,1.6
			c3.8,0.4,7.5-0.2,11.2-1.1c0.2,0,0.5-0.5,0.5-0.8c0-0.8,0-1.6-0.1-2.3c-0.1-0.5-0.4-1-0.6-1.5c-0.1-0.4-0.3-0.7-0.4-1.1
			c0-0.2,0.1-0.5,0.2-0.6c0.2-0.1,0.5,0,0.5,0.1c0.6,1.7,1.6,1,2.5,0.8c1.2-0.2,2-1.4,2.6-2.7c0.2-0.4,0-1.1,0-1.7
			c0-0.9,0-1.8,0.1-2.6c0.1-0.4,0.6-0.9,0.9-0.8c0.3,0.1,0.7,0.7,0.7,1.2c0,0.7-0.1,1.4-0.3,2.1c-0.2,0.6-0.2,1.1,0.4,1.2
			c0.4,0.1,0.7,0.3,1.1,0.3c2.7-0.1,5.5-0.2,8.2-0.3c0.2,0,0.5-0.1,0.7-0.3c0.5-0.6,1-1.2,0.6-2.3c-0.1-0.4-0.1-0.9-0.2-1.4
			c-0.2-2.7,0-3.5,1.9-3.8c1.4-0.3,2-1.7,2.6-3c1.4-2.9,1.7-6.2,1.5-9.6c-0.2-1.9-0.1-3.9,0.9-5.6c0.2-0.3,0-0.9,0-1.3
			c0-0.8,0-1.7,0.1-2.5c0-0.2,0.4-0.5,0.5-0.4c0.2,0.1,0.5,0.4,0.5,0.7c0,0.8,0.1,1.6-0.1,2.3c-0.1,0.8,0,1.4,0.5,1.8
			c0.7,0.7,0.9,1.6,0.9,2.6c0,2.1,0,4.1,0,6.2c0,2,0.3,3.9,1.3,5.5c0.2,0.3,0.4,0.5,0.6,0.7c1.1,0.9,1.2,0.8,1.3-0.9
			c0-0.9,0.2-1.7,0.9-2c0.2-0.1,0.7,0.2,0.7,0.3c0,0.8,0,1.6,0,2.4c0,0.1-0.1,0.1-0.1,0.2c-0.3,0.8-0.9,1.4-0.5,2.5
			c0.6,1.4,1.3,2.4,2.4,2.7c1.7,0.4,3.2-0.5,4.3-2.2c0.1-0.2,0.1-0.7,0.1-1c0-0.3-0.3-0.6-0.4-0.9c-0.3-0.8-0.1-1.8,0.4-2.1
			c0.7-0.4,1.3,0.1,1.5,1.1c0.1,0.4,0.1,1-0.1,1.3c-0.5,1.1-0.1,1.6,0.5,2c2.6,1.8,5.3,1.7,8.1,1.6c0.5,0,0.8-0.4,0.8-1.1
			c0-0.4,0.1-0.8,0.3-1.1c0.3-0.6,0.8-0.9,1.3-0.4c0.6,0.5,0.5,1.1,0.2,1.8c-0.1,0.1-0.1,0.2-0.2,0.4c-0.3,0.5-1.2,0.6-0.8,1.5
			c0.3,0.8,0.9,1.5,1.5,2c0.7,0.5,1.5,0.7,2.3,1c1.1,0.3,1.2,0.1,1.3-1.3c0-0.5,0.3-1,0.6-1.3c0.1-0.1,0.6,0.1,0.8,0.3
			c0.2,0.3,0.2,0.8,0.3,1.3c0,0.3-0.1,0.6-0.2,1.1c0.9,0.2,1.7,0.5,2.6,0.6c1.4,0.1,2.9-0.4,4,1.4c0.1-0.1,0.2-0.1,0.2-0.2
			c0.1-1,0.2-2,0.2-3c0-0.2-0.3-0.4-0.5-0.6c-0.2-0.2-0.5-0.3-0.5-0.5c0-0.2,0.1-0.7,0.3-0.8c1-0.4,0.8-1.4,0.7-2.4
			c-0.2-1.4-0.2-2.8,0.7-4c-0.6-0.7-1.2-1.4-1.7-2.1c-0.5-0.5-0.5-1,0.1-1.3c1-0.5,0.8-1.5,0.7-2.4c0-0.2-0.3-0.4-0.5-0.6
			c-0.2-0.3-0.5-0.6-0.6-1c-0.1-0.1,0.2-0.6,0.2-0.6c0.3,0,0.8,0,0.9,0.3c0.6,0.8,1.2,0.8,1.9,0.6c1.8-0.4,3.5-1,5.3-1.4
			c2.5-0.5,5.1-0.6,7.6,0.6c1.3,0.6,2.7,0.9,4.1,1.1c0.5,0.1,1.1-0.4,1.6-0.6c0.2-0.1,0.4-0.3,0.6-0.3c0.3,0,0.6,0.2,0.9,0.4
			c-0.2,0.3-0.4,0.8-0.7,0.9c-0.6,0.2-0.9,0.6-1,1.4c-0.1,0.8,0.3,1,0.7,1.3c0.2,0.1,0.5,0.7,0.5,1c0,0.3-0.3,0.6-0.6,0.8
			c-0.1,0.1-0.3,0.1-0.5,0.1c0.1,2.4,0.3,4.7,0.4,6.9c0.3,0.3,0.8,0.5,0.9,0.8c0.1,0.6-0.1,1.2-0.7,1.3c-0.1,0-0.3,0.6-0.3,0.9
			c0.1,2.2,0.2,4.4,0.4,6.6c0.3,2.3,1.8,3.5,3.4,2.6c1-0.6,1.8-1.6,2.6-2.5c0.2-0.2,0.1-1,0.1-1.5c0-1.5,0-2.9,0.1-4.4
			c0-0.4,0.4-0.8,0.8-1.5c0.3,0.8,0.7,1.4,0.7,1.9c0,1.2,0,2.5-0.3,3.7c-0.4,1.6-0.4,1.8,0.4,2.6c0.6,0.5,1.3,0.4,1.9-0.7
			c0.9-1.6-0.1-2.9,0-4.9c0.2-4.7,0.2-5.9,0.2-9.4c0-1.9-0.2-2.7,0.2-6.9c0.1-0.9,0.1-1.9-0.1-2.2 M247.3,138.9
			c1.5,0.6,3.2,0.9,4.8,1.1c0.6,0.1,1.2-0.4,1.8-0.6c0.2-0.1,0.4-0.3,0.6-0.3c0.4,0,0.7,0.2,1.1,0.4c-0.3,0.3-0.5,0.8-0.8,0.9
			c-0.7,0.2-1,0.6-1.1,1.4c-0.1,0.8,0.3,1,0.8,1.3c0.3,0.1,0.6,0.7,0.6,1c0,0.3-0.4,0.6-0.7,0.8c-0.1,0.1-0.4,0.1-0.6,0.1
			c0.2,2.3,0.3,4.7,0.4,6.8c0.4,0.3,0.9,0.5,1,0.8c0.1,0.6-0.2,1.1-0.8,1.3c-0.1,0-0.3,0.6-0.3,0.9c0.1,2.2,0.2,4.4,0.5,6.6
			c0.2,1.4,0.9,2.4,1.9,2.7l0.3,0.7c-1.1-0.1-2.6-1.4-2.8-2.9c-0.2-2.1-0.5-4.1-0.7-6.1c-0.1-0.6,0.1-1.1,0.2-1.7c0-0.5,0-1.1,0-1.6
			c0-0.2-0.1-0.4-0.1-0.6c0.8-3.5-0.8-7-0.3-10.6c0-0.2-0.4-0.6-0.6-0.6c-2.7-0.2-5.2-1.4-7.8-2 M269.7,155.5c0.8,1.7,1.7,3.4,2.6,5
			c1.1,2,2.5,3.7,4,5.2c1.3,1.3,3.3,1.5,4.7-0.1c0.5-0.5,0.5-1,0.3-1.7c-0.2-1.2-0.3-2.4-0.3-3.7c0-0.9,0.5-1.6,1.2-1.6
			c0.7,0,0.9,0.7,1,1.6c0.2,1.7-0.1,3.2-0.9,4.5c0.6,1.3,1.6,1.7,2.6,1.2c1.4-0.7,2.3-2.1,3.2-3.5c0.2-0.3,0.4-0.6,0.6-1
			c0.4-1.1,1.5-2.1,0.3-3.5c-0.2-0.2-0.2-0.7-0.1-1c0.1-0.5,0.4-1,0.5-1.5c0.4,0.4,0.8,0.8,1.1,1.2c0.1,0.1,0,0.3,0,0.5
			c0.1,0.4,0.1,0.8,0.2,1.3c0.4-0.2,0.9-0.2,1.1-0.5c0.5-0.5,0.8-1.3,1.2-2c1.3-2.8,2.1-6,3.9-8.3c0.2-0.3,0.3-1,0.3-1.5
			c0-1.4-0.1-2.8,0-4.2c0-0.5,0.5-1.2,0.8-1.2c0.5,0,1,0.4,0.9,1.3c-0.1,1.1-0.1,2.2-0.5,3.1c-0.5,1.3-0.1,1.8,0.5,2.5
			c0.9,1,1.9,2,2.8,3c0.1,0.1,0.2,0.1,0.3,0.2c0.7-1.4,1-3.1,0.9-4.8c0-0.8,0-1.7-1-1.4c-0.2,0.1-0.5-0.6-0.8-1
			c0.3-0.3,0.7-0.8,1-0.7c0.8,0.4,0.9-0.2,1-1c0.2-2.2,0.4-4.5,0.8-6.7c0.6-2.6,2-4.5,3.8-5.7c0.3-0.2,0.6-0.4,0.7-0.8
			c0.7-1.3,1.4-2.7,1.9-4.1c0.3-0.8,0.4-1.9,0.4-2.8c0-1.5-0.1-3-0.1-4.4c0-0.8,0.1-1.6,0.8-1.6c0.7,0,0.8,0.9,0.8,1.6
			c-0.1,1.2-0.1,2.5-0.4,3.7c-0.7,2.4,0,4.4,1,6.1c0.8,1.4,2,2.3,3,3.5c1.2,1.4,2,3.1,2.4,5.1c0.4,1.9,0.7,3.8,1,5.8
			c0.6,0.1,1.6-0.8,1.7,0.8c0,1.1-0.8,0.9-1.3,0.8c-1,2.6,0,5.2,2.8,7.2c0.6-1.9,1.7-3.4,1.4-5.8c-0.3-2.6-0.1-5.2-0.1-7.8
			c0-0.4,0.2-0.8,0.3-1.2c0.3-0.7,0.9-0.7,1.2,0.1c0.2,0.4,0.2,0.9,0.2,1.4c-0.2,2.6-0.3,5.1-0.6,7.7c-0.2,1.3,0.1,2.2,0.7,3.1
			c0.8,1.2,1.8,2.2,2.4,3.6c0.5,1.2,0.6,2.7,0.9,4.1c0.1,0.4,0.3,1,0.5,1c1.7-0.3,3,1,4.4,2.1c0.7,0.6,1.6,1.2,2.4,1.3
			c1,0.1,2,0.1,3,0.2c2.3,0.3,4.5,0.2,6.8,0.3c0.1,0,0.2,0.1,0.3,0.4c-0.2,0.1-0.5,0.2-0.7,0.2c-1.2,0-2.4-0.2-3.6-0.2
			c-0.8,0-1.6,0.1-2.3,0c-2.4-0.1-4.8-0.1-6.9-2.2c-1-1-2.1-1.9-3.5-1.2c-0.3,0.1-0.5,0.5-0.7,0.8c-0.1,0.1-0.1,0.4-0.2,0.5
			c-0.4,0.3-0.7,0.5-1.1,0.6c-0.1,0-0.4-0.6-0.4-0.7c0.1-0.5,0.4-1.1,0.7-1.2c1-0.4,1-1.5,0.9-2.5c-0.2-2.4-1.2-4.2-2.6-5.7
			c-0.4-0.5-0.8-1.1-1.2-1.8c-0.5,1.4-1,2.6-1.4,3.8c-0.1,0.4,0,0.9,0.1,1.3c0.2,1.2,0.4,2.4,0.5,3.6c0,0.7-0.3,1.5-1,1.5
			c-0.6-0.1-1.1-0.6-1-1.5c0.1-1.2,0.2-2.5,0.4-3.6c0.2-1.1-0.3-1.5-0.7-2c-0.2-0.3-0.4-0.5-0.7-0.7c-1.8-1.4-1.9-3.6-1.7-6
			c0-0.5-0.1-1.1-0.2-1.6c-0.1-1-0.3-2-0.4-3.1c-0.3-3.4-1.3-6.4-3.5-8.4c-0.1-0.1-0.2-0.2-0.3-0.2c-0.1,0-0.2,0-0.2,0
			c-0.8,1.8-2.7,2.4-4.4,1.4c-0.2-0.1-0.5-0.3-0.7-0.5c-1.1-1-1.2-1-2.3,0.1c-1.8,1.9-2.9,4.4-3,7.5c0,1.7,0.1,3.4-0.7,4.9
			c-0.1,0.2-0.1,0.5,0,0.8c0.5,2.3,0.2,4.5-0.6,6.6c-0.2,0.5-0.1,1.3-0.2,1.9c-0.1,0.8,0,1.6-0.2,2.3c0,0.2-0.4,0.5-0.5,0.5
			c-0.2,0-0.6-0.3-0.7-0.5c-0.1-0.7-0.2-1.5,0.1-2c0.5-1.4,0.4-2-0.5-3.1c-0.9-1-1.8-1.8-2.8-2.8c-1,1.5-2.2,2.9-2.7,4.6
			c0.5,0.5,1,0.9,1.3,1.4c0.1,0.1-0.2,0.9-0.3,1c-0.5,0.1-1,0-1.5,0c-0.1-0.1-0.1-0.2-0.2-0.3c-0.4,0.8-0.7,1.6-1.1,2.4
			c-0.6,1.6-1.5,2.6-2.9,2.8c-0.2,0-0.5,0.4-0.6,0.7c-0.9,2.2-2,4.2-3.6,5.7c-1.2,1.2-2.6,1.6-3.9,0.4c-0.5-0.4-0.7-0.3-1.1,0.1
			c-0.5,0.4-1,0.8-1.5,1.1c-1.8,1-3.3-0.1-4.6-1.6c-1.4-1.6-2.7-3.6-3.9-5.5c-0.6-0.9-1.1-1.9-1.6-2.9 M215.1,147.3
			c0-0.2-0.1-0.4-0.1-0.6c-0.3,0-0.6,0-0.9,0c-1.7,0-3.4,0-5.1,0c-0.7,0-1.4-0.1-2,0c-0.8,0.1-1.7,0.4-2.5,0.6
			c-0.3,0.1-0.7,0.1-1,0.2c0,0.1,0,0.3,0,0.4c0.7,0,1.4,0,2,0c2.7,0,5.5-0.1,8.2-0.2C214.2,147.7,214.6,147.4,215.1,147.3z
			 M312.8,128.5c-0.4-1.1-0.7-2.2-1.2-3.2c-0.1-0.1-0.6-0.2-0.7,0c-0.5,0.9-0.9,1.8-1.3,2.8c-0.1,0.2-0.1,0.5,0,0.6
			c0.1,0.1,0.3,0.2,0.4,0.2C310.9,128.8,311.8,128.6,312.8,128.5z M309.4,129.6c0.1,1.1,0.7,1.2,1.1,1.3c0.8,0.2,1.6,0.3,2.3,0.3
			c0.2,0,0.4-0.6,0.6-0.9c0-0.1-0.3-0.6-0.5-0.6C311.8,129.6,310.6,129.6,309.4,129.6z M324.3,143.2c0.1,0,0.2,0,0.2,0
			c0.5-2.1,0.7-4.3,0.6-6.5c0-0.2-0.2-0.3-0.4-0.5c-0.1,0.2-0.4,0.4-0.4,0.6C324.3,139,324.3,141.1,324.3,143.2z M282.1,163.8
			c0.7-1.9,0.8-2.8,0.6-3.7c-0.1-0.3-0.3-0.7-0.5-0.8c-0.1-0.1-0.4,0.3-0.6,0.6C281.1,160.8,281.4,163,282.1,163.8z M322.7,153.1
			c-0.8,1.3-0.7,2.8,0.1,3.6C323.4,155.7,323.4,154.5,322.7,153.1z M225.8,161.6c0-1.6,0-2.8,0-4.1c-0.7,1-0.7,2.2-0.6,3.4
			C225.2,161.1,225.5,161.3,225.8,161.6z M136,169.3c0.5,0.6,0.9,1.2,1.3,1.7c0.1,0.1,0.4,0,0.6-0.1c0.1-0.1,0.1-0.4,0.1-0.6
			C137.9,169.6,136.8,169,136,169.3z M116.2,156.7c0.2,0,0.3,0,0.5-0.1c0-0.9,0-1.8,0-2.7c0-0.2-0.2-0.5-0.4-0.5
			c-0.1,0-0.4,0.3-0.4,0.5C116,154.9,116.1,155.8,116.2,156.7z M298.1,145c0.1-0.6,0.2-1,0.2-1.4c0.1-0.4,0.2-0.9,0.2-1.3
			c0-0.3-0.2-0.5-0.4-0.8c0,0-0.3,0.1-0.3,0.2C297.6,142.2,297.7,144.3,298.1,145z M198,166.5c0.3-1.1,0.3-2.2-0.2-2.7
			C197.3,164.9,197.4,165.8,198,166.5z M140.9,158.3c0.2-0.7,0.4-1.3,0.5-1.9c0-0.2-0.1-0.6-0.2-0.6c-0.1-0.1-0.5,0-0.5,0.2
			C140.4,156.7,140.3,157.5,140.9,158.3z M173.1,148.4c-0.7,0.7-0.2,1.3,0,2C174,149.8,174,149.4,173.1,148.4z M166.4,146.7
			c-1.1,0.3-1.2,0.9-0.7,2.5C165.9,148.3,166.1,147.6,166.4,146.7z M311.4,120c0.6-1.3,0.6-2.4,0-3C311.4,118.1,311.4,119,311.4,120
			z M184.6,151.8c-0.1,0-0.2-0.1-0.3-0.1c-0.2,0.5-0.3,1.1-0.5,1.8C184.8,153.2,184.9,152.9,184.6,151.8z M102.1,136.1
			c0.1,0,0.1,0,0.2,0c0-0.8,0-1.6,0-2.4c-0.1,0-0.1,0-0.2,0C102.1,134.5,102.1,135.3,102.1,136.1z"/>
		<path class="st2" d="M212.1,166.5c-0.2,0-0.6,0.2-0.7,0c-0.6-0.8-1.3-0.3-1.9-0.2c-1,0.2-2.1,0.4-3.1,0.3c-1.3,0-2.2-1.4-2.3-3.2
			c0-1.8-0.1-3.7,0-5.5c0-1,0.2-2,0.1-3c0-0.8,0.5-1.8,1-2.3c1.3-1.2,2.8-1.6,4.3-0.7c1,0.6,1.3,1.9,1.5,3.3
			c0.6,3.1,0.6,6.2,0.5,9.4C211.5,165.2,211.8,165.7,212.1,166.5z M205.8,156.3c-0.1,0.1-0.2,0.4-0.4,0.7c-0.2,0.4-0.7,0.9-0.7,1.3
			c0,1.9,0,3.8,0.1,5.7c0.1,1.4,0.7,2.1,1.7,2c1.3-0.1,2.5-0.3,3.7-0.6c0.2,0,0.5-0.6,0.5-0.9c0-2.3,0-4.5,0-6.8
			c0-0.3-0.4-0.6-0.6-0.8c-0.2-0.3-0.5-0.5-0.6-0.8c-0.1-0.2,0.3-0.5,0.4-0.9c0.1-0.4,0.4-0.9,0.3-1.1c-0.3-0.6-0.8-1.5-1.2-1.6
			c-1.3-0.3-2.6-0.6-3.6,0.9c-0.3,0.5-0.5,1.2-0.5,1.8C204.9,155.5,205.4,155.8,205.8,156.3z"/>
		<path class="st2" d="M206.7,129.1c-0.4,0.3-0.7,0.5-1.1,0.8c-0.6,0.4-1.2,0.8-0.7,2c0.2,0.6,0.1,1.4-0.5,1.5
			c-0.6,0.1-0.9-0.4-1.1-1.2c-0.1-0.4-0.1-1.2-0.2-1.2c-0.6-0.1-1.1,0-1.7,0.1c-0.2,0.1-0.4,0.4-0.7,0.5c-0.1-0.1-0.1-0.1-0.2-0.2
			c0.1-0.2,0.1-0.6,0.2-0.6c0.7-0.3,1.4-0.9,2.1-0.7c0.8,0.2,1.4,0,2.1-0.6c0.5-0.4,1-0.7,1.5-1.1
			C206.5,128.7,206.6,128.9,206.7,129.1z"/>
		<path class="st2" d="M176.3,135.7c0.3-0.7,0.8-1.1,1.4-1.1c0.8,0.1,1.2-0.2,1.6-1.3c0.4-1.2,1.1-1.9,2.3-1.9
			c-0.1,0.2-0.2,0.6-0.4,0.7c-1.6,1.2-1.6,1.2-1.4,3.7c0,0.1,0,0.3-0.1,0.4c-0.6-0.3-1.1-0.9-1.6-0.9c-0.5,0-1.1,0.4-1.6,0.7
			C176.4,135.9,176.4,135.8,176.3,135.7z"/>
		<path class="st2" d="M220,130.2c0.3-0.3,0.6-0.6,1-0.8c0.7-0.2,1.3-0.5,2-0.4c0.6,0,0.9-0.2,1.2-0.9c0.2-0.6,0.6-1,0.9-1.6
			c0.1,0.1,0.2,0.2,0.3,0.2c-0.2,0.5-0.4,0.9-0.6,1.4c-0.2,0.4-0.4,0.9-0.4,1.3c0,0.7-0.3,0.8-0.6,0.5c-1.1-0.9-2.1-0.4-3.1,0.4
			c-0.2,0.1-0.4,0.1-0.5,0.2C220.1,130.4,220.1,130.3,220,130.2z"/>
		<path class="st2" d="M257.2,167.5c0.3-0.2,0.6-0.4,0.9-0.7c0.2-0.2,0.5-0.5,0.5-0.8c0-0.2-0.2-0.6-0.4-0.8
			c-0.5-0.3-1.1-0.6-1.7-0.9c0.8-0.8,2.7,0.3,2.9,1.5C259.5,166.9,258.2,168,257.2,167.5z"/>
		<path class="st2" d="M52.6,163.7c-0.5,0-1.1,0.1-1.6,0.1c0-0.2,0-0.3,0-0.5c0.5-0.1,1.1-0.1,1.6-0.2
			C52.5,163.3,52.5,163.5,52.6,163.7z"/>
	</g>
	<path class="st0" d="M248.8,138.9c-0.5,0-1-0.1-1.5-0.1c-0.2,0-0.3,0-0.5,0c-0.3,0-0.7,0-1,0c-0.2,0-0.4,0-0.6,0
		c-0.1,0-0.1,0-0.2,0c-0.1,0-0.3,0-0.4,0c-0.6,0-1.1,0-1.7,0c-0.1,0-0.3,0-0.4,0c-0.3,0-0.7,0-1,0c-0.4,0-0.8,0-1.1,0
		c-0.6,0-1.2,0-1.8,0.1c-0.4,0-0.7,0-1.1,0c-0.6,0-1.2,0.1-1.8,0.1c-0.3,0-0.7,0-1,0.1c-0.6,0.1-1.3,0.1-1.9,0.2
		c-0.3,0-0.7,0.1-1,0.1c-0.6,0.1-1.3,0.2-1.9,0.3c-0.1,0-0.3,0-0.4,0.1c-0.3,0-0.6,0.1-0.8,0.1c0,0,0,0,0,0c0,0-0.1,0-0.1,0.1
		c0,0.1-0.1,0.1-0.1,0.2c0,0.1,0,0.2,0.1,0.2c0,0.1,0.1,0.1,0.1,0.1c0.3-0.1,0.7-0.1,1-0.2c0.3,0,0.6-0.1,0.9-0.1
		c0.3,0,0.7-0.1,1-0.1c0.1,0,0.3,0,0.4-0.1c0.5,0,1-0.1,1.6-0.1c0.3,0,0.6-0.1,1-0.1c0.1,0,0.3,0,0.4,0c0.5,0,1-0.1,1.5-0.1
		c0.3,0,0.6,0,0.9-0.1c0.1,0,0.2,0,0.3,0c0.6,0,1.1,0,1.7-0.1c0.3,0,0.6,0,0.9,0c0.1,0,0.2,0,0.3,0c0.6,0,1.2,0,1.7,0
		c0.3,0,0.7,0,1.1,0c0.6,0,1.2,0,1.8,0c0.1,0,0.2,0,0.4,0c0.3,0,0.7,0,1,0c0.2,0,0.5,0,0.8,0c0.2,0,0.4,0,0.5,0
		c0.5,0,1.1,0.1,1.6,0.1c0.1,0,0.3,0,0.4,0c0.1,0,0.3,0,0.4,0.1c0,0,0,0,0.1,0c0.1,0,0.1,0,0.2,0c0.1-0.1,0.1-0.1,0.1-0.2
		c0-0.2,0-0.4-0.1-0.4c-0.1,0-0.2-0.1-0.3-0.1c-0.1,0-0.1,0-0.2,0c-0.1,0-0.3,0-0.4,0C249.3,138.9,249,138.9,248.8,138.9z"/>
	<path class="st1" d="M236.3,148.4c-0.1,0-0.2,0.1-0.3,0c-0.3-0.2-0.5-0.1-0.8-0.1c-0.4,0.1-0.8,0.1-1.3,0.1c-0.5,0-0.9-0.4-0.9-1
		c0-0.5,0-1.1,0-1.6c0-0.3,0.1-0.6,0.1-0.9c0-0.2,0.2-0.6,0.4-0.7c0.5-0.4,1.1-0.5,1.8-0.2c0.4,0.2,0.5,0.6,0.6,1
		c0.3,0.9,0.2,1.9,0.2,2.8C236,147.9,236.2,148.1,236.3,148.4z M233.7,145.3c0,0-0.1,0.1-0.2,0.2c-0.1,0.1-0.3,0.3-0.3,0.4
		c0,0.6,0,1.1,0.1,1.7c0,0.4,0.3,0.6,0.7,0.6c0.5,0,1-0.1,1.5-0.2c0.1,0,0.2-0.2,0.2-0.3c0-0.7,0-1.3,0-2c0-0.1-0.1-0.2-0.2-0.3
		c-0.1-0.1-0.2-0.1-0.3-0.2c0-0.1,0.1-0.2,0.2-0.3c0-0.1,0.1-0.3,0.1-0.3c-0.1-0.2-0.3-0.4-0.5-0.5c-0.5-0.1-1.1-0.2-1.5,0.3
		c-0.1,0.1-0.2,0.4-0.2,0.5C233.3,145.1,233.5,145.2,233.7,145.3z"/>
	<path class="st1" d="M242.1,148.4c-0.1,0-0.2,0.1-0.3,0c-0.3-0.2-0.5-0.1-0.8-0.1c-0.4,0.1-0.8,0.1-1.3,0.1c-0.5,0-0.9-0.4-0.9-1
		c0-0.5,0-1.1,0-1.6c0-0.3,0.1-0.6,0-0.9c0-0.2,0.2-0.6,0.4-0.7c0.5-0.4,1.2-0.5,1.8-0.2c0.4,0.2,0.5,0.6,0.6,1
		c0.3,0.9,0.2,1.9,0.2,2.8C241.8,147.9,242,148.1,242.1,148.4z M239.5,145.3c0,0-0.1,0.1-0.2,0.2c-0.1,0.1-0.3,0.3-0.3,0.4
		c0,0.6,0,1.1,0.1,1.7c0,0.4,0.3,0.6,0.7,0.6c0.5,0,1-0.1,1.5-0.2c0.1,0,0.2-0.2,0.2-0.3c0-0.7,0-1.3,0-2c0-0.1-0.2-0.2-0.2-0.3
		c-0.1-0.1-0.2-0.1-0.3-0.2c0-0.1,0.1-0.2,0.2-0.3c0.1-0.1,0.2-0.3,0.1-0.3c-0.1-0.2-0.3-0.4-0.5-0.5c-0.5-0.1-1.1-0.2-1.5,0.3
		c-0.1,0.1-0.2,0.4-0.2,0.5C239.1,145.1,239.3,145.2,239.5,145.3z"/>
	<path class="st0" d="M244.4,165.5c0.6-3.5-0.3-6.9,0.1-10.3c0.2-1.7,2.2-1.6,2.6-3.6c0.2-0.8,0.1-1.8,0.1-2.6c0-0.9-0.1-2.9-1-1.7
		c-0.4,0.5-0.3,1.8-0.3,2.5c0,1.7,0.4,2.7,1.6,3.5c1,0.6,0.9,3.4,1.1,4.9c0.4,2.8,0.6,5.5,0.6,8.3c0,0.1,0-1.6,0-2
		c0-2.9-0.3-5.8-0.6-8.7c-0.2-1.6-0.4-3.2-0.6-4.8c-0.4,0-0.7-0.2-1-0.5c-0.7-0.5-1.1-1.5-1.1-2.5c0,0.8,0,1.5,0,2.3
		c0.6-1.7,1.2-1.2,1.3,0.6c0-0.8,0-1.5,0-2.3c-0.1,1.7-0.8,2.4-1.9,3c-1,0.5-0.9,2.3-0.9,3.4c0,2.7,0.3,5.3,0.3,7.9
		c0-0.7,0-1.5,0-2.2c0,0.8-0.1,1.6-0.3,2.3C244.3,163.9,244.6,164.7,244.4,165.5L244.4,165.5z"/>
</g>
<g>
	<defs>
		<path id="SVGID_1_" d="M356.2,214.5c0,86-69.7,155.7-155.7,155.7c-86,0-155.7-69.7-155.7-155.7c0-86,69.7-155.7,155.7-155.7
			C286.5,58.8,356.2,128.5,356.2,214.5z"/>
	</defs>
	<clipPath id="SVGID_2_">
		<use xlink:href="#SVGID_1_"  style="overflow:visible;"/>
	</clipPath>
	<g class="st3">
		<g>
			<path class="st4" d="M283.9,261.4c-1.7,0.4-3.4,1.2-5.1,1.3c-4.5,0.3-8.9,0.6-13.1,2.4c-0.9,0.4-1.9,0.6-2.8,0.6
				c-4.6,0-8.9,1.4-13.2,2.9c-0.8,0.3-1.6,0.3-2.4,0.5c-3.7,0.9-7.5,1.8-11.2,2.7c-1.8,0.4-3.6,0.9-5.4,1.3c-2.6,0.7-5.1,1.3-7.7,2
				c-2.3,0.7-4.7,1.4-7,2.1c-2.7,0.8-5.4,1.6-8,2.5c-2.3,0.7-4.6,1.5-6.9,2.3c-2.5,0.9-5,1.7-7.5,2.6c-2.9,1-5.7,2-8.6,3
				c-1.5,0.5-2.9,1.1-4.3,1.7c-3,1.3-6,2.6-8.9,3.8c-1.8,0.8-3.5,1.5-5.3,2.3c-2.8,1.3-5.7,2.6-8.5,3.9c-2,0.9-4,1.9-6,2.9
				c-2.2,1.1-4.3,2.2-6.5,3.4c-2.6,1.4-5.1,2.9-7.7,4.4c-2.2,1.2-4.5,2.3-6.7,3.5c-2,1.1-3.9,2.5-5.8,3.7c-1.8,1.2-3.6,2.4-5.3,3.6
				c-2.6,1.8-5.2,3.6-7.9,5.4c-2.1,1.5-4.3,2.9-6.4,4.4c-1.4,1-2.9,1.9-4,3.1c-1.2,1.2-2,1-3,0c-0.8-0.8-1.6-1.6-2.5-2.2
				c-0.5-0.3-1.2-0.2-1.8-0.3c0.1,0.7,0,1.4,0.3,2c0.4,0.8,1.3,1.3,1.7,2.1c0.3,0.6,0.1,1.4,0.1,2.1c-0.7-0.1-1.6,0.1-2-0.3
				c-4.3-4.4-8.5-8.8-12.6-13.3c-0.4-0.4-0.1-1.5-0.1-2.2c0.7,0.1,1.7-0.1,2.2,0.3c1.7,1.6,3.3,3.4,5,5.1c0.5,0.5,1,1,1.9,1.7
				c1.1-3.1-1.6-4.2-2.6-6.2c2.7-2.8,5.6-5.3,9.2-7c1.9-0.9,3.7-2.1,5.5-3.2c2.3-1.4,4.6-2.9,6.9-4.3c2.7-1.6,5.4-3.1,8.2-4.5
				c2.6-1.4,5.3-2.6,7.9-3.9c2.2-1.1,4.3-2.3,6.5-3.4c1.8-0.9,3.6-1.9,5.5-2.5c3.9-1.1,7.4-2.9,10.9-5c0.8-0.5,1.7-1,2.7-1.1
				c4.3-0.7,8.2-2.6,12-4.6c1.5-0.8,3.3-0.9,4.9-1.4c3-1,5.9-2.3,9-3.2c2.8-0.9,5.6-1.5,8.4-2.2c1.2-0.3,2.5-0.5,3.6-1.1
				c3.4-1.8,7-2.4,10.7-3c1.5-0.2,3.2-0.4,4.5-1.1c3.5-1.7,7.2-2.3,11-2.7c1.9-0.2,3.7-1,5.6-1.4c2.4-0.6,4.8-1,7.1-1.6
				c3.4-0.7,6.8-1.6,10.2-2.1c4.2-0.7,8.4-1.2,12.6-1.7c3.2-0.4,6.5-1,9.7-1.1c7.7-0.2,15.3-0.1,23-0.1
				C283.7,260.8,283.8,261.1,283.9,261.4z"/>
			<path class="st4" d="M329.7,262.4c-1.9,0.6-3.7,1.5-5.7,1.7c-5.1,0.6-10.1,1.2-14.8,3.4c-1,0.5-2.1,0.8-3.2,0.8
				c-5.3,0.3-10.1,2.1-14.9,4c-0.9,0.3-1.8,0.5-2.7,0.7c-4.2,1.2-8.4,2.4-12.6,3.6c-2,0.6-4,1.2-6,1.8c-2.9,0.9-5.8,1.7-8.6,2.7
				c-2.6,0.9-5.2,1.8-7.8,2.7c-3,1.1-6,2.1-9,3.2c-2.6,0.9-5.2,1.9-7.7,2.9c-2.8,1.1-5.6,2.2-8.4,3.3c-3.2,1.3-6.4,2.5-9.6,3.8
				c-1.6,0.7-3.2,1.4-4.8,2.2c-3.3,1.6-6.6,3.1-9.9,4.7c-2,0.9-3.9,1.9-5.9,2.8c-3.1,1.6-6.3,3.1-9.4,4.7c-2.2,1.1-4.4,2.3-6.6,3.6
				c-2.4,1.3-4.8,2.7-7.1,4.1c-2.9,1.7-5.6,3.5-8.5,5.2c-2.4,1.4-5,2.7-7.4,4.2c-2.2,1.4-4.2,2.9-6.3,4.4c-2,1.4-3.9,2.8-5.9,4.2
				c-2.9,2.1-5.7,4.2-8.6,6.3c-2.3,1.7-4.7,3.4-7,5.1c-1.5,1.1-3.1,2.2-4.4,3.6c-1.2,1.3-2.2,1.2-3.4,0.2c-0.9-0.8-1.9-1.6-3-2.2
				c-0.5-0.3-1.4-0.1-2.1-0.2c0.1,0.7,0.1,1.6,0.5,2.1c0.5,0.8,1.5,1.3,2,2.1c0.4,0.6,0.2,1.5,0.3,2.2c-0.8,0-1.9,0.2-2.3-0.1
				c-5.1-4.4-10.2-9-15.1-13.6c-0.5-0.4-0.2-1.6-0.3-2.4c0.9,0,2-0.2,2.5,0.2c2.1,1.6,4,3.5,6,5.2c0.6,0.5,1.3,1,2.2,1.8
				c1.1-3.4-2-4.4-3.3-6.5c2.9-3.2,6-6.1,10-8.1c2.1-1.1,4.1-2.5,6.1-3.8c2.6-1.7,5-3.5,7.6-5.1c3-1.9,6-3.7,9-5.4
				c2.9-1.6,5.9-3.1,8.8-4.7c2.4-1.3,4.7-2.8,7.1-4.1c2-1.1,3.9-2.3,6.1-3c4.3-1.5,8.3-3.6,12.1-6.1c0.9-0.6,1.9-1.1,3-1.4
				c4.9-1,9.1-3.3,13.4-5.7c1.6-0.9,3.7-1.2,5.5-1.9c3.4-1.3,6.6-2.8,10-4c3.1-1.1,6.3-1.9,9.4-2.9c1.4-0.4,2.8-0.7,4-1.4
				c3.7-2.1,7.8-3.1,12-3.9c1.7-0.3,3.6-0.7,5.1-1.5c3.9-2.1,8-2.9,12.3-3.7c2.1-0.4,4.2-1.3,6.3-1.9c2.7-0.7,5.3-1.4,8-2.1
				c3.8-1,7.6-2.1,11.5-3c4.7-1,9.4-1.8,14.2-2.7c3.6-0.7,7.3-1.5,10.9-1.8c8.7-0.7,17.4-1,26.1-1.5
				C329.5,261.8,329.6,262.1,329.7,262.4z"/>
			<path class="st4" d="M362.2,264.3c-1.9,0.8-3.8,1.8-5.7,2.2c-5.2,1-10.3,2.1-15,4.7c-1,0.5-2.1,1-3.2,1.1
				c-5.4,0.7-10.2,2.9-15,5.3c-0.9,0.4-1.8,0.6-2.7,1c-4.2,1.6-8.5,3.1-12.7,4.7c-2,0.8-4.1,1.5-6.1,2.3c-2.9,1.1-5.8,2.3-8.7,3.5
				c-2.6,1.1-5.3,2.3-7.9,3.5c-3,1.3-6,2.7-9,4c-2.6,1.2-5.2,2.4-7.8,3.7c-2.8,1.4-5.6,2.7-8.4,4.1c-3.2,1.6-6.4,3.1-9.6,4.7
				c-1.6,0.8-3.2,1.7-4.8,2.6c-3.3,1.9-6.6,3.8-9.9,5.7c-2,1.1-3.9,2.2-5.8,3.4c-3.1,1.9-6.2,3.7-9.3,5.7c-2.2,1.4-4.4,2.8-6.5,4.2
				c-2.4,1.6-4.7,3.2-7,4.8c-2.8,2-5.5,4.1-8.4,6.1c-2.4,1.7-4.9,3.2-7.3,5c-2.1,1.6-4.2,3.4-6.2,5.1c-1.9,1.6-3.8,3.2-5.7,4.9
				c-2.8,2.4-5.6,4.8-8.4,7.2c-2.3,2-4.6,3.9-6.9,5.9c-1.5,1.3-3.1,2.6-4.3,4.1c-1.2,1.5-2.2,1.4-3.5,0.4c-1-0.8-2.1-1.5-3.3-2.1
				c-0.6-0.3-1.4,0-2.2,0c0.2,0.7,0.2,1.6,0.7,2.2c0.6,0.8,1.7,1.3,2.3,2.1c0.4,0.6,0.3,1.5,0.4,2.3c-0.8,0-1.9,0.4-2.4,0
				c-5.6-4.3-11.2-8.6-16.7-13.1c-0.5-0.4-0.3-1.6-0.5-2.5c0.9,0,2-0.4,2.6,0c2.3,1.5,4.4,3.3,6.6,5c0.7,0.5,1.4,0.9,2.4,1.7
				c0.8-3.7-2.4-4.4-3.9-6.5c2.7-3.5,5.7-6.8,9.7-9.3c2.1-1.3,4-2.9,6-4.5c2.5-1.9,4.9-4,7.5-5.9c2.9-2.2,5.9-4.3,8.9-6.3
				c2.8-1.9,5.8-3.7,8.7-5.6c2.4-1.6,4.7-3.3,7.1-4.8c1.9-1.3,3.9-2.7,6-3.6c4.4-1.9,8.2-4.4,12-7.2c0.9-0.7,1.9-1.3,3-1.7
				c5-1.4,9.2-4.1,13.4-7c1.6-1.1,3.7-1.5,5.5-2.4c3.4-1.6,6.6-3.4,10-5c3.1-1.4,6.3-2.5,9.5-3.8c1.4-0.5,2.8-1,4-1.8
				c3.7-2.5,7.8-3.8,12-5c1.8-0.5,3.6-1,5.1-1.9c3.8-2.5,8.1-3.7,12.4-4.8c2.2-0.5,4.2-1.6,6.3-2.4c2.7-1,5.4-1.9,8.1-2.8
				c3.9-1.3,7.7-2.8,11.6-4c4.8-1.4,9.6-2.6,14.4-3.9c3.7-1,7.4-2.2,11.2-2.7c8.9-1.4,17.9-2.4,26.8-3.6
				C361.9,263.6,362,263.9,362.2,264.3z"/>
			<path class="st4" d="M365.2,279.4c-0.2,0.3-0.2,0.8-0.5,0.9c-3.3,2.5-6.6,4.9-9.9,7.3c-0.2,0.1-0.4,0.2-0.6,0.3
				c-4,3.2-8,6.5-12,9.7c-1.4,1.1-2.7,2.2-4.1,3.4c-1.8,1.5-3.6,3.1-5.3,4.6c-0.1,0.1-0.2,0.2-0.3,0.3c-4.3,3.5-8.5,7-12.8,10.5
				c-0.2,0.2-0.6,0.2-0.8,0.4c-3.9,3.9-7.8,7.8-11.7,11.7c-0.1,0.1-0.1,0.1-0.1,0.2c-3.8,3.5-7.6,7-11.3,10.5
				c-1.1,1-2.3,2.1-3.3,3.2c-0.6,0.6-0.9,1.4-1.4,2c-3.5,3.6-7.1,7.2-10.7,10.8c-0.7,0.7-1.9,1.2-2.3,2c-1.9,3.6-5,6-7.9,8.6
				c-0.3,0.3-0.7,0.5-1.1,0.7c-9.1,3.6-18.6,5.9-28.1,7.9c-0.2,0-0.4-0.1-0.8-0.1c0.6-2.7,2.6-4.3,4.6-6c1.4-1.1,2.6-2.4,3.8-3.6
				c1.8-1.7,3.5-3.3,5.3-4.9c0.9-0.9,2-1.6,2.7-2.6c1.7-2.3,3.9-3.9,6.2-5.6c4.1-3.1,7.8-6.7,11.6-10.1c1.7-1.5,3.5-2.9,5.3-4.3
				c0.2-0.2,0.5-0.3,0.7-0.5c4.3-3.6,8.6-7.1,12.9-10.7c0.2-0.2,0.4-0.5,0.6-0.7c4.2-3,8.5-6.1,12.7-9.1c0.2-0.2,0.5-0.3,0.8-0.5
				c4.8-3.6,9.6-7.3,14.5-10.8c4.1-2.9,8.4-5.4,12.5-8.1c1.6-1,3.1-2,4.7-2.9c2-1.2,4-2.5,6-3.7c1.3-0.8,2.5-1.6,3.8-2.3
				c2.3-1.3,4.7-2.5,6.9-3.8c1.8-1.1,3.3-2.5,5.1-3.5c1.3-0.8,2.8-1.2,4.1-1.8C365,279,365.1,279.2,365.2,279.4z"/>
			<path class="st4" d="M364.5,269.4c-0.3,0.4-0.4,0.9-0.8,1.2c-5.1,2.9-10.2,5.7-15.3,8.5c-0.3,0.2-0.6,0.2-0.9,0.4
				c-6.2,3.8-12.4,7.6-18.6,11.4c-2.1,1.3-4.2,2.6-6.3,4c-2.8,1.8-5.5,3.6-8.3,5.4c-0.2,0.1-0.3,0.3-0.5,0.4
				c-6.6,4.1-13.2,8.2-19.8,12.3c-0.4,0.2-0.9,0.3-1.2,0.5c-6.1,4.6-12.2,9.2-18.2,13.9c-0.1,0.1-0.1,0.2-0.2,0.2
				c-5.9,4.1-11.8,8.3-17.6,12.4c-1.8,1.2-3.5,2.5-5.2,3.8c-0.9,0.7-1.4,1.7-2.3,2.4c-5.5,4.3-11.1,8.6-16.7,12.8
				c-1.1,0.9-2.9,1.4-3.6,2.4c-3.1,4.3-18.4,15.6-22.9,18.7c-0.5,0.3-1.1,0.6-1.7,0.7c-13.9,3.8-18.9,1.3-32-0.4
				c-0.3,0-0.6-0.1-1.2-0.2c1.1-3.4,4.1-5.3,7.2-7.2c2.1-1.3,4-2.9,6-4.3c2.7-2,5.5-3.9,8.2-5.9c1.4-1,3-1.9,4.2-3.1
				c2.7-2.8,6.2-4.6,9.6-6.6c6.3-3.7,12-8,18.1-11.9c2.7-1.7,5.4-3.4,8.2-5c0.4-0.2,0.7-0.4,1.1-0.6c6.7-4.2,13.3-8.4,20-12.6
				c0.3-0.2,0.6-0.6,0.9-0.8c6.5-3.5,13.1-7.1,19.6-10.6c0.4-0.2,0.8-0.3,1.2-0.5c7.4-4.2,14.8-8.6,22.3-12.6
				c6.3-3.3,12.8-6.2,19.3-9.3c2.4-1.1,4.8-2.2,7.2-3.4c3.1-1.4,6.1-2.8,9.2-4.2c1.9-0.9,3.8-1.9,5.8-2.7c3.5-1.5,7.2-2.8,10.6-4.3
				c2.7-1.2,5.1-2.9,7.8-4.1c2-0.9,4.2-1.3,6.3-2C364.2,268.9,364.4,269.2,364.5,269.4z"/>
			<path class="st5" d="M48.1,193.7c6.7-1.8,13.8-4.6,20.7-4.9c8.5-0.5,16.4,3.8,23.9,6.3c8.8,3,17.1,3,13-8.8
				c3.4,17.2,21.9,3.7,30.7,7.4c6.1,2.6,7.9,3.4,7.9,0.2c0-3.1,0-5.6,0-5.6c10.2,0,18.4-4.3,28.2-5.9c6.5-1.1,8.8,2.2,15.7,3.7
				c5.7,1.2,5.7,3.4,5.7,3.4l0.1,6.4c0,0,8.7-8.7,18.1-3.3c0,0,9.4,2.9,10.7,0.6c1.3-2.3,1.3,2,1.3,2c11,2.9,18-11.3,33.9-1.5
				c4.2,2.6,5.5,5.4,12.1,4.1c5.1-1,12.6-3.5,17.2-5.8c3.6-1.7,8.6-6.5,8.6-6.5l2.9-2.8l3.6,2.8c0,0,5,3.3,5.7-0.6
				c0.7-3.9,1.4-10.5,3.6-7.5c2.2,3,7.2,6.1,7.2,6.1l5,2.8c0,0,4.3,3.1,11.5,3.3c7.2,0.2,17.7,0,17.7,0s11,44.4-1,60.6
				c0,0-57.3-16.1-136.7,7.9l-14.9,1.1c0,0-56.6-24.5-152.4-17.2C48.1,242,42.3,208.2,48.1,193.7z"/>
			<path class="st6" d="M187.6,267.8c-5.2,1.4-10.5,2.5-15.6,4.3c-6.7,2.3-12.9,0.7-19.2-1.3c-4.1-1.3-8.2-1.9-12.4-2.4
				c-3.7-0.5-7.4-1.6-11.1-2.4c-2.6-0.5-5.3-0.7-7.9-1.1c-3.7-0.5-7.3-1.1-11-1.6c-3.1-0.4-6.2-0.9-9.3-1.3
				c-4.7-0.6-9.4-1.3-14.1-1.8c-2.8-0.3-5.6-0.4-8.4-0.6c-3.6-0.3-7.2-0.8-10.9-1c-4.1-0.2-8.3-0.2-12.4-0.4c-1.4,0-2.9,0.1-4.2-0.4
				c-0.9-0.4-1.3-1.7-1.9-2.6c0.7-0.3,1.4-1,2.1-1c5-0.1,9.9-0.1,14.9,0c3.4,0,6.9,0,10.3,0.2c5.4,0.3,10.8,0.8,16.2,1.1
				c1.9,0.1,3.7-0.1,5.6,0c4.2,0.2,8.3,0.3,12.5,0.6c3.5,0.3,7,0.7,10.4,1.1c4.8,0.5,9.6,1.2,14.4,1.7c3.6,0.4,7.3,0.5,10.9,0.9
				c2.9,0.3,5.7,0.7,8.6,1.2c3.7,0.6,7.3,1.3,11,2c5.4,1,10.8,2.1,16.2,3.1c1.9,0.4,3.7,0.8,5.6,1.2
				C187.6,267.5,187.6,267.6,187.6,267.8z"/>
			<path class="st6" d="M150.4,278.7c-2.7,1-5.5,2.1-8.2,3.1c-0.2,0.1-0.5,0-0.6,0.2c-4.5,3.2-9.2,1.7-13.8,0.3
				c-5.6-1.6-11-3.9-16.6-4.8c-5.3-0.9-10.4-2.6-15.5-4.2c-2-0.6-4.1-0.6-6.2-1c-4-0.9-7.9-2.1-11.9-2.9c-2.4-0.5-4.9-0.4-7.3-0.8
				c-2.8-0.4-5.5-1.1-8.3-1.6c-2.5-0.5-5.1-1.1-7.7-1.3c-2.3-0.2-2.9-1.3-2.9-3.8c5.2,0.3,10.3,0.5,15.3,1c3.7,0.3,7.4,0.9,11,1.4
				c4,0.5,7.9,1.1,11.9,1.7c3.2,0.5,6.3,0.9,9.5,1.4c3.4,0.6,6.9,1.1,10.3,1.8c3.1,0.6,6.1,1.2,9.2,1.8c4.7,1,9.4,2.1,14.1,3.1
				c2.2,0.5,4.4,0.8,6.6,1.3c3.7,0.7,7.3,1.5,11,2.3C150.4,277.9,150.4,278.3,150.4,278.7z"/>
			<path class="st6" d="M54.1,269.2c12,2.9,23.7,5.5,35.4,8.7c11.5,3.1,22.9,6.8,35,10.5c-1,0.9-1.3,1.3-1.7,1.5
				c-3.2,1.5-6.4,3-9.7,4.5c-0.7,0.3-1.8,0.5-2.5,0.3c-3.5-1.3-6.9-2.7-10.3-4.1c-1.8-0.8-3.5-1.9-5.4-2.7c-2.5-1.1-5.1-1.9-7.6-2.9
				c-2.8-1.1-5.6-2.3-8.5-3.3c-2.5-0.9-5-1.8-7.5-2.6c-3-1-6-2-9-3.1c-1.1-0.4-2.1-1.1-3.1-1.2C55.9,274.5,54.4,272.9,54.1,269.2z"
				/>
			<path class="st6" d="M103.1,299.3c-4.3,2.4-8.4,4.9-12.7,7.1c-0.8,0.4-2.5-0.2-3.3-1c-3.2-2.9-6.6-5.3-10.7-6.7
				c-0.9-0.3-1.6-1.1-2.4-1.6c-2.4-1.5-4.8-3.1-7.4-4.4c-1.9-0.9-3.2-2-4-3.9c-1.2-2.9-2.8-5.6-4.5-8.8
				C73.8,285.5,88.5,291.9,103.1,299.3z"/>
		</g>
	</g>
</g>
<path class="st7" d="M356.2,212.6c0,86-69.7,155.7-155.7,155.7c-86,0-155.7-69.7-155.7-155.7c0-86,69.7-155.7,155.7-155.7
	C286.5,56.9,356.2,126.6,356.2,212.6z"/>
<g>
	<defs>
		<path id="SVGID_3_" d="M356.2,210.7c0,86-69.7,155.7-155.7,155.7c-86,0-155.7-69.7-155.7-155.7c0-86,69.7-155.7,155.7-155.7
			C286.5,55.1,356.2,124.7,356.2,210.7z"/>
	</defs>
	<clipPath id="SVGID_4_">
		<use xlink:href="#SVGID_3_"  style="overflow:visible;"/>
	</clipPath>
	<g class="st8">
		<g>
			<g>
				<g>
					<g>
						<path class="st9" d="M141.7,231.6c34.1,8.2,68.7,14.5,103.5,18.8c14.7,1.8,28.9,3.2,43.7,2.7c4.9-0.2,36.4,0,22.1-9.3
							c-43.8-28.5-94.1-43-143.4-58c-8.2-2.5-16.7-5-25.1-3.5c-9.6,1.7-18,8.8-21.2,18C114.7,219,125.8,227.8,141.7,231.6z"/>
						<path class="st10" d="M169.6,177.6c0.3,5.9-9.2,8.8-11.9,13.5c-3.5,6.2-5.6,12.5-8.8,19c-3.6,7.3-10.8,21.8-6.2,29.8
							c2.1,3.6,4.6,4.3,8.7,4.2c3.4,0,6.3-1,9.5-1.5c3-0.4,6.2,0.4,9.5,0.1c7.7-0.8,15.1-4.9,23-3.7c5.5,0.9,9.5,5.2,14.3,7.9
							c3.9,2.2,7.7,3.4,10.2,7.2c1.2,1.8,2.1,7.2,5.2,6.4c1.9-0.5,3.7-6.7,5.1-8.2c1.7-1.7,4.1-3,6.5-3.6c4.1-1,9.5,4.2,11.6,7.3
							c2.3,3.4,3.8,6,8.1,6.6c1.1-3.6,2.6-10.2,1.7-13.9c-1-3.8-4.4-6.2-4.6-10.3c-0.2-4.4,1.9-10.4,3.4-14.5c1-2.7,3.6-4.7,3.8-7.7
							c0.3-4.3-4.4-7.6-7.8-9.5c-4-2.2-9.2-0.2-12.8-2.2c-1.1-0.6-1.4-2.2-2.7-2.9c-1.4-0.7-3.4-0.4-4.9-0.7c-2.3-0.5-6-2.1-7.9-3.2
							c-2.4-1.4-3.9-4.1-6.2-5.3c-3.6-1.9-7.9-0.9-11.7-2.6c-1.4-0.6-3.1-0.7-4.4-1.3c-1.6-0.8-2.3-1.9-3.8-2.7
							c-4.1-2.2-9.1-1.4-13.4-2.9C178.5,181.4,174,179.6,169.6,177.6"/>
					</g>
				</g>
				<path class="st11" d="M156.2,182.6c-4.2,9.6-8.5,20.5-9,31c0,0.4,0.5,0.4,0.7,0.1c1.6-4.9,2.5-10,3.9-14.9
					c1.5-5.3,3.4-10.5,5.4-15.6C157.5,182.5,156.5,181.9,156.2,182.6z"/>
				<path class="st11" d="M136.6,228c-0.4-5.7-1.1-11.3-0.6-17.1c0.5-6,1.9-11.9,4-17.6c0.3-0.8-1.1-1.4-1.5-0.6
					c-4.2,10.7-6.6,24.1-3,35.4C135.8,228.7,136.7,228.6,136.6,228z"/>
				<path class="st11" d="M269.7,232.3c0.3-1.1-1.3-1.4-1.7-0.4c-2.2,6.6-4.1,13.8-3.6,20.8c0,0.6,1,0.8,1.1,0.1
					C266.8,245.9,267.5,239.1,269.7,232.3z"/>
				<path class="st11" d="M284.6,232.3c0-0.8-1.1-0.8-1.3-0.1c-1.2,3.8-2.2,8.4-2.3,12.4c0,0.9,1.2,0.9,1.4,0.1
					C283.8,241,284.4,236.3,284.6,232.3z"/>
				<path class="st11" d="M133.2,183.2c-3.7,6.6-6.3,14-6.1,21.7c0,0.5,0.7,0.5,0.8,0.1c1.1-7.5,2.7-14.5,6.4-21.1
					C134.8,183.1,133.6,182.5,133.2,183.2z"/>
			</g>
			<path class="st12" d="M179.6,372.8c1-20,1.9-40.1,2.9-60.1c0.3-5.4,0.9-10.9-1-16.5c4.9,1,9.7,3.1,14.5,0.4
				c-2.6-0.1-5.3-0.1-7.9-0.5c-1.7-0.2-3.5-0.9-5.1-1.7c-0.7-0.3-1.4-1.6-1.4-2.3c0.1-0.7,1.2-1.5,2-1.7c2.1-0.6,4.4-0.8,6.5-1.3
				c0.8-0.2,1.6-0.7,2.4-1c-0.1-0.2-0.1-0.4-0.2-0.6c-2.3-0.2-4.5-0.3-6.8-0.5c-2.1-0.1-3.8-0.7-5.1-2.6c-1.6-2.1-3.7-3.8-5.4-5.8
				c-8.2-9-16.3-17.9-24.4-27c-1.3-1.5-2.5-3.2-3.6-4.9c-3-4.6-4-9.6-2.7-15c3.3-13.9,8.3-27.1,14.9-39.7c0.4-0.7,0.8-1.3,1.2-1.9
				c2.5-3.5,4.4-4,8.6-3.1c4.9,1.1,9.9,2,14.9,2.9c-1.4,1.8,0.2,2.9,1.1,4.2c0.9,1.2,2.1,1.4,3.5,1c5.7-1.7,11.5-3.4,16.2-7.4
				c1.6,1.2,2.2,2.7,1.8,4.6c-0.2,0.7-0.3,1.5-0.7,2.2c-4.8,8.1-11.3,14-21,15.3c-7,1-12.9-1.4-16.8-7.6c-0.1-0.2-0.3-0.3-0.9-0.3
				c0.5,1.4,0.7,3,1.4,4.3c1.8,3.5,4.9,5.7,8.4,7.2c1.6,0.7,1.7,1.5,1.1,2.9c-1.6,3.5-3.8,6.1-8,6.3c-3.2,0.2-6.3,0.4-9.6,0.9
				c2.9,0.4,5.9,0.7,8.8,1.1c-1.7,3.3-4.1,4.3-12,5c0.6,0.2,1.2,0.5,1.9,0.7c0.6,0.2,1.3,0.3,2.5,0.5c-1,1.4-1.8,2.5-2.9,4.1
				c0.9-0.5,1.4-0.8,1.9-1.1c3.7-2.4,7.4-4.9,11.2-7.3c2.6-1.7,5.5-2.6,8.7-2.1c1.6,0.3,2.8,1,3.6,2.5c1.3,2.3,3.3,3.5,5.8,4.4
				c3.1,1.2,6.1,2.7,8.8,4.7c5.9,4.4,11.6,9.2,17.3,13.9c0.7,0.6,1.4,1.6,1.6,2.6c1.7,6.1,3.4,12.2,4.9,18.4
				c0.7,2.9,0.5,3.6-1.5,8.6c2.5-1.5,3.7-4.5,3.3-8.3c-0.6-5.3-1.4-10.7-2.1-16c-0.2-1.7-0.3-3.5,0-5.2c0.6-2.9,3.7-5.1,7.5-5.2
				c2.1-0.1,4.3,0.2,6.4,0.5c4.6,0.5,11.3-0.7,14.8-4.2c0,2,0.3,3.8,0.9,5.6c1.3,0.5,4,3.5,3.4,5.1c-0.8,2.2-7.4,1.2-7.1-0.1
				c-0.4,2,0.7,3.3,1.9,4.6c0.9,0.9,2.1,1.7,2.8,2.8c3,4.3,4.3,8.9,1.5,13.9c-1,1.8-2,3.7-3.1,5.4c-2.6,3.7-6.4,5.2-10.9,4.8
				c-1.2-0.1-2.5-0.2-3.7-0.5c-3.8-1-7.4-0.2-11,1.1c-3.1,1.2-6.2,2.4-9.1,4c2.3-0.6,4.7-1,7-1.7c5-1.5,9.8-1.3,14.6,1.1
				c2.1,1.1,4.6,1.3,6.9,2.1c0.8,0.3,1.6,1,2.1,1.8c0.3,0.4,0,1.4-0.3,1.9c-0.2,0.3-1.2,0.3-1.7,0.2c-2-0.6-3.9-1.4-6-1.8
				c-1.4-0.3-2.9-0.2-4.3,0.2c-9.7,2.9-19.5,4.6-29.6,2.8c0,0.2,0,0.3-0.1,0.5c2.4,0.5,4.8,1.1,7.3,1.3c4.8,0.4,9.6,0.6,14.4,0.6
				c8.8,0,14.6,3.9,17.9,12.1c2.2,5.5,2.1,11.4,2.7,17.1c1.6,14.1,3.3,28.2,4.9,42.3c0.1,1,0.2,2.1,0.3,3.1
				c-8.6,0.2-17.2,0.4-25.9,0.5c-1.1-17.2,2-34.4-0.2-51.7c-0.8,12.6-1.5,25-2.3,37.4c-0.3,4.8-0.3,9.6-0.5,14.4
				c-4.3,0.1-8.6,0.2-12.9,0.3c0-4.3-0.1-8.5-0.1-12.8c0.1-14.3,0.2-28.6,0.2-43c0-0.7-0.1-1.4-0.1-2.1c-0.3,0.8-0.5,1.5-0.6,2.3
				c-0.6,11.7-1.3,23.4-1.9,35.2c-0.4,6.8-0.8,13.7-1.2,20.5C197.9,372.5,188.8,372.6,179.6,372.8z"/>
			<path class="st13" d="M207.1,372.3c0.4-6.8,0.8-13.7,1.2-20.5c0.7-11.7,1.3-23.4,1.9-35.2c0-0.8,0.2-1.5,0.6-2.3
				c0,0.7,0.1,1.4,0.1,2.1c-0.1,14.3-0.2,28.6-0.2,43c0,4.3,0.1,8.5,0.1,12.8C209.6,372.2,208.4,372.2,207.1,372.3z"/>
			<path class="st13" d="M223.8,371.9c0.2-4.8,0.2-9.6,0.5-14.4c0.7-12.4,1.5-24.8,2.3-37.4c2.2,17.3-0.9,34.5,0.2,51.7
				C225.8,371.9,224.8,371.9,223.8,371.9z"/>
			<path class="st12" d="M230.1,188.3c-1.8-0.3-3.2-0.5-4.6-0.7c3.5,1.4,6.7,2.9,8.1,7.1c-1.3-0.4-2.4-0.7-3.5-1
				c0,0.1-0.1,0.2-0.1,0.3c0.6,0.4,1.2,0.8,1.8,1.3c1.4,1.2,2.1,2.6,1.7,4.6c-1.9,8.6-3.8,17.2-5.6,25.8c-0.6,2.8-0.8,5.7-1,8.5
				c-0.1,1.5-0.6,2.3-2.2,2.5c-3.7,0.4-7.4,0.4-10.9-1c-0.8-0.3-1.9-1.4-1.9-2.1c-0.1-3.9-0.2-7.8,0.3-11.6
				c1.3-10.3,3-20.5,4.4-30.7c0.4-3,2.1-4.3,4.6-5C224.3,185.4,227.2,186,230.1,188.3z"/>
			<path class="st12" d="M193.9,186.1c-1.5-6,3.1-8.8,7.4-9.2c1.6-0.1,3.2-0.1,4.9-0.5c-1.5-0.4-2.9-0.8-4.3-1.1
				c3.1-1.4,6.2-0.3,8.5,2.4c3.8,4.5,3.3,9.6,2.6,14.7c-1.2,8.7-2.5,17.4-3.8,26.1c-0.5,3.4-3.8,5.5-7.2,4.8c-2-0.4-3.9-0.9-5.8-1.4
				c-0.1,0.2-0.2,0.5-0.2,0.7c2,0.7,4,1.5,6,2.1c1.5,0.4,3,0.2,4.5,0.5c0.5,0.1,1.3,0.8,1.3,1.2c0,0.6-0.6,1.7-0.9,1.8
				c-5,0.1-10.2,0.8-14.5-2.8c-2-1.7-2.8-3.7-1.9-6.3c0.5-1.4,0.8-2.8,1.3-4.2c0.6-1.8,1.9-2.9,3.6-3.9c3.2-1.9,6.6-3.7,9.3-6.2
				c4.3-3.9,5.8-9.1,4.9-14.9c-0.6-3.8-2.2-5-5.9-4.7C200.3,185.5,197.1,185.8,193.9,186.1z"/>
			<path class="st12" d="M183.8,170.6c-1.6-0.6-2.7-1-3.8-1.4c6.2-0.8,11,3.6,10.7,9.8c0,0.3,0,0.5-0.1,0.8c-0.8,6.6-1.9,7.7-8.4,7
				c-3.8-0.4-7.6-1.3-11.5-2c-1.5-0.3-2.2-1.2-1.7-2.7c0.7-2.1,1.5-4.3,2.5-6.3c2.2-4.1,5.7-5.8,10.4-4.8c0.3,0.1,0.7,0,1.1,0
				C183,171,183.1,170.9,183.8,170.6z"/>
			<path class="st12" d="M200.8,188.2c-4.6,4.1-11.7,5.5-14.4,2.5C191.2,188.9,196.2,189.8,200.8,188.2z"/>
			<path class="st12" d="M212.8,237.5c4,1.1,7.8,2,11.8,3.1c-1.9,1.3-3.8,1.8-5.8,1C216.7,240.7,213.8,240.7,212.8,237.5z"/>
			<path class="st12" d="M240.5,240.6c-4.5,2.3-8.6,0.6-8.8-3.5C234.6,238.3,237.5,239.4,240.5,240.6z"/>
			<path class="st12" d="M262.1,218.3c2.8,0.5,3.6,2.1,2.4,5.1C263.6,221.5,262.8,220,262.1,218.3z"/>
		</g>
		<path class="st14" d="M179.9,370.9c1-20,1.9-40.1,2.9-60.1c0.3-5.4,0.9-10.9-1-16.5c4.9,1,9.7,3.1,14.5,0.4
			c-2.6-0.1-5.3-0.1-7.9-0.5c-1.7-0.2-3.5-0.9-5.1-1.7c-0.7-0.3-1.5-1.6-1.4-2.3c0.1-0.7,1.2-1.5,2-1.7c2.1-0.6,4.4-0.8,6.5-1.3
			c0.8-0.2,1.6-0.7,2.4-1c-0.1-0.2-0.1-0.4-0.2-0.6c-2.3-0.2-4.5-0.3-6.8-0.5c-2.1-0.1-3.8-0.7-5.1-2.6c-1.6-2.1-3.7-3.8-5.4-5.8
			c-8.2-9-16.3-17.9-24.4-27c-1.3-1.5-2.5-3.2-3.6-4.9c-3-4.6-4-9.6-2.7-15c3.3-13.9,8.3-27.1,14.9-39.7c0.4-0.7,0.8-1.3,1.2-1.9
			c2.5-3.5,4.4-4,8.6-3.1c4.9,1.1,9.9,2,14.9,3c-1.4,1.8,0.2,2.9,1.1,4.2c0.9,1.2,2.1,1.4,3.5,1c5.7-1.7,11.5-3.4,16.2-7.4
			c1.6,1.2,2.2,2.7,1.7,4.6c-0.2,0.8-0.3,1.5-0.7,2.2c-4.8,8.1-11.3,14-20.9,15.3c-7,1-12.9-1.4-16.8-7.6c-0.1-0.2-0.3-0.3-0.9-0.3
			c0.5,1.4,0.7,3,1.4,4.3c1.8,3.5,4.9,5.7,8.4,7.2c1.6,0.7,1.7,1.5,1.1,2.9c-1.6,3.5-3.8,6.1-8,6.3c-3.2,0.2-6.3,0.4-9.6,0.9
			c2.9,0.4,5.9,0.7,8.7,1.1c-1.7,3.3-4.1,4.3-12,5c0.6,0.2,1.2,0.5,1.9,0.7c0.7,0.2,1.3,0.3,2.5,0.5c-1,1.4-1.8,2.5-2.9,4.1
			c0.9-0.5,1.4-0.8,1.9-1.1c3.7-2.4,7.4-4.9,11.2-7.3c2.6-1.7,5.5-2.6,8.7-2.1c1.6,0.3,2.9,1,3.7,2.4c1.3,2.3,3.3,3.5,5.8,4.5
			c3.1,1.2,6.2,2.7,8.8,4.7c5.9,4.4,11.6,9.2,17.3,13.8c0.7,0.6,1.4,1.6,1.6,2.6c1.7,6.1,3.4,12.2,4.9,18.4c0.7,2.9,0.4,3.6-1.5,8.6
			c2.5-1.5,3.7-4.5,3.3-8.3c-0.6-5.3-1.4-10.7-2.1-16c-0.2-1.7-0.3-3.5,0-5.2c0.6-2.9,3.7-5.1,7.5-5.2c2.1-0.1,4.3,0.2,6.4,0.4
			c4.6,0.5,11.3-0.7,14.8-4.1c0,2,0.3,3.8,0.9,5.6c1.4,0.5,4,3.5,3.4,5.1c-0.8,2.2-7.3,1.2-7.1-0.1c-0.4,2,0.7,3.3,1.9,4.6
			c0.9,0.9,2.1,1.7,2.8,2.8c3,4.3,4.3,8.9,1.5,13.9c-1,1.8-2,3.7-3.2,5.4c-2.8,4-8.4,3.3-6,9.5c1.3,3.3,2.3,3.3,1.3,6.6
			c-0.9,2.7-1.9,4.7-1.9,8.2c0.1,7.7,2,15.7,2.9,23.4c1.6,14.1,3.3,28.2,4.9,42.3c0.1,1,0.2,2.1,0.3,3.1c-8.6,0.2-17.2,0.4-25.9,0.5
			c-1.1-17.2,2-34.4-0.2-51.7c-0.8,12.6-1.5,25-2.2,37.4c-0.3,4.8-0.3,9.6-0.5,14.4c-4.3,0.1-8.6,0.2-12.9,0.3
			c0-4.3-0.1-8.5-0.1-12.8c0.1-14.3,0.1-28.6,0.2-43c0-0.7-0.1-1.4-0.1-2.1c-0.4,0.8-0.5,1.5-0.6,2.3c-0.6,11.7-1.3,23.4-1.9,35.2
			c-0.4,6.8-0.8,13.7-1.2,20.5C198.3,370.6,189.1,370.8,179.9,370.9z"/>
		<path class="st14" d="M177.6,370.8c1-20,1.9-40.1,2.9-60.1c0.3-5.4,0.9-10.9-1-16.5c4.9,1,9.7,3.1,14.5,0.4
			c-2.6-0.1-5.3-0.1-7.9-0.5c-1.7-0.2-3.5-0.9-5.1-1.7c-0.7-0.3-1.5-1.6-1.4-2.3c0.1-0.7,1.2-1.5,2-1.7c2.1-0.6,4.4-0.8,6.5-1.3
			c0.8-0.2,1.6-0.7,2.4-1c-0.1-0.2-0.1-0.4-0.2-0.6c-2.2-0.2-4.5-0.3-6.7-0.5c-2.1-0.1-3.8-0.7-5.1-2.6c-1.6-2.1-3.7-3.8-5.4-5.8
			c-5.5-6-11-12.1-16.4-18.1c-4-4.4-9.9-8.7-12.7-14c-1.8-3.4-2.4-11-1.5-14.7c3.3-13.9,8.3-27.1,14.9-39.7c0.4-0.7,0.8-1.3,1.2-1.9
			c2.5-3.5,4.4-4,8.6-3.1c4.9,1.1,9.9,2,14.9,2.9c-1.4,1.8,0.2,2.9,1.1,4.2c0.9,1.2,2.1,1.4,3.5,1c5.7-1.7,11.5-3.4,16.2-7.4
			c1.6,1.2,2.2,2.7,1.7,4.6c-0.2,0.8-0.3,1.5-0.7,2.2c-4.8,8.1-11.3,14-20.9,15.3c-7.1,1-12.9-1.4-16.8-7.6
			c-0.1-0.2-0.3-0.3-0.9-0.3c0.5,1.4,0.7,2.9,1.4,4.3c1.8,3.5,4.9,5.7,8.4,7.2c1.6,0.7,1.7,1.5,1.1,2.9c-1.6,3.5-3.8,6.1-8,6.3
			c-3.2,0.2-6.3,0.4-9.6,0.9c2.9,0.4,5.9,0.7,8.7,1.1c-1.7,3.3-4.1,4.3-12,5c0.6,0.2,1.2,0.5,1.9,0.7c0.7,0.2,1.3,0.3,2.5,0.5
			c-1,1.4-1.8,2.5-2.9,4.1c0.9-0.5,1.4-0.8,1.9-1.1c3.7-2.4,7.4-4.9,11.2-7.3c2.6-1.7,5.5-2.6,8.7-2.1c1.6,0.3,2.9,1,3.7,2.5
			c1.3,2.3,3.3,3.5,5.8,4.5c3.1,1.2,6.1,2.7,8.8,4.7c5.9,4.4,11.6,9.2,17.3,13.8c0.7,0.6,1.4,1.6,1.6,2.6c1.7,6.1,3.4,12.2,4.9,18.4
			c0.7,2.9,0.4,3.6-1.5,8.6c2.5-1.5,3.7-4.5,3.3-8.3c-0.6-5.3-1.4-10.7-2.1-16c-0.2-1.7-0.3-3.5,0-5.2c0.6-2.9,3.7-5.1,7.5-5.2
			c2.1-0.1,4.3,0.2,6.4,0.4c4.6,0.5,11.3-0.7,14.8-4.2c0,2,0.3,3.9,0.9,5.6c1.4,0.5,4,3.5,3.4,5.1c-0.8,2.2-7.4,1.2-7.1-0.1
			c-0.4,2,0.7,3.3,1.9,4.6c0.9,0.9,2.1,1.7,2.8,2.8c3,4.3,4.3,8.9,1.5,13.9c-1,1.8-1.9,3.7-3.2,5.4c-2.8,4-8.4,3.3-6,9.5
			c1.3,3.3,2.3,3.3,1.3,6.6c-0.9,2.7-1.9,4.7-1.9,8.2c0.1,7.7,2,15.7,2.9,23.4c1.6,14.1,3.3,28.2,4.9,42.3c0.1,1,0.2,2.1,0.3,3.1
			c-8.6,0.2-17.2,0.4-25.9,0.5c-1.1-17.2,2-34.4-0.2-51.7c-0.8,12.6-1.5,25-2.2,37.4c-0.3,4.8-0.3,9.6-0.5,14.4
			c-4.3,0.1-8.6,0.2-12.9,0.3c0-4.3-0.1-8.5-0.1-12.8c0.1-14.3,0.1-28.6,0.2-43c0-0.7-0.1-1.4-0.1-2.1c-0.4,0.8-0.5,1.5-0.6,2.3
			c-0.7,11.7-1.3,23.4-1.9,35.2c-0.4,6.8-0.8,13.7-1.2,20.5C196,370.5,186.8,370.6,177.6,370.8z"/>
		<path class="st14" d="M230.5,186.4c-1.8-0.3-3.2-0.5-4.6-0.7c3.5,1.4,6.8,2.9,8.1,7.1c-1.3-0.4-2.4-0.7-3.5-1
			c0,0.1-0.1,0.2-0.1,0.3c0.6,0.4,1.2,0.8,1.8,1.3c1.4,1.2,2.1,2.6,1.7,4.6c-1.9,8.6-3.8,17.2-5.6,25.8c-0.6,2.8-0.8,5.7-1,8.5
			c-0.1,1.5-0.6,2.3-2.2,2.5c-3.7,0.4-7.4,0.4-10.9-1c-0.8-0.3-1.9-1.4-1.9-2.1c-0.1-3.9-0.2-7.8,0.3-11.6c1.3-10.3,3-20.4,4.4-30.7
			c0.4-2.9,2.1-4.3,4.6-5C224.6,183.5,227.6,184.1,230.5,186.4z"/>
		<path class="st14" d="M250.2,197.6c-1.5-0.5-3.1-0.9-4.7-1.4c0,0.1-0.1,0.3-0.1,0.4c0.8,0.3,1.7,0.6,2.5,0.9
			c4.2,1.5,6.6,4.5,6.6,9.1c0,9.8-2.5,18.9-7.3,27.4c-0.5,0.8-1.7,1.5-2.6,1.6c-4.7,0.4-9.4,0.2-12.9-3.7c-0.6-0.7-1-1.9-0.9-2.7
			c1.7-9.2,3.6-18.4,5.4-27.5c0.1-0.5,0.2-1,0.4-1.4c0.8-2.3,1.1-5,4.1-5.5C244.2,194.3,247.6,194.6,250.2,197.6z"/>
		<path class="st12" d="M249.8,199.5c-1.6-0.5-3.1-0.9-4.7-1.4c0,0.1-0.1,0.3-0.1,0.4c0.9,0.3,1.7,0.6,2.6,0.9
			c4.2,1.5,6.6,4.5,6.6,9.1c0,9.8-2.5,18.9-7.3,27.4c-0.5,0.8-1.7,1.5-2.6,1.6c-4.7,0.4-9.4,0.2-12.9-3.7c-0.6-0.6-1-1.9-0.9-2.7
			c1.7-9.2,3.6-18.4,5.4-27.5c0.1-0.5,0.2-1,0.4-1.4c0.8-2.3,1.1-5,4.1-5.5C243.9,196.2,247.3,196.5,249.8,199.5z"/>
		<path class="st14" d="M194.2,184.2c-1.5-6,3.1-8.8,7.4-9.2c1.6-0.1,3.2-0.1,4.9-0.5c-1.5-0.4-2.9-0.8-4.3-1.1
			c3-1.4,6.2-0.3,8.5,2.3c3.8,4.5,3.3,9.6,2.6,14.7c-1.2,8.7-2.5,17.4-3.8,26.1c-0.5,3.4-3.8,5.5-7.2,4.8c-2-0.4-3.9-0.9-5.8-1.4
			c-0.1,0.2-0.2,0.5-0.3,0.7c2,0.7,4,1.5,6,2c1.5,0.4,3,0.2,4.5,0.5c0.5,0.1,1.3,0.8,1.3,1.2c0,0.6-0.6,1.7-1,1.8
			c-5,0.1-10.2,0.8-14.5-2.8c-2-1.7-2.8-3.7-1.9-6.3c0.5-1.4,0.8-2.8,1.3-4.2c0.6-1.8,1.9-2.9,3.6-3.9c3.2-1.9,6.6-3.7,9.3-6.2
			c4.3-3.9,5.8-9.1,4.9-14.9c-0.6-3.8-2.2-5-5.9-4.7C200.6,183.6,197.5,183.9,194.2,184.2z"/>
		<path class="st14" d="M183.9,168.5c-1.6-0.6-2.7-1-3.8-1.4c6.2-0.8,11,3.6,10.7,9.8c0,0.3,0,0.6-0.1,0.8c-0.8,6.6-1.9,7.7-8.4,7
			c-3.9-0.4-7.7-1.3-11.5-2c-1.5-0.3-2.2-1.2-1.7-2.7c0.7-2.1,1.5-4.3,2.5-6.3c2.2-4.1,5.7-5.8,10.4-4.8c0.3,0.1,0.7,0,1,0
			C183.2,169,183.3,168.9,183.9,168.5z"/>
		<path class="st12" d="M179.6,372.8c1-20,1.9-40.1,2.9-60.1c0.3-5.4,0.9-10.9-1-16.5c4.9,1,9.7,3.1,14.5,0.4
			c-2.6-0.1-5.3-0.1-7.9-0.5c-1.7-0.2-3.5-0.9-5.1-1.7c-0.7-0.3-1.4-1.6-1.4-2.3c0.1-0.7,1.2-1.5,2-1.7c2.1-0.6,4.4-0.8,6.5-1.3
			c0.8-0.2,1.6-0.7,2.4-1c-0.1-0.2-0.1-0.4-0.2-0.6c-2.3-0.2-4.5-0.3-6.8-0.5c-2.1-0.1-3.8-0.7-5.1-2.6c-1.6-2.1-3.7-3.8-5.4-5.8
			c-8.2-9-16.3-17.9-24.4-27c-1.3-1.5-2.5-3.2-3.6-4.9c-3-4.6-4-9.6-2.7-15c3.3-13.9,8.3-27.1,14.9-39.7c0.4-0.7,0.8-1.3,1.2-1.9
			c2.5-3.5,4.4-4,8.6-3.1c4.9,1.1,9.9,2,14.9,2.9c-1.4,1.8,0.2,2.9,1.1,4.2c0.9,1.2,2.1,1.4,3.5,1c5.7-1.7,11.5-3.4,16.2-7.4
			c1.6,1.2,2.2,2.7,1.8,4.6c-0.2,0.7-0.3,1.5-0.7,2.2c-4.8,8.1-11.3,14-21,15.3c-7,1-12.9-1.4-16.8-7.6c-0.1-0.2-0.3-0.3-0.9-0.3
			c0.5,1.4,0.7,3,1.4,4.3c1.8,3.5,4.9,5.7,8.4,7.2c1.6,0.7,1.7,1.5,1.1,2.9c-1.6,3.5-3.8,6.1-8,6.3c-3.2,0.2-6.3,0.4-9.6,0.9
			c2.9,0.4,5.9,0.7,8.8,1.1c-1.7,3.3-4.1,4.3-12,5c0.6,0.2,1.2,0.5,1.9,0.7c0.6,0.2,1.3,0.3,2.5,0.5c-1,1.4-1.8,2.5-2.9,4.1
			c0.9-0.5,1.4-0.8,1.9-1.1c3.7-2.4,7.4-4.9,11.2-7.3c2.6-1.7,5.5-2.6,8.7-2.1c1.6,0.3,2.8,1,3.6,2.5c1.3,2.3,3.3,3.5,5.8,4.4
			c3.1,1.2,6.1,2.7,8.8,4.7c5.9,4.4,11.6,9.2,17.3,13.9c0.7,0.6,1.4,1.6,1.6,2.6c1.7,6.1,3.4,12.2,4.9,18.4c0.7,2.9,0.5,3.6-1.5,8.6
			c2.5-1.5,3.7-4.5,3.3-8.3c-0.6-5.3-1.4-10.7-2.1-16c-0.2-1.7-0.3-3.5,0-5.2c0.6-2.9,3.7-5.1,7.5-5.2c2.1-0.1,4.3,0.2,6.4,0.5
			c4.6,0.5,11.3-0.7,14.8-4.2c0,2,0.3,3.8,0.9,5.6c1.3,0.5,4,3.5,3.4,5.1c-0.8,2.2-7.4,1.2-7.1-0.1c-0.4,2,0.7,3.3,1.9,4.6
			c0.9,0.9,2.1,1.7,2.8,2.8c3,4.3,4.3,8.9,1.5,13.9c-1,1.8-2,3.7-3.1,5.4c-2.6,3.7-6.4,5.2-10.9,4.8c-1.2-0.1-2.5-0.2-3.7-0.5
			c-3.8-1-7.4-0.2-11,1.1c-3.1,1.2-6.2,2.4-9.1,4c2.3-0.6,4.7-1,7-1.7c5-1.5,9.8-1.3,14.6,1.1c2.1,1.1,4.6,1.3,6.9,2.1
			c0.8,0.3,1.6,1,2.1,1.8c0.3,0.4,0,1.4-0.3,1.9c-0.2,0.3-1.2,0.3-1.7,0.2c-2-0.6-3.9-1.4-6-1.8c-4.7-0.9-12.8,1.7-16.6,4.3
			c4.8,2.1,10.9,1.8,16.3,1.9c6,0.2,4.6,4,5.1,8.4c0.8,6.6,2.7,13.1,3.5,20c1.6,14.1,3.3,28.2,4.9,42.3c0.1,1,0.2,2.1,0.3,3.1
			c-8.6,0.2-17.2,0.4-25.9,0.5c-1.1-17.2,2-34.4-0.2-51.7c-0.8,12.6-1.5,25-2.3,37.4c-0.3,4.8-0.3,9.6-0.5,14.4
			c-4.3,0.1-8.6,0.2-12.9,0.3c0-4.3-0.1-8.5-0.1-12.8c0.1-14.3,0.2-28.6,0.2-43c0-0.7-0.1-1.4-0.1-2.1c-0.3,0.8-0.5,1.5-0.6,2.3
			c-0.6,11.7-1.3,23.4-1.9,35.2c-0.4,6.8-0.8,13.7-1.2,20.5C197.9,372.5,188.8,372.6,179.6,372.8z"/>
		<path class="st12" d="M230.1,188.3c-1.8-0.3-3.2-0.5-4.6-0.7c3.5,1.4,6.7,2.9,8.1,7.1c-1.3-0.4-2.4-0.7-3.5-1
			c0,0.1-0.1,0.2-0.1,0.3c0.6,0.4,1.2,0.8,1.8,1.3c1.4,1.2,2.1,2.6,1.7,4.6c-1.9,8.6-3.8,17.2-5.6,25.8c-0.6,2.8-0.8,5.7-1,8.5
			c-0.1,1.5-0.6,2.3-2.2,2.5c-3.7,0.4-7.4,0.4-10.9-1c-0.8-0.3-1.9-1.4-1.9-2.1c-0.1-3.9-0.2-7.8,0.3-11.6c1.3-10.3,3-20.5,4.4-30.7
			c0.4-3,2.1-4.3,4.6-5C224.3,185.4,227.2,186,230.1,188.3z"/>
		<path class="st12" d="M249.8,199.5c-1.6-0.5-3.1-0.9-4.7-1.4c0,0.1-0.1,0.3-0.1,0.4c0.9,0.3,1.7,0.6,2.6,0.9
			c4.2,1.5,6.6,4.5,6.6,9.1c0,9.8-2.5,18.9-7.3,27.4c-0.5,0.8-1.7,1.5-2.6,1.6c-4.7,0.4-9.4,0.2-12.9-3.7c-0.6-0.6-1-1.9-0.9-2.7
			c1.7-9.2,3.6-18.4,5.4-27.5c0.1-0.5,0.2-1,0.4-1.4c0.8-2.3,1.1-5,4.1-5.5C243.9,196.2,247.3,196.5,249.8,199.5z"/>
		<path class="st12" d="M193.9,186.1c-1.5-6,3.1-8.8,7.4-9.2c1.6-0.1,3.2-0.1,4.9-0.5c-1.5-0.4-2.9-0.8-4.3-1.1
			c3.1-1.4,6.2-0.3,8.5,2.4c3.8,4.5,3.3,9.6,2.6,14.7c-1.2,8.7-2.5,17.4-3.8,26.1c-0.5,3.4-3.8,5.5-7.2,4.8c-2-0.4-3.9-0.9-5.8-1.4
			c-0.1,0.2-0.2,0.5-0.2,0.7c2,0.7,4,1.5,6,2.1c1.5,0.4,3,0.2,4.5,0.5c0.5,0.1,1.3,0.8,1.3,1.2c0,0.6-0.6,1.7-0.9,1.8
			c-5,0.1-10.2,0.8-14.5-2.8c-2-1.7-2.8-3.7-1.9-6.3c0.5-1.4,0.8-2.8,1.3-4.2c0.6-1.8,1.9-2.9,3.6-3.9c3.2-1.9,6.6-3.7,9.3-6.2
			c4.3-3.9,5.8-9.1,4.9-14.9c-0.6-3.8-2.2-5-5.9-4.7C200.3,185.5,197.1,185.8,193.9,186.1z"/>
		<path class="st12" d="M183.8,170.6c-1.6-0.6-2.7-1-3.8-1.4c6.2-0.8,11,3.6,10.7,9.8c0,0.3,0,0.5-0.1,0.8c-0.8,6.6-1.9,7.7-8.4,7
			c-3.8-0.4-7.6-1.3-11.5-2c-1.5-0.3-2.2-1.2-1.7-2.7c0.7-2.1,1.5-4.3,2.5-6.3c2.2-4.1,5.7-5.8,10.4-4.8c0.3,0.1,0.7,0,1.1,0
			C183,171,183.1,170.9,183.8,170.6z"/>
		<path class="st15" d="M76.4,221.9c7-4.8,14.9-8.2,23.2-10.1c1.2-0.3,20.1-2.2,20-1.9c1.5-4.7,3.1-11.6,4.6-16.3
			c-6.4,0-17.3-4.4-19.4-10.5c-0.9-2.7-1-5.7-1.8-8.5c-0.8-2.8-2.8-5.5-5.7-5.8c-3.6-0.3-6.4,3.7-6.2,7.2c0.2,3.6,2.5,6.7,4.9,9.4
			c2.4,2.7,5,5.4,6.1,8.8c-8.8-1.7-17.5-6.4-25.9-9.7c-1.2,2.9-1.7,8.4-1.3,11.5c8.2,2,16.4,3.9,24.5,5.9c-3.7,1.4-7.7,2-11.5,3
			c-3.8,1.1-7.6,2.8-10.1,5.8C75.2,213.9,74.3,218.6,76.4,221.9z"/>
	</g>
</g>
<g>
	<path class="st16" d="M63.2,308.5l-0.4,0.3c-0.2-0.3-0.4-0.4-0.7-0.2l-7.9,5.5l3.6,5.1c0.1,0.2,0.2,0.2,0.4,0.3
		c0.2,0,0.3,0,0.5-0.1l0.2,0.3l-2.5,1.7l-0.2-0.3c0.1-0.1,0.2-0.2,0.1-0.3c-0.1-0.1-0.1-0.2-0.2-0.4l-5.2-7.4l0.4-0.3
		c0.2,0.3,0.5,0.4,0.7,0.2l8.8-6.2c0.2-0.2,0.2-0.4,0-0.7l0.4-0.3L63.2,308.5z"/>
	<path class="st16" d="M72.4,324.7c0.3-0.2,0.3-0.5,0-0.9l-3.6-4.3l-2.2,1.8l2.2,2.7c0.2,0.2,0.3,0.3,0.4,0.4c0.1,0.1,0.3,0,0.4-0.1
		l0.3,0.3l-2.4,1.9l-0.3-0.4c0.2-0.1,0.3-0.2,0.2-0.4c-0.1-0.2-0.2-0.4-0.4-0.6l-2.1-2.6l-2.6,2.2l3.7,4.6c0.1,0.1,0.3,0.2,0.4,0.3
		c0.2,0,0.3,0,0.4-0.1l0.3,0.3l-2.3,1.9l-0.3-0.3c0.1-0.1,0.2-0.2,0.1-0.3c-0.1-0.1-0.2-0.2-0.3-0.4l-5.3-6.5l0.4-0.3
		c0,0.1,0.1,0.1,0.2,0.1c0.1,0,0.2,0,0.3-0.1l8.3-6.8c0.1-0.1,0.2-0.2,0.2-0.3c0-0.1,0-0.2-0.1-0.2l0.4-0.3l5.2,6.3
		c0.3,0.4,0.6,0.4,0.9,0.2l0.3,0.3l-2.5,2L72.4,324.7z"/>
	<path class="st16" d="M71.4,332.1c-0.1,0.1-0.1,0.1-0.2,0.2c-0.1,0.1-0.1,0.1-0.2,0.2c-0.2,0.2-0.3,0.5-0.3,0.9
		c0,0.4,0.1,0.8,0.3,1.2c0.2,0.4,0.3,0.8,0.6,1.2c0.2,0.4,0.4,0.6,0.6,0.8c0.1,0.2,0.3,0.3,0.6,0.5c0.2,0.2,0.5,0.4,0.8,0.5
		c0.3,0.1,0.6,0.2,0.9,0.2c0.3,0,0.6-0.1,0.9-0.4c0.3-0.3,0.4-0.6,0.3-1c-0.1-0.4-0.3-0.8-0.7-1.3c-0.3-0.5-0.7-1-1-1.6
		c-0.4-0.6-0.7-1.1-0.9-1.7c-0.2-0.6-0.3-1.2-0.2-1.7c0.1-0.6,0.4-1.2,1-1.7c0.9-0.8,1.9-1.2,3-1.1c1.1,0.1,2.1,0.7,3.2,1.7
		c0.5,0.5,0.9,1,1.1,1.5c0.2,0.5,0.4,0.9,0.6,1.3c0.1,0.4,0.2,0.7,0.3,1c0,0.3,0.1,0.4,0.2,0.5c0.1,0.1,0.2,0.1,0.2,0.2
		c0.1,0,0.2,0,0.3,0.1l-0.1,0.4l-2.8,1l-0.2-0.4c0.1-0.1,0.1-0.2,0.2-0.3c0.1-0.1,0.1-0.2,0.1-0.4c0-0.4-0.1-1-0.4-1.6
		c-0.3-0.6-0.7-1.2-1.2-1.8c-0.2-0.2-0.4-0.4-0.7-0.6c-0.2-0.2-0.5-0.3-0.7-0.4c-0.2-0.1-0.5-0.1-0.7-0.1c-0.2,0-0.4,0.1-0.6,0.3
		c-0.3,0.3-0.4,0.6-0.3,1s0.3,0.8,0.7,1.3c0.3,0.5,0.7,1,1,1.6c0.4,0.6,0.7,1.1,0.9,1.7c0.2,0.6,0.3,1.2,0.2,1.8
		c-0.1,0.6-0.4,1.2-1,1.8c-0.6,0.6-1.2,0.9-1.8,1.1c-0.6,0.1-1.2,0.1-1.8,0c-0.6-0.1-1.1-0.4-1.6-0.8c-0.5-0.4-0.9-0.7-1.3-1.1
		c-0.4-0.4-0.7-0.8-0.9-1.3c-0.3-0.5-0.5-0.9-0.7-1.3c-0.2-0.4-0.3-0.8-0.4-1.1c-0.1-0.3-0.2-0.5-0.2-0.5c-0.1-0.1-0.2-0.1-0.3-0.1
		l0-0.4l3.1-1.5L71.4,332.1z"/>
	<path class="st16" d="M82.9,348.9c0.3,0.2,0.5,0.2,0.7,0l6.8-8.3c0.2-0.2,0.1-0.4-0.1-0.7l0.3-0.4l4.9,4.1c0.7,0.6,1.2,1.2,1.4,1.9
		c0.3,0.7,0.4,1.4,0.3,2.1c-0.1,0.7-0.3,1.4-0.6,2.1c-0.3,0.7-0.8,1.4-1.3,2c-0.5,0.6-1.1,1.2-1.7,1.6c-0.6,0.5-1.3,0.8-2,1
		c-0.7,0.2-1.4,0.2-2.1,0.1c-0.7-0.1-1.4-0.5-2.1-1l-5-4.1L82.9,348.9z M88.4,351.3c0.4,0.3,0.7,0.6,1.1,0.8
		c0.4,0.2,0.8,0.3,1.2,0.3c0.4,0,0.9-0.2,1.4-0.5c0.5-0.3,1.1-0.8,1.7-1.6c0.6-0.7,1-1.4,1.2-1.9c0.2-0.5,0.3-1,0.2-1.4
		c-0.1-0.4-0.3-0.8-0.5-1.1c-0.3-0.3-0.6-0.6-1-0.9l-2.3-1.9l-5.3,6.5L88.4,351.3z"/>
	<path class="st16" d="M107.5,355.7c0.2-0.3,0.1-0.6-0.3-0.9l-4.6-3.2L101,354l2.9,2c0.2,0.1,0.4,0.2,0.5,0.3c0.1,0,0.3,0,0.4-0.2
		l0.3,0.2l-1.7,2.5l-0.4-0.3c0.2-0.1,0.2-0.3,0.1-0.4c-0.1-0.1-0.3-0.3-0.5-0.5l-2.8-1.9l-1.9,2.8l4.8,3.4c0.2,0.1,0.3,0.2,0.5,0.1
		c0.2,0,0.3-0.1,0.4-0.2l0.3,0.2l-1.7,2.5l-0.3-0.2c0.1-0.1,0.1-0.3,0-0.3c-0.1-0.1-0.2-0.2-0.4-0.3l-6.9-4.8l0.3-0.4
		c0.1,0,0.1,0.1,0.2,0c0.1,0,0.2-0.1,0.3-0.2l6.2-8.8c0.1-0.1,0.1-0.2,0.1-0.3c0-0.1-0.1-0.2-0.1-0.2l0.3-0.4l6.7,4.7
		c0.4,0.3,0.7,0.3,0.9,0l0.3,0.2l-1.8,2.6L107.5,355.7z M106.7,350.1l-1.6-1.1l4.1-2.2l2.5,1.8L106.7,350.1z"/>
	<path class="st16" d="M106.1,366.1c0.2,0.1,0.4,0.1,0.6-0.2l5.4-9.3c0.1-0.2,0.1-0.4-0.1-0.6l0.3-0.4l2.9,1.7l-0.3,0.4
		c-0.1,0-0.2,0-0.2,0c0,0.1,0,0.4,0,0.9l1.1,9.1l3.9-6.7c0.1-0.2,0.1-0.5-0.2-0.6l0.3-0.4l2.4,1.4l-0.3,0.4
		c-0.2-0.1-0.4-0.1-0.6,0.2l-5.4,9.3c-0.1,0.2-0.1,0.4,0.1,0.6l-0.3,0.4l-2.6-1.5l0.3-0.4c0.1,0.1,0.2,0,0.2,0c0-0.1,0-0.2,0-0.5
		c0-0.2-0.1-0.5-0.1-0.8l-1.1-9.4l-4.2,7.2c-0.1,0.2-0.1,0.5,0.2,0.6l-0.3,0.4l-2.4-1.4L106.1,366.1z"/>
	<path class="st16" d="M120.4,374.1c0.2,0.1,0.4,0.2,0.5,0.1c0.1,0,0.2-0.1,0.3-0.2l4.8-9.7c0.1-0.1,0.1-0.3,0-0.4
		c-0.1-0.1-0.2-0.2-0.4-0.3l0.2-0.5l3.1,1.5l-0.2,0.5c-0.4-0.2-0.6-0.2-0.8,0.1l-4.8,9.7c-0.1,0.3,0,0.5,0.4,0.7l-0.2,0.5l-3.1-1.5
		L120.4,374.1z"/>
	<path class="st16" d="M138.4,372.8c0,0,0-0.1,0-0.1c0,0,0-0.1,0-0.1c0-0.1,0-0.2-0.1-0.4c-0.1-0.2-0.2-0.4-0.4-0.7
		c-0.2-0.3-0.5-0.5-0.8-0.7c-0.3-0.2-0.7-0.5-1.1-0.6c-0.5-0.2-1-0.3-1.5-0.3c-0.5,0-1,0.1-1.4,0.3c-0.5,0.2-0.9,0.5-1.2,0.9
		c-0.4,0.4-0.7,1-1,1.6c-0.3,0.6-0.4,1.2-0.4,1.8c0,0.6,0,1.1,0.2,1.6c0.2,0.5,0.4,0.9,0.7,1.3c0.3,0.4,0.7,0.6,1.1,0.8
		c0.4,0.2,0.8,0.3,1.2,0.3c0.4,0,0.9,0,1.3,0c0.4,0,0.7-0.1,1-0.2c0.3-0.1,0.5-0.2,0.5-0.4l0.1-0.2c0-0.1,0.1-0.2,0.1-0.3l0.3-0.2
		l0.4,3.5l-0.3,0c-0.1-0.2-0.2-0.3-0.3-0.3c-0.1,0-0.3,0-0.7,0s-0.7,0.1-1.2,0.1c-0.5,0-1,0-1.6-0.1c-0.6-0.1-1.2-0.2-1.8-0.5
		c-0.7-0.3-1.2-0.7-1.8-1.2c-0.5-0.5-1-1.1-1.2-1.8c-0.3-0.7-0.4-1.5-0.4-2.4c0-0.9,0.2-1.8,0.6-2.8c0.4-1,0.9-1.8,1.6-2.4
		c0.6-0.6,1.3-1.1,2-1.4c0.7-0.3,1.5-0.4,2.2-0.4c0.8,0,1.5,0.2,2.2,0.5c0.5,0.2,1,0.5,1.4,0.8c0.4,0.3,0.7,0.6,1,0.9
		c0.3,0.3,0.5,0.6,0.7,0.8c0.2,0.2,0.3,0.3,0.4,0.4c0.1,0,0.1,0,0.2,0c0.1,0,0.1-0.1,0.2-0.1l0.2,0.3l-2.5,1.9L138.4,372.8z"/>
	<path class="st16" d="M143.1,383.2c0,0.1,0,0.3,0,0.3c0,0.1,0.1,0.1,0.2,0.2l-0.2,0.5l-2.8-0.9l0.2-0.5c0.1,0,0.2,0,0.3,0
		c0.1,0,0.2-0.1,0.2-0.3l3.3-10.2c0-0.1,0-0.3,0-0.3c0-0.1-0.1-0.1-0.2-0.2l0.2-0.5l2.8,0.9l-0.2,0.5c-0.1,0-0.2,0-0.3,0
		c-0.1,0-0.2,0.1-0.2,0.3l-1.2,3.9l5.9,1.9l1.2-3.9c0-0.1,0-0.3,0-0.3c0-0.1-0.1-0.1-0.2-0.2l0.2-0.5l2.8,0.9l-0.2,0.5
		c-0.1,0-0.2,0-0.3,0c-0.1,0-0.2,0.1-0.2,0.3l-3.3,10.2c0,0.1,0,0.3,0,0.3c0,0.1,0.1,0.1,0.2,0.2l-0.2,0.5l-2.8-0.9l0.2-0.5
		c0.1,0,0.2,0,0.3,0c0.1,0,0.2-0.1,0.2-0.3l1.3-4.1l-5.9-1.9L143.1,383.2z"/>
	<path class="st16" d="M166.7,380.3c0.1-0.4-0.1-0.6-0.6-0.7l-5.5-1.3l-0.7,2.8l3.5,0.8c0.3,0.1,0.4,0.1,0.6,0.1
		c0.1,0,0.2-0.1,0.3-0.3l0.4,0.1l-0.7,3l-0.4-0.1c0.1-0.2,0.1-0.3-0.1-0.4c-0.2-0.1-0.4-0.2-0.7-0.2l-3.3-0.8l-0.8,3.3l5.7,1.3
		c0.2,0,0.3,0,0.5,0c0.1-0.1,0.2-0.2,0.3-0.4l0.4,0.1l-0.7,2.9l-0.4-0.1c0-0.2,0-0.3-0.1-0.3c-0.1,0-0.3-0.1-0.4-0.1l-8.2-1.9
		l0.1-0.5c0.1,0,0.2,0,0.2,0c0.1,0,0.2-0.1,0.2-0.3l2.4-10.5c0-0.2,0-0.3,0-0.3c-0.1-0.1-0.1-0.1-0.2-0.2l0.1-0.5l8,1.9
		c0.5,0.1,0.7,0,0.8-0.3l0.4,0.1l-0.7,3.1L166.7,380.3z"/>
	<path class="st16" d="M174.1,379.4c-0.3,0-0.5,0.1-0.6,0.4l-1,6.5c-0.1,0.9,0,1.7,0.5,2.3c0.5,0.6,1.2,1,2.3,1.2
		c1.1,0.2,1.9,0,2.6-0.5c0.6-0.5,1-1.2,1.1-2.1l1-6.5c0-0.3-0.1-0.5-0.5-0.5l0.1-0.5l3.2,0.5l-0.1,0.5c-0.3,0-0.5,0.1-0.6,0.4
		l-1,7.2c-0.1,0.6-0.3,1.1-0.6,1.6c-0.3,0.5-0.7,0.9-1.2,1.3c-0.5,0.4-1.1,0.6-1.8,0.7c-0.7,0.1-1.5,0.1-2.4,0
		c-0.9-0.1-1.7-0.4-2.3-0.7c-0.6-0.3-1.1-0.7-1.5-1.2c-0.4-0.5-0.6-1-0.8-1.6c-0.1-0.6-0.2-1.2-0.1-1.7l1-7.2c0-0.2,0-0.3-0.1-0.3
		c-0.1-0.1-0.3-0.1-0.5-0.2l0.1-0.5l3.3,0.5L174.1,379.4z"/>
	<path class="st16" d="M192.4,380.8c1.4,0.1,2.4,0.4,3.1,1c0.7,0.6,1.1,1.6,1,3c0,0.5-0.1,1-0.3,1.4c-0.2,0.4-0.4,0.7-0.7,1
		c-0.3,0.3-0.6,0.5-0.9,0.7c-0.3,0.2-0.6,0.3-1,0.4l2,4.2c0.1,0.2,0.2,0.4,0.4,0.5c0.1,0.1,0.3,0.2,0.5,0.3l0,0.5l-3.5-0.2l0-0.5
		c0.2,0,0.3-0.1,0.3-0.2c0-0.2-0.1-0.5-0.3-0.9l-1.6-3.5l-3.2-0.2l-0.2,4.1c0,0.2,0,0.3,0.1,0.3c0.1,0.1,0.2,0.1,0.3,0.1l0,0.5
		l-3.1-0.2l0-0.5c0.3,0,0.4-0.1,0.4-0.4l0.6-10.7c0-0.3-0.1-0.4-0.4-0.5l0-0.5L192.4,380.8z M192.1,386.3c1.5,0.1,2.3-0.5,2.4-1.7
		c0-0.5-0.1-0.9-0.5-1.2c-0.3-0.3-0.9-0.5-1.7-0.5l-3.6-0.2l-0.2,3.3L192.1,386.3z"/>
	<path class="st16" d="M201,389.4c0,0.1,0,0.2,0,0.2c0,0.1,0,0.2,0,0.3c0,0.3,0.2,0.5,0.5,0.8c0.3,0.2,0.7,0.4,1.1,0.6
		c0.4,0.2,0.8,0.3,1.2,0.4c0.4,0.1,0.7,0.1,1,0.1c0.2,0,0.5,0,0.8-0.1c0.3,0,0.6-0.1,0.9-0.3c0.3-0.1,0.6-0.3,0.8-0.5
		c0.2-0.2,0.3-0.5,0.3-0.9c0-0.4-0.2-0.7-0.6-0.9c-0.4-0.2-0.9-0.3-1.4-0.4c-0.6-0.1-1.2-0.2-1.8-0.3c-0.7-0.1-1.3-0.3-1.9-0.5
		c-0.6-0.2-1.1-0.6-1.4-1c-0.4-0.4-0.6-1.1-0.6-1.9c0-1.2,0.4-2.2,1.2-3c0.8-0.7,1.9-1.1,3.4-1.2c0.7,0,1.3,0,1.9,0.2
		c0.5,0.1,1,0.3,1.3,0.4c0.4,0.2,0.6,0.3,0.9,0.5c0.2,0.1,0.4,0.2,0.5,0.2c0.1,0,0.2,0,0.3-0.1c0.1,0,0.1-0.1,0.2-0.2l0.3,0.3
		l-1.1,2.7l-0.4-0.2c0-0.1,0-0.2-0.1-0.3c0-0.1-0.1-0.2-0.2-0.3c-0.3-0.3-0.8-0.6-1.4-0.8c-0.6-0.2-1.4-0.3-2.2-0.3
		c-0.3,0-0.6,0-0.9,0.1c-0.3,0.1-0.5,0.1-0.7,0.3c-0.2,0.1-0.4,0.3-0.5,0.5c-0.1,0.2-0.2,0.4-0.2,0.7c0,0.4,0.2,0.7,0.6,0.9
		c0.4,0.2,0.9,0.3,1.4,0.4c0.6,0.1,1.2,0.2,1.8,0.3c0.7,0.1,1.3,0.3,1.9,0.5s1.1,0.6,1.4,1.1c0.4,0.5,0.6,1.1,0.6,2
		c0,0.8-0.1,1.5-0.5,2.1c-0.3,0.5-0.7,1-1.2,1.3c-0.5,0.3-1,0.5-1.6,0.6c-0.6,0.1-1.1,0.2-1.7,0.2c-0.5,0-1,0-1.6-0.2
		c-0.5-0.1-1-0.2-1.4-0.4c-0.4-0.2-0.8-0.3-1.1-0.4c-0.3-0.1-0.5-0.2-0.5-0.2c-0.1,0-0.2,0.1-0.3,0.2l-0.3-0.3l1-3.2L201,389.4z"/>
	<path class="st16" d="M221.1,392.2c0.3,0,0.5-0.2,0.5-0.5l-1.5-10.7c0-0.3-0.2-0.4-0.6-0.4l-0.1-0.5l6.3-0.9
		c0.9-0.1,1.7-0.1,2.4,0.2c0.7,0.3,1.3,0.7,1.8,1.2c0.5,0.5,0.9,1.1,1.2,1.9c0.3,0.7,0.5,1.5,0.6,2.3c0.1,0.8,0.1,1.6,0.1,2.4
		c-0.1,0.8-0.3,1.5-0.6,2.1c-0.3,0.6-0.8,1.2-1.3,1.6c-0.6,0.5-1.3,0.7-2.2,0.9l-6.4,0.9L221.1,392.2z M226.6,389.8
		c0.5-0.1,0.9-0.2,1.3-0.3c0.4-0.1,0.8-0.4,1-0.7c0.3-0.3,0.5-0.8,0.6-1.4c0.1-0.6,0.1-1.4,0-2.3c-0.1-0.9-0.3-1.7-0.6-2.2
		c-0.3-0.5-0.6-0.9-0.9-1.1c-0.4-0.2-0.8-0.3-1.2-0.4c-0.4,0-0.9,0-1.4,0.1l-3,0.4l1.2,8.3L226.6,389.8z"/>
	<path class="st16" d="M242.8,378.6c-0.1-0.4-0.4-0.5-0.8-0.4l-5.5,1.2l0.6,2.8l3.5-0.8c0.3-0.1,0.4-0.1,0.5-0.2
		c0.1-0.1,0.1-0.2,0.1-0.4l0.4-0.1l0.7,3l-0.4,0.1c0-0.2-0.1-0.3-0.3-0.3c-0.2,0-0.4,0-0.7,0.1l-3.3,0.7l0.7,3.3l5.8-1.3
		c0.2,0,0.3-0.1,0.4-0.3c0.1-0.1,0.1-0.3,0.1-0.4l0.4-0.1l0.7,2.9l-0.4,0.1c0-0.2-0.1-0.2-0.2-0.2c-0.1,0-0.3,0-0.5,0.1l-8.2,1.9
		l-0.1-0.5c0.1,0,0.1-0.1,0.2-0.1c0.1-0.1,0.1-0.2,0-0.3l-2.4-10.5c0-0.1-0.1-0.2-0.2-0.3c-0.1,0-0.2-0.1-0.2,0l-0.1-0.5l8-1.8
		c0.5-0.1,0.7-0.3,0.6-0.7l0.4-0.1l0.7,3.1L242.8,378.6z"/>
	<path class="st16" d="M258.8,383.7c0.1,0,0.1-0.1,0.2-0.2c0.1-0.1,0.1-0.2,0-0.3l-3.2-9l-2.8,1c-0.1,0-0.2,0.1-0.3,0.2
		c-0.1,0.1-0.1,0.2,0,0.4l-0.4,0.1l-1.1-3.1l0.4-0.1c0.1,0.3,0.2,0.4,0.3,0.5c0.1,0.1,0.3,0.1,0.4,0l7.7-2.7c0.1,0,0.2-0.1,0.3-0.2
		c0.1-0.1,0.1-0.3,0-0.6l0.4-0.1l1.1,3.1l-0.4,0.1c-0.1-0.2-0.1-0.3-0.3-0.3c-0.1,0-0.2,0-0.4,0l-2.8,1l3.2,9
		c0.1,0.3,0.3,0.4,0.5,0.3l0.2,0.5l-2.8,1L258.8,383.7z"/>
	<path class="st16" d="M272.5,368.1c-0.1-0.3-0.4-0.4-0.9-0.2l-5.2,2.2l1.1,2.6l3.3-1.4c0.2-0.1,0.4-0.2,0.5-0.3
		c0.1-0.1,0.1-0.2,0-0.4l0.4-0.2l1.2,2.8l-0.4,0.2c0-0.2-0.2-0.3-0.3-0.3c-0.2,0-0.4,0.1-0.7,0.2l-3.1,1.3l1.4,3.1l5.4-2.3
		c0.2-0.1,0.3-0.2,0.4-0.3c0.1-0.1,0.1-0.3,0-0.5l0.4-0.2l1.2,2.8l-0.4,0.2c-0.1-0.2-0.2-0.2-0.3-0.2c-0.1,0-0.3,0.1-0.4,0.2
		l-7.8,3.4l-0.2-0.5c0.1,0,0.1-0.1,0.2-0.2c0-0.1,0-0.2,0-0.3l-4.3-9.9c-0.1-0.1-0.1-0.2-0.2-0.3c-0.1,0-0.2,0-0.3,0l-0.2-0.5
		l7.5-3.2c0.4-0.2,0.6-0.4,0.4-0.8l0.4-0.2l1.3,2.9L272.5,368.1z"/>
	<path class="st16" d="M280.4,361.1c1.2-0.6,2.3-0.9,3.2-0.8c0.9,0.1,1.7,0.8,2.4,2c0.2,0.5,0.4,0.9,0.4,1.3c0.1,0.4,0,0.8,0,1.2
		c-0.1,0.4-0.2,0.7-0.4,1c-0.2,0.3-0.4,0.6-0.6,0.8l3.9,2.6c0.2,0.1,0.4,0.2,0.6,0.2c0.2,0,0.4,0,0.5,0l0.2,0.5l-3.1,1.7l-0.2-0.5
		c0.2-0.1,0.2-0.2,0.1-0.4c-0.1-0.2-0.3-0.4-0.7-0.6l-3.2-2.1l-2.8,1.5l1.9,3.6c0.1,0.1,0.2,0.2,0.3,0.2c0.1,0,0.2,0,0.3,0l0.2,0.5
		l-2.7,1.4l-0.2-0.5c0.2-0.1,0.3-0.3,0.2-0.6l-5.1-9.5c-0.1-0.3-0.3-0.3-0.6-0.2l-0.2-0.5L280.4,361.1z M282.9,365.9
		c1.3-0.7,1.7-1.6,1.2-2.6c-0.2-0.4-0.6-0.7-1-0.7c-0.4-0.1-1,0.1-1.7,0.4l-3.2,1.7l1.6,2.9L282.9,365.9z"/>
	<path class="st16" d="M292.4,353.9c1.1-0.7,2.2-1.1,3.2-1c1,0.1,1.8,0.7,2.5,1.8c0.3,0.4,0.5,0.9,0.6,1.3c0.1,0.4,0.1,0.8,0.1,1.2
		c-0.1,0.4-0.2,0.7-0.3,1.1c-0.2,0.3-0.3,0.6-0.6,0.9l4.1,2.2c0.2,0.1,0.4,0.2,0.6,0.2c0.2,0,0.4,0,0.5,0l0.3,0.4l-3,1.9l-0.3-0.4
		c0.2-0.1,0.2-0.2,0.1-0.4c-0.1-0.2-0.4-0.3-0.8-0.6l-3.4-1.9l-2.7,1.7l2.2,3.5c0.1,0.1,0.2,0.2,0.3,0.2c0.1,0,0.2,0,0.3-0.1
		l0.3,0.4l-2.6,1.7l-0.3-0.4c0.2-0.1,0.3-0.3,0.1-0.6l-5.8-9c-0.2-0.2-0.3-0.3-0.6-0.1l-0.3-0.4L292.4,353.9z M295.3,358.6
		c1.3-0.8,1.6-1.7,0.9-2.7c-0.3-0.4-0.6-0.6-1.1-0.7c-0.5,0-1,0.2-1.7,0.6l-3.1,2l1.8,2.8L295.3,358.6z"/>
	<path class="st16" d="M302.7,346.4c0.7-0.5,1.4-0.9,2.1-1.1c0.8-0.2,1.5-0.3,2.3-0.2c0.8,0.1,1.5,0.4,2.3,0.8
		c0.8,0.5,1.5,1.1,2.1,2c0.7,0.9,1.1,1.7,1.4,2.6c0.2,0.8,0.3,1.6,0.2,2.4c-0.1,0.8-0.4,1.5-0.8,2.1c-0.4,0.6-1,1.2-1.7,1.7
		c-0.7,0.5-1.4,0.9-2.1,1.2c-0.7,0.3-1.5,0.4-2.3,0.3c-0.8-0.1-1.5-0.4-2.3-0.8c-0.8-0.4-1.5-1.1-2.1-2c-0.7-0.9-1.1-1.7-1.4-2.6
		c-0.2-0.8-0.3-1.6-0.2-2.4c0.1-0.8,0.4-1.5,0.8-2.1C301.5,347.5,302.1,346.9,302.7,346.4z M304,348.1c-0.4,0.3-0.7,0.7-1,1.1
		c-0.2,0.4-0.4,0.9-0.5,1.4c-0.1,0.5,0,1.1,0.1,1.6c0.2,0.6,0.4,1.1,0.9,1.7c0.4,0.5,0.9,1,1.4,1.3c0.5,0.3,1,0.5,1.5,0.5
		c0.5,0.1,1,0,1.5-0.1c0.5-0.1,0.9-0.3,1.3-0.6c0.4-0.3,0.7-0.7,1-1.1c0.2-0.4,0.4-0.9,0.5-1.5c0.1-0.5,0-1.1-0.1-1.6
		c-0.2-0.6-0.4-1.1-0.9-1.7c-0.4-0.5-0.9-1-1.4-1.3c-0.5-0.3-1-0.5-1.5-0.5c-0.5-0.1-1,0-1.5,0.1C304.9,347.5,304.4,347.8,304,348.1
		z"/>
	<path class="st16" d="M317.9,349.9c0.2-0.2,0.3-0.3,0.3-0.4c0-0.1,0-0.2-0.1-0.3l-7.1-8.1c-0.1-0.1-0.2-0.2-0.3-0.2
		c-0.1,0-0.3,0.1-0.4,0.3l-0.3-0.4l2.6-2.3l0.3,0.4c-0.3,0.3-0.4,0.5-0.2,0.7l7.1,8.1c0.2,0.2,0.4,0.2,0.8-0.1l0.3,0.4l-2.6,2.3
		L317.9,349.9z"/>
	<path class="st16" d="M319.8,331.5c1-1,1.9-1.5,2.9-1.7c0.9-0.1,1.9,0.3,2.9,1.2c0.4,0.4,0.6,0.7,0.8,1.1c0.2,0.4,0.3,0.8,0.3,1.2
		c0,0.4,0,0.8-0.1,1.1c-0.1,0.3-0.2,0.7-0.4,1l4.5,1.3c0.2,0.1,0.4,0.1,0.6,0.1c0.2,0,0.3-0.1,0.5-0.2l0.4,0.4l-2.5,2.5l-0.4-0.4
		c0.1-0.1,0.2-0.3,0-0.4c-0.1-0.1-0.4-0.3-0.9-0.4l-3.7-1.1l-2.3,2.3l2.9,2.9c0.1,0.1,0.2,0.2,0.3,0.1c0.1,0,0.2-0.1,0.3-0.1
		l0.4,0.4l-2.2,2.2l-0.4-0.4c0.2-0.2,0.2-0.4,0-0.6l-7.6-7.6c-0.2-0.2-0.4-0.2-0.6,0l-0.4-0.4L319.8,331.5z M323.7,335.4
		c1.1-1.1,1.2-2,0.3-2.9c-0.3-0.3-0.7-0.5-1.2-0.4c-0.5,0.1-1,0.4-1.5,0.9l-2.6,2.6l2.4,2.4L323.7,335.4z"/>
	<path class="st16" d="M331.9,330.8c0.1,0,0.1,0.1,0.2,0.2c0.1,0.1,0.1,0.1,0.2,0.2c0.2,0.2,0.5,0.2,0.9,0.2
		c0.4-0.1,0.8-0.2,1.1-0.4c0.4-0.2,0.8-0.4,1.1-0.7c0.3-0.2,0.6-0.5,0.7-0.6c0.1-0.2,0.3-0.4,0.5-0.6c0.2-0.3,0.3-0.6,0.4-0.9
		c0.1-0.3,0.1-0.6,0.1-0.9c0-0.3-0.2-0.6-0.5-0.8c-0.3-0.3-0.7-0.3-1.1-0.2c-0.4,0.2-0.8,0.4-1.3,0.8c-0.4,0.4-0.9,0.8-1.4,1.2
		c-0.5,0.4-1,0.8-1.6,1.1c-0.6,0.3-1.1,0.4-1.7,0.4c-0.6,0-1.2-0.3-1.8-0.8c-0.9-0.8-1.4-1.7-1.4-2.8c0-1.1,0.4-2.2,1.4-3.3
		c0.5-0.5,0.9-1,1.4-1.3c0.4-0.3,0.8-0.5,1.2-0.7c0.4-0.2,0.7-0.3,0.9-0.3c0.3-0.1,0.4-0.2,0.5-0.2c0.1-0.1,0.1-0.2,0.1-0.3
		c0-0.1,0-0.2,0-0.3l0.4,0l1.3,2.6l-0.4,0.2c-0.1-0.1-0.2-0.1-0.3-0.2c-0.1-0.1-0.2-0.1-0.4-0.1c-0.4,0-1,0.2-1.6,0.5
		c-0.6,0.3-1.2,0.8-1.7,1.4c-0.2,0.2-0.4,0.5-0.5,0.7c-0.1,0.2-0.2,0.5-0.3,0.7c-0.1,0.2,0,0.5,0,0.7c0.1,0.2,0.2,0.4,0.4,0.6
		c0.3,0.3,0.7,0.3,1.1,0.2c0.4-0.2,0.8-0.4,1.2-0.8c0.4-0.4,0.9-0.8,1.4-1.2c0.5-0.4,1-0.8,1.6-1.1c0.6-0.3,1.1-0.4,1.8-0.4
		c0.6,0,1.2,0.3,1.9,0.9c0.6,0.5,1.1,1.1,1.3,1.7c0.2,0.6,0.2,1.2,0.2,1.8c-0.1,0.6-0.3,1.1-0.6,1.6c-0.3,0.5-0.6,1-1,1.4
		c-0.3,0.4-0.7,0.7-1.2,1.1c-0.4,0.3-0.8,0.6-1.2,0.8c-0.4,0.2-0.7,0.4-1,0.5c-0.3,0.1-0.5,0.2-0.5,0.3c-0.1,0.1-0.1,0.2,0,0.3
		l-0.4,0.1l-1.8-2.9L331.9,330.8z"/>
</g>
<g>
	<path class="st17" d="M71.8,92.6c-1.1-0.8-2.2-1.8-3.2-3.1c-1-1.3-2.3-2.6-3.8-4l-0.2-0.3c-0.1-0.1-0.3-0.4-0.6-0.7
		c-0.3-0.4-0.5-0.7-0.8-1.1c-0.3-0.4-0.5-0.8-0.8-1.1c-0.3-0.4-0.4-0.6-0.6-0.7c-0.6-0.7-1.2-1.5-1.7-2.4c-0.5-1-0.8-2-1.1-3
		c-0.2-1-0.3-2-0.3-3c0.1-1,0.3-1.7,0.7-2.4c0.1-0.3,0.3-0.6,0.6-0.9c0.3-0.3,0.6-0.6,0.8-0.7c0.5-0.5,1.1-1,1.7-1.3
		c0.6-0.4,1.2-0.6,1.8-0.8c0.7-0.2,1.3-0.3,1.8-0.3c0.5-0.1,0.9-0.1,1.2,0c0.4,0.1,0.7,0.2,1,0.4c0.3,0.2,0.7,0.5,1.2,0.8
		c0,0,0.2,0.1,0.4,0.3c0.2,0.1,0.3,0.2,0.4,0.3c0.1,0.1,0.3,0.3,0.6,0.6c0.3,0.3,0.5,0.5,0.6,0.6c0.1,0,0.1,0,0.2,0.1
		c0,0,0.1,0.1,0.1,0.1l0,0c0.1,0.1,0.2,0.2,0.2,0.3c0.1,0.1,0.1,0.2,0.2,0.3c0.1,0.1,0.2,0.2,0.3,0.2c0.1,0,0.2,0,0.3,0.2
		c0.2,0.1,0.3,0.3,0.3,0.4c0,0.1-0.1,0.4-0.2,0.7c-0.8,0.8-1.5,1.5-2.1,2.2c-0.6,0.7-1.2,1.5-1.9,2.3c0,0.1-0.3,0.4-0.8,0.9
		c-0.5,0.5-0.9,0.9-1.1,1.2c-0.1,0.1-0.2,0.1-0.3,0.2c-0.1,0.1-0.1,0.2-0.1,0.3c1,0.8,1.8,1.7,2.4,2.7c0.7,1,1.5,2,2.4,2.9
		c0.9,0.9,1.8,1.7,2.7,2.5c0.9,0.8,1.8,1.6,2.7,2.4c0.5,0.4,0.9,0.8,1.4,1.3c0.5,0.5,1,0.9,1.5,1.2c0.6,0.4,1.1,0.7,1.7,0.9
		c0.6,0.2,1.3,0.3,2.1,0.2c0.3,0,0.5-0.1,0.6-0.1c0.1-0.1,0.2-0.2,0.4-0.3c0.5-0.5,0.8-1.1,0.9-1.9c0.1-0.7,0-1.5-0.2-2.3
		c-0.2-0.8-0.5-1.5-0.8-2.1c-0.4-0.6-0.7-1.1-1-1.4c-0.1-0.1-0.2-0.2-0.2-0.2c-0.1-0.1-0.2-0.1-0.4-0.2c0-0.1,0.1-0.2,0.2-0.4
		c0.1-0.2,0.2-0.4,0.2-0.4c0-0.1,0-0.1,0.1-0.2l0.2-0.3c0.2-0.1,0.3-0.2,0.4-0.2c0.1,0,0.2-0.1,0.3-0.3l0.8,0.1l1.3,1.7
		c0,0.2,0.1,0.4,0.3,0.6c0.2,0.2,0.3,0.4,0.4,0.6c0.2,0.3,0.5,0.7,0.6,1.2c0.2,0.5,0.3,0.9,0.4,1.4c0.1,0.4,0.1,0.9,0.1,1.2
		c0,0.4-0.1,0.6-0.2,0.8c0,0.1-0.1,0.4-0.2,0.7c-0.1,0.4-0.2,0.6-0.2,0.6c-0.4,0.6-0.7,1.1-0.9,1.7c-0.2,0.5-0.6,1-1,1.5
		c-0.5,0.5-1,0.8-1.3,1c-0.4,0.2-0.9,0.3-1.4,0.5c-0.4,0.1-0.8,0.3-1.1,0.5c-0.3,0.2-0.7,0.3-1.1,0.3c-1,0.1-1.9,0-2.7-0.2
		c-0.8-0.3-1.6-0.6-2.4-1.1c-0.8-0.4-1.5-0.9-2.1-1.5C73.2,93.6,72.5,93.1,71.8,92.6z M63.3,70.4c-0.5,0.5-0.8,1-0.9,1.4
		c-0.1,0.5-0.1,0.9,0.1,1.3c0.1,0.4,0.3,0.8,0.6,1.2c0.3,0.4,0.5,0.7,0.7,1c0.1,0.2,0.3,0.4,0.5,0.8c0.3,0.4,0.4,0.6,0.5,0.8
		c0,0,0.1,0.1,0.2,0.1c0.1,0.1,0.2,0.1,0.2,0.1c0.6-0.6,1.4-1.4,2.3-2.3c0.9-0.9,1.7-1.7,2.4-2.5c0,0,0.1-0.1,0.1-0.2
		c0-0.1,0.1-0.2,0.1-0.2l-0.4-0.4c-0.2-0.2-0.3-0.4-0.6-0.6c-0.2-0.2-0.5-0.3-0.7-0.4c-0.4-0.2-0.7-0.4-1.1-0.6
		c-0.4-0.2-0.8-0.4-1.3-0.4c-0.4-0.1-0.9-0.1-1.3,0C64.2,69.6,63.8,69.9,63.3,70.4z"/>
	<path class="st17" d="M99.6,81.8c0-0.1,0-0.1-0.2-0.1c-0.1,0-0.1,0-0.2,0c-1,0-1.8-0.3-2.6-0.6c-0.7-0.4-1.5-0.8-2.1-1.3l-0.1-0.1
		c0-0.1-0.1-0.2-0.3-0.3c-0.2-0.1-0.3-0.2-0.3-0.3l-0.8-1l-0.8-1c0-0.4,0.1-0.7,0.3-0.9c0.2-0.1,0.2-0.1,0.3-0.1l1.7-1.2
		c0.2-0.1,0.4-0.2,0.6-0.3c0.3-0.1,0.5,0,0.6,0.1c0,0,0,0.1,0,0.2c0,0.1,0,0.2,0,0.2l0.2,0.2c0.2,0.3,0.6,0.8,1.1,1.3
		c0.5,0.5,1.1,1,1.8,1.3c0.7,0.4,1.4,0.6,2.2,0.7c0.8,0.1,1.5-0.1,2.2-0.7c0.3-0.2,0.6-0.5,0.7-0.9l0.7-2.1
		c-0.1-0.3-0.2-0.5-0.3-0.7c-0.1-0.2-0.3-0.4-0.4-0.6c-0.5-0.6-1-1.3-1.8-1.9c-0.7-0.6-1.5-1.1-2.3-1.5c-0.2-0.1-0.4-0.1-0.6-0.3
		c-0.3-0.1-0.5-0.2-0.8-0.3c-0.3-0.1-0.6-0.2-1-0.4l-0.2,0l-1.7-0.8l-5.4-1c-0.6,0-1.2-0.1-1.8-0.3c-0.5-0.2-1.1-0.4-1.6-0.6
		c-0.2-0.1-0.5-0.2-1-0.5c-0.5-0.2-0.9-0.4-1.1-0.4c-0.4-0.3-0.8-0.6-1.1-0.8c-0.3-0.2-0.7-0.4-1-0.7c-0.3-0.2-0.6-0.5-0.9-0.7
		c-0.3-0.2-0.5-0.6-0.8-0.9c-0.5-0.6-0.9-1.5-1.2-2.5c-0.3-1-0.5-2.1-0.5-3.2c0-1.1,0.2-2.2,0.7-3.2c0.5-1.1,1.2-2,2.3-2.8
		c0.5-0.4,1-0.6,1.4-0.6c0.4,0,0.9,0,1.4-0.1c0,0,0.1,0,0.2,0c0.1,0,0.1,0,0.2,0c0.1-0.1,0.1-0.1,0.2,0c0.8,0.2,1.5,0.5,2,0.8
		c0.5,0.3,1.1,0.7,1.7,1.3c0.4,0.3,0.7,0.6,0.9,0.9c0.3,0.3,0.5,0.6,0.8,1l0.7,1c0,0.1,0.1,0.2,0.2,0.3c0.1,0.2,0.1,0.3,0,0.4
		l-1.5,1.1l-0.2,0c0-0.1-0.1-0.1-0.2-0.2c-0.1-0.1-0.2-0.1-0.2-0.1L88,54.4c-0.1-0.1-0.2-0.3-0.6-0.5c-0.3-0.3-0.5-0.4-0.7-0.6
		c-0.1-0.1-0.2-0.2-0.5-0.2c-0.3-0.1-0.6-0.1-0.9-0.2c-0.3-0.1-0.7-0.1-1-0.1c-0.3,0-0.5,0.1-0.7,0.2c-0.3,0.3-0.4,0.7-0.3,1.3
		c0.1,0.6,0.3,1.3,0.6,2c0.3,0.7,0.5,1.3,0.8,1.9c0.3,0.6,0.5,0.9,0.5,1.1c0.3,0.5,0.6,0.9,0.9,1.4c0.3,0.5,0.6,0.9,1,1.4
		c0.7,0.9,1.6,1.6,2.7,2.1c1.2,0.5,2.3,0.9,3.5,1.3c0.1,0,0.3,0.1,0.6,0.2c0.3,0.1,0.7,0.3,1.1,0.4c0.4,0.1,0.7,0.3,1.1,0.4
		c0.3,0.1,0.5,0.2,0.6,0.2c0,0.1,0.2,0.1,0.4,0.2c0.2,0.1,0.4,0.1,0.5,0.1c0.3,0,0.5,0.1,0.8,0.3c0.3,0.2,0.5,0.3,0.7,0.3
		c1.5,0.8,2.8,1.6,4,2.4c1.2,0.8,2.2,1.8,3.1,3.1c0.5,0.6,0.6,1.4,0.5,2.4c-0.1,1-0.4,1.9-0.8,2.8c-0.1,0.1-0.1,0.2-0.2,0.2
		c0,0.1-0.1,0.1-0.1,0.2l-0.1,0l-1,0.8c-0.7,0.5-1.5,1-2.3,1.4C101.2,81.2,100.4,81.6,99.6,81.8z"/>
	<path class="st17" d="M113.1,67.9c-0.3-0.7-0.7-1.4-1.1-2.3c-0.4-0.9-0.9-1.8-1.4-2.7c-0.5-0.9-1-1.8-1.5-2.6
		c-0.5-0.8-0.9-1.6-1.2-2.2l-6.2-11l-2-3.7l-0.2-0.3c-0.1-0.2-0.3-0.5-0.5-0.9c-0.3-0.5-0.5-0.8-0.6-0.9l-0.2-0.1l0,0
		c-0.1-0.1,0-0.3,0.2-0.5c0.2-0.2,0.4-0.4,0.6-0.5c0.3-0.1,0.4-0.2,0.5-0.3c0.1-0.1,0.3-0.1,0.5-0.2c0.3-0.1,0.7-0.2,1.1-0.5
		c0.5-0.2,0.8-0.3,1-0.2c0.2,0.2,0.4,0.5,0.6,0.8c0.2,0.3,0.3,0.6,0.4,0.9c0.2-0.4,0.4-0.8,0.7-1.3c0.3-0.5,0.6-1,1-1.5
		c0.4-0.5,0.8-0.9,1.2-1.3c0.4-0.4,0.9-0.7,1.4-1c0.8-0.4,1.7-0.6,2.4-0.5c0.8,0.1,1.5,0.4,2.2,0.8c0.7,0.4,1.2,0.9,1.7,1.4
		c0.5,0.5,0.9,1,1.2,1.4c0.2,0.3,0.4,0.7,0.7,1.1c0.2,0.5,0.5,0.8,0.7,1.1c0.4,0.6,0.7,1.1,0.9,1.5c0.2,0.4,0.5,0.9,0.8,1.5
		c0,0,0.1,0.1,0.2,0.3c0.1,0.1,0.2,0.3,0.3,0.5c0.1,0.2,0.2,0.3,0.3,0.5c0.1,0.1,0.2,0.2,0.2,0.3l0.7,1.4l0.7,1.3
		c0.1,0.2,0.3,0.6,0.7,1.2c0.4,0.6,0.7,1.3,1.2,1.9c0.4,0.7,0.8,1.3,1.2,1.9c0.4,0.6,0.6,1,0.6,1.3c0.2,0.4,0.4,0.9,0.7,1.4
		c0.2,0.6,0.4,1.2,0.7,1.8c0.2,0.7,0.4,1.3,0.7,2c0.2,0.7,0.4,1.3,0.6,1.9c0,0.1,0.1,0.3,0.1,0.6c0.1,0.4,0.1,0.6,0.1,0.8
		c0.1,0.6-0.1,1.3-0.5,2.2c-0.4,0.9-1,1.5-1.7,1.9c-0.5,0.2-0.9,0.4-1.3,0.6c-0.4,0.1-0.9,0.3-1.5,0.5l-0.2,0
		c-0.1,0-0.3,0.1-0.7,0.2c-0.4,0.1-0.6,0.2-0.7,0.2c-0.1,0-0.4,0-0.8,0c-0.4,0-0.7,0-0.8,0c0,0,0,0.1,0,0.1c0,0.1,0,0.1,0,0.1
		c0,0.1,0.1,0.3,0.2,0.7c0.1,0.3,0.2,0.5,0.3,0.6l3.4,6.8c0,0,0.1,0.1,0.1,0.1c0.1,0.1,0.1,0.1,0.1,0.1l0,0l0,0
		c0,0.1-0.1,0.2-0.4,0.4c-0.2,0.1-0.3,0.2-0.4,0.3c-0.3,0.4-0.8,0.7-1.4,0.9c-0.6,0.3-1.2,0.5-1.6,0.6l-0.2-0.4
		c-1-1.5-1.9-2.9-2.5-4.5c-0.6-1.5-1.4-3.1-2.2-4.7L113.1,67.9z M117.1,66.1c0.1,0,0.3,0.1,0.7,0.1c0.3,0.1,0.7,0.1,1,0.2
		c0.3,0,0.7,0.1,1,0.1c0.3,0,0.6,0.1,0.7,0.1c0.3,0,0.7,0,1.1,0c0.4,0,0.8-0.1,1.1-0.3c0.7-0.4,1.2-0.9,1.3-1.6
		c0.2-0.7,0.2-1.5,0.1-2.2c-0.1-0.8-0.3-1.5-0.5-2.2c-0.2-0.7-0.4-1.2-0.6-1.5c0-0.1-0.1-0.2-0.1-0.2c0-0.1-0.2-0.1-0.4-0.1l0.2-0.3
		c-0.5-0.8-0.9-1.6-1.3-2.4c-0.4-0.8-0.8-1.6-1.2-2.4c-0.1-0.2-0.2-0.4-0.4-0.8c-0.2-0.3-0.4-0.7-0.6-1c-0.2-0.3-0.4-0.7-0.6-1
		c-0.2-0.3-0.3-0.6-0.4-0.8l-0.3,0l0.2-0.2l-0.5-1c-0.8-1.4-1.5-2.8-2.3-4.1c-0.8-1.3-1.5-2.7-2.2-4.1c-0.2-0.2-0.5-0.6-0.8-1.1
		c-0.3-0.5-0.8-0.9-1.3-1.2c-0.5-0.4-1-0.6-1.5-0.8c-0.5-0.2-1.1-0.1-1.7,0.3c-0.9,0.5-1.7,1.2-2.2,2.2c-0.6,1-0.8,1.8-0.8,2.6
		c0,0.3,0.1,0.5,0.2,0.7c0.1,0.2,0.1,0.5,0.1,0.8c0,0.1,0.1,0.3,0.3,0.5c0.2,0.2,0.3,0.5,0.4,0.8c0.1,0.3,0.3,0.5,0.4,0.8
		c0.1,0.3,0.2,0.4,0.2,0.5c0,0.1,0.1,0.2,0.2,0.4c0.1,0.2,0.1,0.4,0.1,0.4c0.6,1.1,1.2,2.1,1.7,3.2c0.5,1.1,1,2.2,1.6,3.2
		c0.3,0.5,0.6,1.1,0.9,1.7c0.3,0.6,0.7,1.2,1.1,1.8c0.4,0.6,0.8,1.2,1.1,1.9c0.4,0.6,0.7,1.2,0.9,1.7l0,0.1c0,0.1,0.1,0.2,0.1,0.4
		c0.1,0.2,0.2,0.4,0.3,0.6c0.1,0.2,0.2,0.4,0.3,0.6c0.1,0.2,0.1,0.3,0.1,0.3c0.1,0.2,0.2,0.4,0.5,0.7c0.2,0.3,0.5,0.7,0.7,1.1
		c0.2,0.4,0.5,0.7,0.7,1.1C116.9,65.7,117,66,117.1,66.1z"/>
	<path class="st17" d="M135.6,59.9c0-0.1-0.1-0.3-0.1-0.7c-0.1-0.4-0.1-0.7-0.1-0.7l0,0c-0.1-0.2-0.2-0.4-0.3-0.6
		c-0.1-0.2-0.2-0.4-0.3-0.6l-1-3.2l-0.5-1.3c-0.7-1.7-1.4-3.3-1.9-5c-0.6-1.6-1.2-3.3-1.8-5c-0.2-0.5-0.4-1-0.6-1.6
		c-0.3-0.6-0.5-1.1-0.7-1.7c-0.2-0.6-0.5-1.2-0.7-1.7c-0.2-0.6-0.4-1.1-0.5-1.6l-0.2,0l0.2-0.2l-0.3-0.9c-0.3-0.7-0.6-1.4-0.9-2.1
		c-0.3-0.7-0.6-1.3-0.8-2.1l-0.7-0.8c-0.2,0-0.2-0.1-0.2-0.3c0-0.2,0-0.3-0.1-0.4l-0.3-0.9c0.1,0,0.3-0.1,0.5-0.2
		c0.2-0.1,0.3-0.2,0.5-0.2c0.6-0.2,1.2-0.4,1.8-0.6c0.6-0.2,1.1-0.3,1.5-0.4c0,0,0.1,0.2,0.3,0.4c0.2,0.2,0.3,0.5,0.4,0.7l0.1,0.4
		l0.1,0l0.1,0c0.2-0.3,0.5-0.6,0.8-1c0.3-0.4,0.7-0.8,1.1-1.2c0.4-0.4,0.8-0.8,1.3-1.2c0.5-0.4,1-0.7,1.5-0.9
		c0.5-0.3,0.9-0.5,1.4-0.6c0.5-0.1,1.1-0.1,1.7,0c0.4,0,0.8,0.2,1.2,0.5c0.4,0.3,0.8,0.6,1.1,1c0.3,0.4,0.7,0.8,0.9,1.2
		c0.3,0.4,0.5,0.7,0.6,0.9c0,0.1,0.1,0.3,0.3,0.6c0.1,0.3,0.3,0.6,0.5,0.9c0.2,0.3,0.3,0.7,0.5,0.9c0.1,0.3,0.2,0.5,0.3,0.6l1.7,4.5
		c0.3,0.8,0.5,1.6,0.6,2.5c0.1,0.9,0.2,1.8,0.2,2.7c0,0.9-0.2,1.8-0.6,2.7c-0.3,0.9-0.9,1.8-1.6,2.6c-0.1,0.1-0.2,0.2-0.3,0.4
		c-0.1,0.2-0.3,0.3-0.4,0.4c-0.2,0.1-0.5,0.4-1,0.7c-0.5,0.3-0.8,0.5-1,0.7c-0.2,0.1-0.3,0.2-0.4,0.2c0,0-0.1,0.1,0,0.2
		c0.1,0.2,0.2,0.3,0.5,0.6c0.3,0.2,0.6,0.4,0.9,0.6c0.3,0.2,0.7,0.4,1,0.5c0.3,0.2,0.6,0.3,0.9,0.4c0.7,0.3,1.3,0.7,1.9,1.1
		c0.6,0.4,1.3,0.8,1.9,1.3c0.6,0.4,1.3,0.9,1.9,1.3c0.7,0.4,1.3,0.7,2,1c0.1,0.1,0.4,0.3,0.7,0.4c0.4,0.1,0.7,0.2,0.8,0.3l0.1,0.1
		c0.1,0.3,0,0.5-0.2,0.7c-0.2,0.2-0.5,0.3-0.9,0.4c-0.5,0.2-0.9,0.1-1.2-0.1c-0.3-0.3-0.6-0.5-0.9-0.6c-0.2,0-0.4-0.1-0.7-0.2
		c-0.3-0.1-0.6-0.3-0.9-0.5c-0.3-0.2-0.6-0.3-0.9-0.4c-0.3-0.1-0.5-0.2-0.6-0.3c-0.1,0-0.4-0.2-0.8-0.4c-0.4-0.2-0.8-0.5-1.2-0.8
		c-0.4-0.3-0.9-0.6-1.3-0.8c-0.4-0.2-0.7-0.4-0.7-0.4c-0.1,0-0.1-0.1-0.3-0.2c-0.1-0.1-0.3-0.2-0.4-0.4c-0.2-0.1-0.3-0.2-0.4-0.4
		c-0.1-0.1-0.2-0.2-0.3-0.2c-0.2-0.1-0.3-0.1-0.4-0.2c-0.1-0.1-0.3-0.1-0.5-0.1l0.1-0.1c0,0,0-0.1-0.2-0.2c-0.2-0.1-0.3-0.2-0.5-0.3
		c-0.1-0.1-0.3-0.2-0.7-0.4c-0.3-0.2-0.6-0.2-0.8-0.2l0.1,1.4l0.8,2.1l1,2.7c0,0,0.1,0.2,0.2,0.4c0.1,0.2,0.3,0.5,0.4,0.8
		c0.2,0.3,0.3,0.6,0.5,0.9c0.2,0.3,0.3,0.5,0.4,0.7c0,0.1,0.1,0.2,0.2,0.3c0.1,0.1,0.1,0.2,0.2,0.2c0,0,0.1,0.1,0.2,0.3
		c0.1,0.2,0.2,0.3,0.2,0.3c0,0.1-0.1,0.2-0.3,0.4c-0.2,0.1-0.4,0.3-0.7,0.4c-0.2,0.1-0.5,0.2-0.7,0.3c-0.2,0.1-0.4,0.2-0.6,0.2
		c-0.7,0.2-1.1,0.4-1.2,0.5c-0.1,0.1-0.5,0.1-1,0.1L135.6,59.9z M135.6,46.4c0.1,0.2,0.2,0.3,0.4,0.5c0.2,0.1,0.4,0.1,0.7,0.1
		c1.8-0.7,3-1.5,3.7-2.6c0.7-1.1,1.1-2.3,1.4-3.6c0-0.2,0-0.5-0.1-1c-0.1-0.5-0.1-1-0.2-1.6c-0.1-0.6-0.1-1.1-0.1-1.6
		c0-0.5-0.1-0.8-0.1-1l-0.2-0.7c-0.2-0.4-0.3-0.9-0.6-1.4c-0.2-0.5-0.5-1.1-0.7-1.6c-0.2-0.5-0.5-1.1-0.7-1.6
		c-0.2-0.5-0.4-1-0.6-1.4c-0.2-0.3-0.3-0.6-0.6-1.1c-0.2-0.5-0.5-0.9-0.9-1.3c-0.3-0.4-0.8-0.7-1.2-0.9c-0.5-0.2-1-0.2-1.5-0.1
		c-0.6,0.2-1.1,0.5-1.7,1c-0.5,0.4-1,0.9-1.4,1.5c-0.4,0.5-0.7,1.1-1,1.6c-0.2,0.5-0.3,1-0.3,1.5c0.2,0.5,0.4,1.1,0.6,1.8
		c0.2,0.7,0.5,1.4,0.7,2.1c0.3,0.7,0.5,1.4,0.8,2.1c0.3,0.7,0.5,1.3,0.6,1.8c0.3,0.7,0.6,1.5,0.9,2.2c0.3,0.7,0.7,1.5,0.9,2.2
		l0.1,0.2L135.6,46.4z"/>
	<path class="st17" d="M149.5,15.1c-0.1-0.5-0.1-1-0.1-1.6c0.1-0.6,0.6-1,1.4-1.2c0.7-0.2,1.3-0.2,1.8,0c0.5,0.2,0.8,0.5,1,1.1
		c0.1,0.4-0.1,0.9-0.6,1.3c-0.5,0.4-1,0.7-1.6,0.9c-0.5,0.1-0.9,0.1-1.3,0.1C149.8,15.6,149.6,15.4,149.5,15.1z M158.3,49.3
		c-0.4-1.6-0.7-3.2-1.1-4.8c-0.3-1.6-0.7-3.2-1.1-4.8c0-0.1-0.1-0.4-0.2-0.8c-0.1-0.4-0.2-0.8-0.3-1.2c-0.1-0.4-0.2-0.8-0.3-1.2
		c-0.1-0.4-0.2-0.6-0.2-0.8c0-0.1-0.1-0.3-0.2-0.6c-0.1-0.3-0.2-0.5-0.2-0.6l-1.4-5.8c-0.2-0.9-0.4-1.8-0.5-2.8
		c-0.1-1-0.3-1.9-0.6-2.7c0,0,0-0.2-0.1-0.4c-0.1-0.2-0.1-0.5-0.2-0.8c-0.1-0.3-0.1-0.5-0.2-0.8c-0.1-0.2-0.1-0.4-0.2-0.5
		c0,0,0-0.1-0.1-0.2c-0.1-0.1-0.1-0.2-0.1-0.2c0-0.1,0-0.1-0.1-0.2c0-0.1,0-0.2,0-0.3c0-0.1,0-0.3,0-0.4c0-0.1,0.2-0.3,0.5-0.4
		c0.3-0.1,0.7-0.2,1.1-0.3c0.4-0.1,0.8-0.2,1.2-0.2c0.4-0.1,0.7-0.1,0.8-0.1c0.2,0,0.3,0,0.3,0.2c0,0.2,0,0.4,0,0.6
		c0,0.2,0,0.4,0,0.6c0,0.2,0.1,0.4,0.2,0.4c0,0.2,0.1,0.5,0.2,1c0.1,0.4,0.2,0.9,0.3,1.4c0.1,0.5,0.2,1,0.3,1.4
		c0.1,0.4,0.2,0.8,0.2,1c0,0.1,0.1,0.3,0.2,0.8c0.1,0.4,0.2,0.8,0.3,1c0.9,3.6,1.6,7.3,2.2,11c0.6,3.7,1.3,7.3,2.2,11
		c0.1,0.6,0.3,1.1,0.4,1.5c0.1,0.4,0.3,0.8,0.5,1.4c0.1,0.2,0.2,0.4,0.3,0.6c0.1,0.2,0.2,0.4,0.3,0.6c0,0.2,0,0.3,0,0.4
		c-0.2,0.1-0.7,0.2-1.3,0.4c-0.6,0.2-1.1,0.3-1.3,0.4l-0.1,0c-0.2,0.1-0.4,0-0.6-0.1c-0.2-0.1-0.3-0.2-0.4-0.3L158.3,49.3z"/>
	<path class="st17" d="M171.9,31.3c-0.1-0.7-0.3-1.5-0.4-2.3c-0.1-0.8-0.3-1.6-0.4-2.3c-0.1-0.7-0.2-1.2-0.2-1.5l-0.1-0.4
		c-0.1-0.5-0.1-1-0.1-1.5c0-0.5-0.1-1-0.1-1.5c0-0.1,0-0.3-0.1-0.6c0-0.3-0.1-0.6-0.1-0.9c0-0.3,0-0.6-0.1-0.8
		c0-0.3-0.1-0.4-0.1-0.4c0-0.1-0.1-0.4-0.2-0.8c-0.1-0.4-0.2-0.9-0.3-1.3c-0.1-0.5-0.2-0.9-0.3-1.3c-0.1-0.4-0.1-0.7-0.2-0.8
		l-3.2,0.4l-1.8-0.2c0-0.1,0-0.2-0.1-0.4c-0.1-0.2-0.1-0.4-0.2-0.5c-0.1-0.2-0.1-0.4,0-0.5c0-0.2,0.1-0.2,0.2-0.3c0,0,0.1,0,0.1-0.1
		c0.4,0,0.8-0.1,1-0.1c0.3,0,0.5-0.1,0.7-0.1c0.2,0,0.3,0,0.4,0l0.1,0c0.4-0.1,0.7-0.1,1-0.2c0.2-0.1,0.5-0.1,0.7-0.2
		c0.2-0.1,0.4-0.1,0.4-0.2l-0.6-4.5c0-0.1,0-0.3,0-0.6c0-0.3,0-0.5,0-0.5c0.3-0.2,0.5-0.3,0.7-0.2c0.1,0.1,0.4,0,0.7-0.2l1.3-0.2
		c0.2,0,0.3,0.1,0.5,0c0.2,0,0.3-0.1,0.5-0.1c0.2,0,0.3,0,0.4,0c0.1,0,0.2,0.2,0.2,0.4c0,0.3,0,0.5-0.1,0.8
		c-0.1,0.3-0.1,0.5-0.1,0.8c0.1,0.6,0.2,1.2,0.4,1.8c0.2,0.6,0.3,1.2,0.5,1.8c0.2,0,0.7,0,1.3-0.1c0.6-0.1,1-0.1,1.3-0.1
		c0,0,0.2,0,0.4-0.1c0.2,0,0.5-0.1,0.7-0.1c0.3,0,0.5-0.1,0.7-0.1c0.2,0,0.4-0.1,0.4-0.1c0.3,0,0.6,0,0.7,0.2
		c0.1,0.1,0.2,0.3,0.2,0.4c0,0.2,0,0.4-0.1,0.6c-0.1,0.2-0.1,0.4-0.1,0.5c-0.1,0-0.3,0.1-0.8,0.2c-0.4,0.1-0.7,0.2-0.8,0.2
		c0,0-0.1,0.1-0.3,0.1c-0.2,0.1-0.3,0.1-0.3,0.1l-2.8,0.4c0,0.1,0,0.2,0,0.3c0,0.2,0,0.3,0,0.3c0,0.1,0,0.3,0,0.5c0,0.2,0,0.5,0,0.7
		c0,0.2,0,0.5,0.1,0.7c0,0.2,0,0.3,0.1,0.4c0,0.1,0.1,0.6,0.1,1.3c0.1,0.7,0.2,1.5,0.2,2.3c0.1,0.8,0.1,1.6,0.2,2.3
		c0.1,0.7,0.1,1.1,0.1,1.3c0,0.1,0,0.2,0.1,0.5c0,0.3,0.1,0.5,0.1,0.8c0,0.3,0,0.6,0,0.8c0,0.3,0,0.4,0,0.5l0.2,1.6
		c0.2,1.4,0.5,2.7,0.7,4.1c0.2,1.4,0.5,2.7,0.8,4c0,0.1,0,0.4,0.1,0.8c0,0.4,0.1,0.9,0.2,1.3c0.1,0.5,0.1,0.9,0.2,1.3
		c0.1,0.4,0.1,0.7,0.1,0.8l0.2,1.6l0.7,5.1c0.1,0.4,0.1,0.8,0.2,1.1c0.1,0.3,0.2,0.6,0.5,1.1c0,0,0,0.1,0,0.2c0,0.1-0.1,0.1,0,0.2
		l-0.2,0.2l-2.2,0.4c-0.1,0-0.3,0-0.6,0.1c-0.3,0.1-0.5,0.1-0.6,0c-0.3-0.2-0.5-0.4-0.5-0.8c0-0.4,0-0.7-0.1-0.9
		c-0.3-1.7-0.6-3.5-0.9-5.5c-0.2-2-0.5-3.8-0.8-5.6c0-0.1-0.1-0.4-0.1-0.8s-0.1-0.9-0.2-1.4c0-0.5-0.1-0.9-0.2-1.4
		c-0.1-0.4-0.1-0.7-0.1-0.8l-0.1-0.7C172.1,32.6,172,32.1,171.9,31.3z"/>
	<path class="st17" d="M203.5,48.4c-0.1,0-0.2-0.1-0.2-0.1c-0.1-0.1-0.2-0.1-0.2-0.1c0,0-0.1,0-0.2-0.1c-0.2-0.7-0.2-1.5-0.2-2.2
		c0-0.8,0.1-1.5,0.1-2.3c0-0.6,0.1-1.2,0.2-1.8c0.1-0.6,0.1-1.2,0.2-1.9l0-0.6c0,0-0.1-0.1-0.1-0.1c0,0-0.1-0.1-0.1-0.1l0.1,0l0.1,0
		c-0.1-0.3-0.2-0.5-0.1-0.7c0.1-0.2,0.1-0.4,0-0.8c-0.1-0.8-0.1-1.5-0.2-2.2c0-0.7,0-1.5,0-2.3c0.1-1.3,0.1-2.5,0.1-3.7
		c0-1.2,0.1-2.4,0.1-3.7c0-0.3,0-0.6,0-0.8c0-0.2,0-0.5-0.1-0.9c0-0.1-0.1-0.1-0.3-0.1l-0.2,0c-0.1,0-0.3,0.1-0.7,0.1
		c-0.4,0-0.6,0.1-0.7,0.1c-0.4-0.5-0.7-0.9-0.8-1.4c-0.1-0.5,0.1-0.9,0.7-1.2l2.1,0.1c0.1-1.4,0.2-2.8,0.4-4.2
		c0.2-1.4,0.5-2.7,0.8-4.2c0.2-0.7,0.4-1.5,0.6-2.3c0.2-0.8,0.5-1.6,0.9-2.4c0.4-0.7,1-1.4,1.7-2c0.7-0.6,1.6-1,2.7-1.3
		c0.1-0.1,0.4-0.1,0.8-0.2c0.4-0.1,0.7-0.1,0.8-0.2l0.1,0c1.1,0,2,0.2,2.7,0.5c0.7,0.3,1.2,0.7,1.7,1.2c0.4,0.5,0.7,1.1,0.9,1.7
		c0.2,0.6,0.4,1.3,0.6,2c0,0.1,0,0.3,0,0.5c0,0.2,0,0.5,0,0.7c0,0.3,0,0.5,0,0.7c0,0.2,0,0.3,0,0.4l0,0.3c0,0.3,0,0.6,0,1
		c0,0.4,0,0.7-0.1,1c-0.1,0.1-0.4,0.1-0.9,0.1c-0.4,0-0.8,0-1.1-0.1l0.1,0c-0.2,0-0.3,0-0.5,0c-0.1,0-0.3,0-0.5,0
		c-0.2,0-0.3-0.1-0.3-0.4c0-0.3,0-0.5,0-0.9c0-0.3,0.1-0.6,0.1-1c0.1-0.3,0.1-0.5,0-0.6c0-0.1-0.1-0.4-0.1-0.7
		c-0.1-0.3-0.1-0.6-0.2-1c-0.1-0.3-0.1-0.6-0.1-1c0-0.3-0.1-0.5-0.1-0.7c-0.1-0.3-0.3-0.6-0.5-1c-0.2-0.4-0.6-0.6-1.1-0.6
		c-0.6-0.1-1.1,0.1-1.4,0.6c-0.3,0.4-0.7,1-1.1,1.6c0.1,0.2,0,0.5-0.2,0.8c-0.2,0.3-0.3,0.6-0.3,0.9c-0.2,1.5-0.5,3.1-0.7,4.6
		c-0.3,1.5-0.5,3.1-0.5,4.6c0,0.2,0,0.5,0,0.9c0,0.4,0,0.6,0,0.7l0.1,0.1c0.2,0,0.4,0.1,0.6,0.1c0.1,0,0.3,0.1,0.5,0.1
		c0.2,0,0.3,0,0.4,0c0.2,0,0.4,0,0.8,0c0.3,0,0.6,0,0.9,0.1c0.3,0,0.5,0.1,0.7,0.2c0.2,0.1,0.3,0.3,0.3,0.5l0,0.1
		c-0.2,0.2-0.2,0.5-0.2,0.7c0,0.2-0.1,0.4-0.2,0.6c-0.2,0.1-0.5,0.2-0.8,0.2c-0.3,0-0.6,0-0.8,0c-0.2,0-0.6,0-1.2,0
		c-0.6,0-1,0-1.1,0c0,0.1,0,0.3,0,0.5c0,0.2,0,0.5-0.1,0.7c0,0.3-0.1,0.5-0.1,0.7c0,0.2,0,0.4,0,0.5c0,0.6-0.1,1.2-0.1,1.8
		c-0.1,0.6-0.1,1.2-0.1,1.8l0,0.1c0,0.1,0,0.3-0.1,0.7c-0.1,0.4-0.1,0.7-0.1,0.7c0,0,0,0.1,0,0.3c0,0.2,0,0.3,0,0.5
		c0,0.2,0,0.4,0,0.5c0,0.2,0,0.2,0,0.3l-0.3,5.8c0.3,1.2,0.4,2.4,0.4,3.5c0,1.1,0,2.3,0.1,3.6c0.1,0.4,0.2,0.7,0.2,1.1
		c0.1,0.3,0.1,0.7,0.1,1c0,0.4-0.3,0.6-1,0.6c-0.6,0-1.2,0-1.6,0c-0.3,0-0.5,0-0.7-0.1c-0.2,0-0.4-0.1-0.8-0.2L203.5,48.4z"/>
	<path class="st17" d="M220.7,38.5c-0.1-1.4,0.1-2.8,0.6-4.4c0.4-1.6,0.8-3.4,0.9-5.5l0.1-0.4c0-0.2,0.1-0.5,0.3-0.9
		c0.1-0.4,0.3-0.9,0.4-1.3c0.1-0.5,0.3-0.9,0.4-1.3c0.1-0.4,0.2-0.7,0.3-0.9c0.1-0.9,0.5-1.8,1-2.8c0.5-1,1.1-1.8,1.8-2.6
		c0.7-0.8,1.4-1.5,2.2-2c0.8-0.5,1.6-0.8,2.3-0.9c0.3-0.1,0.6-0.1,1.1,0c0.5,0.1,0.8,0.1,1.1,0.2c0.7,0.1,1.4,0.3,2.1,0.5
		c0.6,0.2,1.2,0.5,1.7,1c0.5,0.5,1,0.9,1.3,1.2c0.3,0.3,0.6,0.7,0.7,1c0.2,0.3,0.3,0.7,0.3,1.1c0,0.4,0.1,0.9,0.1,1.4
		c0,0.1,0,0.2,0,0.5c0,0.2,0,0.4,0,0.5c0,0.1-0.1,0.4-0.1,0.8c0,0.4-0.1,0.7-0.1,0.8c0,0,0.1,0.1,0,0.2c0,0.1,0,0.1,0,0.2l0,0.1
		c0,0.1-0.1,0.3-0.1,0.4c0,0.1-0.1,0.2-0.1,0.4c0,0.2,0,0.3,0.1,0.3c0.1,0.1,0.1,0.2,0.1,0.3c0,0.2,0,0.4-0.2,0.5
		c-0.1,0.1-0.3,0.2-0.7,0.3c-1.1-0.2-2.1-0.3-3-0.3c-0.9,0-1.9-0.1-3-0.2c-0.1,0-0.5,0-1.2-0.1c-0.7-0.1-1.2-0.2-1.6-0.2
		c-0.1,0-0.2,0-0.4-0.1c-0.1,0-0.2,0-0.3,0.1c-0.1,1.2-0.3,2.4-0.7,3.6c-0.4,1.2-0.7,2.4-0.9,3.6c-0.2,1.3-0.3,2.5-0.4,3.6
		c-0.1,1.1-0.2,2.4-0.3,3.7c-0.1,0.6-0.1,1.2-0.2,1.9c-0.1,0.6-0.1,1.3-0.1,2c0,0.7,0.2,1.3,0.3,1.9c0.2,0.6,0.6,1.2,1.2,1.8
		c0.2,0.2,0.4,0.3,0.5,0.4c0.1,0.1,0.3,0.1,0.5,0.1c0.7,0.1,1.4,0,2-0.4c0.6-0.4,1.2-0.9,1.7-1.5c0.5-0.6,0.9-1.3,1.2-2
		c0.3-0.7,0.5-1.2,0.6-1.7c0-0.1,0-0.2,0.1-0.3c0-0.1,0-0.2-0.1-0.4c0.1,0,0.3-0.1,0.5-0.1c0.2,0,0.4-0.1,0.5-0.1c0.1,0,0.1,0,0.2,0
		l0.4,0c0.2,0.1,0.4,0.2,0.4,0.2c0,0.1,0.2,0.1,0.4,0.1l0.4,0.7l-0.5,2c-0.2,0.1-0.3,0.4-0.3,0.6c0,0.3-0.1,0.5-0.2,0.7
		c-0.1,0.4-0.3,0.8-0.6,1.2c-0.3,0.4-0.5,0.8-0.8,1.2c-0.3,0.3-0.6,0.6-0.9,0.8c-0.3,0.2-0.5,0.3-0.7,0.3c-0.1,0.1-0.3,0.2-0.7,0.3
		c-0.3,0.2-0.6,0.2-0.6,0.2c-0.7,0.1-1.3,0.2-1.8,0.3c-0.5,0.1-1.2,0.2-1.8,0c-0.7-0.1-1.2-0.3-1.6-0.5c-0.3-0.2-0.8-0.5-1.2-0.8
		c-0.3-0.2-0.7-0.4-1-0.6c-0.3-0.2-0.6-0.4-0.9-0.7c-0.7-0.7-1.2-1.5-1.5-2.3c-0.3-0.8-0.5-1.7-0.6-2.5c-0.1-0.9-0.1-1.7-0.1-2.6
		C220.8,40.2,220.7,39.3,220.7,38.5z M233.3,18.3c-0.7-0.1-1.3-0.1-1.7,0.1c-0.4,0.2-0.7,0.5-1,0.8c-0.2,0.3-0.4,0.7-0.6,1.2
		c-0.1,0.4-0.3,0.8-0.4,1.2c-0.1,0.2-0.2,0.5-0.3,0.9c-0.1,0.4-0.3,0.7-0.3,0.9c0,0,0,0.1,0,0.2c0,0.1,0,0.2,0,0.2
		c0.9,0.1,2,0.3,3.3,0.4c1.3,0.2,2.4,0.3,3.4,0.4c0,0,0.1,0,0.2,0c0.1,0,0.2,0,0.2,0l0.1-0.6c0.1-0.3,0.1-0.5,0.1-0.8
		c0-0.3,0-0.6-0.1-0.8c-0.1-0.4-0.2-0.8-0.2-1.3c-0.1-0.4-0.2-0.9-0.4-1.3c-0.2-0.4-0.5-0.7-0.8-1C234.5,18.6,234,18.4,233.3,18.3z"
		/>
	<path class="st17" d="M242.5,52.2c0-0.1,0.1-0.3,0.4-0.7c0.2-0.4,0.3-0.6,0.4-0.7l0,0c0.1-0.2,0.1-0.4,0.1-0.7
		c0-0.2,0.1-0.4,0.1-0.7l1.1-3.2L245,45c0.4-1.8,0.9-3.5,1.5-5.1c0.5-1.7,1.1-3.3,1.6-5.1c0.2-0.5,0.3-1,0.4-1.6
		c0.1-0.6,0.3-1.2,0.4-1.8c0.2-0.6,0.3-1.2,0.5-1.8c0.2-0.6,0.3-1.1,0.5-1.6l-0.2-0.2l0.2,0l0.3-0.9c0.2-0.7,0.4-1.5,0.5-2.2
		c0.1-0.7,0.3-1.4,0.6-2.1l0-1.1c-0.1-0.1-0.1-0.2,0-0.4c0.1-0.1,0.2-0.2,0.2-0.3l0.3-0.9c0.1,0,0.3,0.1,0.5,0.1
		c0.2,0,0.4,0.1,0.5,0.1c0.6,0.2,1.2,0.4,1.8,0.6c0.6,0.2,1.1,0.4,1.4,0.6c0,0,0,0.2,0,0.5c0,0.3-0.1,0.5-0.1,0.7l-0.1,0.4l0.1,0
		l0.1,0c0.3-0.1,0.7-0.2,1.2-0.3c0.5-0.1,1-0.2,1.6-0.3c0.6-0.1,1.2-0.2,1.8-0.2c0.6,0,1.2,0,1.7,0.2c0.5,0.1,1,0.2,1.5,0.4
		c0.5,0.2,0.9,0.5,1.3,1c0.3,0.3,0.5,0.6,0.6,1.1c0.2,0.5,0.2,1,0.3,1.5c0,0.5,0,1,0,1.5c0,0.5-0.1,0.9-0.1,1.1
		c0,0.1-0.1,0.4-0.2,0.7s-0.1,0.7-0.2,1c-0.1,0.4-0.1,0.7-0.2,1c-0.1,0.3-0.1,0.5-0.2,0.7l-1.4,4.6c-0.2,0.8-0.6,1.6-1,2.4
		c-0.4,0.8-0.9,1.5-1.5,2.2c-0.6,0.7-1.3,1.3-2.1,1.8c-0.8,0.5-1.8,0.9-2.9,1.1c-0.1,0-0.3,0.1-0.5,0.1c-0.2,0-0.4,0.1-0.5,0
		c-0.2,0-0.7,0-1.2-0.1c-0.6,0-1,0-1.2-0.1c-0.2,0-0.4,0-0.4-0.1c0,0-0.1,0-0.1,0.2c-0.1,0.2,0,0.4,0,0.7c0.1,0.3,0.2,0.7,0.4,1
		c0.2,0.4,0.3,0.7,0.5,1c0.2,0.3,0.3,0.6,0.4,0.8c0.3,0.6,0.6,1.3,0.9,2c0.3,0.7,0.5,1.4,0.7,2.2c0.2,0.7,0.5,1.5,0.8,2.2
		c0.3,0.7,0.6,1.4,1,2c0,0.2,0.1,0.4,0.4,0.8c0.2,0.3,0.4,0.6,0.5,0.7l0,0.1c-0.1,0.3-0.3,0.4-0.6,0.4c-0.3,0-0.6-0.1-1-0.2
		c-0.5-0.2-0.8-0.4-0.9-0.8c-0.1-0.4-0.2-0.7-0.4-1c-0.1-0.1-0.3-0.3-0.4-0.6c-0.2-0.3-0.3-0.6-0.5-0.9c-0.2-0.3-0.3-0.6-0.5-0.9
		c-0.2-0.3-0.3-0.5-0.3-0.6c-0.1-0.1-0.2-0.4-0.4-0.8c-0.2-0.4-0.3-0.9-0.5-1.4c-0.2-0.5-0.3-1-0.5-1.4c-0.2-0.4-0.3-0.7-0.3-0.8
		c0,0-0.1-0.2-0.1-0.3c0-0.2-0.1-0.3-0.1-0.5c-0.1-0.2-0.1-0.4-0.1-0.5c0-0.2-0.1-0.3-0.1-0.3c-0.1-0.2-0.2-0.3-0.2-0.4
		c0-0.1-0.2-0.2-0.4-0.4l0.2-0.1c0,0,0-0.1,0-0.2c-0.1-0.2-0.2-0.3-0.3-0.5c-0.1-0.1-0.2-0.4-0.3-0.7c-0.1-0.3-0.3-0.5-0.5-0.6
		l-0.7,1.2l-0.6,2.1l-0.8,2.7c0,0,0,0.2-0.1,0.4c0,0.3-0.1,0.5-0.1,0.9c-0.1,0.3-0.1,0.6-0.2,1c-0.1,0.3-0.1,0.6-0.1,0.8
		c0,0.1,0,0.2,0,0.3c0,0.1,0,0.2,0,0.3c0,0,0,0.2,0,0.4c0,0.2,0,0.4,0,0.4c-0.1,0.1-0.2,0.1-0.5,0.1c-0.2,0-0.5-0.1-0.7-0.1
		c-0.3,0-0.5-0.1-0.8-0.2c-0.3-0.1-0.4-0.1-0.6-0.2c-0.7-0.2-1.1-0.3-1.3-0.3c-0.2,0-0.4-0.2-0.8-0.5L242.5,52.2z M250.6,41.4
		c-0.1,0.2,0,0.4,0.1,0.6c0.1,0.2,0.3,0.4,0.5,0.4c1.8,0.6,3.3,0.6,4.5,0.2c1.2-0.4,2.3-1.1,3.3-2.1c0.1-0.1,0.3-0.4,0.5-0.9
		c0.3-0.4,0.5-0.9,0.8-1.4c0.3-0.5,0.6-0.9,0.9-1.3c0.3-0.4,0.4-0.7,0.5-0.9l0.2-0.7c0.1-0.4,0.3-0.9,0.4-1.5
		c0.1-0.6,0.3-1.1,0.4-1.7c0.1-0.6,0.3-1.1,0.4-1.7c0.1-0.5,0.3-1,0.3-1.5c0-0.3,0.1-0.7,0.2-1.2c0.1-0.5,0.1-1,0.1-1.6
		c0-0.5-0.2-1-0.4-1.5c-0.2-0.5-0.6-0.8-1.2-0.9c-0.6-0.2-1.2-0.3-1.9-0.2c-0.7,0-1.4,0.1-2,0.3c-0.6,0.2-1.2,0.4-1.7,0.7
		c-0.5,0.3-0.9,0.6-1.1,1c-0.2,0.5-0.3,1.1-0.6,1.8s-0.5,1.4-0.7,2.2c-0.2,0.7-0.5,1.5-0.7,2.2c-0.2,0.7-0.4,1.3-0.5,1.8
		c-0.2,0.7-0.4,1.5-0.6,2.3c-0.2,0.8-0.4,1.6-0.6,2.4l-0.1,0.2L250.6,41.4z"/>
	<path class="st17" d="M281.1,69.3c0,0,0.1-0.2,0.1-0.4c0.1-0.3,0.1-0.4,0.1-0.4c0.7-0.9,1.2-1.9,1.6-2.9c0.4-1,0.8-2,1.4-3
		c1-2,2-4.2,3-6.5c0.9-2.3,1.9-4.5,2.9-6.6c0-0.1,0.1-0.2,0.2-0.5c0.1-0.3,0.3-0.6,0.5-0.9c0.2-0.3,0.3-0.6,0.5-0.9
		c0.2-0.3,0.3-0.4,0.3-0.5c0.2-0.4,0.5-1,0.8-1.6c0.3-0.7,0.7-1.3,1-2c0.3-0.6,0.7-1.4,1.2-2.3l0.1-0.7l-0.5,0.1
		c-0.2,0-0.6,0.1-1.2,0.3c-0.6,0.1-1.3,0.3-2,0.4c-0.7,0.1-1.4,0.3-2,0.4c-0.6,0.1-1,0.2-1.2,0.3c-0.5,0.1-1,0.1-1.4-0.1
		c-0.5-0.3-0.7-0.7-0.9-1.2c-0.1-0.5-0.2-1-0.4-1.3c-0.1-0.3-0.2-0.7-0.4-1.2c-0.2-0.5-0.3-1-0.5-1.5c-0.2-0.5-0.3-0.9-0.4-1.3
		c-0.1-0.4-0.2-0.6-0.2-0.6l-0.1-0.2c-0.1,0.2-0.2,0.4-0.4,0.8c-0.2,0.4-0.4,0.7-0.4,0.8c-0.1,0.2-0.3,0.5-0.5,0.9
		c-0.2,0.4-0.4,0.7-0.4,0.7c-1.4,2.9-2.9,5.9-4.4,9c-1.5,3.2-3,6.2-4.5,9.1c-0.6,1-1.1,2.2-1.6,3.4c-0.5,1.2-1,2.3-1.6,3.4
		c-0.1,0.3-0.3,0.6-0.5,0.9c-0.2,0.3-0.6,0.3-1.1,0.1l-2.7-1.5c-0.2-0.1-0.3-0.2-0.5-0.3c-0.1-0.1-0.2-0.3-0.2-0.4
		c0,0,0.1-0.1,0.1-0.1c0.1,0,0.1-0.1,0.1-0.1l0-0.1l0-0.1c0.1-0.1,0.2-0.5,0.5-1c0.3-0.6,0.5-1.2,0.8-1.8c0.3-0.6,0.6-1.2,0.9-1.8
		c0.3-0.5,0.4-0.9,0.5-1c0.6-1.4,1.3-2.9,2.2-4.6c0.9-1.6,1.6-3.1,2.3-4.5c0.6-1.3,1.1-2.5,1.7-3.8c0.5-1.3,1.2-2.5,1.8-3.6l0-0.1
		c0,0,0.1-0.1,0.2-0.2c0.1-0.1,0.2-0.3,0.3-0.4c0.1-0.2,0.2-0.3,0.3-0.4c0.1-0.1,0.1-0.2,0.2-0.2l0-0.1c0.6-1,1.2-2.1,1.7-3.3
		c0.5-1.1,0.9-2.3,1.4-3.3c0-0.1,0.1-0.2,0.3-0.5c0.2-0.3,0.3-0.4,0.3-0.5l0.5,0.1l2,1c0.1,0,0.2,0,0.5,0.1c0.2,0.1,0.5,0.2,0.8,0.3
		c0.3,0.1,0.5,0.2,0.7,0.3c0.2,0.1,0.4,0.2,0.4,0.2c0.1,0.1,0.2,0.2,0.2,0.4c0,0.2,0,0.3,0.1,0.4c0,0.1,0.1,0.3,0.2,0.6
		c0.1,0.3,0.2,0.6,0.3,0.9c0.1,0.3,0.2,0.7,0.2,0.9c0.1,0.3,0.1,0.5,0.2,0.6c0.1,0.4,0.2,0.8,0.3,1.2c0.1,0.4,0.3,0.8,0.5,1.2
		c0.1,0.2,0.2,0.5,0.4,0.9c0.2,0.4,0.3,0.5,0.3,0.6l0.1,0.1l2.3-0.4c0.1,0,0.2,0,0.4-0.1c0.2-0.1,0.3-0.1,0.4-0.1l6.3-1
		c0.2,0,0.4,0,0.6,0.1c0.6,0.3,0.9,0.8,0.8,1.3c-0.5,0.8-0.9,1.6-1.2,2.5c-0.3,0.8-0.7,1.7-1.1,2.5c-0.2,0.3-0.4,0.7-0.7,1.3
		c-0.2,0.5-0.4,1-0.6,1.3c-1.3,2.5-2.5,5.1-3.6,7.8c-1.1,2.7-2.3,5.3-3.6,7.8c-0.5,0.9-1,1.9-1.3,2.8c-0.4,1-0.8,1.9-1.3,2.8
		c-0.2,0.4-0.4,0.8-0.6,1.4c-0.2,0.6-0.4,1.1-0.6,1.4c0,0.1-0.1,0.1-0.3,0c-0.1-0.1-0.3-0.2-0.5-0.3l-0.8-0.4l-1-0.3L281.1,69.3z"/>
	<path class="st17" d="M296.7,65.8c0.5-1.2,1.4-2.5,2.5-3.7c1.1-1.2,2.2-2.7,3.3-4.5l0.2-0.3c0.1-0.1,0.3-0.4,0.6-0.7
		c0.3-0.3,0.6-0.7,1-1c0.3-0.3,0.7-0.7,1-1c0.3-0.3,0.5-0.5,0.6-0.7c0.5-0.7,1.2-1.4,2.1-2.1c0.9-0.6,1.8-1.2,2.7-1.6
		c1-0.4,1.9-0.7,2.9-0.8c1-0.1,1.8,0,2.4,0.2c0.3,0,0.6,0.2,1,0.5c0.4,0.3,0.7,0.5,0.9,0.6c0.6,0.4,1.2,0.9,1.6,1.4
		c0.5,0.5,0.8,1,1.1,1.6c0.3,0.7,0.5,1.2,0.6,1.7c0.1,0.5,0.2,0.9,0.2,1.2c0,0.4-0.1,0.7-0.2,1.1c-0.1,0.4-0.3,0.8-0.6,1.3
		c0,0.1-0.1,0.2-0.2,0.4c-0.1,0.2-0.2,0.4-0.2,0.4c-0.1,0.1-0.2,0.3-0.5,0.7c-0.2,0.4-0.4,0.6-0.5,0.7c0,0.1,0,0.1,0,0.2
		c0,0.1-0.1,0.1-0.1,0.1l0,0c-0.1,0.1-0.2,0.2-0.3,0.3c-0.1,0.1-0.2,0.2-0.3,0.3c-0.1,0.1-0.1,0.2-0.1,0.3c0,0.1,0,0.2-0.1,0.3
		c-0.1,0.2-0.2,0.3-0.4,0.4c-0.1,0-0.4,0-0.8,0c-0.9-0.7-1.8-1.2-2.6-1.7c-0.8-0.4-1.7-0.9-2.6-1.5c-0.1,0-0.4-0.2-1-0.6
		c-0.6-0.4-1-0.7-1.4-0.9c-0.1-0.1-0.2-0.1-0.3-0.2c-0.1-0.1-0.2-0.1-0.3,0c-0.6,1.1-1.3,2-2.2,2.9c-0.9,0.8-1.7,1.8-2.4,2.8
		c-0.7,1.1-1.4,2.1-2,3.1c-0.6,1-1.2,2-1.9,3.1c-0.3,0.5-0.7,1.1-1,1.6c-0.4,0.5-0.7,1.1-0.9,1.7c-0.3,0.6-0.4,1.2-0.5,1.9
		c-0.1,0.6,0,1.3,0.2,2.1c0.1,0.3,0.2,0.5,0.3,0.6c0.1,0.1,0.2,0.2,0.4,0.4c0.6,0.4,1.2,0.6,2,0.5c0.7-0.1,1.5-0.3,2.2-0.6
		c0.7-0.3,1.4-0.7,2-1.2c0.6-0.5,1-0.9,1.2-1.2c0.1-0.1,0.1-0.2,0.2-0.3c0-0.1,0.1-0.2,0.1-0.4c0.1,0,0.3,0.1,0.5,0.1
		c0.2,0.1,0.4,0.1,0.5,0.1c0.1,0,0.1,0,0.2,0.1l0.3,0.1c0.2,0.2,0.3,0.3,0.2,0.4c0,0.1,0.1,0.2,0.3,0.3l0,0.8l-1.4,1.6
		c-0.2,0.1-0.4,0.2-0.6,0.4c-0.2,0.2-0.3,0.4-0.5,0.5c-0.3,0.3-0.6,0.6-1,0.9c-0.4,0.3-0.8,0.5-1.3,0.7c-0.4,0.2-0.8,0.3-1.2,0.4
		c-0.4,0.1-0.6,0-0.8,0c-0.1,0-0.4,0-0.7,0c-0.4,0-0.6,0-0.7-0.1c-0.6-0.2-1.2-0.4-1.8-0.6c-0.6-0.1-1.1-0.4-1.6-0.8
		c-0.6-0.4-1-0.8-1.2-1.1c-0.2-0.3-0.5-0.8-0.7-1.3c-0.2-0.4-0.4-0.7-0.6-1c-0.2-0.3-0.4-0.6-0.5-1c-0.3-1-0.4-1.9-0.3-2.7
		c0.1-0.9,0.3-1.7,0.6-2.5c0.3-0.8,0.6-1.6,1-2.4C296,67.3,296.4,66.5,296.7,65.8z M317.1,53.3c-0.6-0.4-1.1-0.6-1.6-0.6
		c-0.5,0-0.9,0.1-1.3,0.3c-0.4,0.2-0.7,0.5-1,0.8c-0.3,0.3-0.6,0.6-0.8,0.9c-0.1,0.1-0.4,0.3-0.7,0.7c-0.3,0.3-0.6,0.6-0.7,0.7
		c0,0-0.1,0.1-0.1,0.2c0,0.1-0.1,0.2-0.1,0.2c0.7,0.5,1.7,1.1,2.7,1.9c1.1,0.7,2,1.4,2.9,1.9c0,0,0.1,0.1,0.2,0.1
		c0.1,0,0.2,0.1,0.2,0.1l0.4-0.5c0.2-0.2,0.4-0.4,0.5-0.7c0.1-0.3,0.2-0.5,0.3-0.8c0.1-0.4,0.2-0.8,0.4-1.2c0.1-0.4,0.2-0.9,0.2-1.3
		c0-0.4-0.1-0.9-0.3-1.3C318,54.1,317.6,53.7,317.1,53.3z"/>
	<path class="st17" d="M312.4,91.1c0.1,0,0.1-0.1,0.1-0.2c0-0.1,0-0.1-0.1-0.2c-0.1-1-0.1-1.8,0.2-2.6c0.2-0.8,0.5-1.6,0.8-2.3
		l0.1-0.1c0,0,0.1-0.2,0.2-0.3c0.1-0.2,0.2-0.3,0.2-0.3l0.9-0.9l0.9-0.9c0.4-0.1,0.7-0.1,1,0.1c0.1,0.1,0.2,0.2,0.1,0.3l1.5,1.4
		c0.1,0.1,0.3,0.3,0.4,0.6c0.1,0.3,0.1,0.4,0,0.6c0,0-0.1,0.1-0.2,0.1c-0.1,0-0.2,0.1-0.2,0.1l-0.2,0.2c-0.3,0.3-0.6,0.7-1,1.3
		c-0.4,0.6-0.7,1.3-1,2c-0.3,0.7-0.4,1.5-0.3,2.3c0,0.8,0.4,1.5,1.1,2.1c0.3,0.3,0.6,0.4,1,0.6l2.2,0.3c0.3-0.1,0.5-0.3,0.6-0.4
		c0.1-0.1,0.3-0.3,0.5-0.5c0.5-0.6,1-1.3,1.5-2.1c0.5-0.8,0.8-1.6,1-2.5c0-0.2,0.1-0.4,0.1-0.7c0.1-0.3,0.1-0.6,0.2-0.9
		c0-0.3,0.1-0.6,0.2-1.1l0-0.2l0.5-1.9l0-5.5c-0.1-0.6-0.1-1.2-0.1-1.8c0.1-0.6,0.2-1.1,0.3-1.7c0-0.2,0.1-0.6,0.3-1.1
		c0.1-0.5,0.2-0.9,0.2-1.2c0.2-0.4,0.4-0.9,0.6-1.2c0.2-0.4,0.3-0.7,0.5-1.1c0.2-0.3,0.3-0.7,0.5-1c0.2-0.3,0.5-0.6,0.8-1
		c0.5-0.6,1.3-1.1,2.2-1.6c0.9-0.5,1.9-0.9,3-1.1c1.1-0.2,2.2-0.2,3.3,0.1c1.1,0.3,2.2,0.8,3.2,1.8c0.5,0.5,0.8,0.9,0.8,1.3
		c0.1,0.4,0.2,0.9,0.3,1.4c0,0,0,0.1,0.1,0.2c0.1,0.1,0.1,0.1,0,0.2c0.1,0.1,0.1,0.1,0,0.2c-0.1,0.9-0.2,1.6-0.4,2.1
		c-0.2,0.6-0.5,1.2-0.9,1.9c-0.3,0.4-0.5,0.8-0.7,1.1c-0.2,0.3-0.5,0.6-0.8,1l-0.8,0.9c0,0-0.1,0.1-0.3,0.3c-0.1,0.1-0.3,0.1-0.4,0
		l-1.4-1.3l0-0.2c0,0,0.1-0.1,0.1-0.2c0-0.1,0.1-0.2,0.1-0.2l2.1-2.2c0.1-0.1,0.2-0.3,0.4-0.6c0.2-0.3,0.3-0.6,0.4-0.8
		c0.1-0.1,0.1-0.3,0.1-0.6c0-0.3,0-0.6,0-1c0-0.3,0-0.7-0.1-1c-0.1-0.3-0.2-0.5-0.3-0.6c-0.3-0.2-0.8-0.2-1.4,0
		c-0.6,0.2-1.2,0.5-1.9,0.9c-0.6,0.4-1.2,0.8-1.7,1.2c-0.5,0.4-0.8,0.6-0.9,0.7c-0.4,0.4-0.8,0.7-1.2,1.1c-0.4,0.4-0.8,0.8-1.2,1.2
		c-0.8,0.8-1.3,1.8-1.6,3.1c-0.3,1.2-0.5,2.5-0.7,3.7c0,0.1,0,0.3-0.1,0.6c-0.1,0.3-0.1,0.7-0.2,1.1c-0.1,0.4-0.1,0.8-0.2,1.1
		c0,0.3-0.1,0.5,0,0.7c0,0-0.1,0.2-0.1,0.4c0,0.2,0,0.4,0,0.5c0,0.3,0,0.5-0.1,0.8c-0.1,0.3-0.2,0.5-0.2,0.7c-0.5,1.6-1,3.1-1.6,4.4
		c-0.6,1.3-1.4,2.5-2.5,3.7c-0.5,0.6-1.3,0.9-2.3,0.9c-1,0-1.9-0.1-2.9-0.3c-0.1,0-0.2-0.1-0.2-0.2c-0.1,0-0.1,0-0.2-0.1l-0.1,0
		l-0.9-0.9c-0.6-0.6-1.2-1.3-1.8-2C313.3,92.6,312.8,91.9,312.4,91.1z"/>
</g>
<path class="st18" d="M45.6,300.9c-14.9-26-23.4-56.2-23.4-88.3c0-39.4,12.8-75.8,34.4-105.3"/>
<path class="st18" d="M341.1,102.8c23.6,30.3,37.7,68.3,37.7,109.7c0,38.5-12.2,74.2-33,103.4"/>
</svg>
