<?xml version="1.0"?>
<svg xmlns="http://www.w3.org/2000/svg" height="512px" viewBox="-6 0 511 511.99969" width="512px" class=""><g><path d="m497.789062 43.808594c-5.507812-21.941406-23.488281-38.765625-45.808593-42.859375-25.296875-4.640625-50.417969 7.910156-68.914063 34.4375l-62.09375 89.058593-9.941406-9.328124s-.003906 0-.003906-.003907c-10.65625-9.980469-27.488282-9.449219-37.539063 1.214844-6.765625 7.230469-8.695312 17.277344-5.9375 26.125-23.890625 8.367187-66.296875 35.546875-96.277343 71.160156-21.128907 25.097657-32.398438 50.40625-32.945313 73.746094h-107.5c-12.796875 0-19.898437 5.628906-23.597656 10.355469-6.945313 8.859375-8.578125 22.632812-4.605469 38.777344 13.894531 56.488281 58.179688 106.496093 119.152344 135.058593-.414063 1.648438-.65625 3.363281-.65625 5.136719v14.164062c0 11.660157 9.484375 21.148438 21.144531 21.148438h181.882813c11.65625 0 21.140624-9.488281 21.140624-21.148438v-14.164062c0-1.515625-.164062-2.992188-.46875-4.417969 21.171876-9.753906 40.507813-22.117187 57.554688-36.832031 3.15625-2.730469 3.507812-7.5.78125-10.660156-2.726562-3.15625-7.5-3.507813-10.660156-.78125-16.527344 14.269531-35.375 26.199218-56.078125 35.5-3.464844-2.480469-7.695313-3.957032-12.269531-3.957032h-181.882813c-4.277344 0-8.253906 1.285157-11.582031 3.476563-58.15625-26.441406-100.386719-73.300781-113.382813-126.136719-2.757812-11.203125-2.074219-20.863281 1.824219-25.84375 2.40625-3.070312 6.234375-4.5625 11.703125-4.5625h50.050781v31.46875c0 19.261719 15.03125 35.078125 33.976563 36.324219 8.015625 15.765625 24.390625 26.03125 42.28125 26.03125 26.152343 0 47.425781-21.28125 47.425781-47.445313v-46.378906h123.691406.015625.015625 108.988282c5.457031 0 9.285156 1.492188 11.691406 4.5625 3.90625 4.988282 4.59375 14.648438 1.835937 25.847656-5.410156 21.992188-15.765625 42.929688-30.785156 62.226563-2.5625 3.292969-1.972656 8.042969 1.324219 10.605469 3.292968 2.5625 8.039062 1.972656 10.605468-1.324219 16.328126-20.984375 27.609376-43.828125 33.53125-67.894531 3.972657-16.140625 2.332032-29.914063-4.617187-38.78125-3.703125-4.722656-10.800781-10.355469-23.585937-10.355469h-94.511719c11.605469-17.804687 19.820312-35.824219 23.402343-51.296875 2.585938.808594 5.269532 1.234375 7.953126 1.234375 7.089843 0 14.167968-2.804687 19.40625-8.359375 9.992187-10.683594 9.453124-27.523438-1.207032-37.542969l-9.949218-9.335937 33.078124-26.386719c3.261719-2.605469 3.796876-7.359375 1.195313-10.621094s-7.355469-3.796875-10.621094-1.195312l-34.789062 27.753906-39.121094-36.710937 63.351563-90.867188c14.964843-21.460938 34.570312-31.746094 53.792968-28.21875 16.257813 2.984375 29.867188 15.710938 33.875 31.675781 4.636719 18.464844-4.015625 38.078125-23.742187 53.8125l-27.484375 21.9375c-3.261719 2.601563-3.796875 7.359375-1.195313 10.621094 2.605469 3.261719 7.359375 3.796875 10.621094 1.191406l27.484375-21.933593c24.554688-19.585938 35.117188-44.847657 28.976562-69.308594zm-173.640624 426.84375c3.324218 0 6.027343 2.707031 6.027343 6.035156v14.164062c0 3.328126-2.703125 6.035157-6.027343 6.035157h-181.882813c-3.269531 0-6.03125-2.761719-6.03125-6.035157v-14.164062c0-3.273438 2.761719-6.035156 6.03125-6.035156zm-141.316407-247.304688c31.226563-37.085937 76.058594-63.628906 93.550781-67.894531l12.371094 11.609375c-19.734375 13.195312-41.421875 32.054688-61.980468 53.984375-20.761719 22.171875-38.535157 45.550781-50.464844 66.3125h-22.867188c.6875-24.640625 16-48.105469 29.390625-64.011719zm79.699219 64.011719h-68.597656c11.144531-17.816406 26.375-37.292969 43.867187-55.980469 20.847657-22.234375 42.761719-41.089844 62.296875-53.671875l28.839844 27.0625c-11.335938 20.328125-28.746094 43.414063-49.570312 65.625-5.335938 5.695313-10.996094 11.386719-16.835938 16.964844zm-73.082031 61.492187c0 17.828126-14.492188 32.332032-32.308594 32.332032-13.421875 0-25.59375-8.496094-30.292969-21.140625-1.109375-2.984375-3.949218-4.925781-7.078125-4.925781-.257812 0-.519531.011718-.78125.039062-.496093.050781-1.027343.074219-1.714843.074219-11.734376 0-21.277344-9.550781-21.277344-21.289063v-31.46875h93.457031v46.378906zm94.582031-61.492187c2.15625-2.207031 4.289062-4.417969 6.363281-6.628906 20.527344-21.898438 37.957031-44.753907 49.882813-65.320313l12.265625 11.507813c-2.394531 16.898437-12.652344 38.988281-28.101563 60.441406zm98.476562-68.769531c-4.332031 4.59375-11.597656 4.832031-16.1875.53125l-81.214843-76.210938c-.058594-.066406-.121094-.140625-.191407-.234375-.265624-.335937-.566406-.636719-.878906-.917969-3.589844-4.378906-3.480468-10.859374.46875-15.082031 2.261719-2.394531 5.320313-3.605469 8.378906-3.605469 2.804688 0 5.609376 1.015626 7.808594 3.074219l16.542969 15.523438h.003906l64.734375 60.746093c4.59375 4.320313 4.828125 11.585938.535156 16.175782zm0 0" data-original="#000000" class="active-path" data-old_color="#HTTP:/" fill="#6E8E4C"/></g> </svg>
