<?xml version="1.0"?>
<svg xmlns="http://www.w3.org/2000/svg" xmlns:xlink="http://www.w3.org/1999/xlink" version="1.1" id="Capa_1" x="0px" y="0px" viewBox="0 0 410.912 410.912" style="enable-background:new 0 0 410.912 410.912;" xml:space="preserve" width="512px" height="512px"><g><path d="M390.904,301.361c-8.486-10.932-22.429-17.17-41.44-18.547c-33.978-2.459-55.549-8.275-69.939-18.857  c-16.575-12.188-24.554-31.525-25.107-60.854c-1.195-63.314,13.185-174.414,13.33-175.528c0.158-1.185,1.137-10.366-5.352-17.93  c-5.463-6.369-14.329-9.599-26.351-9.599C199.557,0.047,108.407,0,108.382,0c-0.574,0.002-14.177,0.172-23.126,9.774  c-4.517,4.845-6.986,11.089-7.395,18.594c-19.65-0.009-36.17-0.027-36.477-0.027c-3.419,0-15.188,0.658-23.066,9.128  c-5.263,5.657-7.577,13.407-6.88,23.034c2.794,38.572,9.32,128.69,37.814,214.123c-0.849,8.583-5.792,62.513,0.083,98.967v31.619  c0,2.762,2.238,5,5,5h84.889c2.762,0,5-2.238,5-5v-15.811c8.849,7.783,25.365,16.818,55.801,20.77  c3.113,0.404,11.499,0.74,22.604,0.74c11.168,0,25.086-0.34,39.154-1.295c37.365-2.533,60.758-8.266,69.527-17.035  c0.939-0.938,1.465-2.209,1.465-3.535v-8.112c34.718-2.684,56.576-8.296,64.984-16.704c0.939-0.938,1.465-2.209,1.465-3.535v-27.036  C399.665,330.631,401.346,314.811,390.904,301.361z M134.224,400.213H59.336v-22.008c20.852,0.045,52.629,0.379,74.889,1.304  V400.213z M322.775,386.764c-8.195,6.1-30.369,10.754-61.669,12.877c-27.959,1.897-54.585,1.291-59.794,0.613  c-31.049-4.029-45.591-13.37-52.175-19.911c3.11,0.243,5.666,0.511,7.513,0.806c17.619,2.82,39.077,4.309,62.054,4.309  c0.003,0,0.001,0,0.004,0c39.208,0,83.271-4.574,104.067-14.629V386.764z M323.03,359.152  c-11.977,9.369-55.879,16.305-104.326,16.305c-22.457,0-43.368-1.445-60.474-4.182c-16.75-2.68-81.933-3.025-99.585-3.07  c-5.089-37.604,0.602-93.047,0.663-93.623c0.075-0.713-0.005-1.434-0.232-2.113C30.694,187.933,24.19,98.129,21.413,59.781  c-0.489-6.744,0.929-11.964,4.227-15.5c4.91-5.264,14.037-5.939,15.744-5.939c0.191,0,91.723,0.057,128.213,0.057  c8.903,0,15.189,2.025,18.683,6.02c3.836,4.386,3.121,10.089,3.12,10.101c-0.006,0.038-0.012,0.076-0.017,0.115  c-0.146,1.122-14.623,112.95-13.412,177.011c0.607,32.25,10.152,54.728,29.18,68.721c16.214,11.924,38.686,18.137,75.14,20.775  c16.005,1.158,27.509,6.074,34.192,14.613C323.398,344.586,323.341,355.197,323.03,359.152z M283.013,311.166  c-33.979-2.459-55.548-8.275-69.938-18.857c-16.575-12.189-24.553-31.525-25.105-60.854  c-1.195-63.234,13.148-174.129,13.329-175.523c0.157-1.163,1.146-10.36-5.351-17.935c-5.463-6.369-14.329-9.599-26.351-9.599  c-19.19,0-53.497-0.013-81.715-0.025c0.367-4.84,1.913-8.778,4.64-11.729c5.951-6.44,15.826-6.643,15.879-6.644  c0,0,91.154,0.047,127.646,0.047c8.903,0,15.189,2.025,18.683,6.02c3.836,4.386,3.121,10.089,3.12,10.101  c-0.006,0.038-14.639,113.065-13.429,177.126c0.608,32.25,10.153,54.729,29.181,68.721c16.214,11.924,38.687,18.137,75.142,20.775  c16.004,1.158,27.507,6.074,34.191,14.613c6.913,8.832,6.855,19.441,6.545,23.396c-7.763,6.059-29.319,11.334-57.72,14.122  c-1.218-4.879-3.423-10.208-7.306-15.208C315.967,318.781,302.024,312.541,283.013,311.166z M332.775,370.9  c0,0,0.454-12.551,0.344-16.063c17.21-1.707,41.568-5.254,56.105-12.318v15.893C381.493,364.166,361.312,368.631,332.775,370.9z" data-original="#000000" class="active-path" data-old_color="#000000" fill="#6E8E4C"/></g> </svg>
