<?xml version="1.0"?>
<svg xmlns="http://www.w3.org/2000/svg" xmlns:xlink="http://www.w3.org/1999/xlink" version="1.1" id="Capa_1" x="0px" y="0px" viewBox="0 0 512 512" style="enable-background:new 0 0 512 512;" xml:space="preserve" width="512px" height="512px"><g><g>
	<g>
		<path d="M120,246C53.832,246,0,299.832,0,366s53.832,120,120,120s120-53.832,120-120S186.168,246,120,246z M120,456    c-49.626,0-90-40.374-90-90c0-49.626,40.374-90,90-90c49.626,0,90,40.374,90,90C210,415.626,169.626,456,120,456z" data-original="#000000" class="active-path" data-old_color="#000000" fill="#6E8E4C"/>
	</g>
</g><g>
	<g>
		<path d="M120,321c-24.813,0-45,20.187-45,45s20.187,45,45,45s45-20.187,45-45S144.813,321,120,321z M120,381    c-8.271,0-15-6.729-15-15s6.729-15,15-15s15,6.729,15,15S128.271,381,120,381z" data-original="#000000" class="active-path" data-old_color="#000000" fill="#6E8E4C"/>
	</g>
</g><g>
	<g>
		<path d="M482,318.212V246c0-33.084-26.916-60-60-60h-42v-75h-30v75h-95v-45h30v-30h-90v30h30v45h-60V26H75v165.76    c-25.337,6.569-49.163,18.624-69.562,35.494l19.119,23.118C51.359,228.207,85.255,216,120,216c82.71,0,150,67.29,150,150v15    h47.286c-0.189,2.476-0.286,4.977-0.286,7.5c0,53.762,43.738,97.5,97.5,97.5c53.762,0,97.5-43.738,97.5-97.5    C512,360.912,500.48,335.965,482,318.212z M135,186h-15c-5.019,0-10.023,0.218-15,0.637V56h30V186z M324.504,351h-25.123    c-0.851-10.267-2.573-20.29-5.082-30h49.913C335.916,329.635,329.193,339.79,324.504,351z M283.61,291    c-14.064-30.558-36.437-56.532-64.215-75H422c16.542,0,30,13.458,30,30v52.504c-11.55-4.831-24.218-7.504-37.5-7.504H283.61z     M414.5,456c-37.22,0-67.5-30.28-67.5-67.5c0-37.22,30.28-67.5,67.5-67.5c37.22,0,67.5,30.28,67.5,67.5    C482,425.72,451.72,456,414.5,456z" data-original="#000000" class="active-path" data-old_color="#000000" fill="#6E8E4C"/>
	</g>
</g></g> </svg>
