<?xml version="1.0" encoding="utf-8"?>
<!-- Generator: Adobe Illustrator 24.2.1, SVG Export Plug-In . SVG Version: 6.00 Build 0)  -->
<svg version="1.1" id="Capa_1" xmlns="http://www.w3.org/2000/svg" xmlns:xlink="http://www.w3.org/1999/xlink" x="0px" y="0px"
	 viewBox="0 0 496 496" style="enable-background:new 0 0 496 496;" xml:space="preserve">
<style type="text/css">
	.st0{display:none;fill:#476458;}
	.st1{display:none;fill:none;stroke:#476458;stroke-width:8.0947;stroke-miterlimit:10;}
	.st2{fill:none;stroke:#476458;stroke-width:8.0947;stroke-miterlimit:10;}
	.st3{fill:none;stroke:#476458;stroke-width:6;stroke-miterlimit:10;}
	.st4{fill:#476458;}
	.st5{fill:none;stroke:#476458;stroke-width:4.3619;stroke-miterlimit:10;}
</style>
<g>
	<g>
		<g>
			<path class="st0" d="M406.1,383.8c-4.1-24.7-21.5-45-45.2-52.9l-52.8-17.6v-7.8h-12.3V317l-9.2,36.6l-24.8-29.7h-18L219,353.6
				l-9.2-36.6v-11.5h-12.3v7.8l-52.8,17.6c-23.8,7.9-41.1,28.2-45.2,52.9l-5.7,34c1.5,0.9,2.9,2.1,3.8,3.6c0.1,0.1,0.3,0.2,0.4,0.3
				c0.6,0.4,1.8,1.2,2.7,1.8c0,0,0,0,0.1,0c1.4,0.9,2.8,1.8,4.1,2.8l6.7-40.5c3.4-20.2,17.5-36.7,36.8-43.2v60.7l-5.5,49.4h-0.3
				c0,0.1,0,0.3,0,0.4c0.4,0.9,0.6,1.8,0.8,2.8c3.4,1.6,6.8,3.1,10.3,4.6c0.1-0.7,0.3-1.4,0.6-2.1c0-0.5,0.1-1,0.3-1.5
				c0.2-0.9,0.4-1.8,0.6-2.8c0.1-0.5,0.2-1,0.3-1.5h-0.1l4.1-36.8h186.8l4.1,36.8h-0.8c0.2,0.2,0.4,0.5,0.6,0.7
				c0.8,0.6,1.6,1.3,2.4,1.9c0.1-0.1,0.3-0.2,0.4-0.3c2.3-1.6,4.9-2.9,7.3-4.3c0.7-0.4,1.4-0.7,2.1-0.9l-5.2-46.5v-60.7
				c19.4,6.5,33.5,23.1,36.8,43.2l6.6,39.3c1.5-2.1,3.2-4.1,5-6.1c1.9-2.2,3.5-4.6,5.4-6.7L406.1,383.8z M179.2,403.6h-18.4v-65.1
				l18.4-6.1V403.6z M314.2,403.6H191.5v-75.4l7.9-2.6L213,380l36.6-43.9h6.5l36.6,43.9l13.6-54.4l7.9,2.6V403.6z M344.9,403.6
				h-18.4v-71.3l18.4,6.1V403.6z"/>
			<path class="st0" d="M135,221.9l2.5-12c-35.5-7.3-38-14.9-38.1-14.9c1.1-8.3,56.2-24.6,153.4-24.6s152.4,16.2,153.4,24.5
				c0,0.1-2.6,7.6-38.1,14.9l2.5,12c32.6-6.7,47.9-15.3,47.9-26.9c0-16.4-34.4-26-74.7-31.3c-6.3-44.9-45.1-79.2-91-79.2
				s-84.7,34.3-91,79.2c-40.3,5.3-74.7,14.9-74.7,31.3C87.2,206.6,102.4,215.2,135,221.9z M252.9,96.8c38.7,0,71.5,28.1,78.3,65.4
				c-27.7-2.9-56.7-4.1-78.3-4.1s-50.7,1.1-78.3,4.1C181.3,124.9,214.2,96.8,252.9,96.8z"/>
			<path class="st0" d="M327.1,186.3c-22.9-2.4-47.9-3.6-74.3-3.6s-51.4,1.2-74.3,3.6l-5.5,0.6v2.5c-14,2.9-24.5,15.2-24.5,30.1
				c0,15.7,12,28.6,27.3,30.3c3.1,10.8,8.9,20.6,17.1,28.8l23.9,23.9c5.8,5.8,13.5,9,21.7,9h28.8c8.2,0,15.9-3.2,21.7-9l23.9-23.9
				c8.1-8.1,13.9-18,17.1-28.8c15.3-1.7,27.3-14.6,27.3-30.3c0-14.8-10.6-27.2-24.5-30.1v-2.5L327.1,186.3z M160.8,219.5
				c0-8,5.1-14.7,12.3-17.3v28.7c0,2,0.1,4,0.3,6C166.1,234.4,160.8,227.6,160.8,219.5z M320.4,230.9c0,14.8-5.8,28.6-16.2,39.1
				l-23.9,23.9c-3.5,3.5-8.1,5.4-13,5.4h-28.8c-4.9,0-9.5-1.9-13-5.4l-24-23.9c-10.4-10.4-16.2-24.3-16.2-39.1V198
				c21-2,43.7-3,67.5-3s46.5,1,67.5,3v32.9H320.4z M344.9,219.5c0,8.1-5.3,14.9-12.6,17.4c0.2-2,0.3-4,0.3-6v-28.7
				C339.8,204.8,344.9,211.5,344.9,219.5z"/>
			<rect x="246.7" y="354.5" class="st0" width="12.3" height="12.3"/>
			<rect x="246.7" y="379.1" class="st0" width="12.3" height="12.3"/>
			<path class="st1" d="M248,36.7c-123.4,0-223.5,100.1-223.5,223.5c0,64.7,27.5,122.9,71.4,163.7c6.6,3,12.1,9,17.3,14.5
				c37.5,28.4,84.2,45.3,134.8,45.3c123.4,0,223.5-100.1,223.5-223.5S371.4,36.7,248,36.7z"/>
			<circle class="st2" cx="251" cy="260.2" r="223.5"/>
		</g>
	</g>
</g>
<g>
	<g>
		<path class="st3" d="M155,330.9c-10,9.1-17.2,21-25,33.1c-2.9,4.6-4.4,10.5-6,15c-6,16.9-11,34-10.2,51.6c-0.3,0.9-0.1,1.4,0,0
			c-0.3,0.9,0.2,0.5,0.8,0.6"/>
		<path class="st3" d="M397.2,431.2c0.6-30.1-10.1-59.7-27.9-83.8c-5-6.8-10.5-13.1-16.5-19"/>
	</g>
</g>
<g>
	<g>
		<circle cx="209.1" cy="209.8" r="11.4"/>
	</g>
</g>
<g>
	<g>
		<circle cx="301.9" cy="209.8" r="11.4"/>
	</g>
</g>
<g>
	<path class="st4" d="M234.2,198.1c-7.5-2.1-14.9-3.1-22.6-3.1c-5.3,0-10.8,0.5-16.4,1.5c-0.9,0.2-1.6,0.9-1.7,1.7
		c-0.1,0.7-2.4,16.5,5.5,25.8c3.6,4.2,8.8,6.4,15.3,6.4c0,0,0,0,0,0c16.3,0,22.3-13.6,24.6-18.8c0.3-0.7,2.4-5.4,0.6-9.3
		C238.9,200.9,237.4,199,234.2,198.1z"/>
	<path class="st4" d="M327.3,189.1c-20.5-4.7-40.5-4.3-64.6,1.3l-0.5,0.1c-2.8,0.7-6.5,1.4-8.9,1.4c-2.4,0-6.1-0.8-8.9-1.4l-0.5-0.1
		c-24.2-5.6-44.1-6-64.6-1.3c-1.1,0.2-1.8,1.3-1.6,2.4l1.5,9.6c0.1,0.6,0.5,1.2,1,1.5c0.5,0.3,1.2,0.4,1.8,0.2c0.8-0.3,1.5-0.3,2,0
		c0.6,0.4,0.9,1.2,1,2.1c0.5,11.9,2.8,19.9,7.3,25.4c4.7,5.7,11.9,8.5,22.1,8.5c0,0,0,0,0,0c20.2,0,28.1-14.5,33.4-24.1
		c0.7-1.3,1.4-2.6,2.1-3.7c0,0,0.1-0.1,0.1-0.1c1.2-2.3,2.5-3.2,3.4-3.2c0,0,0,0,0,0c0,0,0.1,0,0.1,0s0.1,0,0.1,0c0,0,0,0,0,0
		c0.9,0,2.2,0.8,3.4,3.2c0,0,0,0.1,0.1,0.1c0.7,1.1,1.4,2.4,2.1,3.7c5.3,9.6,13.2,24.1,33.4,24.1c0,0,0,0,0,0
		c10.2,0,17.4-2.8,22.1-8.5c4.5-5.4,6.8-13.5,7.3-25.4c0-0.9,0.4-1.8,1-2.1c0.5-0.3,1.1-0.3,2,0c0.6,0.2,1.2,0.2,1.8-0.2
		c0.5-0.3,0.9-0.9,1-1.5l1.5-9.6C329.1,190.4,328.4,189.4,327.3,189.1z M323.7,198.3c-1.2,0-2.3,0.3-3.3,0.9
		c-1.7,1.1-2.7,3.2-2.8,5.5c-0.4,10.9-2.4,18.2-6.3,22.9c-3.9,4.7-9.9,7-18.9,7c0,0,0,0,0,0c-7.8,0-14.2-2.4-19.5-7.3
		c-4.6-4.3-7.6-9.8-10.3-14.6c-0.7-1.3-1.4-2.6-2.1-3.8c-2.5-5-5.8-5.4-7.2-5.4c0,0,0,0,0,0c-1.3,0-4.7,0.5-7.2,5.4
		c-0.7,1.2-1.4,2.4-2.1,3.8c-2.6,4.8-5.6,10.3-10.3,14.6c-5.3,4.9-11.7,7.3-19.5,7.3c-9,0-15-2.2-18.9-7c-3.9-4.7-5.9-11.9-6.3-22.9
		c-0.1-2.3-1.2-4.3-2.8-5.5c-1-0.6-2.1-0.9-3.3-0.9l-0.8-5.5c19.2-4.1,38.1-3.6,60.9,1.8l0.5,0.1c3,0.7,7.5,1.5,9.9,1.5
		c2.5,0,6.9-0.8,9.9-1.5l0.5-0.1c22.8-5.3,41.6-5.9,60.9-1.8L323.7,198.3z"/>
	<path class="st4" d="M272.4,198.1c-3.2,0.9-4.7,2.8-5.4,4.2c-1.8,3.9,0.3,8.7,0.6,9.3c2.3,5.2,8.3,18.8,24.6,18.8h0
		c6.5,0,11.7-2.2,15.3-6.4c8-9.3,5.6-25.1,5.5-25.8c-0.1-0.9-0.8-1.6-1.7-1.7c-5.6-1-11.1-1.5-16.4-1.5
		C287.3,195,279.9,196.1,272.4,198.1z M292.2,228.4L292.2,228.4L292.2,228.4L292.2,228.4z"/>
</g>
<g>
	<g>
		<path class="st5" d="M148.3,300.7c-0.1,14.8,3.8,29.3,11.3,42c14.5,23,43.1,34.6,85.1,34.6h17.2c42,0,70.7-11.6,85.1-34.6
			c7.5-12.8,11.4-27.2,11.3-42C266.4,268.7,168.9,294.6,148.3,300.7z"/>
		<path class="st5" d="M316,222.5c37.9,5.9,26,10.5,27,2.7c-2.8-7.2-4.9-11.6-4.9-11.6c-0.9-1.9-0.7-4.1,0.5-5.8
			c1.2-1.7,3.2-2.7,5.2-2.5c14.2,0.9,31.7-17.3,40-28.4c-12.3-4.3-25.4-6.1-38.4-5.4c-7.8,0-13.6,0.4-13.6,0.4
			c-1.1,0.1-2.1-0.1-3.1-0.6c-2.9-1.4-4.1-4.9-2.7-7.8c8.2-17.9,7.2-38.6-2.7-55.5c-5.1,10.1-14.2,25.9-15.5,28.1
			c-1,1.8-2.9,2.9-5,2.9h-81.1c3.8,12.1,11.3,35.2,35.4,55.3"/>
		<path class="st5" d="M342.9,225.2c5.7,16.7,13.9,58,15.4,75.5c-90.3-29.8-182.7-7.7-210,0c2.5-26,9.5-63.7,20.2-87.5
			c1.4-2.9,0.2-6.4-2.7-7.8c-1-0.5-2-0.7-3.1-0.6c-14.4,0.9-31.4-17.4-39.9-28.4c12.4-4.3,25.5-6.1,38.6-5.4
			c7.9,0,13.6,0.4,13.6,0.4c3.2,0.3,6-2,6.4-5.2c0.1-1.1-0.1-2.1-0.6-3.1c-8.1-17.8-7.1-38.4,2.7-55.3c5.1,10.1,14.2,25.9,15.5,28.1
			c1,1.8,2.9,2.9,5,2.9l17.4-0.1"/>
	</g>
</g>
<g>
	<g>
		<path class="st4" d="M203,348.9c0-0.1-0.1-0.2-0.1-0.3L192.5,327c-1.3-2.9-4.8-4.2-7.7-2.9c-2.9,1.3-4.2,4.8-2.9,7.7
			c0,0.1,0.1,0.2,0.1,0.3l10.4,21.6c1.3,2.9,4.8,4.2,7.7,2.9C203,355.3,204.3,351.8,203,348.9z"/>
	</g>
</g>
<g>
	<g>
		<path class="st4" d="M322.1,324.2c-2.9-1.5-6.4-0.4-7.8,2.5c0,0.1-0.1,0.2-0.1,0.3l-10.4,21.6c-1.4,2.9-0.2,6.4,2.7,7.8
			c0,0,0,0,0,0c2.9,1.4,6.3,0.2,7.7-2.7l10.4-21.6C326.1,329.2,325,325.7,322.1,324.2z"/>
	</g>
</g>
</svg>
