<?xml version="1.0" encoding="utf-8"?>
<!-- Generator: Adobe Illustrator 24.2.1, SVG Export Plug-In . SVG Version: 6.00 Build 0)  -->
<svg version="1.1" id="Capa_1" xmlns="http://www.w3.org/2000/svg" xmlns:xlink="http://www.w3.org/1999/xlink" x="0px" y="0px"
	 viewBox="0 0 496 496" style="enable-background:new 0 0 496 496;" xml:space="preserve">
<style type="text/css">
	.st0{fill:#476458;}
	.st1{display:none;fill:none;stroke:#476458;stroke-width:8.0947;stroke-miterlimit:10;}
	.st2{fill:none;stroke:#476458;stroke-width:8.0947;stroke-miterlimit:10;}
</style>
<g>
	<g>
		<g>
			<path class="st0" d="M406.1,383.8c-4.1-24.7-21.5-45-45.2-52.9l-52.8-17.6v-7.8h-12.3v11.5l-9.2,36.6l-24.8-29.7h-18l-24.8,29.7
				l-9.2-36.6v-11.5h-12.3v7.8l-52.8,17.6c-23.8,7.9-41.1,28.2-45.2,52.9l-5.7,34c1.5,0.9,2.9,2.1,3.8,3.6c0.1,0.1,0.3,0.2,0.4,0.3
				c0.6,0.4,1.8,1.2,2.7,1.8c0,0,0,0,0.1,0c1.4,0.9,2.8,1.8,4.1,2.8l6.7-40.5c3.4-20.2,17.5-36.7,36.8-43.2v60.7l-5.5,49.4h-0.3
				c0,0.1,0,0.3,0,0.4c0.4,0.9,0.6,1.8,0.8,2.8c3.4,1.6,6.8,3.1,10.3,4.6c0.1-0.7,0.3-1.4,0.6-2.1c0-0.5,0.1-1,0.3-1.5
				c0.2-0.9,0.4-1.8,0.6-2.8c0.1-0.5,0.2-1,0.3-1.5h-0.1l4.1-36.8h186.8l4.1,36.8h-0.8c0.2,0.2,0.4,0.5,0.6,0.7
				c0.8,0.6,1.6,1.3,2.4,1.9c0.1-0.1,0.3-0.2,0.4-0.3c2.3-1.6,4.9-2.9,7.3-4.3c0.7-0.4,1.4-0.7,2.1-0.9l-5.2-46.5v-60.7
				c19.4,6.5,33.5,23.1,36.8,43.2l6.6,39.3c1.5-2.1,3.2-4.1,5-6.1c1.9-2.2,3.5-4.6,5.4-6.7L406.1,383.8z M179.2,403.6h-18.4l0-65.1
				l18.4-6.1V403.6z M314.2,403.6H191.5v-75.4l7.9-2.6L213,380l36.6-43.9h6.5l36.6,43.9l13.6-54.4l7.9,2.6V403.6z M344.9,403.6
				h-18.4v-71.3l18.4,6.1V403.6z"/>
			<path class="st0" d="M135,221.9l2.5-12c-35.5-7.3-38-14.9-38.1-14.9c1.1-8.3,56.2-24.6,153.4-24.6s152.4,16.2,153.4,24.5
				c0,0.1-2.6,7.6-38.1,14.9l2.5,12c32.6-6.7,47.9-15.3,47.9-26.9c0-16.4-34.4-26-74.7-31.3c-6.3-44.9-45.1-79.2-91-79.2
				s-84.7,34.3-91,79.2c-40.3,5.3-74.7,14.9-74.7,31.3C87.2,206.6,102.4,215.2,135,221.9z M252.9,96.8c38.7,0,71.5,28.1,78.3,65.4
				c-27.7-2.9-56.7-4.1-78.3-4.1s-50.7,1.1-78.3,4.1C181.3,124.9,214.2,96.8,252.9,96.8z"/>
			<path class="st0" d="M327.1,186.3c-22.9-2.4-47.9-3.6-74.3-3.6s-51.4,1.2-74.3,3.6l-5.5,0.6v2.5c-14,2.9-24.5,15.2-24.5,30.1
				c0,15.7,12,28.6,27.3,30.3c3.1,10.8,8.9,20.6,17.1,28.8l23.9,23.9c5.8,5.8,13.5,9,21.7,9h28.8c8.2,0,15.9-3.2,21.7-9l23.9-23.9
				c8.1-8.1,13.9-18,17.1-28.8c15.3-1.7,27.3-14.6,27.3-30.3c0-14.8-10.6-27.2-24.5-30.1v-2.5L327.1,186.3z M160.8,219.5
				c0-8,5.1-14.7,12.3-17.3v28.7c0,2,0.1,4,0.3,6C166.1,234.4,160.8,227.6,160.8,219.5z M320.4,230.9c0,14.8-5.8,28.6-16.2,39.1
				l-23.9,23.9c-3.5,3.5-8.1,5.4-13,5.4h-28.8c-4.9,0-9.5-1.9-13-5.4L201.5,270c-10.4-10.4-16.2-24.3-16.2-39.1V198
				c21-2,43.7-3,67.5-3s46.5,1,67.5,3V230.9z M344.9,219.5c0,8.1-5.3,14.9-12.6,17.4c0.2-2,0.3-4,0.3-6v-28.7
				C339.8,204.8,344.9,211.5,344.9,219.5z"/>
			<rect x="246.7" y="354.5" class="st0" width="12.3" height="12.3"/>
			<rect x="246.7" y="379.1" class="st0" width="12.3" height="12.3"/>
			<path class="st1" d="M248,36.7c-123.4,0-223.5,100.1-223.5,223.5c0,64.7,27.5,122.9,71.4,163.7c6.6,3,12.1,9,17.3,14.5
				c37.5,28.4,84.2,45.3,134.8,45.3c123.4,0,223.5-100.1,223.5-223.5S371.4,36.7,248,36.7z"/>
			<circle class="st2" cx="251" cy="260.2" r="223.5"/>
		</g>
	</g>
</g>
</svg>
