<?xml version="1.0"?>
<svg xmlns="http://www.w3.org/2000/svg" id="Icons" viewBox="0 0 74 74" width="512" height="512"><path d="M59.661,50.5a13.04,13.04,0,0,1-6.072-1.335A11.2,11.2,0,0,0,48.323,48a11.188,11.188,0,0,0-5.263,1.165A13.025,13.025,0,0,1,36.992,50.5a13.031,13.031,0,0,1-6.07-1.335A11.189,11.189,0,0,0,25.658,48,11.188,11.188,0,0,0,20.4,49.17,13.025,13.025,0,0,1,14.327,50.5,13.015,13.015,0,0,1,8.261,49.17,11.179,11.179,0,0,0,3,48a1,1,0,0,1,0-2A13.018,13.018,0,0,1,9.068,47.34,11.177,11.177,0,0,0,14.327,48.5a11.187,11.187,0,0,0,5.262-1.165A13.026,13.026,0,0,1,25.658,46a13.031,13.031,0,0,1,6.07,1.335A11.189,11.189,0,0,0,36.992,48.5a11.187,11.187,0,0,0,5.262-1.165A13.026,13.026,0,0,1,48.323,46,13.04,13.04,0,0,1,54.4,47.34a12.484,12.484,0,0,0,10.532,0A13.04,13.04,0,0,1,71,46a1,1,0,0,1,0,2,11.2,11.2,0,0,0-5.266,1.165A13.041,13.041,0,0,1,59.661,50.5Z"/><path d="M59.661,58.5a13.04,13.04,0,0,1-6.072-1.335A11.2,11.2,0,0,0,48.323,56a11.188,11.188,0,0,0-5.263,1.165A13.025,13.025,0,0,1,36.992,58.5a13.031,13.031,0,0,1-6.07-1.335A11.189,11.189,0,0,0,25.658,56,11.188,11.188,0,0,0,20.4,57.17,13.025,13.025,0,0,1,14.327,58.5,13.015,13.015,0,0,1,8.261,57.17,11.179,11.179,0,0,0,3,56a1,1,0,0,1,0-2A13.018,13.018,0,0,1,9.068,55.34,11.177,11.177,0,0,0,14.327,56.5a11.187,11.187,0,0,0,5.262-1.165A13.026,13.026,0,0,1,25.658,54a13.031,13.031,0,0,1,6.07,1.335A11.189,11.189,0,0,0,36.992,56.5a11.187,11.187,0,0,0,5.262-1.165A13.026,13.026,0,0,1,48.323,54,13.04,13.04,0,0,1,54.4,55.34a12.484,12.484,0,0,0,10.532,0A13.04,13.04,0,0,1,71,54a1,1,0,0,1,0,2,11.2,11.2,0,0,0-5.266,1.165A13.041,13.041,0,0,1,59.661,58.5Z"/><path d="M59.661,66.5a13.04,13.04,0,0,1-6.072-1.335A11.2,11.2,0,0,0,48.323,64a11.188,11.188,0,0,0-5.263,1.165A13.025,13.025,0,0,1,36.992,66.5a13.031,13.031,0,0,1-6.07-1.335A11.189,11.189,0,0,0,25.658,64,11.188,11.188,0,0,0,20.4,65.17,13.025,13.025,0,0,1,14.327,66.5,13.015,13.015,0,0,1,8.261,65.17,11.179,11.179,0,0,0,3,64a1,1,0,0,1,0-2A13.018,13.018,0,0,1,9.068,63.34,11.177,11.177,0,0,0,14.327,64.5a11.187,11.187,0,0,0,5.262-1.165A13.026,13.026,0,0,1,25.658,62a13.031,13.031,0,0,1,6.07,1.335A11.189,11.189,0,0,0,36.992,64.5a11.187,11.187,0,0,0,5.262-1.165A13.026,13.026,0,0,1,48.323,62,13.04,13.04,0,0,1,54.4,63.34a12.484,12.484,0,0,0,10.532,0A13.04,13.04,0,0,1,71,62a1,1,0,0,1,0,2,11.2,11.2,0,0,0-5.266,1.165A13.041,13.041,0,0,1,59.661,66.5Z"/><path d="M37,50.5a1,1,0,0,1-1-1V14a6.5,6.5,0,1,1,13,0,1,1,0,1,1-2,0,4.5,4.5,0,1,0-9,0V49.5A1,1,0,0,1,37,50.5Z"/><path d="M59.5,50.5a1,1,0,0,1-1-1V14a6.5,6.5,0,1,1,13,0,1,1,0,1,1-2,0,4.5,4.5,0,1,0-9,0V49.5A1,1,0,0,1,59.5,50.5Z"/><path d="M59.5,24.255H37a1,1,0,0,1,0-2H59.5a1,1,0,0,1,0,2Z"/><path d="M59.5,32.255H37a1,1,0,0,1,0-2H59.5a1,1,0,0,1,0,2Z"/><path d="M59.5,40.255H37a1,1,0,0,1,0-2H59.5a1,1,0,0,1,0,2Z"/></svg>
