<svg id="Capa_1" enable-background="new 0 0 512 512" height="512" viewBox="0 0 512 512" width="512" xmlns="http://www.w3.org/2000/svg"><g><g><path d="m470.561 164.584c-4.135-54.412-33.877-104.923-79.56-135.116-22.032-14.562-47.493-23.823-75.671-27.524-23.822-3.128-49.852-2.486-79.576 1.965-21.259 3.181-39.823 8.161-56.755 15.222-37.862 15.788-67.315 43.267-85.174 79.466-12.615 25.572-16.411 55.22-10.687 83.486l.101.496c2.155 10.635 3.856 19.033 1.53 28.793-3.051 12.796-10.963 24.045-19.059 34.294-8.316 10.528-17.742 22.462-22.787 36.578-1.314 3.678-2.691 8.571-1.658 13.808.958 4.86 3.898 9.032 7.791 12.02 2.193 1.683 4.655 2.998 7.227 3.999 3.758 1.462 7.675 2.113 11.667 2.593 6.483.781 10.579 1.455 12.772 4.221 7.192 9.077 5.608 25.026 4.075 40.45-.778 7.824-1.512 15.213-1.152 21.964 1.921 36.038 22.475 55.651 59.437 56.718 19.598.557 40.071-2.16 57.635-7.677 2.61-.822 5.342-.323 7.496 1.362 2.151 1.684 3.288 4.215 3.113 7.042l-3.189 65.393c-.1 2.049.644 4.051 2.06 5.537 1.415 1.486 3.377 2.326 5.429 2.326h35.384c4.141 0 7.498-3.356 7.498-7.498s-3.356-7.498-7.498-7.498h-27.512l2.8-57.432c.472-7.619-2.834-14.975-8.842-19.679-6.01-4.705-13.947-6.147-21.233-3.86-16.012 5.031-34.744 7.519-52.708 6.994-29.127-.841-43.394-14.354-44.896-42.527-.299-5.608.381-12.445 1.099-19.683 1.744-17.537 3.719-37.413-7.244-51.248-6.244-7.879-15.948-8.871-25.206-10.103-4.968-.661-10.622-2.92-11.291-6.315-.328-1.663.451-4.142 1.066-5.861 4.218-11.799 12.461-22.237 20.434-32.331 9.161-11.597 18.153-24.484 21.878-40.111 3.092-12.976.9-23.795-1.42-35.249l-.101-.494c-5.068-25.029-1.716-51.265 9.438-73.875 16.232-32.9 43.03-57.888 77.498-72.261 15.778-6.58 33.181-11.235 53.203-14.232 60.963-9.124 106.961-1.743 144.759 23.24 41.847 27.657 69.09 73.916 72.876 123.742 2.131 28.022-2.66 55.066-14.243 80.382-6.72 14.687-16.298 28.465-25.562 41.788-4.51 6.49-9.029 12.987-13.282 19.649-10.583 16.577-20.774 34.714-19.094 58.021 1.117 15.485 12.099 103.394 15.625 131.443h-113.135c-4.141 0-7.498 3.356-7.498 7.498s3.356 7.498 7.498 7.498h121.637c2.153 0 4.201-.925 5.624-2.539 1.424-1.615 2.084-3.763 1.814-5.899-.153-1.211-15.333-121.396-16.608-139.079-1.224-16.979 5.225-30.778 16.778-48.877 4.125-6.455 8.597-12.887 12.955-19.155 9.64-13.865 19.608-28.203 26.886-44.11 12.649-27.648 17.884-57.174 15.558-87.755z"/><path d="m415.491 172.315c0-74.878-60.917-135.795-135.795-135.795-74.877 0-135.794 60.917-135.794 135.795s60.918 135.795 135.795 135.795 135.794-60.917 135.794-135.795zm-135.794 120.799c-66.609 0-120.798-54.19-120.798-120.799s54.189-120.799 120.798-120.799 120.799 54.19 120.799 120.799-54.191 120.799-120.799 120.799z"/><path d="m348.814 201.796c3.547-4.296 6.561-9.193 8.97-14.54 5.239-11.628 7.873-24.389 8.757-37.071.638-9.152.025-18.179-.803-27.27-.291-3.201-1.937-6.14-4.513-8.061s-5.86-2.659-9.005-2.026c-8.506 1.708-17.549 3.651-26.362 6.93-4.749 1.766-9.221 3.732-13.45 5.858-1.462-2.608-3.013-5.205-4.675-7.781-5.593-8.644-12.17-16.321-19.042-23.953-2.24-2.49-5.443-3.916-8.807-3.916-3.352.005-6.556 1.439-8.789 3.935-6.5 7.258-13.323 15.084-19.028 23.934-1.705 2.644-3.297 5.287-4.787 7.925-4.313-2.183-8.887-4.194-13.744-6.001-8.813-3.278-17.855-5.22-26.36-6.929-3.146-.635-6.432.104-9.008 2.026-2.577 1.921-4.222 4.859-4.514 8.068-.834 9.109-1.442 18.112-.802 27.262 1.308 18.762 6.72 38.101 17.547 51.686-10.973 5.09-17.919 11.911-17.919 20.583 0 5.245 2.702 12.879 15.577 19.466 2.987 1.528 6.371 1.783 9.53.717l8.654-2.922 2.21 4.323c1.917 3.753 5.265 6.32 9.188 7.046 12.713 2.344 27.256 3.583 42.057 3.583 42.006 0 87.217-10.08 87.217-32.212 0-8.72-7.028-15.562-18.099-20.66zm-99.562-41.329c2.632-11.108 7.82-22.719 15.419-34.51 4.481-6.952 9.739-13.204 15.245-19.417.443.489.781.86.94 1.031 5.227 5.614 10.03 11.799 14.274 18.386 4.763 7.389 8.612 14.912 11.441 22.358 1.47 3.872 5.806 5.816 9.671 4.346 3.871-1.47 5.818-5.8 4.346-9.671-.498-1.311-1.032-2.622-1.584-3.934 3.771-1.9 7.8-3.653 12.082-5.246 6.53-2.429 13.239-4.035 20.097-5.467.013.128.022.23.03.302.725 6.715.849 13.61.369 20.493v.001c-.862 12.349-5.836 50.418-34.103 55.468 4.781-6.826 7.742-14.649 8.826-23.414.509-4.11-2.412-7.853-6.521-8.362-4.096-.514-7.853 2.41-8.362 6.521-1.374 11.104-6.726 19.812-16.362 26.617-7.935 5.604-22.389 5.603-30.322-.001-14.932-10.545-20.143-25.854-15.486-45.501zm-41.441-11.326c-.48-6.884-.356-13.779.368-20.488.008-.074.019-.178.031-.308 6.856 1.431 13.566 3.038 20.098 5.467 4.375 1.627 8.46 3.436 12.302 5.384-2.567 6.001-4.56 11.951-5.949 17.814-4.339 18.306-1.62 34.692 7.636 47.666-28.588-4.771-33.621-43.132-34.486-55.535zm126.035 83.626c-14.357 4.451-33.588 6.902-54.149 6.902-13.477 0-26.67-1.084-38.239-3.136l-2.619-5.123c-2.977-5.819-9.427-8.595-15.329-6.603l-9.604 3.242c-5.308-2.899-6.43-5.134-6.43-5.598 0-.873 2.804-5.087 15.248-9.388 7.081 4.477 15.547 7.103 25.581 7.102 2.933 0 6.076-.357 9.024-1.156 6.394 4.091 14.471 6.164 22.572 6.164 8.045-.001 16.07-2.046 22.444-6.082 2.37.621 4.767.987 7.139 1.051 10.071.275 19.09-2.39 26.779-7.218 12.79 4.349 15.655 8.645 15.655 9.527 0 .937-3.216 5.71-18.072 10.316z"/></g></g></svg>