<?xml version="1.0" encoding="utf-8"?>
<!-- Generator: Adobe Illustrator 24.1.0, SVG Export Plug-In . SVG Version: 6.00 Build 0)  -->
<svg version="1.1" id="Calque_1" xmlns="http://www.w3.org/2000/svg" xmlns:xlink="http://www.w3.org/1999/xlink" x="0px" y="0px"
	 viewBox="0 0 512 512" style="enable-background:new 0 0 512 512;" xml:space="preserve">
<style type="text/css">
	.st0{clip-path:url(#SVGID_2_);}
	.st1{fill:#F55648;stroke:#496459;stroke-width:12;stroke-miterlimit:10;}
	.st2{fill:#F55648;stroke:#496459;stroke-width:13;stroke-miterlimit:10;}
	.st3{fill:#FFE671;stroke:#496459;stroke-width:8;stroke-miterlimit:10;}
	.st4{fill:#EAEAE8;stroke:#496459;stroke-width:15;stroke-miterlimit:10;}
	.st5{fill:#496459;enable-background:new    ;}
</style>
<g>
	<defs>
		<rect id="SVGID_1_" x="0" y="44.4" width="512" height="467.6"/>
	</defs>
	<clipPath id="SVGID_2_">
		<use xlink:href="#SVGID_1_"  style="overflow:visible;"/>
	</clipPath>
	<g class="st0">
		<path class="st1" d="M112.1,134.2l8.8,56.4L271.3,167l-12.5-79.9c-3.7-23.4-25.6-39.3-48.9-35.7C187,55,171.1,76.1,174,99
			c-8.4-7-19.4-10.1-30.2-8.4C123,93.9,108.8,113.4,112.1,134.2z"/>
		<path class="st2" d="M396.4,329.4c4.3,3.1,7.9,7.2,10.4,11.7c0.1,0.2,0.2,0.4,0.4,0.6c2,3.7,3.4,7.7,4,11.9l0.5,3.1
			c3.2,20.2-10.7,39.2-30.9,42.4c-20.2,3.2-39.2-10.7-42.4-30.9l-10.5-67.2L396.4,329.4z"/>
		<path class="st3" d="M324.4,260.5c2.3,15.5,4.6,31,6.8,46.6c19.6-2.4,39.2-4.8,58.8-7.3c24.4-3,42.9-16.8,41.1-30.9
			C395.6,266.2,360,263.3,324.4,260.5z"/>
		<path class="st3" d="M423.7,211.1c-1.6-14-23.7-23-49.3-20l-66.2,7.8c4.8,15.4,9.5,30.8,14.3,46.2
			C356.2,233.8,389.9,222.5,423.7,211.1z"/>
		<path class="st4" d="M374.9,520.6L332,247.1c-11-69.8-73-118.1-138.6-107.8c-59.1,9.3-101.9,63.4-100.5,127l2.9,132.1
			c1.4,63.6-23.9,124.1-69,165c2.9,3.6,5.8,7,8.8,10.5L374.9,520.6z"/>
		<circle class="st5" cx="229.4" cy="249.9" r="19"/>
		<path class="st5" d="M201.2,254.3c2.4,15.6,17.1,26.2,32.6,23.8c15.6-2.4,26.2-17.1,23.8-32.6c-2.4-15.6-17.1-26.2-32.6-23.8
			C209.4,224.2,198.8,238.8,201.2,254.3z M220,251.4c-0.8-5.2,2.7-10.1,7.9-10.9c5.2-0.8,10.1,2.7,10.9,7.9
			c0.8,5.2-2.7,10.1-7.9,10.9C225.7,260.1,220.9,256.6,220,251.4z"/>
	</g>
</g>
</svg>
