<?xml version="1.0" encoding="utf-8"?>
<!-- Generator: Adobe Illustrator 24.2.1, SVG Export Plug-In . SVG Version: 6.00 Build 0)  -->
<svg version="1.1" id="Calque_1" xmlns="http://www.w3.org/2000/svg" xmlns:xlink="http://www.w3.org/1999/xlink" x="0px" y="0px"
	 viewBox="0 0 642 642" style="enable-background:new 0 0 642 642;" xml:space="preserve">
<path d="M513.1,168.6c-1.6-2.9-4.4-5-7.6-5.7c-0.8-0.2-1.7-0.2-2.5-0.2H255.3c-6.2,0-11.2,5-11.2,11.2c0,0,5,113.3,11.2,113.3
	c6.2,0,11.2-5,11.2-11.2v-90.9h88.6v0h106.1v0h26v5.7h0.2v350.7h-1v4.7H365.4c-4.2,7.1-8.7,14.1-13.5,21h154l0.5-0.2
	c4.8-1.4,8-5.8,8-10.8V174.2C514.5,172.2,514.1,170.3,513.1,168.6z"/>
<path d="M287.6,546.3v-1.2h-21v-86.9c0-6.2-5-11.2-11.2-11.2c-6.2,0-11.2,5-11.2,11.2v98.1c0,6.2,5,11.2,11.2,11.2h33.1v-0.3h40.5
	c0.1-1,0.4-2,0.8-3C332.2,558.2,287.6,546.3,287.6,546.3z"/>
<path d="M305.7,394.8c16.5,0,29.9-13.4,29.9-29.9s-13.4-29.9-29.9-29.9c-16.5,0-29.9,13.4-29.9,29.9
	C275.8,381.4,289.2,394.8,305.7,394.8z M305.7,357.3c4.1,0,7.5,3.4,7.5,7.5s-3.3,7.5-7.5,7.5c-4.1,0-7.5-3.4-7.5-7.5
	C298.2,360.7,301.6,357.3,305.7,357.3z"/>
<path d="M385.5,139.8c28,0,52.3-19.4,58.4-46.7c6.2-27.3-7.5-55.3-32.8-67.3c-25.3-12-55.6-4.9-72.8,17.2
	c-18.3,23.3-16.7,56.5,3.6,78C353.3,133,369.1,139.7,385.5,139.8z M354.1,55.3c12-15.4,33.4-19.8,50.5-10.5
	c17.1,9.3,25,29.7,18.7,48.1c-6.4,18.4-25.1,29.6-44.4,26.4c-19.2-3.2-33.3-19.9-33.3-39.4C345.6,71,348.6,62.3,354.1,55.3z"/>
<path d="M375.7,92.7l13.9,8.9c4.6,2.9,10.7,1.5,13.7-3.1c3-4.6,1.6-10.7-2.9-13.7l-9.3-6V56.6c0-5.5-4.5-10-10-10s-10,4.5-10,10
	v27.7C371.1,87.7,372.8,90.8,375.7,92.7z"/>
<path d="M223.7,353.6h-41.2c0.1,7.5,0.3,15,0.6,22.5h40.7c6.2,0,11.2-5,11.2-11.2C234.9,358.6,229.9,353.6,223.7,353.6z"/>
<path d="M109.3,376.1h73.2c-0.3-7.5-0.4-15-0.5-22.5h-72.7l32-32c4.4-4.4,4.4-11.5,0-15.9c-4.4-4.4-11.5-4.4-15.9,0l-51.2,51.2
	c-4.4,4.4-4.4,11.5,0,15.9l51.2,51.2c4.4,4.4,11.5,4.4,15.9,0c4.4-4.4,4.4-11.5,0-15.9L109.3,376.1z"/>
<polyline points="244.1,288 244.1,468.9 266.6,468.9 266.6,209.4 244.6,183.4 "/>
<path d="M333.2,545.8"/>
<path d="M344.1,546.2"/>
<polyline points="358.2,545.8 266.6,545.1 486.5,545.1 486.5,567.6 266.6,567.6 266.6,545.1 "/>
<polygon points="178,353.6 185.4,353.6 188.4,376.1 175.3,376.1 "/>
</svg>
