<svg id="Layer_1" enable-background="new 0 0 512.021 512.021" height="512" viewBox="0 0 512.021 512.021" width="512" xmlns="http://www.w3.org/2000/svg"><path d="m482.012 452.021h-26.002v-243.577l8.688 6.159c5.127 3.648 11.13 5.554 17.299 5.554 1.673 0 3.358-.14 5.041-.424 7.889-1.329 14.787-5.651 19.425-12.169 4.637-6.518 6.459-14.452 5.13-22.339-1.33-7.889-5.651-14.787-12.184-19.435l-225.687-159.976c-10.437-7.657-24.515-7.76-35.06-.257l-226.063 160.243c-6.519 4.637-10.84 11.536-12.17 19.424-1.329 7.888.493 15.821 5.131 22.34 9.571 13.45 28.296 16.609 41.75 7.049l8.702-6.168v243.577h-26.002c-39.809 1.653-39.778 58.362 0 60h452.002c39.808-1.653 39.778-58.363 0-60.001zm-136.001 0v-65.5h89.999v65.5zm-179.364-321.999h178.728l90.635 64.245v1.254h-82.707c6.083-23.019-12.246-46.601-36.093-46.281-16.512 0-30.6 10.757-35.431 25.786h-51.535c-4.831-15.029-18.919-25.787-35.432-25.787-23.845-.322-42.179 23.266-36.093 46.281h-82.707v-1.254zm28.215-20 61.149-43.345 61.149 43.345zm127.266 191h113.882v65.5h-89.999v-4.5c0-23.515-9.065-44.951-23.883-61zm-105.874-19.734c-.738-.174-1.508-.266-2.299-.266h-137.943v-65.5h82.597c-9.255 46.906 55.546 64.599 71.635 20.042h51.535c16.115 44.584 80.896 26.829 71.635-20.042h82.596v65.5h-137.943c-.792 0-1.561.092-2.3.266-23.667-12.246-55.845-12.246-79.513 0zm116.103-86.644-.391.708c-3.993 6.352-3.982 13.549 0 19.886l.39.706c6.309 11.046-2.504 25.564-15.147 25.406-9.32 0-16.711-7.009-17.191-16.303-.274-5.315-4.664-9.484-9.986-9.484h-68.043c-5.322 0-9.712 4.169-9.986 9.484-.473 9.142-8.023 16.303-17.191 16.303-12.793.226-21.425-14.288-15.145-25.407l.392-.71c3.987-6.348 3.978-13.542 0-19.875l-.393-.713c-6.278-11.121 2.353-25.63 15.146-25.405 9.167 0 16.718 7.161 17.191 16.303.274 5.315 4.664 9.483 9.986 9.483h68.043c5.322 0 9.712-4.168 9.986-9.483.481-9.294 7.872-16.303 17.191-16.303 12.643-.159 21.457 14.361 15.148 25.404zm-256.345 106.378h113.881c-14.818 16.049-23.882 37.485-23.882 60.999v4.5h-89.999zm109.999 60.999c3.857-92.887 136.178-92.815 140 0v90h-140zm-150.268-163.725c-.005.003-.01.007-.014.01-4.471 3.18-10.694 2.131-13.874-2.338-3.181-4.47-2.132-10.693 2.323-13.863l226.065-160.242c3.517-2.503 8.213-2.464 11.681.102.055.04.108.079.163.118l225.742 160.013c4.469 3.18 5.518 9.403 2.337 13.873-1.54 2.165-3.831 3.6-6.452 4.042-2.62.44-5.255-.164-7.435-1.714l-214.485-152.035c-3.465-2.456-8.102-2.456-11.566 0zm40.269 188.225h89.999v65.5h-89.999zm406 105.5h-452.002c-13.269-.551-13.26-19.454 0-20h452.002c13.269.551 13.259 19.454 0 20z"/></svg>