<?xml version="1.0" encoding="UTF-8"?>
<svg xmlns="http://www.w3.org/2000/svg" xmlns:xlink="http://www.w3.org/1999/xlink" xmlns:svgjs="http://svgjs.com/svgjs" version="1.1" width="512" height="512" x="0" y="0" viewBox="0 0 498 498.248" style="enable-background:new 0 0 512 512" xml:space="preserve">
  <g>
    <path xmlns="http://www.w3.org/2000/svg" d="m72.125 98.246094h16v16h-16zm0 0" fill="#79bc53" data-original="#000000" style=""/>
    <path xmlns="http://www.w3.org/2000/svg" d="m489.125 207.191406c-7.050781-17.582031-23.832031-28.945312-42.816406-28.945312-4.976563 0-9.878906.800781-14.585938 2.371094l-12.925781 4.304687c-12.367187-9.265625-27.632813-14.675781-43.792969-14.675781-21.144531 0-42.265625 2.601562-62.792968 7.730468l-4.070313 1.015626c-19.242187 4.816406-39.066406 7.253906-58.898437 7.253906h-22.453126l-16.546874-12.40625c-7.398438-5.550782-12.863282-13.136719-15.796876-21.910156-1.539062-4.632813-2.320312-9.449219-2.320312-14.328126v-71.355468c0-23.863282-17.519531-43.652344-40.359375-47.335938.09375-1.839844.359375-3.652344.359375-5.503906v-13.40625l-33.144531 8.289062c-5.746094 1.429688-11.046875 4.144532-15.632813 7.832032l-10.359375-6.90625c-6.824219-4.558594-14.777343-6.96875-23-6.96875-11.074219 0-21.488281 4.3125-29.328125 12.152344l-23.351562 23.34375 25.152344 8.386718c-11.113282 15.832032-15.394532 35.625-11.519532 54.976563l.496094 2.460937-2.058594 4.800782c-2.648437 6.175781-6.40625 11.730468-11.167968 16.488281l-9.117188 9.121093c-5.785156 5.777344-8.96875 13.464844-8.96875 21.640626 0 15.679687 11.886719 28.496093 27.09375 30.269531 6.160156 10.128906 17 16.359375 29.015625 16.359375 6.746094 0 13.28125-1.980469 18.890625-5.71875l13-8.664063v16.25c0 28.214844 8.496094 56.101563 24 79.605469v135.90625c0 12.453125-4.847656 24.167969-13.65625 32.976562l-2.34375 2.335938v43.308594h96v-125.167969c0-16.316406 3.855469-32.664063 11.160156-47.253906 1.34375-2.6875 2.542969-5.335938 3.664063-7.953125l21.390625 9.167968c17.351562 7.433594 35.71875 11.199219 54.59375 11.199219 14.925781 0 29.679687-2.390625 43.832031-7.109375l9.359375-3.121094v91.609376c0 12.453124-4.847656 24.167968-13.65625 32.976562l-2.34375 2.34375v43.308594h96v-45.285156c0-30.960938 4.75-61.570313 14.007812-91.097657 5.886719 15.226563 15.878907 28.800781 29.183594 38.785157l12.808594 9.597656v-34.054688c0-24.3125 3.917969-48.398437 11.65625-71.589844l4.75-14.257812c5.039062-15.136719 7.59375-30.894531 7.59375-46.824219 0-12.488281-2.359375-24.710937-7-36.328125zm-177.097656-12.671875 4.074218-1.015625c6.605469-1.65625 13.300782-2.929687 20.023438-4.015625v33.230469c0 10.769531-8.761719 19.527344-19.527344 19.527344-2.105468 0-4.175781-.335938-6.175781-1l-12.167969-4.054688c-11.707031-3.902344-24.53125-3.902344-36.234375 0l-12.167969 4.054688c-2.015624.664062-4.09375 1-6.199218 1-10.769532 0-19.527344-8.757813-19.527344-19.527344v-20.472656h25.117188c21.136718 0 42.265624-2.597656 62.785156-7.726563zm-260.054688-168.808593c8.382813-8.375 22.296875-9.75 32.144532-3.183594l9.039062 6.023437c-3.175781 5.875-5.03125 12.394531-5.03125 19.257813v10.902344c-16.289062 1.898437-31.074219 9.640624-42.050781 21.367187 1.53125-12.007813 6.882812-23.359375 15.707031-32.175781l9.160156-9.148438-24-8zm14.28125 157.503906c-2.976562 1.984375-6.441406 3.03125-10.019531 3.03125-4.078125 0-7.8125-1.460938-10.902344-3.839844 2.542969-1.390625 4.96875-3.023438 7.078125-5.125l25.378906-25.371094-11.3125-11.308594-25.375 25.375c-2.738281 2.710938-6.496093 4.269532-10.355468 4.269532-8.0625 0-14.621094-6.558594-14.621094-14.628906 0-3.90625 1.519531-7.585938 4.277344-10.335938l9.121094-9.113281c6.199218-6.207031 11.105468-13.449219 14.550781-21.503907l3.640625-8.496093c8.3125-19.390625 27.3125-31.921875 48.410156-31.921875h8v-26.4375c0-6.609375 2.566406-12.824219 7.238281-17.496094 3.167969-3.167969 7.144531-5.417969 11.496094-6.503906l12.976563-3.242188c-1.199219 14.722656-6.113282 28.859375-14.367188 41.242188l-3.640625 5.457031 4.640625 4.636719c8.808594 8.808594 13.65625 20.523437 13.65625 32.976562v1.367188h16v-1.367188c0-14.558594-4.9375-28.367187-14.023438-39.503906 5.550782-9.527344 9.300782-19.863281 11.566407-30.558594 15.007812 2.640625 26.457031 15.6875 26.457031 31.429688v71.355468c0 6.597657 1.054688 13.125 3.152344 19.382813 3.878906 11.648437 11.09375 21.6875 20.808594 29.152344-20.691407-.5625-38.859376-13.871094-45.433594-33.601563-1.679688-5.03125-2.527344-10.277344-2.527344-15.582031v-14.707031h-16v14.507812c-4.425781 12.15625-14.242188 21.8125-26.527344 25.910156l-24 8zm77.871094 236.402344c0 11.390624-4.105469 22.136718-11.527344 30.628906h-12.511718c5.207031-9.253906 8.039062-19.71875 8.039062-30.628906v-111.808594c10.367188 18.886718 16 40.289062 16 61.910156zm-32 62.628906v-16h16v16zm40 0h-8v-16h32v16zm216-49.886719c0 7.472656-3.992188 14.128906-10.351562 17.886719h-13.699219c5.21875-9.253906 8.050781-19.71875 8.050781-30.628906v-93.152344l16 16.375zm-32 49.886719v-16h16v16zm32 0v-16h32v16zm32.054688-32h-20.671876c2.960938-5.359375 4.617188-11.460938 4.617188-17.886719v-96.03125l-30.273438-31c-9.28125-9.503906-16.472656-21.152344-20.792968-33.679687l-15.125 5.207031c4.253906 12.34375 10.980468 23.863281 19.421875 33.878906l-15.664063 5.226563c-28.367187 9.453124-59.582031 8.152343-87.070312-3.617188l-22.351563-9.582031c2.589844-9.328125 3.855469-18.617188 3.855469-28.515625h-16c0 15.507812-3.335938 28.785156-11.160156 44.425781-8.394532 16.800781-12.839844 35.617187-12.839844 54.40625v77.167969h-24.039062c5.207031-9.253906 8.039062-19.71875 8.039062-30.628906v-49.898438c0-31.503906-10.519531-62.628906-29.640625-87.664062-17-22.253907-26.359375-49.933594-26.359375-77.949219v-22.761719l10.527344-3.511719c10.183594-3.390625 19.085937-9.601562 25.9375-17.609375 9.644531 25.210938 33.644531 42.023438 60.832031 42.023438h6.703125v20.472656c0 19.59375 15.933594 35.527344 35.527344 35.527344 3.832031 0 7.609375-.613282 11.238281-1.820313l12.167969-4.058593c8.441406-2.816407 17.671875-2.816407 26.113281 0l12.167969 4.058593c3.640625 1.207031 7.425781 1.820313 11.257812 1.820313 19.589844 0 35.527344-15.933594 35.527344-35.527344v-35.269531c7.605469-.730469 15.238281-1.203125 22.878906-1.203125 25.375 0 47.960938 17.042968 54.921875 41.433594 1.460938 5.113281 2.199219 10.390624 2.199219 15.6875v12.160156c0 22.519531-2.546875 44.847656-7.457031 66.71875h-.542969v2.417968c-2.128906 9.105469-4.625 18.136719-7.59375 27.054688-10.597656 31.855469-16.070312 64.992188-16.351562 98.527344zm73.160156-164.957032-4.742188 14.253907c-8.203125 24.59375-12.402344 50.136719-12.480468 75.921875-10.203126-12.6875-16-28.679688-16-45.21875v-3.820313c5.269531-23.234375 8-46.960937 8-70.898437v-12.160156c0-6.78125-.945313-13.535157-2.808594-20.070313-2.753906-9.640625-7.417969-18.367187-13.496094-25.847656l4.960938-1.65625c3.085937-1.023438 6.285156-1.546875 9.566406-1.546875 12.367187 0 23.328125 7.417968 27.921875 18.890625 3.894531 9.71875 5.863281 19.941406 5.863281 30.382812 0 14.214844-2.28125 28.265625-6.785156 41.769531zm0 0" fill="#79bc53" data-original="#000000" style=""/>
  </g>
</svg>
