<?xml version="1.0" encoding="UTF-8"?>
<svg xmlns="http://www.w3.org/2000/svg" xmlns:xlink="http://www.w3.org/1999/xlink" xmlns:svgjs="http://svgjs.com/svgjs" version="1.1" width="512" height="512" x="0" y="0" viewBox="0 0 496 496" style="enable-background:new 0 0 512 512" xml:space="preserve">
  <g>
<g xmlns="http://www.w3.org/2000/svg">
	<g>
		<g>
			<rect x="56" y="184" width="16" height="16" fill="#79bc53" data-original="#000000" style=""/>
			<rect x="56" y="240" width="16" height="16" fill="#79bc53" data-original="#000000" style=""/>
			<rect x="56" y="296" width="16" height="16" fill="#79bc53" data-original="#000000" style=""/>
			<rect x="56" y="352" width="16" height="16" fill="#79bc53" data-original="#000000" style=""/>
			<rect x="384" y="184" width="16" height="16" fill="#79bc53" data-original="#000000" style=""/>
			<rect x="384" y="240" width="16" height="16" fill="#79bc53" data-original="#000000" style=""/>
			<rect x="384" y="296" width="16" height="16" fill="#79bc53" data-original="#000000" style=""/>
			<rect x="384" y="352" width="16" height="16" fill="#79bc53" data-original="#000000" style=""/>
			<path d="M483.848,32.536l-4.464-4.464C476.512,12.144,462.616,0,445.864,0H424c-43.48,0-92.432,15.616-139.768,30.72     C243.472,43.72,204.968,56,176,56c-46.504,0-79.872-32.176-92.064-46.008C78.344,3.64,70.24,0,61.72,0     C45.328,0,32,13.328,32,29.72V32c0,10.696,4.48,21.576,12.952,32H0v80h16v251.312l48,48l48-48V144h16v56     c0,52.128,33.464,96.472,80,113v23.728c-14.504,2.384-27.48,11.08-35.008,23.976l-38.752,66.44     c-4.088,6.984-6.24,14.968-6.24,23.072C128,475.464,148.536,496,173.784,496h148.44c25.24,0,45.776-20.536,45.776-45.784     c0-8.112-2.152-16.096-6.232-23.072l-38.76-66.448C315.48,347.8,302.504,339.112,288,336.72v-23.728     c27.152-9.648,49.816-28.736,64-53.384v135.696l40,40l40-40V264h12.688c9.432,0,18.296-3.672,24.968-10.344     S480,238.12,480,228.688V96.368c3.24-3.64,6.312-7.424,9.024-11.496c4.56-6.816,6.976-14.776,6.976-23.008     C496,50.792,491.688,40.376,483.848,32.536z M48,29.72C48,22.152,54.152,16,61.72,16c3.936,0,7.656,1.664,10.216,4.568     C85.552,36.032,122.968,72,176,72c31.464,0,71.12-12.648,113.096-26.04C335.264,31.232,383.016,16,424,16h21.864     c10,0,18.136,8.136,18.136,18.136c0,6.224-3.12,11.936-8.328,15.264C426.144,68.216,346.792,112,248,112     c-57.256,0-110.032-10.024-148.584-28.232C67.704,68.792,48,48.952,48,32V29.72z M96,388.688l-32,32l-32-32V144h64V388.688z      M128,128H16V80h45.648c16.136,12.464,38.52,23.576,66.352,31.968V128z M309.184,368.768l38.768,66.456     c2.648,4.536,4.048,9.72,4.048,14.992C352,466.64,338.64,480,322.216,480H173.784C157.36,480,144,466.64,144,450.216     c0-5.272,1.4-10.464,4.064-15.008l38.76-66.448c4.656-7.984,12.392-13.592,21.184-15.752v20.696l-36.896,59.032     c-2.04,3.256-3.112,7-3.112,10.824c0,11.264,9.168,20.44,20.44,20.44h119.128c11.264,0,20.432-9.176,20.432-20.44     c0-3.832-1.072-7.568-3.112-10.832L288,373.712v-20.696C296.784,355.168,304.52,360.776,309.184,368.768z M275.568,384     l35.752,57.208c0.448,0.712,0.68,1.528,0.68,2.352c0,2.448-1.992,4.44-4.44,4.44H188.44c-2.448,0-4.44-1.992-4.44-4.44     c0-0.832,0.232-1.64,0.672-2.344L220.432,384H275.568z M224,368v-50.416c7.76,1.576,15.784,2.416,24,2.416s16.24-0.84,24-2.416     V368H224z M352,136v64c0,57.344-46.656,104-104,104s-104-46.656-104-104v-83.672c5.384,1.32,10.92,2.552,16.648,3.672H160v80     c0,48.52,39.48,88,88,88s88-39.48,88-88v-48h-16v48c0,39.704-32.296,72-72,72c-39.704,0-72-32.296-72-72v-77.312     c21.92,3.392,45.976,5.312,72,5.312c25.408,0,49.552-2.792,72-7.256V136h16v-18.8c5.456-1.32,10.784-2.728,16-4.216V136z      M416,388.688l-24,24l-24-24V200v-56.352c17.496-0.864,33.704-4.328,48-9.088V388.688z M464,228.688     c0,5.16-2.008,10.008-5.656,13.656c-3.648,3.648-8.496,5.656-13.656,5.656H432V128.448c8.496-3.64,16.152-7.504,22.56-11.176     c3.256-1.872,6.392-3.952,9.44-6.192V228.688z M475.72,75.992c-7.544,11.32-17.616,20.8-29.128,27.4     c-18.088,10.384-45.944,22.472-78.592,24.248v-19.552c44.888-14.752,78.888-34.128,96.272-45.208     c5.376-3.424,9.512-8.216,12.216-13.736c2.232,3.84,3.512,8.168,3.512,12.72C480,66.92,478.52,71.8,475.72,75.992z" fill="#79bc53" data-original="#000000" style=""/>
		</g>
	</g>
</g>















</g>
</svg>
