<?xml version="1.0" encoding="UTF-8"?>
<svg xmlns="http://www.w3.org/2000/svg" xmlns:xlink="http://www.w3.org/1999/xlink" xmlns:svgjs="http://svgjs.com/svgjs" version="1.1" width="512" height="512" x="0" y="0" viewBox="0 0 128 128" style="enable-background:new 0 0 512 512" xml:space="preserve" class="">
  <g>
    <g xmlns="http://www.w3.org/2000/svg">
      <path d="m107.8 44.9a1.75 1.75 0 0 0 3.3-1.152c-.395-1.135-.832-2.269-1.3-3.369a1.75 1.75 0 0 0 -3.224 1.362c.446 1.035.856 2.098 1.224 3.159z" fill="#79bc53" data-original="#000000" style="" class=""/>
      <path d="m36.981 104.168a48.064 48.064 0 0 1 -5.176-4.6 1.75 1.75 0 0 0 -2.508 2.442 51.716 51.716 0 0 0 5.554 4.939 1.75 1.75 0 0 0 2.13-2.778z" fill="#79bc53" data-original="#000000" style="" class=""/>
      <path d="m56.685 112.848a43.714 43.714 0 0 1 -6.695-1.695 1.75 1.75 0 1 0 -1.125 3.314 47.039 47.039 0 0 0 7.235 1.833 1.75 1.75 0 1 0 .585-3.45z" fill="#79bc53" data-original="#000000" style="" class=""/>
      <path d="m20.365 81.144a1.75 1.75 0 0 0 -3.295 1.183 56.166 56.166 0 0 0 2.963 6.8 1.751 1.751 0 0 0 3.11-1.609 52.294 52.294 0 0 1 -2.778-6.374z" fill="#79bc53" data-original="#000000" style="" class=""/>
      <path d="m109.911 79.975a1.748 1.748 0 0 0 -2.236 1.06 52.515 52.515 0 0 1 -2.764 6.38 1.75 1.75 0 1 0 3.111 1.6 55.856 55.856 0 0 0 2.95-6.806 1.75 1.75 0 0 0 -1.061-2.234z" fill="#79bc53" data-original="#000000" style="" class=""/>
      <path d="m17.2 62.789c0-1.056.03-2.124.09-3.174a1.75 1.75 0 1 0 -3.494-.2c-.064 1.115-.1 2.25-.1 3.372 0 1.34.046 2.7.137 4.032a1.749 1.749 0 0 0 1.744 1.631h.121a1.75 1.75 0 0 0 1.627-1.865c-.083-1.258-.125-2.535-.125-3.796z" fill="#79bc53" data-original="#000000" style="" class=""/>
      <path d="m78.112 111.118a43.811 43.811 0 0 1 -6.687 1.711 1.75 1.75 0 0 0 .3 3.475 1.794 1.794 0 0 0 .3-.026 47.287 47.287 0 0 0 7.225-1.848 1.75 1.75 0 0 0 -1.133-3.312z" fill="#79bc53" data-original="#000000" style="" class=""/>
      <path d="m110.7 59.5c.065 1.082.1 2.188.1 3.288 0 1.231-.041 2.468-.122 3.677a1.75 1.75 0 0 0 1.629 1.863h.119a1.75 1.75 0 0 0 1.744-1.633c.086-1.286.13-2.6.13-3.911 0-1.169-.034-2.345-.1-3.5a1.75 1.75 0 1 0 -3.494.207z" fill="#79bc53" data-original="#000000" style="" class=""/>
      <path d="m96.274 99.483a48.438 48.438 0 0 1 -5.174 4.617 1.75 1.75 0 0 0 2.137 2.772 51.749 51.749 0 0 0 5.547-4.956 1.75 1.75 0 1 0 -2.512-2.437z" fill="#79bc53" data-original="#000000" style="" class=""/>
      <path d="m17.969 45.98a1.747 1.747 0 0 0 2.231-1.08c.371-1.065.78-2.128 1.216-3.158a1.75 1.75 0 0 0 -3.225-1.362c-.463 1.1-.9 2.233-1.295 3.368a1.749 1.749 0 0 0 1.073 2.232z" fill="#79bc53" data-original="#000000" style="" class=""/>
      <path d="m127.61 15.912-10.465-12.938a1.75 1.75 0 0 0 -2.412-.3l-29.412 22.126a1.752 1.752 0 0 0 -.222 2.6l5.336 5.666a41.213 41.213 0 0 1 4.951 6.893 43.956 43.956 0 0 1 5.729 21.863c0 22.6-16.649 40.988-37.115 40.988s-37.115-18.393-37.115-40.994a43.956 43.956 0 0 1 5.729-21.863 41.213 41.213 0 0 1 4.951-6.893l5.335-5.666a1.752 1.752 0 0 0 -.222-2.6l-29.411-22.118a1.749 1.749 0 0 0 -2.413.3l-10.464 12.936a1.751 1.751 0 0 0 .308 2.5l12.511 9.408a66.61 66.61 0 0 0 -9.195 34c0 35.212 26.91 63.86 59.986 63.86s59.986-28.648 59.986-63.86a66.61 66.61 0 0 0 -9.2-34l12.514-9.409a1.751 1.751 0 0 0 .308-2.5zm-115.097-9.424 26.5 19.929-4.013 4.261-.031.034a44.154 44.154 0 0 0 -4.37 5.806l-26.348-19.818zm51.487 115.688c-31.147 0-56.486-27.077-56.486-60.36a63.147 63.147 0 0 1 8.5-31.884l12.813 9.636a47.6 47.6 0 0 0 -5.446 22.248c.004 24.531 18.219 44.484 40.619 44.484s40.615-19.957 40.615-44.488a47.6 47.6 0 0 0 -5.446-22.248l12.813-9.636a63.147 63.147 0 0 1 8.5 31.884c.004 33.288-25.336 60.364-56.482 60.364zm33.4-85.658a44.154 44.154 0 0 0 -4.37-5.806l-.03-.034-4.012-4.261 26.5-19.929 8.261 10.212z" fill="#79bc53" data-original="#000000" style="" class=""/>
    </g>
  </g>
</svg>
