<?xml version="1.0" encoding="UTF-8"?>
<svg xmlns="http://www.w3.org/2000/svg" id="Outline" viewBox="0 0 512 512" width="512" height="512"><path d="M496,160a47.7,47.7,0,0,0-14.5-34.389,56.017,56.017,0,1,0-93.907-57.45,47.99,47.99,0,0,0-64.737,60.112,48.121,48.121,0,0,0-41.474,36.29,99.8,99.8,0,0,0-17.683-7.627C279.617,147.76,288,135.065,288,120a8,8,0,0,0-16,0c0,17.265-19.81,26.015-32,29.765V104a8,8,0,0,0-16,0v45.765c-12.19-3.75-32-12.5-32-29.765a8,8,0,0,0-16,0c0,18.073,11.659,29.665,24.217,36.911a97.758,97.758,0,0,0-28.264,14.383,55.729,55.729,0,0,0-24.689-49.767l19.392-29.089a8.11,8.11,0,0,0,.5-.86c4.654-9.308,5.411-26.239-11.577-34.733-7.636-3.82-15.316-4.081-22.086-.855C129.717,43.965,121.116,32,104,32S78.283,43.965,74.508,55.99c-6.771-3.227-14.451-2.964-22.086.855C35.434,65.339,36.191,82.27,40.845,91.578a8.11,8.11,0,0,0,.5.86L63.31,125.387a55.611,55.611,0,0,0-4.7,4.478,56.181,56.181,0,0,0-14.844,42.2L49.867,256H40a24,24,0,0,0,0,48h1.223L62.859,433.813A24,24,0,0,0,72,480H440a24,24,0,0,0,9.142-46.187L470.778,304H472a24,24,0,0,0,0-48H451.739a48.028,48.028,0,0,0,8.906-49.689A48.089,48.089,0,0,0,496,160Zm-264.024,8h.045c44.1.011,79.979,32.305,79.979,72a65.4,65.4,0,0,1-1.993,16h-144.7l4.86-61.67C185.442,177.573,207.814,168.007,231.976,168ZM55.029,84.121A14.649,14.649,0,0,1,54,79c0-2.354.634-5.373,5.578-7.845,4.79-2.394,7.5-1.24,9.328.033a14.39,14.39,0,0,1,3.939,4.39A8,8,0,0,0,88,72.024,43.428,43.428,0,0,1,90.61,58.5C94.256,49.088,100,48,104,48s9.744,1.088,13.39,10.5A43.44,43.44,0,0,1,120,72a7.988,7.988,0,0,0,15.118,3.652,14.325,14.325,0,0,1,3.976-4.464c1.827-1.275,4.537-2.427,9.328-.033s5.5,5.257,5.572,7.482a14.315,14.315,0,0,1-1.024,5.485l-20.282,30.424A55.871,55.871,0,0,0,116.068,112H99.617a56.021,56.021,0,0,0-22.761,4.862ZM64.746,240H96a8,8,0,0,0,0-16H63.583l-2.327-32H96a8,8,0,0,0,0-16H60.093l-.371-5.1a40,40,0,0,1,39.9-42.9h16.451a40,40,0,0,1,39.877,43.142L149.258,256H65.91ZM392,432V400h46.556l-5.334,32ZM78.777,432l-5.333-32H120v32ZM184,352v32H70.777l-5.333-32Zm128,0v32H200V352ZM136,400H248v32H136Zm128,0H376v32H264Zm177.222-16H328V352H446.556ZM264,336V304H376v32Zm-16,0H136V304H248Zm-128,0H62.777l-5.333-32H120ZM440,464H72a8,8,0,0,1,0-16H440a8,8,0,0,1,0,16Zm9.222-128H392V304h62.556ZM480,280a8.009,8.009,0,0,1-8,8H40a8,8,0,0,1,0-16H472A8.009,8.009,0,0,1,480,280ZM464.954,132.865A32,32,0,0,1,448,192a8,8,0,0,0-6.4,12.805A32,32,0,0,1,416,256H327.71l23.272-32H384a8,8,0,0,0,0-16H362.619l23.272-32H416a8,8,0,0,0,0-16H397.528L446.47,92.705a8,8,0,0,0-12.94-9.41L398.8,131.052,391.091,116.3a8,8,0,1,0-14.182,7.408L388.292,145.5,360.724,183.4l-9.58-19a8,8,0,1,0-14.288,7.2l13.285,26.354L327.3,229.365c-2.863-21.691-14.369-40.975-31.259-54.865a31.985,31.985,0,0,1,38.98-29.718,8,8,0,0,0,7.993-12.806A31.643,31.643,0,0,1,336,112a32.036,32.036,0,0,1,32-32,31.662,31.662,0,0,1,19.668,6.771A8,8,0,0,0,400.5,81.712a40,40,0,1,1,63.833,38.029,8,8,0,0,0,.626,13.124Z"/></svg>
