<?xml version="1.0" encoding="UTF-8"?>
<svg xmlns="http://www.w3.org/2000/svg" xmlns:xlink="http://www.w3.org/1999/xlink" xmlns:svgjs="http://svgjs.com/svgjs" version="1.1" width="512" height="512" x="0" y="0" viewBox="0 0 480.002 480.002" style="enable-background:new 0 0 512 512" xml:space="preserve" class="">
  <g>
<g xmlns="http://www.w3.org/2000/svg">
	<g>
		<path d="M472.002,168.001h-8c-17.673,0-32,14.327-32,32c0,13.255-10.745,24-24,24v0.888c-10.506-10.8-24.933-16.892-40-16.888    h-42.968c0.289-5.137,0.021-10.289-0.8-15.368l-12.32-73.944c-0.129-0.787-0.374-1.55-0.728-2.264l-3.584-7.2    c-4.059-8.141-12.391-13.269-21.488-13.224h-30.112c-1.58,0.003-3.124,0.47-4.44,1.344l-71.392,47.592l-5.544,2.4l-9.536-9.536    c-16.466-16.567-38.875-25.857-62.232-25.8h-0.616l-6.48-25.936c-1.07-4.287-5.412-6.894-9.699-5.825    c-0.204,0.051-0.406,0.11-0.605,0.177l-1.224,0.416c-15.586,5.206-26.575,19.193-27.944,35.568L7.314,165.377    c-9.751,9.75-9.752,25.559-0.002,35.31c4.683,4.683,11.035,7.314,17.658,7.314h31.032c5.268-0.035,10.444-1.388,15.056-3.936    l40.944,54.6v29.336c0.039,22.287,5.242,44.262,15.2,64.2l0.84,1.688v118.112c0,4.418,3.582,8,8,8h32c4.418,0,8-3.582,8-8v-71.128    l13.936-62.72c14.34,3.837,29.162,5.562,44,5.12l3.112,17.136c2.802,15.617,17.734,26.004,33.351,23.202    c14.691-2.636,24.916-16.084,23.529-30.946l-1.992-21.936l7.04-2.56c13.325-4.785,27.849-5.086,41.36-0.856    c3.461,7.572,7.84,14.69,13.04,21.192l30.4,37.984l-7.816,84.784c-0.402,4.4,2.839,8.293,7.239,8.695    c0.253,0.023,0.507,0.034,0.761,0.033h32c3.98,0.001,7.355-2.924,7.92-6.864l15.12-105.816c0.733-5.115,0.461-10.325-0.8-15.336    l-6.752-27.048c-4.292-17.337-6.722-35.083-7.248-52.936c30.821-0.163,55.73-25.178,55.76-56v-40    C480.002,171.583,476.42,168.001,472.002,168.001z M153.778,149.089l5.016,5.016l-12.16,5.216l-29.992-29.992    C130.722,132.044,143.66,138.928,153.778,149.089z M82.602,99.409l3.152,12.592H73.466C75.101,106.942,78.3,102.533,82.602,99.409    z M224.186,286.265c-0.231,1.053-0.248,2.141-0.048,3.2l6.88,37.872c-15.11,0.174-30.144-2.165-44.488-6.92    c-2.147-0.726-4.503-0.499-6.472,0.624c-1.972,1.115-3.379,3.013-3.872,5.224l-16,72c-0.121,0.571-0.183,1.153-0.184,1.736v64h-16    v-112c0.001-1.241-0.286-2.465-0.84-3.576l-1.688-3.376c-8.837-17.72-13.448-37.247-13.472-57.048v-32    c0-1.731-0.561-3.415-1.6-4.8l-43.504-58c3.32-5.123,5.092-11.095,5.104-17.2h-16c0,8.837-7.163,16-16,16H24.97    c-4.953,0.003-8.97-4.01-8.973-8.963c-0.001-2.382,0.945-4.666,2.629-6.349l48.688-48.688H92.69l39,39    c-10.391,8.801-11.68,24.359-2.879,34.75c2.055,2.426,4.559,4.431,7.375,5.906c6.242,3.265,13.577,3.722,20.176,1.256    l12.536-4.704l17.448,17.448c1.5,1.5,3.534,2.344,5.656,2.344h46.024L224.186,286.265z M185.354,198.041l12.64-4.736    l14.696,14.696h-17.376L185.354,198.041z M235.314,208.001l-22.4-22.4l20.88-12.528l4.984,34.928H235.314z M272.01,288.769    l5.944,65.392c0.338,3.545-0.845,7.067-3.256,9.688v0c-2.398,2.661-5.818,4.172-9.4,4.152    c-6.146-0.004-11.408-4.407-12.496-10.456l-12.64-69.384l15.656-70.4c0.203-0.944,0.238-1.916,0.104-2.872l-8-56    c-0.628-4.373-4.682-7.41-9.056-6.782c-1.056,0.152-2.07,0.513-2.984,1.062l-39.376,23.632l-45.768,17.16    c-2.322,0.896-4.919,0.735-7.112-0.44c-4.267-2.233-5.916-7.503-3.682-11.769c0.932-1.781,2.45-3.185,4.298-3.975l42.912-18.4    c0.451-0.189,0.883-0.422,1.288-0.696l69.96-46.68h27.688c3.033-0.012,5.808,1.705,7.152,4.424l3.04,6.08l12.128,72.8    c2.062,12.494-0.151,25.319-6.28,36.4l-29.144,52.456C272.203,285.563,271.862,287.17,272.01,288.769z M423.202,365.073l-0.008,0    l-14.128,98.928h-16.264l7.2-79.272c0.189-2.06-0.428-4.113-1.72-5.728l-32.392-40.496c-18.075-22.494-23.453-52.643-14.272-80    l-15.2-5.056c-5.995,18.066-6.741,37.463-2.152,55.936c-13.694-2.288-27.747-1.004-40.8,3.728l-3.08,1.112l-2.232-24.52    l27.952-50.296c2.686-4.876,4.799-10.046,6.296-15.408h45.6c22.136,0.044,40.044,18.024,40,40.16c0,0.003,0,0.005,0,0.008    c0.018,21.79,2.705,43.495,8,64.632l6.76,27.048C423.509,358.865,423.659,361.999,423.202,365.073z M464.002,216.001    c-0.026,22.08-17.92,39.974-40,40h-0.64c-0.864-6.056-2.723-11.927-5.504-17.376c17.68-4.495,30.079-20.382,30.144-38.624    c0-8.837,7.163-16,16-16V216.001z" fill="#79bc53" data-original="#000000" style=""/>
	</g>
</g>
<g xmlns="http://www.w3.org/2000/svg">
	<g>
		<path d="M268.002,0.001h-36c-4.418,0-8,3.582-8,8v36c0,24.301,19.699,44,44,44s44-19.699,44-44    C311.971,19.713,292.29,0.032,268.002,0.001z M250.751,66.111c-6.813-5.308-10.783-13.473-10.749-22.11v-3.904    c18.721,0.419,36.571,7.988,49.888,21.152C280.425,73.399,262.902,75.576,250.751,66.111z M295.89,45.113    c-15.658-13.224-35.396-20.647-55.888-21.016v-8.096h28c15.464,0,28,12.536,28,28C296.002,44.385,295.906,44.737,295.89,45.113z" fill="#79bc53" data-original="#000000" style=""/>
	</g>
</g>















</g>
</svg>
