<svg width="162" height="162" viewBox="0 0 162 162" fill="none" xmlns="http://www.w3.org/2000/svg">
<g clip-path="url(#clip0)">
<path d="M40.6516 66.6062C40.2732 67.6886 40.6187 68.8922 41.5138 69.6081L54 79.5973V82.2551L47.1023 86.8536C45.8789 87.6868 45.5546 89.3505 46.3759 90.5832C47.1973 91.8159 48.8584 92.156 50.0977 91.3465L56.7 86.9445L63.3023 91.3465C64.1052 91.8923 65.1388 91.9662 66.0116 91.539C66.883 91.1119 67.4578 90.2483 67.5171 89.2793C67.5765 88.3104 67.1111 87.3849 66.2977 86.8536L59.4 82.2551V79.5973L71.8862 69.6081C72.7827 68.8922 73.1281 67.6886 72.7484 66.6062C72.3687 65.5238 71.347 64.8 70.2 64.8H43.2C42.053 64.8 41.0313 65.5238 40.6516 66.6062ZM62.5034 70.2L56.7 74.842L50.8966 70.2H62.5034Z" fill="black"/>
<path d="M51.2973 59.4C52.4878 59.4013 53.5385 58.6222 53.8839 57.4831C54.2293 56.3441 53.7877 55.114 52.7976 54.4535L36.5976 43.6535C35.3584 42.8454 33.6985 43.1855 32.8772 44.4182C32.0559 45.6495 32.3789 47.312 33.6023 48.1465L49.8023 58.9465C50.2453 59.2418 50.7647 59.4 51.2973 59.4Z" fill="black"/>
<path d="M62.1025 59.4001C62.6351 59.4001 63.1559 59.2419 63.5975 58.9466L79.7975 48.1466C80.6096 47.6153 81.075 46.6898 81.0157 45.7208C80.9564 44.7518 80.3816 43.8896 79.5101 43.4625C78.6387 43.0353 77.6051 43.1079 76.8022 43.6537L60.6022 54.4536C59.6121 55.1141 59.1705 56.3442 59.5172 57.4832C59.8626 58.6223 60.912 59.4015 62.1025 59.4001Z" fill="black"/>
<path d="M27.0001 70.2H10.8001C9.30903 70.2 8.1001 71.4089 8.1001 72.9C8.1001 74.391 9.30903 75.6 10.8001 75.6H27.0001C28.4912 75.6 29.7001 74.391 29.7001 72.9C29.7001 71.4089 28.4912 70.2 27.0001 70.2Z" fill="black"/>
<path d="M86.4 75.6H102.6C104.091 75.6 105.3 74.391 105.3 72.9C105.3 71.4089 104.091 70.2 102.6 70.2H86.4C84.9089 70.2 83.7 71.4089 83.7 72.9C83.7 74.391 84.9089 75.6 86.4 75.6Z" fill="black"/>
<path d="M159.3 64.8H111.521L89.0995 28.9261V2.70001C89.0995 1.60841 88.4417 0.623592 87.4331 0.205673C86.4246 -0.212247 85.2631 0.0184655 84.4905 0.791024L58.2816 27H55.1175L28.9085 0.791024C28.136 0.0184655 26.9758 -0.212247 25.9659 0.205673C24.9574 0.623592 24.2995 1.60841 24.2995 2.70001V28.992L0.346263 71.5764C-0.129664 72.4214 -0.115163 73.4577 0.384496 74.2896C3.96384 79.7212 8.44626 84.5002 13.638 88.4197C13.485 88.9194 13.485 89.4546 13.638 89.9543C13.8634 90.6346 14.3512 91.1962 14.9919 91.5166C15.6326 91.8369 16.3749 91.8897 17.0538 91.6616L17.8027 91.4124C20.7294 93.3372 23.8051 95.026 26.9995 96.463V140.863C23.7656 142.01 21.6035 145.068 21.5995 148.5V159.3C21.5995 160.791 22.8085 162 24.2995 162H45.8995C47.3906 162 48.5995 160.791 48.5995 159.3V135H64.7995V140.863C61.5656 142.01 59.4035 145.068 59.3995 148.5V159.3C59.3995 160.791 60.6085 162 62.0995 162H83.6995C85.1906 162 86.3995 160.791 86.3995 159.3V135H118.8V140.4C115.819 140.403 113.402 142.819 113.4 145.8V159.3C113.4 160.791 114.608 162 116.1 162H137.7C139.191 162 140.4 160.791 140.4 159.3V81H145.8V132.3C145.8 133.791 147.008 135 148.5 135H159.3C160.791 135 162 133.791 162 132.3V67.5C162 66.0089 160.791 64.8 159.3 64.8V64.8ZM124.2 70.2V105.3C124.2 106.791 122.991 108 121.5 108C120.008 108 118.8 106.791 118.8 105.3V70.2H124.2ZM83.6995 9.21798V27H65.9175L83.6995 9.21798ZM29.6995 9.21798L47.4816 27H29.6995V9.21798ZM34.9611 82.8457C34.4891 81.4311 32.9598 80.6665 31.5452 81.1384L18.6635 85.4323C13.7421 81.936 9.41789 77.6646 5.86096 72.7866L14.0427 58.2425C14.3565 58.7131 14.8126 59.0704 15.3452 59.2616L31.5452 64.6616C32.9598 65.1336 34.4891 64.3689 34.9611 62.9543C35.4331 61.5397 34.6684 60.0104 33.2538 59.5384L17.0538 54.1384C16.8389 54.0831 16.6188 54.0554 16.3973 54.0567L28.5789 32.4H84.9032L98.7407 54.5392C98.0551 54.0237 97.1613 53.8748 96.3452 54.1384L80.1452 59.5384C78.7306 60.0104 77.966 61.5397 78.438 62.9543C78.9099 64.3689 80.4392 65.1336 81.8538 64.6616L98.0538 59.2616C99.3049 58.8331 100.052 57.553 99.8112 56.2531L110.108 72.7273C107.753 75.5222 105.161 78.1102 102.362 80.4608C101.517 81.1793 100.652 81.8794 99.7664 82.5596C98.8949 83.2307 97.9734 83.9057 97.0018 84.5833C96.4757 84.9498 95.9365 85.2992 95.3986 85.6538L81.8538 81.1384C80.4392 80.6665 78.9099 81.4311 78.438 82.8457C77.966 84.2603 78.7306 85.7896 80.1452 86.2616L89.23 89.2898C79.1934 94.5369 68.0256 97.2527 56.6995 97.2C54.9672 97.2 53.3008 97.1196 51.6634 97.0088C51.2718 96.9825 50.8777 96.9601 50.4887 96.9271C49.0122 96.8032 47.5765 96.6384 46.1803 96.4301C45.5989 96.3444 45.0241 96.2389 44.4493 96.1387C43.6372 95.9977 42.8436 95.8408 42.0605 95.6747C39.2537 95.084 36.4891 94.3049 33.7878 93.3412L33.7482 93.3267C32.7357 92.9615 31.7351 92.5712 30.7463 92.156C30.6988 92.1362 30.6474 92.1322 30.6 92.1151C28.5222 91.2463 26.4933 90.2641 24.5237 89.1712L33.2538 86.2616C34.6684 85.7896 35.4331 84.2603 34.9611 82.8457V82.8457ZM97.1995 91.8013C98.3623 91.8013 99.3933 91.0564 99.7611 89.9543C99.8125 89.75 99.8376 89.5403 99.8389 89.3307C100.803 88.6636 101.724 87.9952 102.6 87.3281V105.3C102.6 106.791 101.391 108 99.8995 108C98.4085 108 97.1995 106.791 97.1995 105.3V91.8013ZM135 156.6H129.6V153.9C129.6 152.409 128.391 151.2 126.9 151.2C125.408 151.2 124.2 152.409 124.2 153.9V156.6H118.8V145.8H121.5C122.991 145.8 124.2 144.591 124.2 143.1V132.3C124.2 130.809 122.991 129.6 121.5 129.6H83.6995C82.2085 129.6 80.9995 130.809 80.9995 132.3V156.6H75.5995V153.9C75.5995 152.409 74.3906 151.2 72.8995 151.2C71.4085 151.2 70.1995 152.409 70.1995 153.9V156.6H64.7995V148.5C64.8022 147.009 66.0098 145.801 67.4995 145.8C68.9906 145.8 70.1995 144.591 70.1995 143.1V132.3C70.1995 130.809 68.9906 129.6 67.4995 129.6H45.8995C44.4085 129.6 43.1995 130.809 43.1995 132.3V156.6H37.7995V153.9C37.7995 152.409 36.5906 151.2 35.0995 151.2C33.6085 151.2 32.3995 152.409 32.3995 153.9V156.6H26.9995V148.5C27.0022 147.009 28.2098 145.801 29.6995 145.8C31.1906 145.8 32.3995 144.591 32.3995 143.1V98.612C38.1608 100.611 44.1553 101.86 50.2343 102.332C50.3648 102.343 50.4967 102.348 50.6259 102.357C52.5915 102.506 54.6073 102.6 56.6995 102.6C68.9102 102.683 80.9573 99.7932 91.7995 94.177V105.3C91.7995 109.773 95.4263 113.4 99.8995 113.4C104.373 113.4 108 109.773 108 105.3V82.8075C109.907 81.0567 111.709 79.1965 113.4 77.2348V105.3C113.4 109.773 117.026 113.4 121.5 113.4C125.973 113.4 129.6 109.773 129.6 105.3V70.2H135V156.6ZM156.6 129.6H151.2V78.3C151.2 76.8089 149.991 75.6 148.5 75.6H140.4V70.2H156.6V129.6Z" fill="black"/>
<path d="M53.9999 102.6C48.0357 102.6 43.2 107.436 43.2 113.4C43.2 119.364 48.0357 124.2 53.9999 124.2C59.9655 124.2 64.7999 119.364 64.7999 113.4C64.7934 107.438 59.9616 102.607 53.9999 102.6ZM53.9999 118.8C51.0178 118.8 48.5999 116.382 48.5999 113.4C48.5999 110.418 51.0178 108 53.9999 108C56.9821 108 59.3999 110.418 59.3999 113.4C59.3973 116.381 56.9808 118.797 53.9999 118.8Z" fill="black"/>
</g>
<defs>
<clipPath id="clip0">
<rect width="162" height="162" fill="white"/>
</clipPath>
</defs>
</svg>
