<svg width="162" height="162" viewBox="0 0 162 162" fill="none" xmlns="http://www.w3.org/2000/svg">
<path d="M27 54H32.4V59.4H27V54Z" fill="black"/>
<path d="M43.2 54H48.5999V59.4H43.2V54Z" fill="black"/>
<path d="M27 91.8H32.4V97.2H27V91.8Z" fill="black"/>
<path d="M43.2 91.8H48.5999V97.2H43.2V91.8Z" fill="black"/>
<path d="M148.5 5.4H135V2.7C135 1.20894 133.791 0 132.3 0H116.1C115.008 0 114.024 0.657861 113.606 1.66641C113.188 2.67495 113.418 3.83643 114.191 4.60898L116.942 7.3604L109.492 11.0848C108.577 11.5422 108 12.477 108 13.5C108 14.523 108.577 15.4578 109.492 15.9152L116.942 19.6396L114.191 22.391C113.418 23.1636 113.188 24.3237 113.606 25.3336C114.024 26.3421 115.008 27 116.1 27H132.3C133.791 27 135 25.7911 135 24.3V21.6H145.8V32.4H58.369L51.0152 17.6924C50.5077 16.8407 49.5901 16.32 48.6 16.32C47.6099 16.32 46.6923 16.8407 46.1848 17.6924L38.831 32.4H36.769L29.4152 17.6924C28.9077 16.8407 27.9901 16.32 27 16.32C26.0099 16.32 25.0923 16.8407 24.5848 17.6924L17.231 32.4H2.7C1.20894 32.4 0 33.6089 0 35.1C0 41.2251 3.4686 52.4615 16.2 53.855V159.3C16.2 160.791 17.4089 162 18.9 162H35.1C36.5911 162 37.8 160.791 37.8 159.3V129.6H54V159.3C54 160.791 55.2089 162 56.7 162H72.9C74.3911 162 75.6 160.791 75.6 159.3V129.6H97.8565C100.181 136.918 106.016 142.587 113.4 144.697V148.5C113.4 152.973 117.027 156.6 121.5 156.6C125.973 156.6 129.6 152.973 129.6 148.5V144.697C133.786 143.554 137.542 141.203 140.4 137.939V159.3C140.4 160.791 141.609 162 143.1 162H159.3C160.791 162 162 160.791 162 159.3V18.9C161.991 11.4473 155.953 5.40923 148.5 5.4ZM129.6 21.6H122.618L123.409 20.809C124.023 20.1959 124.304 19.3245 124.166 18.4676C124.027 17.6106 123.484 16.8724 122.708 16.4848L116.737 13.5L122.708 10.5152C123.484 10.1276 124.026 9.38936 124.166 8.53242C124.304 7.67549 124.023 6.80405 123.409 6.19102L122.618 5.4H129.6V21.6ZM135 16.2V10.8H148.5C152.972 10.8053 156.595 14.4281 156.6 18.9V32.4H151.2V21.6C151.197 18.6192 148.781 16.2026 145.8 16.2H135ZM129.6 37.8V59.4H108V37.8H129.6ZM21.6 86.4H54V102.6H21.6V86.4ZM21.6 81V37.8H54V81H21.6ZM59.4 37.8H69.9021C69.1822 43.2936 64.8857 47.631 59.4 48.4049V37.8ZM48.6 24.9368L52.331 32.4H44.869L48.6 24.9368ZM27 24.9368L30.731 32.4H23.269L27 24.9368ZM5.68477 37.8H16.2V48.4088C10.6919 47.6719 6.37295 43.3147 5.68477 37.8ZM124.2 148.5C124.2 149.991 122.991 151.2 121.5 151.2C120.009 151.2 118.8 149.991 118.8 148.5V145.651C119.678 145.724 120.551 145.8 121.5 145.8C122.449 145.8 123.322 145.724 124.2 145.651V148.5ZM121.5 140.4C109.995 140.4 105.345 133.724 103.569 129.6H139.46C137.72 133.719 133.108 140.4 121.5 140.4ZM145.8 156.6V126.9C145.766 126.607 145.708 126.319 145.626 126.036C145.497 125.729 145.341 125.434 145.161 125.154C144.938 124.959 144.702 124.78 144.454 124.617C144.072 124.311 143.588 124.162 143.1 124.2H72.9C71.4089 124.2 70.2 125.409 70.2 126.9V156.6H59.4V126.9C59.4 125.409 58.1911 124.2 56.7 124.2H35.1C33.6089 124.2 32.4 125.409 32.4 126.9V156.6H21.6V108H56.7C58.1911 108 59.4 106.791 59.4 105.3V53.855C67.8942 53.0363 74.6099 46.2981 75.3996 37.8H102.6V62.1C102.6 63.5911 103.809 64.8 105.3 64.8H132.3C133.791 64.8 135 63.5911 135 62.1V37.8H156.6V81H132.3C130.809 81 129.6 82.2089 129.6 83.7V110.7C129.6 112.191 130.809 113.4 132.3 113.4H156.6V156.6H145.8ZM156.6 108H135V86.4H156.6V108Z" fill="black"/>
<path d="M99.8999 70.2H83.6999C82.2089 70.2 80.9999 71.4089 80.9999 72.9V80.9999H67.4999C66.0089 80.9999 64.7999 82.2089 64.7999 83.6999V105.3C64.7999 106.791 66.0089 108 67.4999 108H89.0999C90.591 108 91.7999 106.791 91.7999 105.3V91.7999H99.8999C101.391 91.7999 102.6 90.591 102.6 89.0999V72.9C102.6 71.4089 101.391 70.2 99.8999 70.2ZM97.1999 86.3999H89.0999C87.6089 86.3999 86.3999 87.6089 86.3999 89.0999V102.6H70.1999V86.3999H83.6999C85.191 86.3999 86.3999 85.191 86.3999 83.6999V75.6H97.1999V86.3999Z" fill="black"/>
<path d="M121.5 97.2H110.7C109.209 97.2 108 98.4089 108 99.9V116.1C108 117.591 109.209 118.8 110.7 118.8H121.5C122.991 118.8 124.2 117.591 124.2 116.1V99.9C124.2 98.4089 122.991 97.2 121.5 97.2ZM118.8 113.4H113.4V102.6H118.8V113.4Z" fill="black"/>
</svg>
