<svg width="162" height="162" viewBox="0 0 162 162" fill="none" xmlns="http://www.w3.org/2000/svg">
<g clip-path="url(#clip0)">
<path d="M43.2 32.4001H48.5999V37.8001H43.2V32.4001Z" fill="black"/>
<path d="M70.2 32.4001H75.6V37.8001H70.2V32.4001Z" fill="black"/>
<path d="M159.3 37.8001H118.8V13.5C118.8 12.009 117.591 10.8 116.1 10.8H2.7C1.20894 10.8 0 12.009 0 13.5V83.7001C0 85.1911 1.20894 86.4001 2.7 86.4001H18.9C20.3911 86.4001 21.6 85.1911 21.6 83.7001V32.4001H27V129.6C24.0192 129.603 21.6026 132.019 21.6 135V148.5C21.6 149.991 22.8089 151.2 24.3 151.2H45.9C47.3911 151.2 48.6 149.991 48.6 148.5V118.8H70.2V129.6C67.2192 129.603 64.8026 132.019 64.8 135V148.5C64.8 149.991 66.0089 151.2 67.5 151.2H89.1C90.5911 151.2 91.8 149.991 91.8 148.5V118.8H129.6V129.6C126.619 129.603 124.203 132.019 124.2 135V148.5C124.2 149.991 125.409 151.2 126.9 151.2H148.5C149.991 151.2 151.2 149.991 151.2 148.5V54.0001H159.3C160.791 54.0001 162 52.7911 162 51.3001V40.5001C162 39.009 160.791 37.8001 159.3 37.8001ZM113.4 81.0001H102.6V29.7001C102.6 28.209 101.391 27.0001 99.9 27.0001H91.8V16.2H113.4V81.0001ZM91.8 32.4001H97.2V37.8001H91.8V32.4001ZM86.4 81.0001H74.1643L62.7645 67.3208L72.4465 52.7977C72.9989 51.9698 73.0503 50.9045 72.581 50.0265C72.1103 49.1485 71.1954 48.6001 70.2 48.6001H48.6C47.6046 48.6001 46.6897 49.1485 46.219 50.0265C45.7497 50.9045 45.8011 51.9698 46.3535 52.7977L56.0355 67.3208L44.6357 81.0001H32.4V16.2H86.4V81.0001ZM53.6454 54.0001H65.1546L59.4 62.6327L53.6454 54.0001ZM59.4 71.7175L67.1361 81.0001H51.6639L59.4 71.7175ZM18.9 27.0001C17.4089 27.0001 16.2 28.209 16.2 29.7001V81.0001H5.4V16.2H27V27.0001H18.9ZM145.8 145.8H140.4V143.1C140.4 141.609 139.191 140.4 137.7 140.4C136.209 140.4 135 141.609 135 143.1V145.8H129.6V135H132.3C133.791 135 135 133.791 135 132.3V116.1C135 114.609 133.791 113.4 132.3 113.4H89.1C87.6089 113.4 86.4 114.609 86.4 116.1V145.8H81V143.1C81 141.609 79.7911 140.4 78.3 140.4C76.8089 140.4 75.6 141.609 75.6 143.1V145.8H70.2V135H72.9C74.3911 135 75.6 133.791 75.6 132.3V116.1C75.6 114.609 74.3911 113.4 72.9 113.4H45.9C44.4089 113.4 43.2 114.609 43.2 116.1V145.8H37.8V143.1C37.8 141.609 36.5911 140.4 35.1 140.4C33.6089 140.4 32.4 141.609 32.4 143.1V145.8H27V135H29.7C31.1911 135 32.4 133.791 32.4 132.3V86.4001H89.1C90.5911 86.4001 91.8 85.1911 91.8 83.7001V43.2001H97.2V83.7001C97.2 85.1911 98.4089 86.4001 99.9 86.4001H116.1C117.591 86.4001 118.8 85.1911 118.8 83.7001V43.2001H145.8V145.8ZM156.6 48.6001H151.2V43.2001H156.6V48.6001Z" fill="black"/>
</g>
<defs>
<clipPath id="clip0">
<rect width="162" height="162" fill="white"/>
</clipPath>
</defs>
</svg>
