<svg width="162" height="162" viewBox="0 0 162 162" fill="none" xmlns="http://www.w3.org/2000/svg">
<path d="M144.343 117.354C143.874 115.207 141.978 113.675 139.781 113.667H125.333V106.667C125.333 105.378 124.289 104.333 123 104.333V18C123 14.1343 119.866 11 116 11C112.134 11 109 14.1343 109 18V104.333C107.711 104.333 106.667 105.378 106.667 106.667V113.667H92.2189C90.0223 113.675 88.1265 115.207 87.6571 117.354L81.0513 148.179C80.9043 148.868 81.0763 149.586 81.5195 150.134C81.9616 150.682 82.6292 151 83.3333 151H148.667C149.371 151 150.038 150.682 150.48 150.134C150.924 149.586 151.096 148.868 150.949 148.179L144.343 117.354ZM113.667 43.6667H118.333V48.3333H113.667V43.6667ZM113.667 34.3333H118.333V39H113.667V34.3333ZM118.333 29.6667H113.667V25H118.333V29.6667ZM113.667 53H118.333V57.6667H113.667V53ZM113.667 18C113.667 16.7114 114.711 15.6667 116 15.6667C117.289 15.6667 118.333 16.7114 118.333 18V20.3333H113.667V18ZM113.667 62.3333H118.333V104.333H113.667V62.3333ZM111.333 109H120.667V113.667H111.333V109ZM139.781 118.333L140.783 123H91.2174L92.2189 118.333H139.781ZM141.667 146.333V141.667C141.667 140.378 140.622 139.333 139.333 139.333C138.045 139.333 137 140.378 137 141.667V146.333H132.333V141.667C132.333 140.378 131.289 139.333 130 139.333C128.711 139.333 127.667 140.378 127.667 141.667V146.333H123V141.667C123 140.378 121.955 139.333 120.667 139.333C119.378 139.333 118.333 140.378 118.333 141.667V146.333H113.667V141.667C113.667 140.378 112.622 139.333 111.333 139.333C110.045 139.333 109 140.378 109 141.667V146.333H104.333V141.667C104.333 140.378 103.289 139.333 102 139.333C100.711 139.333 99.6667 140.378 99.6667 141.667V146.333H95V141.667C95 140.378 93.9552 139.333 92.6667 139.333C91.3781 139.333 90.3333 140.378 90.3333 141.667V146.333H86.2192L90.2194 127.667H141.785L145.785 146.333H141.667Z" fill="black"/>
<path d="M78.6667 81H13.3333C12.0448 81 11 82.0448 11 83.3333V92.6667C11 93.9552 12.0448 95 13.3333 95H15.6667V144C15.6667 147.866 18.8009 151 22.6667 151H69.3333C73.1991 151 76.3333 147.866 76.3333 144V95H78.6667C79.9552 95 81 93.9552 81 92.6667V83.3333C81 82.0448 79.9552 81 78.6667 81ZM71.6667 144C71.6667 145.289 70.6219 146.333 69.3333 146.333H22.6667C21.3781 146.333 20.3333 145.289 20.3333 144V119.834C23.348 123.597 27.5715 126.201 32.2871 127.208C33.1257 130.226 35.8669 132.32 39 132.333H53C56.1343 132.319 58.8766 130.221 59.7129 127.2C64.4274 126.196 68.6509 123.594 71.6667 119.834V144ZM36.6667 125.333C36.6667 124.045 37.7114 123 39 123H53C54.2886 123 55.3333 124.045 55.3333 125.333C55.3333 126.622 54.2886 127.667 53 127.667H39C37.7114 127.667 36.6667 126.622 36.6667 125.333ZM71.6667 106.667C71.6655 114.127 66.6092 120.638 59.3813 122.487C58.2591 119.965 55.7594 118.339 53 118.333H39C36.2406 118.339 33.7409 119.965 32.6187 122.487C25.3908 120.638 20.3345 114.127 20.3333 106.667V95H71.6667V106.667ZM76.3333 90.3333H15.6667V85.6667H76.3333V90.3333Z" fill="black"/>
<path d="M64.6666 67C68.5323 67 71.6666 63.8657 71.6666 60C71.6666 56.1343 68.5323 53 64.6666 53C60.8009 53 57.6666 56.1343 57.6666 60C57.6666 63.8657 60.8009 67 64.6666 67ZM64.6666 57.6667C65.9552 57.6667 67 58.7114 67 60C67 61.2886 65.9552 62.3333 64.6666 62.3333C63.3781 62.3333 62.3333 61.2886 62.3333 60C62.3333 58.7114 63.3781 57.6667 64.6666 57.6667Z" fill="black"/>
<path d="M43.6667 64.6665C44.9553 64.6665 46 63.6217 46 62.3332V59.9998C46 58.7113 44.9553 57.6665 43.6667 57.6665C42.3781 57.6665 41.3334 58.7113 41.3334 59.9998V62.3332C41.3334 63.6217 42.3781 64.6665 43.6667 64.6665Z" fill="black"/>
<path d="M36.6667 69.3332H39C40.2886 69.3332 41.3334 68.2884 41.3334 66.9998C41.3334 65.7113 40.2886 64.6665 39 64.6665H36.6667C35.3781 64.6665 34.3334 65.7113 34.3334 66.9998C34.3334 68.2884 35.3781 69.3332 36.6667 69.3332Z" fill="black"/>
<path d="M43.6667 69.3335C42.3781 69.3335 41.3334 70.3783 41.3334 71.6668V74.0002C41.3334 75.2887 42.3781 76.3335 43.6667 76.3335C44.9553 76.3335 46 75.2887 46 74.0002V71.6668C46 70.3783 44.9553 69.3335 43.6667 69.3335Z" fill="black"/>
<path d="M48.3333 69.3332H50.6667C51.9552 69.3332 53 68.2884 53 66.9998C53 65.7113 51.9552 64.6665 50.6667 64.6665H48.3333C47.0448 64.6665 46 65.7113 46 66.9998C46 68.2884 47.0448 69.3332 48.3333 69.3332Z" fill="black"/>
<path d="M22.6667 43.6665C23.9553 43.6665 25 42.6217 25 41.3332V38.9998C25 37.7113 23.9553 36.6665 22.6667 36.6665C21.3781 36.6665 20.3334 37.7113 20.3334 38.9998V41.3332C20.3334 42.6217 21.3781 43.6665 22.6667 43.6665Z" fill="black"/>
<path d="M16.0677 45.0338C16.9837 45.9179 18.4386 45.9054 19.3387 45.0053C20.2387 44.1053 20.2513 42.6504 19.3672 41.7343L17.7151 40.0846C16.8003 39.2005 15.3442 39.213 14.4441 40.1131C13.5441 41.0131 13.5315 42.4692 14.4157 43.3841L16.0677 45.0338Z" fill="black"/>
<path d="M13.3333 50.6667H15.6667C16.9552 50.6667 18 49.6219 18 48.3333C18 47.0448 16.9552 46 15.6667 46H13.3333C12.0448 46 11 47.0448 11 48.3333C11 49.6219 12.0448 50.6667 13.3333 50.6667Z" fill="black"/>
<path d="M16.0678 51.6329L14.4158 53.2827C13.8096 53.8683 13.5658 54.7365 13.78 55.5522C13.9931 56.368 14.6299 57.0048 15.4457 57.2179C16.2615 57.4321 17.1296 57.1883 17.7152 56.5822L19.3673 54.9324C20.2514 54.0164 20.2388 52.5615 19.3388 51.6614C18.4387 50.7614 16.9838 50.7488 16.0678 51.6329Z" fill="black"/>
<path d="M22.6667 60C23.9553 60 25 58.9552 25 57.6667V55.3333C25 54.0448 23.9553 53 22.6667 53C21.3781 53 20.3334 54.0448 20.3334 55.3333V57.6667C20.3334 58.9552 21.3781 60 22.6667 60Z" fill="black"/>
<path d="M27.6181 56.5822C28.2037 57.1883 29.0719 57.4321 29.8876 57.2179C30.7034 57.0048 31.3403 56.368 31.5533 55.5522C31.7675 54.7365 31.5237 53.8683 30.9176 53.2827L29.2656 51.6329C28.3495 50.7488 26.8946 50.7614 25.9946 51.6614C25.0945 52.5615 25.082 54.0164 25.9661 54.9324L27.6181 56.5822Z" fill="black"/>
<path d="M27.3334 48.3333C27.3334 49.6219 28.3781 50.6667 29.6667 50.6667H32C33.2886 50.6667 34.3334 49.6219 34.3334 48.3333C34.3334 47.0448 33.2886 46 32 46H29.6667C28.3781 46 27.3334 47.0448 27.3334 48.3333Z" fill="black"/>
<path d="M27.6158 45.7174C28.2345 45.7174 28.8281 45.4713 29.2656 45.0338L30.9176 43.3841C31.8017 42.4692 31.7892 41.0131 30.8891 40.1131C29.989 39.213 28.533 39.2005 27.6181 40.0846L25.9661 41.7343C25.2984 42.402 25.099 43.4057 25.4602 44.2773C25.8214 45.1489 26.6725 45.7174 27.6158 45.7174Z" fill="black"/>
</svg>
