<svg width="162" height="162" viewBox="0 0 162 162" fill="none" xmlns="http://www.w3.org/2000/svg">
<g clip-path="url(#clip0)">
<path d="M159.749 83.7894C161.196 81.3585 162 78.5738 162 75.6417C162 66.5855 151.861 59.5608 143.137 59.5608C142.105 59.5608 141.084 59.6734 140.076 59.8717C138.216 46.7765 129.281 36.6294 118.26 35.56C118.41 34.957 118.598 34.3459 118.836 33.7241C119.091 33.0648 119.391 32.4698 119.704 31.8936C119.715 31.8775 119.729 31.8641 119.739 31.848C120.527 30.4168 121.511 29.1384 122.655 28.0448C124.832 25.965 127.099 24.9064 128.037 24.5365L126.075 19.5488C125.4 19.8141 124.18 20.3769 122.768 21.2453C122.449 20.1893 122.058 19.1628 121.556 18.2569C119.632 14.7834 114.867 9.91896 110.219 11.6905C105.966 13.3067 105.114 19.1494 105.867 22.7783C106.754 27.0773 110.182 30.6017 113.698 32.2447C113.261 33.4641 112.969 34.6514 112.776 35.8039C102.833 37.6157 94.8514 46.8435 92.7635 58.7434C91.2063 58.0572 89.5902 57.54 87.9151 57.2451C88.9255 54.7419 89.5339 51.8822 89.5339 48.8402C89.5339 40.194 80.7886 33.5687 80.416 33.2926C79.4673 32.5824 78.1593 32.5824 77.2132 33.2926C76.8863 33.5338 70.2073 38.5993 68.4947 45.6213C63.5498 44.3884 58.8113 45.0504 58.5647 45.0853C57.3908 45.2568 56.4688 46.1788 56.2973 47.3527C56.2303 47.811 54.7321 58.679 60.8429 64.7925C61.9417 65.8913 63.1263 66.8696 64.3619 67.7058C62.9548 67.8184 61.5933 68.0971 60.3417 68.6117C56.5064 66.2263 51.7169 64.9211 46.6514 64.9211C46.5978 64.9211 46.5442 64.9265 46.4906 64.9265C46.5817 64.0367 46.6514 63.1415 46.6514 62.241C46.6514 51.7213 40.7658 43.4799 33.2507 43.4799C26.5931 43.4799 21.2221 49.9524 20.0831 58.7434C18.282 57.7463 16.4595 56.9262 14.6557 56.4331C9.74033 55.093 5.54321 55.8675 2.80945 58.5986C0.0730094 61.3324 -0.696195 65.5375 0.641203 70.4449C1.83655 74.8243 4.62391 79.3672 8.49406 83.2346C8.65487 83.3954 8.84248 83.5241 9.00597 83.6822H3.76894C2.28682 83.6822 1.08879 84.8829 1.08879 86.3624C1.08879 121.829 29.946 150.686 65.4125 150.686H97.5744C133.041 150.686 161.898 121.829 161.898 86.3624C161.898 85.0705 160.965 84.0413 159.749 83.7894ZM111.115 21.6875C110.627 19.3504 111.482 16.941 112.122 16.6971C112.168 16.681 112.221 16.6729 112.283 16.6729C113.143 16.6729 115.472 18.3373 116.866 20.8513C117.523 22.0386 117.973 23.5636 118.115 25.0163C118.013 25.1262 117.933 25.2575 117.831 25.3727C117.3 25.9597 116.794 26.5949 116.301 27.2864C116.252 27.3534 116.193 27.4097 116.145 27.4793C114.114 26.5788 111.656 24.3168 111.115 21.6875ZM97.636 63.3827C97.6414 63.2996 97.6441 63.238 97.6494 63.1495C97.6494 63.1388 97.6468 63.1281 97.6468 63.1174C98.2712 52.3029 104.452 43.4477 112.532 41.3009C112.763 43.906 113.398 45.9697 113.827 47.1088L118.841 45.2166C118.522 44.367 118.051 42.834 117.871 40.9016C127.134 41.8718 134.494 51.5203 135.04 63.5006C135.04 63.506 135.038 63.5114 135.038 63.5167L135.054 63.8517C135.067 64.2082 135.097 64.5593 135.097 64.9211C135.097 65.7788 135.054 66.631 134.981 67.478C134.965 67.679 134.933 67.8773 134.914 68.0783C134.845 68.7377 134.762 69.397 134.649 70.0429C134.617 70.2359 134.577 70.4262 134.539 70.6164C134.41 71.2811 134.263 71.9378 134.092 72.5864C134.051 72.7418 134.008 72.8999 133.966 73.0527C133.77 73.7415 133.55 74.4196 133.309 75.0843C133.269 75.1915 133.234 75.3014 133.191 75.4086C132.91 76.1483 132.599 76.8719 132.261 77.5741C132.248 77.6036 132.234 77.6331 132.221 77.6626C131.117 79.9273 129.715 81.9696 128.061 83.6822H104.604C104.186 83.248 103.8 82.7763 103.414 82.3019C103.195 82.0312 102.978 81.7605 102.771 81.4791C102.498 81.1093 102.238 80.7287 101.986 80.3401C101.806 80.064 101.627 79.7906 101.458 79.5065C101.203 79.0804 100.967 78.6381 100.737 78.1932C100.595 77.9199 100.45 77.6492 100.316 77.3678C100.088 76.888 99.8847 76.3922 99.6837 75.8937C99.5738 75.6203 99.4585 75.3523 99.3567 75.0762C99.1664 74.5536 99.0002 74.0176 98.8394 73.4788C98.7563 73.2055 98.6652 72.9348 98.5902 72.6587C98.4401 72.1012 98.3222 71.5304 98.2042 70.9568C98.1479 70.6834 98.0783 70.4154 98.03 70.1394C97.9228 69.531 97.8504 68.9145 97.7808 68.2954C97.754 68.0462 97.7084 67.7996 97.687 67.5503C97.6173 66.6793 97.5744 65.8029 97.5744 64.9211C97.5744 64.4012 97.6092 63.8946 97.636 63.3827ZM78.8133 38.9826C80.8717 40.9418 84.1736 44.7261 84.1736 48.8402C84.1736 51.9706 83.4178 54.9375 82.1179 57.02C82.075 57.0254 82.0295 57.0361 81.9866 57.0415C81.2737 57.1165 80.5742 57.2317 79.8773 57.3765C79.7996 57.3926 79.7272 57.3952 79.6495 57.414C79.3332 57.4783 79.017 57.548 78.7007 57.6284C78.6578 57.6391 78.6203 57.6552 78.5774 57.6659C78.2719 57.749 77.9717 57.8401 77.6689 57.9366C77.567 57.9688 77.4598 57.9956 77.358 58.0304C77.098 58.1162 76.838 58.2127 76.5486 58.3252C76.4172 58.1886 76.2832 58.0546 76.1546 57.8964C76.1251 57.8616 76.0956 57.8294 76.0688 57.7946C74.7127 56.0659 73.5548 53.0882 73.4825 49.2047C73.4825 49.1779 73.4717 49.1564 73.4691 49.1296C73.4637 49.0278 73.453 48.9393 73.453 48.8402C73.453 44.7261 76.7549 40.9418 78.8133 38.9826ZM75.4551 64.8487C75.6454 64.7255 75.8437 64.6183 76.0393 64.503C76.369 64.3047 76.6987 64.1117 77.0417 63.9402C77.3419 63.7901 77.6528 63.6614 77.9637 63.5301C78.3148 63.3827 78.6713 63.2407 79.0438 63.1147C79.0813 63.1013 79.1188 63.0932 79.1564 63.0798C79.4539 62.9834 79.7567 62.8922 80.0596 62.8118C80.282 62.7529 80.5125 62.7046 80.8395 62.6376C81.8124 62.4312 82.729 62.316 83.6456 62.2865C83.6671 62.2865 83.6885 62.2704 83.7099 62.2704C83.8654 62.2651 84.0182 62.241 84.1736 62.241C87.0199 62.241 89.7751 62.986 92.2221 64.4119C92.2168 64.5807 92.2141 64.7523 92.2141 64.9211C92.2141 65.9664 92.273 66.9982 92.3588 68.0221C92.3829 68.3115 92.4178 68.5983 92.4499 68.8877C92.533 69.6569 92.6429 70.4181 92.7742 71.1712C92.8225 71.4446 92.8654 71.718 92.9216 71.9887C93.1173 72.9696 93.3424 73.9398 93.6212 74.8859C93.6212 74.8913 93.6238 74.8967 93.6238 74.8993C93.9026 75.8454 94.2296 76.7647 94.586 77.6706C94.6986 77.9547 94.8192 78.2281 94.9398 78.5068C95.2024 79.1206 95.4812 79.7236 95.7787 80.3132C95.9341 80.6241 96.0896 80.9324 96.2558 81.2352C96.5961 81.857 96.9633 82.4627 97.3439 83.055C97.4752 83.2614 97.5931 83.4758 97.7298 83.6768C97.7298 83.6768 97.7298 83.6768 97.7298 83.6795H78.5292C78.548 83.5857 78.5426 83.4865 78.5587 83.3901C78.7115 82.6075 78.8133 81.8115 78.8133 81.002C78.8133 80.1712 78.7141 79.3645 78.5667 78.5711C78.5292 78.3648 78.481 78.1638 78.4327 77.9601C78.2799 77.3088 78.087 76.6763 77.8431 76.0652C77.7922 75.9392 77.7546 75.8106 77.701 75.6873C77.3821 74.9476 76.9988 74.2454 76.5566 73.5807C76.503 73.5003 76.4414 73.4306 76.3851 73.3529C75.9911 72.7901 75.5542 72.2647 75.0772 71.7689C74.9432 71.6295 74.8091 71.4929 74.6698 71.3588C74.2008 70.9113 73.7022 70.4985 73.1689 70.1206C73.0483 70.0348 72.9411 69.9357 72.8178 69.8526C72.2925 69.5069 71.7404 69.196 71.1641 68.9253C71.1909 68.8931 71.2338 68.8797 71.2579 68.8449C72.4265 67.2555 73.8577 65.902 75.4551 64.8487ZM61.4512 50.2473C63.2228 50.2017 65.7931 50.3277 68.2026 51.1076C68.3795 53.0159 68.7895 54.8142 69.3738 56.4599C69.3926 56.5161 69.4167 56.5697 69.4354 56.626C69.7008 57.3524 70.0036 58.0412 70.3386 58.6951C70.3949 58.805 70.4512 58.9122 70.5075 59.0194C70.8264 59.6037 71.1695 60.1504 71.542 60.6623C71.601 60.7427 71.6466 60.8419 71.7055 60.9196C71.4429 61.1099 71.2017 61.3324 70.947 61.5334C70.0304 62.257 69.1594 63.037 68.3687 63.9053C67.0581 63.1442 65.7931 62.1632 64.6326 61.0054C61.7273 58.0974 61.3842 53.0855 61.4512 50.2473ZM57.6374 79.0536C57.6669 78.933 57.7124 78.8177 57.7473 78.6971C57.9215 78.1316 58.1439 77.5848 58.4388 77.0729C58.4602 77.0327 58.4816 76.9899 58.5058 76.9523C59.216 75.7677 60.2264 74.7546 61.4781 74.0444C61.4968 74.0336 61.5129 74.0149 61.5317 74.0042C62.6868 73.3609 63.9974 72.9616 65.4125 72.9616C65.8521 72.9616 66.2782 73.0232 66.699 73.0929C66.707 73.0956 66.7151 73.1009 66.7231 73.1036C67.1868 73.1814 67.6317 73.2993 68.0632 73.4494C68.0927 73.4601 68.1248 73.4681 68.157 73.4788C68.5188 73.6075 68.8592 73.7763 69.1915 73.9532C69.3121 74.0176 69.4354 74.0792 69.5507 74.1489C69.8107 74.3043 70.0545 74.4785 70.2931 74.6608C70.4646 74.7921 70.6335 74.9288 70.7943 75.0735C70.9738 75.237 71.1481 75.4059 71.3115 75.5855C71.4938 75.7838 71.6653 75.9955 71.8288 76.2126C71.9521 76.3788 72.0781 76.5423 72.188 76.7165C72.3514 76.9738 72.4935 77.2471 72.6275 77.5232C72.7079 77.6894 72.7963 77.8502 72.866 78.0244C72.992 78.3407 73.0858 78.673 73.1716 79.008C73.2118 79.1635 73.2681 79.3109 73.2975 79.4663C73.394 79.9621 73.453 80.4741 73.453 81.002C73.453 81.6078 73.3511 82.1974 73.2145 82.779C73.1689 82.9639 73.1206 83.1489 73.0617 83.3311C73.0242 83.4517 72.9545 83.5643 72.9116 83.6822H57.9054C57.8679 83.5804 57.8116 83.4839 57.7768 83.382C57.7071 83.173 57.6535 82.9639 57.6025 82.7549C57.4739 82.1813 57.3721 81.6024 57.3721 81.002C57.3721 80.3374 57.4739 79.6861 57.6374 79.0536ZM43.6389 70.4878H43.6416C44.6199 70.3538 45.6249 70.2814 46.6514 70.2814C49.7926 70.2814 52.856 70.9193 55.4665 72.0798C55.3887 72.1656 55.3351 72.2701 55.2574 72.3559C54.8313 72.8571 54.4266 73.3716 54.0755 73.9318C53.9629 74.1087 53.8798 74.3017 53.7753 74.4839C53.4805 75.0092 53.1937 75.5319 52.9686 76.0974C52.8426 76.4109 52.7702 76.7406 52.6684 77.0595C52.5237 77.5232 52.3602 77.9735 52.2664 78.4559C52.1055 79.2894 52.0117 80.139 52.0117 81.002C52.0117 81.7954 52.1109 82.5753 52.253 83.3472C52.2717 83.4571 52.2637 83.5723 52.2878 83.6822H41.2911C41.2911 81.6935 42.8322 80.5143 42.8992 80.466L39.683 76.1778C39.0559 76.6468 35.9308 79.2171 35.9308 83.6822H31.1869C31.1119 83.5 30.9993 83.3231 30.9404 83.1408C30.9082 83.039 30.876 82.9371 30.8492 82.8353C30.6777 82.2296 30.5705 81.6158 30.5705 81.002C30.5705 80.4499 30.6563 79.9353 30.7688 79.4422C30.7956 79.3296 30.8171 79.2144 30.8492 79.1018C30.9779 78.6408 31.1414 78.204 31.3397 77.7993C31.3853 77.7055 31.4442 77.617 31.4925 77.5259C31.522 77.4776 31.5622 77.4428 31.5916 77.3946L31.7471 77.0997C31.8329 76.9604 31.9133 76.8103 32.0017 76.679C32.1384 76.4779 32.2804 76.2823 32.4359 76.0866C32.5136 75.9875 32.5913 75.8937 32.6717 75.8025C32.7227 75.7436 32.7789 75.6873 32.8325 75.6283C33.3954 74.9958 34.0547 74.4142 34.7757 73.8782C34.8534 73.8219 34.9311 73.7629 35.0115 73.7067C35.6896 73.2216 36.4374 72.7874 37.228 72.3961C37.3486 72.3371 37.4665 72.2728 37.5898 72.2138C38.4314 71.8225 39.3239 71.4821 40.2593 71.2061C40.3209 71.1873 40.3799 71.1632 40.4442 71.1471C41.468 70.855 42.5347 70.6298 43.6389 70.4878ZM33.2507 48.8402C37.6086 48.8402 41.2911 54.9777 41.2911 62.241C41.2911 63.3318 41.2054 64.4172 41.0338 65.4866C40.9588 65.5027 40.8891 65.5268 40.8141 65.5429C40.0743 65.701 39.348 65.8833 38.6404 66.0977C38.5681 66.1191 38.493 66.1352 38.4207 66.1567C37.6649 66.3925 36.9332 66.6659 36.2229 66.9634C35.9898 67.0599 35.77 67.1698 35.5449 67.2716C35.0892 67.478 34.6443 67.6951 34.2128 67.9282C33.9287 68.081 33.6527 68.2338 33.3793 68.3973C33.0175 68.6117 32.6744 68.8368 32.3314 69.0673C32.1277 69.204 31.9052 69.3246 31.7069 69.4667C31.605 69.3166 31.4818 69.1745 31.3772 69.0244C30.9645 68.4294 30.5303 67.8452 30.072 67.2689C29.8817 67.0277 29.6968 66.7892 29.4984 66.5533C28.8472 65.7761 28.1691 65.0122 27.4428 64.2886C26.7379 63.5784 25.9901 62.8922 25.2102 62.2383C25.2129 54.9751 28.8927 48.8402 33.2507 48.8402ZM5.8139 69.0352C5.01522 66.1084 5.30467 63.6856 6.59919 62.391C7.89638 61.0939 10.3219 60.8098 13.2433 61.6058C15.7841 62.2999 18.5125 63.774 21.0452 65.7654C21.9645 66.4944 22.8463 67.2662 23.6557 68.073C24.5026 68.9226 25.2852 69.8204 26.0089 70.7424C26.2474 71.0453 26.4377 71.3615 26.6602 71.6697C27.0541 72.2192 27.4374 72.7686 27.7805 73.3288C27.7108 73.4252 27.6625 73.5271 27.5955 73.6263C27.5794 73.6477 27.5553 73.6584 27.5392 73.6825C27.3972 73.8916 27.2578 74.1355 27.097 74.433C27.0649 74.4866 27.03 74.5402 26.9979 74.5938C26.963 74.6554 26.9201 74.7144 26.8853 74.776C26.6977 75.1137 26.5369 75.4595 26.3814 75.8079C26.2715 76.0491 26.1643 76.2903 26.0705 76.5369C25.958 76.8317 25.8561 77.1265 25.765 77.424C25.6605 77.7671 25.58 78.1182 25.505 78.4693C25.4568 78.7025 25.3978 78.933 25.363 79.1661C25.2692 79.7719 25.2102 80.3803 25.2102 81.002C25.2102 81.8249 25.3201 82.6316 25.4809 83.4303C25.497 83.5134 25.4889 83.5991 25.5077 83.6822H17.7299C15.7492 82.5056 13.9187 81.0824 12.2838 79.4449C9.11049 76.2716 6.75464 72.4765 5.8139 69.0352ZM97.5744 145.326H65.4125C33.7974 145.326 7.91783 120.315 6.50806 89.0425H17.0116H29.4609H29.4877H56.1579H56.1794H74.6483H74.6591H101.053H103.514H129.163H135.126H153.909H156.482C155.069 120.315 129.19 145.326 97.5744 145.326ZM152.962 83.6822H136.067C135.82 83.4678 135.587 83.2453 135.365 83.0148C135.625 82.6075 135.86 82.1813 136.102 81.7579C136.469 81.1146 136.812 80.458 137.136 79.7853C137.313 79.4181 137.49 79.0509 137.651 78.6757C137.857 78.1986 138.053 77.7162 138.238 77.2257C138.393 76.8156 138.53 76.4002 138.669 75.9821C138.87 75.3737 139.061 74.7626 139.229 74.1382C139.409 73.4735 139.575 72.8035 139.714 72.1227C139.795 71.7314 139.859 71.3347 139.926 70.9381C140.036 70.2921 140.127 69.6435 140.202 68.9896C140.24 68.668 140.28 68.349 140.309 68.0247C140.39 67.1108 140.443 66.1915 140.452 65.2669C141.333 65.039 142.231 64.9211 143.137 64.9211C149.216 64.9211 156.64 69.8687 156.64 75.6417C156.64 78.7561 155.31 81.6399 152.962 83.6822Z" fill="black"/>
<path d="M13.7031 65.7068L9.91284 69.4971L15.2723 74.8565L19.0626 71.0662L13.7031 65.7068Z" fill="black"/>
<path d="M119.016 51.52V56.8803C121.972 56.8803 124.376 59.2844 124.376 62.2406H129.736C129.736 56.3282 124.928 51.52 119.016 51.52Z" fill="black"/>
<path d="M97.5745 118.524C90.0245 118.524 84.5194 121.274 81.4935 126.315C78.4676 121.274 72.9626 118.524 65.4126 118.524C63.9305 118.524 62.7324 119.725 62.7324 121.204C62.7324 132.951 69.7464 139.965 81.4935 139.965C93.2406 139.965 100.255 132.951 100.255 121.204C100.255 119.725 99.0566 118.524 97.5745 118.524ZM68.275 124.058C74.3723 124.849 77.8458 128.325 78.6365 134.423C72.6195 133.608 69.0898 130.078 68.275 124.058ZM84.3479 134.423C85.1385 128.325 88.612 124.849 94.7094 124.058C93.8973 130.078 90.3675 133.608 84.3479 134.423Z" fill="black"/>
<path d="M81.4935 94.4028C76.9828 94.4028 73.453 99.1119 73.453 105.123C73.453 111.135 76.9828 115.844 81.4935 115.844C86.0042 115.844 89.5339 111.135 89.5339 105.123C89.5339 99.1119 86.0042 94.4028 81.4935 94.4028ZM81.4935 110.484C80.4 110.484 78.8133 108.396 78.8133 105.123C78.8133 101.851 80.4 99.7631 81.4935 99.7631C82.587 99.7631 84.1736 101.851 84.1736 105.123C84.1736 108.396 82.587 110.484 81.4935 110.484Z" fill="black"/>
</g>
<defs>
<clipPath id="clip0">
<rect width="162" height="162" fill="white"/>
</clipPath>
</defs>
</svg>
