<svg width="162" height="162" viewBox="0 0 162 162" fill="none" xmlns="http://www.w3.org/2000/svg">
<path d="M113.514 138.001H113.33C104.772 138.001 97.8081 131.037 97.8081 122.477C97.8081 113.919 104.772 106.955 113.33 106.955H113.514C122.073 106.955 129.037 113.919 129.037 122.477C129.037 131.037 122.073 138.001 113.514 138.001ZM113.33 112.346C107.744 112.346 103.199 116.891 103.199 122.477C103.199 128.065 107.744 132.61 113.33 132.61H113.515C119.101 132.61 123.646 128.065 123.646 122.477C123.646 116.891 119.101 112.346 113.515 112.346H113.33Z" fill="black"/>
<path d="M89.1348 125.172C88.9589 125.172 88.781 125.155 88.6062 125.119C88.4367 125.084 88.2662 125.032 88.1019 124.965C87.9398 124.898 87.784 124.814 87.6387 124.718C87.4902 124.621 87.3523 124.507 87.2291 124.383C87.1049 124.26 86.9912 124.122 86.8922 123.973C86.7943 123.828 86.7111 123.672 86.6437 123.507C86.5763 123.346 86.5247 123.176 86.49 123.004C86.4552 122.831 86.4395 122.653 86.4395 122.478C86.4395 122.302 86.4552 122.124 86.49 121.95C86.5247 121.779 86.5763 121.61 86.6437 121.445C86.7111 121.283 86.7943 121.127 86.8922 120.982C86.9912 120.834 87.1049 120.696 87.2291 120.572C87.3523 120.448 87.4902 120.335 87.6387 120.236C87.784 120.138 87.9398 120.054 88.1019 119.987C88.2662 119.92 88.4367 119.868 88.6062 119.833C88.9568 119.764 89.3127 119.764 89.6601 119.833C89.8328 119.868 90.0023 119.92 90.1634 119.987C90.3287 120.054 90.4845 120.138 90.6298 120.236C90.7783 120.335 90.9162 120.448 91.0394 120.572C91.1636 120.696 91.2773 120.834 91.3742 120.982C91.4711 121.127 91.5542 121.283 91.6216 121.445C91.689 121.61 91.7406 121.779 91.7753 121.95C91.8111 122.124 91.829 122.302 91.829 122.478C91.829 122.653 91.8111 122.831 91.7753 123.004C91.7406 123.176 91.689 123.346 91.6216 123.507C91.5542 123.672 91.4711 123.828 91.3742 123.973C91.2773 124.122 91.1636 124.26 91.0394 124.383C90.9162 124.507 90.7783 124.621 90.6298 124.718C90.4845 124.814 90.3287 124.898 90.1634 124.965C90.0023 125.032 89.8328 125.084 89.6601 125.119C89.4875 125.155 89.3095 125.172 89.1348 125.172V125.172Z" fill="black"/>
<path d="M24.6013 112.346H24.4181C15.8584 112.346 8.89478 105.382 8.89478 96.8236C8.89478 88.2639 15.8584 81.3003 24.4181 81.3003H24.6013C33.16 81.3003 40.1235 88.2639 40.1235 96.8236C40.1235 105.382 33.16 112.346 24.6013 112.346V112.346ZM24.4181 86.6909C18.8306 86.6909 14.2854 91.2361 14.2854 96.8236C14.2854 102.41 18.8306 106.955 24.4181 106.955H24.6013C30.1888 106.955 34.7329 102.41 34.7329 96.8236C34.7329 91.2361 30.1888 86.6909 24.6013 86.6909H24.4181Z" fill="black"/>
<path d="M48.7968 99.5199C48.622 99.5199 48.4441 99.5009 48.2714 99.4662C48.0988 99.4314 47.9292 99.3798 47.7671 99.3124C47.6029 99.2451 47.447 99.1619 47.3017 99.064C47.1522 98.965 47.0154 98.8545 46.8911 98.7302C46.7679 98.6039 46.6542 98.466 46.5574 98.3207C46.4605 98.1722 46.3763 98.0164 46.3089 97.8542C46.2415 97.6921 46.1889 97.5226 46.1562 97.3499C46.1215 97.1752 46.1025 96.9993 46.1025 96.8214C46.1025 96.6466 46.1215 96.4718 46.1562 96.296C46.191 96.1234 46.2415 95.9538 46.3089 95.7928C46.3763 95.6306 46.4605 95.4737 46.5574 95.3263C46.6542 95.18 46.7679 95.04 46.8911 94.9168C47.0154 94.7925 47.1533 94.6788 47.3017 94.582C47.447 94.4851 47.6029 94.4019 47.7671 94.3346C47.9292 94.2672 48.0988 94.2156 48.2714 94.1808C48.6189 94.1103 48.9779 94.1103 49.3222 94.1808C49.4948 94.2156 49.6654 94.2672 49.8297 94.3346C49.9907 94.4019 50.1476 94.4851 50.2929 94.582C50.4414 94.6788 50.5793 94.7925 50.7025 94.9168C50.8267 95.04 50.9394 95.18 51.0394 95.3263C51.1362 95.4737 51.2173 95.6306 51.2847 95.7928C51.3521 95.9538 51.4058 96.1234 51.4405 96.296C51.4732 96.4718 51.4921 96.6466 51.4921 96.8214C51.4921 96.9993 51.4732 97.1752 51.4405 97.3499C51.4058 97.5226 51.3521 97.6921 51.2847 97.8542C51.2173 98.0164 51.1362 98.1722 51.0394 98.3207C50.9394 98.466 50.8267 98.6039 50.7025 98.7302C50.5782 98.8545 50.4414 98.965 50.2929 99.064C50.1476 99.1619 49.9907 99.2451 49.8297 99.3124C49.6654 99.3798 49.4948 99.4314 49.3222 99.4662C49.1506 99.5009 48.9726 99.5199 48.7968 99.5199Z" fill="black"/>
<path d="M122.247 109.65C126.342 106.853 129.037 102.147 129.037 96.8225C129.037 88.2638 122.073 81.3003 113.515 81.3003H100.672C104.698 76.0286 106.991 69.6336 107.371 62.4963C107.716 56.036 106.464 49.0304 103.747 42.2384C101.129 35.6897 97.2143 29.4663 92.428 24.2441C91.173 22.8733 88.5609 20.0211 85.4381 20.8929C82.8155 21.6257 81.8174 24.4926 81.4036 26.2077C80.774 24.9674 80.0633 23.624 79.3021 22.1826C76.1183 16.1572 72.1564 8.65771 71.7669 3.92935C71.6342 2.29322 70.6045 0.902401 69.08 0.301223C67.5544 -0.299955 65.8551 0.0127415 64.6443 1.11402C56.6342 8.38397 51.51 18.0681 49.8339 28.8946C49.3622 28.0049 48.9126 27.0068 48.5315 25.9045C47.9282 24.162 46.4184 22.9375 44.5907 22.7091C42.785 22.4827 41.0404 23.286 40.0518 24.7874C39.8423 25.1022 39.6359 25.437 39.4412 25.7823C31.4553 39.9042 28.6536 55.9929 31.7553 69.9231C32.6755 74.0619 34.477 77.9132 37.0533 81.3003H24.418C24.418 81.3003 24.418 81.3003 24.417 81.3003C15.8583 81.3003 8.89478 88.2638 8.89478 96.8225C8.89478 102.146 11.589 106.852 15.6857 109.649C11.589 112.447 8.89478 117.153 8.89478 122.476C8.89478 131.036 15.8583 137.999 24.418 137.999H113.515C122.073 137.999 129.037 131.036 129.037 122.476C129.037 117.154 126.342 112.448 122.247 109.65V109.65ZM123.282 94.1282H59.0074C57.5197 94.1282 56.3131 95.3348 56.3131 96.8235C56.3131 98.3122 57.5197 99.5188 59.0074 99.5188H123.282C122.098 103.801 118.168 106.955 113.513 106.955H36.3521C38.701 104.235 40.1234 100.692 40.1234 96.8235C40.1234 92.9543 38.701 89.4125 36.3521 86.6909H113.515C118.168 86.6909 122.098 89.8452 123.282 94.1282V94.1282ZM55.6961 69.5789C56.4931 70.2506 57.6039 70.4022 58.5515 69.9695C59.499 69.5378 60.1128 68.5987 60.1276 67.5563C60.2308 60.4885 62.5944 54.2325 66.9953 49.2946C68.0303 52.7732 70.0918 56.6762 71.9637 60.2201C73.1735 62.5111 74.5453 65.1063 74.7338 66.0655C74.9475 67.1447 75.794 67.9859 76.8742 68.1912C77.9555 68.3965 79.0515 67.9259 79.6464 67.0004C80.1781 66.1718 81.1446 64.6673 81.6131 62.6648C86.5236 68.068 89.6106 74.7263 90.3171 81.3013H47.4713C47.6787 75.7623 49.2221 69.9768 51.9311 64.6094C53.5136 67.6785 55.435 69.3588 55.6961 69.5789V69.5789ZM43.8884 28.8735C46.2594 34.7758 50.0244 37.9975 50.1939 38.1407C50.9899 38.8114 52.1017 38.964 53.0493 38.5324C53.9968 38.1007 54.6106 37.1605 54.6264 36.1192C54.7959 24.5147 58.9673 14.3494 66.7226 6.57938C67.8597 12.0647 71.3826 18.7324 74.5359 24.7011C76.4542 28.3313 78.4377 32.0847 78.7536 33.685C78.9663 34.7642 79.8138 35.6044 80.894 35.8108C81.9732 36.0161 83.0713 35.5444 83.6651 34.6189C84.4495 33.3976 85.9098 31.1235 86.4973 28.1491C86.6605 27.3311 86.8321 26.7899 86.9721 26.4425C87.2912 26.6962 87.7639 27.1331 88.4525 27.8849C97.4101 37.6575 102.596 50.8097 101.989 62.21C101.639 68.7534 99.4021 74.541 95.4687 79.1619C94.3421 71.932 90.8393 64.7557 85.4897 58.9166C84.599 57.9427 82.5102 55.6623 79.8801 56.3982C78.5725 56.7636 77.7586 57.7006 77.2448 58.6797C77.0795 58.3649 76.9079 58.0396 76.73 57.7027C74.7243 53.9051 71.9774 48.705 71.729 45.6728C71.6068 44.2367 70.6993 43.0165 69.36 42.489C68.0198 41.9605 66.5247 42.2342 65.4529 43.2049C60.574 47.6353 57.2343 53.3502 55.6972 59.7537C55.0728 58.5755 53.921 57.7701 52.566 57.6016C51.0141 57.41 49.5159 58.1007 48.6641 59.3946C48.5104 59.6252 48.3641 59.8653 48.2209 60.119C44.8349 66.1055 42.764 72.7016 42.2081 79.1251C39.6201 76.1055 37.8787 72.6311 37.0164 68.7534C34.2338 56.2498 36.7374 41.7446 43.8884 28.8735V28.8735ZM14.2854 96.8235C14.2854 91.236 18.8305 86.6909 24.418 86.6909H24.6012C30.1887 86.6909 34.7328 91.236 34.7328 96.8235C34.7328 102.41 30.1887 106.955 24.6012 106.955H24.418C18.8305 106.955 14.2854 102.41 14.2854 96.8235ZM14.6497 125.173H78.9241C80.4118 125.173 81.6194 123.966 81.6194 122.477C81.6194 120.989 80.4118 119.782 78.9241 119.782H14.6497C15.8331 115.5 19.7634 112.346 24.418 112.346H101.58C99.2305 115.066 97.8081 118.609 97.8081 122.477C97.8081 126.347 99.2305 129.888 101.58 132.61H24.418C19.7634 132.61 15.8331 129.456 14.6497 125.173V125.173ZM113.513 132.61H113.33C107.744 132.61 103.199 128.065 103.199 122.477C103.199 116.891 107.744 112.346 113.33 112.346H113.513C119.101 112.346 123.646 116.891 123.646 122.477C123.646 128.065 119.101 132.61 113.513 132.61V132.61Z" fill="black"/>
</svg>
