<svg width="162" height="162" viewBox="0 0 162 162" fill="none" xmlns="http://www.w3.org/2000/svg">
<g clip-path="url(#clip0)">
<path d="M4.19233 40.7845C3.27739 41.242 2.69995 42.1767 2.69995 43.1998C2.69995 44.2228 3.27739 45.1575 4.19233 45.615L17.4985 52.2688L9.7189 62.639C7.87847 65.0938 7.58315 68.3778 8.95557 71.1213C10.328 73.8661 13.1321 75.5998 16.2 75.5998H18.9V94.4998C18.921 113.876 34.624 129.579 53.9999 129.6H69.1083L63.5014 145.8H51.2999C46.8281 145.805 43.2052 149.428 43.1999 153.9V159.3C43.1999 160.791 44.4089 162 45.8999 162H118.8C120.291 162 121.5 160.791 121.5 159.3V153.9C121.495 149.428 117.872 145.805 113.4 145.8H109.715L115.322 129.6H118.8C123.272 129.594 126.895 125.972 126.9 121.5V108H129.136C136.197 108.074 142.184 102.827 143.038 95.8168C143.357 92.4589 142.417 89.1024 140.4 86.3998H145.8C149.61 86.3998 153.242 84.79 155.801 81.9674C158.36 79.1461 159.608 75.3743 159.237 71.5827C158.384 64.573 152.397 59.3259 145.336 59.3998H56.6999V35.0998C56.6999 32.0834 55.9722 29.1118 54.5787 26.4368C59.6504 24.8324 62.7908 19.7659 61.9721 14.5109C61.152 9.25464 56.6195 5.38394 51.2999 5.39976C49.9961 5.39976 48.7041 5.6397 47.4873 6.1064C45.7035 2.37544 41.9356 -0.000244141 37.7999 -0.000244141C33.6643 -0.000244141 29.8964 2.37544 28.1126 6.1064C26.8958 5.6397 25.6038 5.39976 24.2999 5.39976C18.9804 5.38394 14.4479 9.25464 13.6278 14.5109C12.8091 19.7659 15.9495 24.8324 21.0212 26.4368C19.8979 28.5989 19.2058 30.9601 18.987 33.3872L4.19233 40.7845ZM24.2999 59.3998L29.1594 65.8795C29.7738 66.6969 29.8727 67.7924 29.4152 68.7074C28.9577 69.6223 28.023 70.1998 26.9999 70.1998H24.2999V59.3998ZM18.9 39.4688V46.9307L11.4367 43.1998L18.9 39.4688ZM13.7847 68.7074C13.3154 67.7951 13.4156 66.6942 14.0392 65.8795L18.9 59.3998V70.1998H16.2C15.1743 70.2116 14.233 69.6302 13.7847 68.7074ZM48.5999 153.9C48.6013 152.41 49.8102 151.201 51.2999 151.2H65.4235C66.5745 151.2 67.5988 150.471 67.9746 149.383L74.8221 129.6H79.9083L73.6725 147.616C73.4049 148.39 73.5024 149.243 73.9375 149.937C73.8834 150.033 73.8623 150.146 73.8123 150.244C73.6132 150.637 73.4471 151.046 73.3152 151.465C73.2572 151.647 73.1913 151.819 73.1465 152.007C72.9896 152.625 72.9065 153.262 72.8999 153.9V156.6H48.5999V153.9ZM98.8083 129.6L93.2014 145.8H80.0151L85.6221 129.6H98.8083ZM103.725 150.066C104.231 150.778 105.051 151.2 105.924 151.2H113.4C114.89 151.201 116.099 152.41 116.1 153.9V156.6H78.2999V153.9C78.3013 152.41 79.5102 151.201 80.9999 151.2H95.1235C96.2745 151.2 97.2988 150.471 97.6746 149.383L104.522 129.6H109.608L103.373 147.616C103.086 148.442 103.217 149.354 103.725 150.066V150.066ZM145.336 64.7998C149.621 64.7075 153.291 67.8478 153.86 72.0956C154.087 74.3724 153.341 76.6386 151.805 78.3354C150.269 80.0321 148.089 80.9998 145.8 80.9998H124.2C122.709 80.9998 121.5 82.2087 121.5 83.6998C121.5 85.1908 122.709 86.3998 124.2 86.3998H129.6C131.889 86.3998 134.069 87.3674 135.605 89.0642C137.141 90.7609 137.888 93.0272 137.662 95.304C137.091 99.5517 133.421 102.692 129.136 102.6H124.2C122.709 102.6 121.5 103.809 121.5 105.3V121.5C121.499 122.99 120.29 124.198 118.8 124.2H53.9999C37.6048 124.181 24.3184 110.895 24.2999 94.4998V75.5998H26.9999C30.0678 75.5998 32.8732 73.8661 34.2443 71.1213C35.6167 68.3778 35.3201 65.0938 33.4797 62.639L24.2999 50.4006V35.0998C24.3052 31.6443 25.6434 28.3234 28.0349 25.8291C28.4923 25.3637 28.9814 24.9313 29.4996 24.5344C29.7105 24.3683 29.899 24.1758 30.1192 24.0229C30.5885 23.7144 31.0776 23.4349 31.5826 23.1884C31.8897 23.0275 32.1745 22.8298 32.4949 22.6927C32.9603 22.5134 33.4362 22.3618 33.92 22.2365C34.3037 22.1205 34.6675 21.9623 35.0644 21.8806C36.8692 21.5062 38.7307 21.5062 40.5355 21.8806C40.9324 21.9623 41.2962 22.1205 41.6799 22.2365C42.1637 22.3618 42.6396 22.5134 43.105 22.6927C43.4254 22.8311 43.7102 23.0275 44.0173 23.1884C44.5223 23.4349 45.0114 23.7144 45.4807 24.0229C45.7009 24.1758 45.8894 24.3683 46.1003 24.5344C46.6185 24.9313 47.1076 25.3637 47.565 25.8291C49.9565 28.3234 51.2947 31.6443 51.2999 35.0998V62.0998C51.2999 63.5908 52.5089 64.7998 53.9999 64.7998H145.336ZM18.9 16.1998C18.8894 14.0574 20.1524 12.1128 22.1141 11.252C24.0758 10.3911 26.3619 10.7787 27.9307 12.2381C28.6954 12.9395 29.7936 13.1398 30.7573 12.7549C31.721 12.3699 32.3775 11.4668 32.4487 10.4319C32.6228 7.60405 34.9668 5.39976 37.7999 5.39976C40.6331 5.39976 42.9771 7.60405 43.1512 10.4319C43.2224 11.4668 43.8789 12.3699 44.8426 12.7549C45.8063 13.1398 46.9045 12.9395 47.6692 12.2381C49.474 10.5822 52.1701 10.3528 54.2293 11.6791C56.2886 13.0054 57.1943 15.5551 56.4336 17.8833C55.6716 20.2115 53.4357 21.7342 50.9901 21.5879L50.944 21.547C50.5195 21.1357 50.0778 20.7441 49.6164 20.3724L49.5953 20.3565C47.2249 18.4515 44.4287 17.149 41.4452 16.5597C41.4004 16.5518 41.3529 16.5478 41.3081 16.5399C40.7636 16.4371 40.2152 16.3487 39.6562 16.2934C39.0418 16.2327 38.4222 16.2011 37.7999 16.1998C37.1777 16.1998 36.5594 16.2314 35.9437 16.2934C35.3847 16.3487 34.8363 16.4371 34.2918 16.5386C34.247 16.5478 34.1995 16.5504 34.1547 16.5597C31.1712 17.149 28.375 18.4515 26.0046 20.3565L25.9822 20.3724C25.5221 20.7428 25.0791 21.1344 24.6559 21.547L24.6098 21.5879C23.12 21.7026 21.65 21.1818 20.5637 20.1562C19.4761 19.1305 18.8723 17.6935 18.9 16.1998Z" fill="black"/>
<path d="M51.3 72.8997C51.3 74.3908 52.509 75.5997 54 75.5997H110.7V89.0997C110.688 99.5332 102.234 107.988 91.8 108H64.8C63.309 108 62.1 109.209 62.1 110.7C62.1 112.191 63.309 113.4 64.8 113.4H91.8C105.214 113.384 116.084 102.514 116.1 89.0997V72.8997C116.1 71.4086 114.891 70.1997 113.4 70.1997H54C52.509 70.1997 51.3 71.4086 51.3 72.8997Z" fill="black"/>
<path d="M33 35H38.4016V40.4016H33V35Z" fill="black"/>
</g>
<defs>
<clipPath id="clip0">
<rect width="162" height="162" fill="white"/>
</clipPath>
</defs>
</svg>
