<svg width="163" height="163" viewBox="0 0 163 163" fill="none" xmlns="http://www.w3.org/2000/svg">
<g clip-path="url(#clip0)">
<path d="M137.741 32.7473H42.9227C41.7359 25.8094 37.2613 19.8763 30.9168 16.8274C30.0794 16.4093 29.0851 16.4542 28.2899 16.946C27.4933 17.4379 27.008 18.307 27.008 19.2433V32.7473H16.2048V19.2433C16.2048 18.307 15.7195 17.4379 14.923 16.946C14.1278 16.4542 13.1335 16.4093 12.296 16.8274C5.08906 20.3062 0.369251 27.4539 0 35.4481V94.8658C0 96.3573 1.2093 97.5666 2.7008 97.5666H40.5121C42.0036 97.5666 43.2129 96.3573 43.2129 94.8658V81.3618H54.0161V143.48C54.0161 144.972 55.2254 146.181 56.7169 146.181H72.9217C74.4132 146.181 75.6225 144.972 75.6225 143.48V108.37H81.0241V143.48C81.0241 144.972 82.2334 146.181 83.7249 146.181H99.9297C101.421 146.181 102.631 144.972 102.631 143.48V108.37H118.835V143.48C118.835 144.972 120.045 146.181 121.536 146.181H137.741C139.233 146.181 140.442 144.972 140.442 143.48V108.37H148.544C150.036 108.37 151.245 107.161 151.245 105.669V102.968L157.728 107.829C158.546 108.442 159.642 108.541 160.555 108.085C161.471 107.627 162.048 106.691 162.048 105.669V57.0546C162.034 43.6363 151.159 32.7618 137.741 32.7473ZM43.2129 38.1489H59.4177V45.1331L58.6264 44.3418C57.5714 43.2868 55.8623 43.2868 54.8073 44.3418L50.197 48.9522H43.2129V38.1489ZM32.4096 24.2875C34.9087 26.5268 36.6587 29.4795 37.4235 32.7473H32.4096V24.2875ZM10.8032 24.2928V32.7473H5.7946C6.56475 29.4847 8.31209 26.536 10.8032 24.2928ZM37.8113 92.165H29.7088V86.7634H24.3072V92.165H18.9056V86.7634H13.504V92.165H5.40161V38.1489H37.8113V92.165ZM135.04 140.779H124.237V105.669C124.237 104.178 123.028 102.967 121.536 102.968H99.9297C98.4382 102.967 97.2289 104.178 97.2289 105.669V140.779H86.4257V105.669C86.4257 104.178 85.2164 102.967 83.7249 102.968H72.9217C71.4302 102.967 70.2209 104.178 70.2209 105.669V140.779H59.4177V78.661C59.4177 77.1695 58.2084 75.9589 56.7169 75.9602H43.2129V54.3538H51.3153C52.0314 54.3538 52.7184 54.0689 53.2248 53.5625L56.7169 50.0705L60.2089 53.5625C60.9817 54.3353 62.1435 54.5661 63.1524 54.148C64.1612 53.73 64.8193 52.7449 64.8193 51.653V38.1489H135.04V140.779ZM156.647 100.267L150.164 95.4065C149.346 94.792 148.25 94.6931 147.336 95.1507C146.421 95.6083 145.843 96.5433 145.843 97.5666V102.968H140.442V38.3415C149.738 39.6958 156.635 47.6611 156.647 57.0546V100.267Z" fill="black"/>
<path d="M10.8032 48.9519H16.2048V54.3535H10.8032V48.9519Z" fill="black"/>
<path d="M27.0081 48.9519H32.4097V54.3535H27.0081V48.9519Z" fill="black"/>
</g>
<defs>
<clipPath id="clip0">
<rect width="162.048" height="162.048" fill="white"/>
</clipPath>
</defs>
</svg>
