<svg width="163" height="163" viewBox="0 0 163 163" fill="none" xmlns="http://www.w3.org/2000/svg">
<g clip-path="url(#clip0)">
<path d="M48.6145 59.4177C39.6654 59.4177 32.4097 66.6735 32.4097 75.6225C32.4097 84.5729 39.6654 91.8274 48.6145 91.8274C57.5635 91.8274 64.8193 84.5729 64.8193 75.6225C64.8101 66.6775 57.5596 59.427 48.6145 59.4177ZM48.6145 86.4258C42.6485 86.4258 37.8113 81.5886 37.8113 75.6225C37.8113 69.6565 42.6485 64.8193 48.6145 64.8193C54.5805 64.8193 59.4177 69.6565 59.4177 75.6225C59.4111 81.5859 54.5779 86.4192 48.6145 86.4258Z" fill="black"/>
<path d="M40.5122 72.9216H45.9138V78.3232H40.5122V72.9216Z" fill="black"/>
<path d="M51.3153 72.9216H56.7169V78.3232H51.3153V72.9216Z" fill="black"/>
<path d="M27.0081 51.3154H32.4097V56.717H27.0081V51.3154Z" fill="black"/>
<path d="M64.8193 51.3154H70.2209V56.717H64.8193V51.3154Z" fill="black"/>
<path d="M159.347 43.213H142.924C136.799 36.3449 128.036 32.415 118.835 32.4097H97.2289V8.10251C97.2289 7.10685 96.6803 6.19164 95.8021 5.72084C94.9238 5.25137 93.8582 5.3028 93.03 5.85536L61.3009 27.0081H30.6557L4.38749 5.99383C3.57646 5.345 2.46607 5.2184 1.53107 5.66809C0.594757 6.11779 0 7.06465 0 8.10251V51.3154C0 52.8069 1.2093 54.0162 2.7008 54.0162H10.8032V153.946C10.8032 155.437 12.0125 156.647 13.504 156.647H35.1105C36.602 156.647 37.8113 155.437 37.8113 153.946V124.237H59.4177V153.946C59.4177 155.437 60.627 156.647 62.1185 156.647H83.7249C85.2164 156.647 86.4257 155.437 86.4257 153.946V124.237H124.237V153.946C124.237 155.437 125.446 156.647 126.938 156.647H148.544C150.036 156.647 151.245 155.437 151.245 153.946V64.8194C151.234 63.0087 151.071 61.202 150.757 59.4178H159.347C160.839 59.4178 162.048 58.2085 162.048 56.717V45.9138C162.048 44.4223 160.839 43.213 159.347 43.213ZM145.843 151.245H129.639V121.536C129.639 120.045 128.429 118.835 126.938 118.835H83.7249C82.2334 118.835 81.0241 120.045 81.0241 121.536V151.245H64.8193V121.536C64.8193 120.045 63.61 118.835 62.1185 118.835H35.1105C33.6189 118.835 32.4096 120.045 32.4096 121.536V151.245H16.2048V51.3154C16.2048 49.8239 14.9955 48.6146 13.504 48.6146H5.40161V13.7217L28.0222 31.8176C28.5009 32.2014 29.0956 32.4097 29.7088 32.4097H62.1185C62.6513 32.4097 63.1735 32.2515 63.6166 31.9561L91.8273 13.1494V48.6146H83.7249C82.2334 48.6146 81.0241 49.8239 81.0241 51.3154V89.1266C81.0241 90.6181 82.2334 91.8274 83.7249 91.8274C85.2164 91.8274 86.4257 90.6181 86.4257 89.1266V54.0162H94.5281C96.0196 54.0162 97.2289 52.8069 97.2289 51.3154V37.8114H118.835C133.745 37.8285 145.826 49.9096 145.843 64.8194V151.245ZM156.647 54.0162H149.354C148.691 52.1422 147.856 50.3342 146.86 48.6146H156.647V54.0162Z" fill="black"/>
</g>
<defs>
<clipPath id="clip0">
<rect width="162.048" height="162.048" fill="white"/>
</clipPath>
</defs>
</svg>
