<svg width="163" height="163" viewBox="0 0 163 163" fill="none" xmlns="http://www.w3.org/2000/svg">
<g clip-path="url(#clip0)">
<path d="M54.0161 16.2048C52.5246 16.2048 51.3153 17.4141 51.3153 18.9056C51.3153 20.3971 52.5246 21.6064 54.0161 21.6064V45.9137C54.0161 47.4052 55.2254 48.6145 56.7169 48.6145C58.2084 48.6145 59.4177 47.4052 59.4177 45.9137V21.6064C59.4138 18.6247 56.9978 16.2088 54.0161 16.2048Z" fill="black"/>
<path d="M16.2048 16.2048C14.7133 16.2048 13.504 17.4141 13.504 18.9056C13.504 20.3971 14.7133 21.6064 16.2048 21.6064V45.9137C16.2048 47.4052 17.4141 48.6145 18.9056 48.6145C20.3971 48.6145 21.6064 47.4052 21.6064 45.9137V21.6064C21.6025 18.6247 19.1865 16.2088 16.2048 16.2048Z" fill="black"/>
<path d="M145.843 70.2209C141.824 70.2222 137.949 71.7256 134.98 74.4356C134.347 62.9941 124.894 54.0345 113.434 54.0161H70.2209V21.6064C70.2209 12.6574 62.9651 5.40161 54.0161 5.40161C45.067 5.40161 37.8113 12.6574 37.8113 21.6064V54.0161H32.4096V21.6064C32.4096 12.6574 25.1539 5.40161 16.2048 5.40161C7.25577 5.40161 0 12.6574 0 21.6064V153.946C0 155.437 1.2093 156.647 2.7008 156.647H132.339C133.831 156.647 135.04 155.437 135.04 153.946V98.4699C140.417 103.293 148.336 103.973 154.456 100.137C160.575 96.3005 163.414 88.876 161.417 81.9354C159.419 74.9948 153.066 70.2156 145.843 70.2209ZM5.40161 59.4177H64.8193V118.835H5.40161V59.4177ZM43.2129 21.6064C43.2129 15.6404 48.05 10.8032 54.0161 10.8032C59.9821 10.8032 64.8193 15.6404 64.8193 21.6064V54.0161H43.2129V21.6064ZM5.40161 21.6064C5.40161 15.6404 10.2388 10.8032 16.2048 10.8032C22.1709 10.8032 27.008 15.6404 27.008 21.6064V54.0161H5.40161V21.6064ZM129.639 151.245H97.2289V148.544C97.2289 147.053 96.0196 145.843 94.5281 145.843C93.0366 145.843 91.8273 147.053 91.8273 148.544V151.245H86.4257V148.544C86.4257 147.053 85.2164 145.843 83.7249 145.843C82.2334 145.843 81.0241 147.053 81.0241 148.544V151.245H75.6225V132.339C75.6278 127.866 79.2517 124.242 83.7249 124.237H99.9297C101.421 124.237 102.631 123.028 102.631 121.536V110.733C102.636 106.26 106.26 102.636 110.733 102.631H121.536C123.028 102.631 124.237 101.421 124.237 99.9297C124.237 98.4382 123.028 97.2289 121.536 97.2289H110.733C103.278 97.2382 97.2382 103.278 97.2289 110.733V118.835H83.7249C76.27 118.845 70.2301 124.884 70.2209 132.339V151.245H54.0161V148.544C54.0161 147.053 52.8068 145.843 51.3153 145.843C49.8238 145.843 48.6145 147.053 48.6145 148.544V151.245H43.2129V140.442C43.2168 137.46 45.6328 135.044 48.6145 135.04H56.7169C58.2084 135.04 59.4177 133.831 59.4177 132.339C59.4177 130.848 58.2084 129.639 56.7169 129.639H48.6145C42.6511 129.645 37.8178 134.478 37.8113 140.442V151.245H32.4096V140.442C32.4031 134.478 27.5698 129.645 21.6064 129.639H13.504C12.0125 129.639 10.8032 130.848 10.8032 132.339C10.8032 133.831 12.0125 135.04 13.504 135.04H21.6064C24.5881 135.044 27.0041 137.46 27.008 140.442V151.245H21.6064V148.544C21.6064 147.053 20.3971 145.843 18.9056 145.843C17.4141 145.843 16.2048 147.053 16.2048 148.544V151.245H5.40161V124.237H67.5201C69.0116 124.237 70.2209 123.028 70.2209 121.536V59.4177H113.434C122.379 59.4269 129.629 66.6774 129.639 75.6225V151.245ZM145.843 97.2289C139.877 97.2289 135.04 92.3918 135.04 86.4257C135.04 80.4597 139.877 75.6225 145.843 75.6225C151.809 75.6225 156.647 80.4597 156.647 86.4257C156.64 92.3891 151.807 97.2223 145.843 97.2289Z" fill="black"/>
<path d="M47.8232 107.241C48.8611 106.183 48.8532 104.488 47.8061 103.439C46.7577 102.392 45.0617 102.384 44.0041 103.422L35.1104 112.316L26.2168 103.422C25.1605 102.379 23.4593 102.384 22.4095 103.434C21.3598 104.484 21.3545 106.185 22.3977 107.241L33.2009 118.044C34.2559 119.099 35.965 119.099 37.02 118.044L47.8232 107.241Z" fill="black"/>
<path d="M23.5161 85.6345C24.5711 84.5795 24.5711 82.8704 23.5161 81.8154L15.4137 73.713C14.3574 72.6699 12.6562 72.6751 11.6064 73.7249C10.5567 74.7746 10.5514 76.4758 11.5946 77.5321L19.697 85.6345C20.752 86.6895 22.4611 86.6895 23.5161 85.6345Z" fill="black"/>
<path d="M48.6145 86.426C49.3305 86.4273 50.0176 86.1425 50.524 85.6348L58.6264 77.5324C59.6643 76.4747 59.6564 74.7788 58.6093 73.7304C57.5609 72.6833 55.865 72.6754 54.8073 73.7133L46.7049 81.8157C45.9334 82.5885 45.7013 83.7503 46.1194 84.7591C46.5374 85.768 47.5225 86.426 48.6145 86.426Z" fill="black"/>
</g>
<defs>
<clipPath id="clip0">
<rect width="162.048" height="162.048" fill="white"/>
</clipPath>
</defs>
</svg>
