<svg width="162" height="162" viewBox="0 0 162 162" fill="none" xmlns="http://www.w3.org/2000/svg">
<g clip-path="url(#clip0)">
<path d="M159.3 51.2989H116.1V43.1989C116.116 33.6078 110.48 24.9093 101.721 21.003C92.9615 17.098 82.7244 18.7182 75.6 25.1387C68.4756 18.7182 58.2385 17.098 49.4793 21.003C40.7202 24.9093 35.0842 33.6078 35.1 43.1989V51.2989H2.7C1.20894 51.2989 0 52.5078 0 53.9989V140.399C0 141.89 1.20894 143.099 2.7 143.099H159.3C160.791 143.099 162 141.89 162 140.399V53.9989C162 52.5078 160.791 51.2989 159.3 51.2989V51.2989ZM156.6 56.6989V120.804C155.06 119.85 153.73 118.589 152.694 117.103C150.391 114.249 147.528 110.699 141.882 110.699C136.237 110.699 133.372 114.249 131.082 117.103C128.812 119.912 127.389 121.499 124.47 121.499C121.551 121.499 120.129 119.912 117.865 117.106C117.326 116.428 116.739 115.713 116.103 115.014V56.6989H156.6ZM110.7 83.6989H83.7V72.8989H110.7V83.6989ZM83.7 89.0989H110.7V99.8989H83.7V89.0989ZM110.7 67.4989H83.7V56.6989H110.7V67.4989ZM83.7 105.299H110.7V111.271C109.525 110.885 108.297 110.691 107.06 110.699C101.42 110.699 98.5605 114.252 96.26 117.106C94.003 119.912 92.5831 121.499 89.6695 121.499C87.042 121.499 85.6195 120.149 83.7 117.851V105.299ZM105.166 29.8175C108.713 33.3665 110.705 38.1799 110.7 43.1989V51.2989H83.7V43.1989C83.6987 38.164 82.1246 33.2545 79.1965 29.1583C86.6505 22.4347 98.0635 22.7261 105.166 29.8201V29.8175ZM72.9 43.1989C72.9013 39.7843 73.8347 36.4357 75.6 33.5142C77.3653 36.4357 78.2987 39.7843 78.3 43.1989V51.2989H72.9V43.1989ZM40.5 43.1989C40.4881 35.7396 44.873 28.9724 51.6876 25.9363C58.5009 22.9001 66.4638 24.1631 72.0035 29.1583C69.0754 33.2545 67.5013 38.164 67.5 43.1989V51.2989H40.5V43.1989ZM78.3 56.6989V112.438C76.507 111.276 74.4095 110.671 72.2738 110.699C66.6312 110.699 63.769 114.249 61.4738 117.106C59.2115 119.912 57.7797 121.499 54.8754 121.499C51.9697 121.499 50.5419 119.912 48.2836 117.106C45.9831 114.252 43.1249 110.699 37.4836 110.699C31.8437 110.699 28.9815 114.249 26.6836 117.106C24.4213 119.912 23.0041 121.499 20.0852 121.499C17.1664 121.499 15.7649 119.912 13.4974 117.106C11.5857 114.202 8.72095 112.054 5.39736 111.036V56.6989H78.3ZM5.4 137.699V116.795C6.93325 117.752 8.25557 119.008 9.28784 120.492C11.5884 123.346 14.4479 126.899 20.0852 126.899C25.7225 126.899 28.5899 123.346 30.8852 120.492C33.1449 117.686 34.5595 116.099 37.481 116.099C40.4024 116.099 41.8012 117.686 44.078 120.492C46.3746 123.349 49.2341 126.899 54.878 126.899C60.5206 126.899 63.3828 123.349 65.678 120.492C67.9377 117.686 69.3549 116.099 72.2738 116.099C75.1926 116.099 76.6072 117.686 78.8695 120.492C81.1674 123.349 84.027 126.899 89.6695 126.899C95.3121 126.899 98.169 123.346 100.47 120.492C102.727 117.686 104.148 116.099 107.06 116.099C109.974 116.099 111.399 117.686 113.662 120.492C115.96 123.349 118.821 126.899 124.462 126.899C130.102 126.899 132.972 123.349 135.262 120.492C137.538 117.686 138.963 116.099 141.882 116.099C144.801 116.099 146.225 117.686 148.489 120.494C150.401 123.397 153.266 125.542 156.589 126.561V137.699H5.4Z" fill="black"/>
</g>
<defs>
<clipPath id="clip0">
<rect width="162" height="162" fill="white"/>
</clipPath>
</defs>
</svg>
