<svg width="162" height="162" viewBox="0 0 162 162" fill="none" xmlns="http://www.w3.org/2000/svg">
<g clip-path="url(#clip0)">
<path d="M80.895 113.399C71.9478 113.399 64.694 120.653 64.694 129.6C64.694 138.548 71.9478 145.8 80.895 145.8C89.8421 145.8 97.0947 138.548 97.0947 129.6C97.0861 120.657 89.8384 113.409 80.895 113.399V113.399ZM80.895 140.4C74.9413 140.408 70.11 135.587 70.1025 129.635C70.0964 124.712 73.4273 120.41 78.1944 119.184V121.5C78.1944 122.99 79.4031 124.2 80.895 124.2C82.3855 124.2 83.5943 122.99 83.5943 121.5V119.184C89.3601 120.667 92.8306 126.543 91.3462 132.308C90.1189 137.076 85.8178 140.406 80.895 140.4Z" fill="black"/>
<path d="M88.9942 51.2997C90.486 51.2997 91.6948 50.091 91.6948 48.6004C91.6948 47.1086 90.486 45.8998 88.9942 45.8998H83.5943V40.4999C83.5943 39.0081 82.3855 37.7993 80.8949 37.7993C79.4031 37.7993 78.1944 39.0081 78.1944 40.4999V45.8998H72.7944C71.3026 45.8998 70.0939 47.1086 70.0939 48.6004C70.0939 50.091 71.3026 51.2997 72.7944 51.2997H78.1944V62.0996H72.7944C71.3026 62.0996 70.0939 63.3083 70.0939 64.8001C70.0939 66.2907 71.3026 67.4995 72.7944 67.4995H78.1944V78.3006H72.7944C71.3026 78.3006 70.0939 79.5093 70.0939 80.9999C70.0939 82.4917 71.3026 83.7005 72.7944 83.7005H78.1944V89.1004C78.1944 90.591 79.4031 91.7997 80.8949 91.7997C82.3855 91.7997 83.5943 90.591 83.5943 89.1004V83.7005H88.9942C90.486 83.7005 91.6948 82.4917 91.6948 80.9999C91.6948 79.5093 90.486 78.3006 88.9942 78.3006H83.5943V67.4995H88.9942C90.486 67.4995 91.6948 66.2907 91.6948 64.8001C91.6948 63.3083 90.486 62.0996 88.9942 62.0996H83.5943V51.2997H88.9942Z" fill="black"/>
<path d="M126.795 70.2002C131.268 70.2002 134.894 66.5739 134.894 62.0997V35.1001C134.894 30.6271 131.268 26.9996 126.795 26.9996H121.062L121.229 24.3002H121.395C122.886 24.3002 124.094 23.0915 124.094 21.5997V13.5004C124.094 10.518 121.677 8.10049 118.694 8.10049H88.9942V5.39992C88.9942 2.41754 86.5767 0 83.5943 0H78.1944C75.212 0 72.7944 2.41754 72.7944 5.39992V8.10049H43.0943C40.1119 8.10049 37.6944 10.518 37.6944 13.5004V21.5997H29.5951C28.1033 21.6009 26.8945 22.8097 26.8958 24.3002C26.8958 25.0171 27.18 25.7031 27.6855 26.2086L41.5444 40.0686L45.6218 105.3H43.0943C42.1636 105.3 41.2984 105.78 40.8053 106.57L27.3049 128.169C27.0367 128.598 26.8945 129.094 26.8945 129.599V148.5C26.8945 151.482 29.3121 153.9 32.2944 153.9H37.6944V159.299C37.6944 160.791 38.9031 162 40.3949 162H56.5947C58.0865 162 59.2953 160.791 59.2953 159.299V153.9H102.495V159.299C102.495 160.791 103.703 162 105.195 162H121.395C122.887 162 124.096 160.791 124.096 159.299V153.9H129.495C132.478 153.9 134.895 151.482 134.895 148.5V129.599C134.895 129.094 134.753 128.598 134.485 128.169L120.985 106.57C120.491 105.78 119.626 105.3 118.696 105.3H116.168L118.363 70.2002H126.795ZM126.795 32.3995C128.285 32.3995 129.494 33.6083 129.494 35.1001V62.0997C129.494 63.5915 128.285 64.8002 126.795 64.8002H118.694L120.72 32.4007H126.795V32.3995ZM78.1944 5.39992H83.5943V8.10049H78.1944V5.39992ZM43.0943 13.5004H118.694V18.9003H43.0943V13.5004ZM36.1123 26.9996H40.7262L41.0339 31.9224L36.1123 26.9996ZM53.8941 156.6H43.0943V153.9H53.8941V156.6ZM118.694 156.6H107.895V153.9H118.694V156.6ZM129.494 130.375V148.5H32.2944V130.375L44.5898 110.7H117.199L129.494 130.375ZM51.0304 105.3L45.9679 24.3002H115.822L110.759 105.3H51.0304Z" fill="black"/>
</g>
<defs>
<clipPath id="clip0">
<rect width="162" height="162" fill="white"/>
</clipPath>
</defs>
</svg>
