<svg width="162" height="162" viewBox="0 0 162 162" fill="none" xmlns="http://www.w3.org/2000/svg">
<path d="M146.024 23.4004H15.9759C11.985 23.4004 8.75049 26.6349 8.75049 30.6258V112.508C8.75049 116.498 11.985 119.733 15.9759 119.733H40.0587V124.549C33.4121 124.558 28.0244 129.945 28.0167 136.591C28.0167 137.922 29.0949 139 30.4256 139C31.7551 139 32.8333 137.922 32.8333 136.591C32.8333 132.601 36.0689 129.367 40.0587 129.367H121.941C125.931 129.367 129.167 132.601 129.167 136.591C129.167 137.922 130.245 139 131.574 139C132.905 139 133.983 137.922 133.983 136.591C133.975 129.945 128.588 124.558 121.941 124.549V119.733H146.024C150.015 119.733 153.249 116.498 153.249 112.508V30.6258C153.249 26.6349 150.015 23.4004 146.024 23.4004ZM117.125 124.549H44.8752V119.733H117.125V124.549ZM148.433 112.508C148.433 113.838 147.355 114.916 146.024 114.916H15.9759C14.6452 114.916 13.567 113.838 13.567 112.508V30.6258C13.567 29.2951 14.6452 28.2169 15.9759 28.2169H146.024C147.355 28.2169 148.433 29.2951 148.433 30.6258V112.508Z" fill="black"/>
<path d="M143.616 30.626H18.3836C17.054 30.626 15.9758 31.7042 15.9758 33.0337V110.1C15.9758 111.43 17.054 112.509 18.3836 112.509H143.616C144.946 112.509 146.024 111.43 146.024 110.1V33.0337C146.024 31.7042 144.946 30.626 143.616 30.626V30.626ZM141.207 107.692H20.7924V35.4425H141.207V107.692Z" fill="black"/>
<path d="M28.0167 59.5252C28.6561 59.5252 29.268 59.2717 29.72 58.8197L41.7608 46.7777C42.6847 45.8208 42.6582 44.2961 41.7024 43.3723C40.7686 42.4716 39.2892 42.4716 38.3554 43.3723L26.3145 55.4142C25.3742 56.3546 25.3742 57.8793 26.3145 58.8197C26.7665 59.2717 27.3784 59.5252 28.0167 59.5252Z" fill="black"/>
<path d="M28.0167 71.5673C28.6561 71.5662 29.268 71.3126 29.72 70.8606L32.1277 68.4529C33.0515 67.496 33.0251 65.9713 32.0693 65.0474C31.1355 64.1456 29.656 64.1456 28.7223 65.0474L26.3145 67.4563C25.3742 68.3967 25.3742 69.9213 26.3145 70.8617C26.7665 71.3126 27.3784 71.5673 28.0167 71.5673Z" fill="black"/>
<path d="M33.5388 63.6362C34.4792 64.5766 36.0039 64.5766 36.9442 63.6362L53.8027 46.7777C54.7266 45.8208 54.7001 44.2961 53.7432 43.3723C52.8105 42.4716 51.3311 42.4716 50.3973 43.3723L33.5388 60.2308C32.5995 61.1712 32.5995 62.6959 33.5388 63.6362Z" fill="black"/>
</svg>
