<svg width="162" height="162" viewBox="0 0 162 162" fill="none" xmlns="http://www.w3.org/2000/svg">
<path d="M124.713 62.9664L118.26 27.3831C117.792 24.8104 115.548 22.943 112.933 22.9497H49.0671C46.4515 22.943 44.2068 24.812 43.74 27.3858L37.287 62.9664C37.02 64.4335 37.9931 65.8392 39.4602 66.1062C39.6188 66.1352 39.7798 66.1497 39.9411 66.1497H122.059C123.55 66.1484 124.758 64.9384 124.757 63.4474C124.757 63.286 124.742 63.1251 124.713 62.9664ZM43.1757 60.7497L49.0671 28.3497H112.936L118.824 60.7497H43.1757Z" fill="black"/>
<path d="M121.5 82.3501C115.535 82.3501 110.7 87.1855 110.7 93.1501C110.7 99.1147 115.535 103.95 121.5 103.95C127.465 103.95 132.3 99.1147 132.3 93.1501C132.3 87.1855 127.465 82.3501 121.5 82.3501ZM121.5 98.5501C118.518 98.5501 116.1 96.1326 116.1 93.1501C116.1 90.1676 118.518 87.7501 121.5 87.7501C124.483 87.7501 126.9 90.1676 126.9 93.1501C126.9 96.1326 124.483 98.5501 121.5 98.5501Z" fill="black"/>
<path d="M40.5 82.3501C34.5353 82.3501 29.7 87.1855 29.7 93.1501C29.7 99.1147 34.5353 103.95 40.5 103.95C46.4646 103.95 51.3 99.1147 51.3 93.1501C51.3 87.1855 46.4646 82.3501 40.5 82.3501ZM40.5 98.5501C37.5175 98.5501 35.1 96.1326 35.1 93.1501C35.1 90.1676 37.5175 87.7501 40.5 87.7501C43.4824 87.7501 45.9 90.1676 45.9 93.1501C45.9 96.1326 43.4824 98.5501 40.5 98.5501Z" fill="black"/>
<path d="M102.6 82.3501H59.4001C57.909 82.3501 56.7001 83.559 56.7001 85.0501V101.25C56.7001 102.741 57.909 103.95 59.4001 103.95H102.6C104.091 103.95 105.3 102.741 105.3 101.25V85.0501C105.3 83.559 104.091 82.3501 102.6 82.3501ZM99.9001 98.5501H62.1001V95.8501H99.9001V98.5501ZM99.9001 90.4501H62.1001V87.7501H99.9001V90.4501Z" fill="black"/>
<path d="M143.1 66.1499H159.3C160.791 66.1499 162 64.941 162 63.4499V52.6499C162 51.1589 160.791 49.9499 159.3 49.9499H143.1C141.609 49.9499 140.4 51.1589 140.4 52.6499V55.3499H134.309L127.667 18.8027C126.973 14.9448 123.611 12.1405 119.691 12.1499H42.309C38.3916 12.1388 35.0312 14.9397 34.3359 18.7946L27.6912 55.3499H21.6V52.6499C21.6 51.1589 20.3911 49.9499 18.9 49.9499H2.7C1.20892 49.9499 0 51.1589 0 52.6499V63.4499C0 64.941 1.20892 66.1499 2.7 66.1499H18.9C20.3911 66.1499 21.6 64.941 21.6 63.4499V60.7499H26.7084L24.7455 71.5499H21.6C17.1264 71.5499 13.5 75.1764 13.5 79.6499V112.05H2.7C1.20892 112.05 0 113.259 0 114.75V125.55C0 127.041 1.20892 128.25 2.7 128.25H13.5V147.15C13.5 148.641 14.7089 149.85 16.2 149.85H37.8C39.2911 149.85 40.5 148.641 40.5 147.15V128.25H121.5V147.15C121.5 148.641 122.709 149.85 124.2 149.85H145.8C147.291 149.85 148.5 148.641 148.5 147.15V128.25H159.3C160.791 128.25 162 127.041 162 125.55V114.75C162 113.259 160.791 112.05 159.3 112.05H148.5V79.6499C148.5 75.1764 144.874 71.5499 140.4 71.5499H137.254L135.292 60.7499H140.4V63.4499C140.4 64.941 141.609 66.1499 143.1 66.1499ZM145.8 55.3499H156.6V60.7499H145.8V55.3499ZM16.2 60.7499H5.4V55.3499H16.2V60.7499ZM35.1 144.45H18.9V128.25H35.1V144.45ZM143.1 144.45H126.9V128.25H143.1V144.45ZM156.6 117.45V122.85H5.4V117.45H156.6ZM140.4 76.9499C141.891 76.9499 143.1 78.1589 143.1 79.6499V112.05H18.9V79.6499C18.9 78.1589 20.1089 76.9499 21.6 76.9499H27C28.3038 76.9489 29.4205 76.0161 29.6541 74.7332L39.6441 19.7504C39.8851 18.47 41.0063 17.5445 42.309 17.5499H119.691C120.995 17.5466 122.116 18.476 122.353 19.7585L132.343 74.7332C132.577 76.0171 133.695 76.9503 135 76.9499H140.4Z" fill="black"/>
</svg>
