<svg width="163" height="163" viewBox="0 0 163 163" fill="none" xmlns="http://www.w3.org/2000/svg">
<g clip-path="url(#clip0)">
<path d="M32.4095 37.8113H37.8112V43.2129H32.4095V37.8113Z" fill="black"/>
<path d="M54.016 37.8113H59.4176V43.2129H54.016V37.8113Z" fill="black"/>
<path d="M43.2128 66.2645V70.2208H48.6144V66.2645L55.5155 61.6647L52.5179 57.1704L45.9136 61.5724L39.3106 57.1704L36.3131 61.6647L43.2128 66.2645Z" fill="black"/>
<path d="M151.209 31.7002C150.827 23.0439 143.704 16.218 135.04 16.2048H2.70078C1.72754 16.2048 0.829466 16.7284 0.350759 17.575C-0.129266 18.4217 -0.116079 19.4608 0.385047 20.2956L8.48746 33.7996C8.9754 34.6133 9.855 35.1105 10.8032 35.1105C10.9812 35.1105 11.1593 35.0933 11.3333 35.0577L21.6064 33.0031V108.032C21.613 113.996 26.4462 118.83 32.4096 118.835H32.6668L35.1236 143.412C35.2621 144.792 36.4239 145.843 37.8112 145.843H48.6144C50.0018 145.843 51.1636 144.792 51.3021 143.412L53.7602 118.835H65.0764L67.5333 143.412C67.6717 144.792 68.8335 145.843 70.2209 145.843H81.0241C82.4114 145.843 83.5732 144.792 83.7117 143.412L86.1699 118.835H119.093L121.549 143.412C121.688 144.792 122.85 145.843 124.237 145.843H135.04C136.428 145.843 137.589 144.792 137.728 143.412L140.186 118.835H140.442C146.406 118.83 151.24 113.996 151.245 108.032V56.7169H159.347C160.284 56.7169 161.153 56.2316 161.645 55.4351C162.137 54.6399 162.181 53.6455 161.763 52.8081L151.209 31.7002ZM70.2209 21.6064H84.3553L79.6869 29.3871L70.2209 27.496V21.6064ZM64.8193 75.6225H27.008V21.6064H64.8193V75.6225ZM12.1404 29.3871L7.47202 21.6064H21.6064V27.496L12.1404 29.3871ZM46.1695 140.442H40.2562L38.0961 118.835H48.3296L46.1695 140.442ZM78.5791 140.442H72.6658L70.5057 118.835H80.7392L78.5791 140.442ZM132.595 140.442H126.682L124.522 118.835H134.755L132.595 140.442ZM145.843 108.032C145.839 111.014 143.423 113.43 140.442 113.434H32.4096C29.4279 113.43 27.012 111.014 27.008 108.032V81.0241H67.5201C68.2375 81.0241 68.9245 80.7406 69.4309 80.2342C69.9373 79.7265 70.2222 79.0394 70.2209 78.3233V33.0031L80.494 35.0577C80.6693 35.0933 80.8461 35.1105 81.0241 35.1105C81.9736 35.1105 82.8519 34.6133 83.3398 33.7996L90.6563 21.6064H135.04C141.005 21.613 145.838 26.4463 145.843 32.4097V108.032ZM151.245 51.3153V43.8511L154.977 51.3153H151.245Z" fill="black"/>
<path d="M45.9136 94.5281H51.3152V99.9297H45.9136V94.5281Z" fill="black"/>
<path d="M86.4257 70.2209H91.8273V81.0242H86.4257V70.2209Z" fill="black"/>
<path d="M97.2289 64.8193H102.63V70.2209H97.2289V64.8193Z" fill="black"/>
<path d="M129.638 32.4097H135.04V37.8113H129.638V32.4097Z" fill="black"/>
<path d="M124.237 43.2126H129.638V54.0159H124.237V43.2126Z" fill="black"/>
<path d="M129.638 102.63H135.04V108.032H129.638V102.63Z" fill="black"/>
</g>
<defs>
<clipPath id="clip0">
<rect width="162.048" height="162.048" fill="white"/>
</clipPath>
</defs>
</svg>
