<svg width="162" height="162" viewBox="0 0 162 162" fill="none" xmlns="http://www.w3.org/2000/svg">
<path d="M128.167 10H33.5003C26.9676 10.0076 21.6742 15.3009 21.6666 21.8337V135.433C21.6666 139.355 24.8452 142.533 28.7671 142.533V149.633C28.7671 150.94 29.8266 152 31.1331 152H130.534C131.84 152 132.9 150.94 132.9 149.633V142.533C136.821 142.533 140 139.355 140 135.433V21.8337C139.992 15.3009 134.699 10.0076 128.167 10V10ZM33.5003 14.7333H128.167C132.087 14.7333 135.267 17.9119 135.267 21.8337V38.4007H26.3999V21.8337C26.3999 17.9119 29.5785 14.7333 33.5003 14.7333ZM128.167 147.267H33.5003V142.533H128.167V147.267ZM132.9 137.8H28.7671C27.4594 137.8 26.3999 136.741 26.3999 135.433V43.1328H135.267V135.433C135.267 136.741 134.208 137.8 132.9 137.8V137.8Z" fill="black"/>
<path d="M33.5002 33.6656H61.8998C63.2074 33.6656 64.267 32.6061 64.267 31.2995V21.833C64.267 20.5254 63.2074 19.4658 61.8998 19.4658H33.5002C32.1926 19.4658 31.1331 20.5254 31.1331 21.833V31.2995C31.1331 32.6061 32.1926 33.6656 33.5002 33.6656ZM35.8663 24.1991H59.5337V28.9323H35.8663V24.1991Z" fill="black"/>
<path d="M76.0997 33.6656C80.0215 33.6656 83.2001 30.487 83.2001 26.5663C83.2001 22.6444 80.0215 19.4658 76.0997 19.4658C72.179 19.4658 69.0004 22.6444 69.0004 26.5663C69.0004 30.487 72.179 33.6656 76.0997 33.6656ZM76.0997 24.1991C77.4073 24.1991 78.4669 25.2586 78.4669 26.5663C78.4669 27.8728 77.4073 28.9323 76.0997 28.9323C74.7932 28.9323 73.7336 27.8728 73.7336 26.5663C73.7336 25.2586 74.7932 24.1991 76.0997 24.1991Z" fill="black"/>
<path d="M95.0327 33.6656C98.9545 33.6656 102.133 30.487 102.133 26.5663C102.133 22.6444 98.9545 19.4658 95.0327 19.4658C91.112 19.4658 87.9333 22.6444 87.9333 26.5663C87.9333 30.487 91.112 33.6656 95.0327 33.6656ZM95.0327 24.1991C96.3403 24.1991 97.3999 25.2586 97.3999 26.5663C97.3999 27.8728 96.3403 28.9323 95.0327 28.9323C93.7262 28.9323 92.6666 27.8728 92.6666 26.5663C92.6666 25.2586 93.7262 24.1991 95.0327 24.1991Z" fill="black"/>
<path d="M109.234 28.9335H113.967C115.273 28.9335 116.333 27.8739 116.333 26.5674C116.333 25.2597 115.273 24.2002 113.967 24.2002H109.234C107.926 24.2002 106.866 25.2597 106.866 26.5674C106.866 27.8739 107.926 28.9335 109.234 28.9335Z" fill="black"/>
<path d="M123.433 28.9335H128.167C129.474 28.9335 130.534 27.8739 130.534 26.5674C130.534 25.2597 129.474 24.2002 128.167 24.2002H123.433C122.126 24.2002 121.066 25.2597 121.066 26.5674C121.066 27.8739 122.126 28.9335 123.433 28.9335V28.9335Z" fill="black"/>
<path d="M80.8329 52.6006C59.9205 52.6006 42.9668 69.5532 42.9668 90.4667C42.9668 111.38 59.9205 128.334 80.8329 128.334C101.746 128.334 118.7 111.38 118.7 90.4667C118.675 69.5641 101.737 52.6255 80.8329 52.6006V52.6006ZM80.8329 123.601C62.5347 123.601 47.7001 108.766 47.7001 90.4667C47.7001 72.1674 62.5347 57.3338 80.8329 57.3338C99.1322 57.3338 113.967 72.1674 113.967 90.4667C113.947 108.757 99.1246 123.581 80.8329 123.601V123.601Z" fill="black"/>
<path d="M80.833 59.6999C63.8587 59.6837 50.0836 73.4306 50.0663 90.4049C50.063 94.4275 50.8485 98.4122 52.3793 102.132C52.3934 102.18 52.3793 102.229 52.3977 102.277C52.4172 102.324 52.4616 102.369 52.4855 102.424C59.0767 118.071 77.1051 125.412 92.7523 118.821C101.508 115.132 108.066 107.602 110.519 98.4241C110.532 98.3851 110.541 98.345 110.549 98.3049C114.944 81.959 105.256 65.145 88.9085 60.7508C86.2759 60.0434 83.5599 59.6891 80.833 59.6999V59.6999ZM80.833 64.4332C95.1769 64.3996 106.833 76.0004 106.867 90.3432C106.871 92.2803 106.66 94.2108 106.235 96.0992C105.001 96.5076 103.79 96.9821 102.607 97.5195C99.5364 99.1131 96.1259 99.9408 92.6667 99.9332C89.721 100.012 86.8111 99.2745 84.2576 97.8033C81.0443 96.0147 77.4107 95.1165 73.7337 95.2C67.722 95.4448 61.7776 96.5607 56.0877 98.5129C51.6264 84.8624 59.0756 70.1805 72.7261 65.7203C75.3436 64.8644 78.0802 64.43 80.833 64.4332V64.4332ZM80.833 116.5C71.2928 116.494 62.5186 111.272 57.9619 102.89C63.0516 101.157 68.3623 100.162 73.7337 99.9332C76.6794 99.8552 79.5893 100.592 82.1417 102.063C85.3561 103.852 88.9898 104.751 92.6667 104.666C96.6416 104.688 100.567 103.781 104.129 102.019C99.7422 110.876 90.7177 116.487 80.833 116.5Z" fill="black"/>
</svg>
