<svg width="162" height="162" viewBox="0 0 162 162" fill="none" xmlns="http://www.w3.org/2000/svg">
<path d="M80.5 37.1167C61.5845 37.1167 46.25 52.4512 46.25 71.3667C46.25 90.2822 61.5845 105.617 80.5 105.617C99.4155 105.617 114.75 90.2822 114.75 71.3667C114.729 52.4601 99.4066 37.1379 80.5 37.1167ZM98.7076 69.0834C98.5693 63.9013 97.7387 58.7604 96.2369 53.7991C98.0921 52.8325 99.8559 51.7008 101.507 50.4153C106.499 55.4157 109.534 62.0383 110.067 69.0834H98.7076ZM82.7833 42.1628C85.633 43.3044 88.4002 46.5288 90.5007 51.3418C88.0145 52.236 85.4179 52.7923 82.7833 52.9952V42.1628ZM91.4306 43.795C93.7473 44.7204 95.9381 45.9345 97.9517 47.4073C96.897 48.1654 95.7932 48.8511 94.6471 49.4632C93.7808 47.4642 92.7027 45.5644 91.4306 43.795ZM78.2167 42.1628V52.9952C75.5821 52.7923 72.9855 52.236 70.4993 51.3418C72.5998 46.5288 75.367 43.3067 78.2167 42.1628ZM66.3429 49.4699C65.1979 48.8589 64.0941 48.1721 63.0394 47.414C65.0529 45.9412 67.2437 44.7271 69.5605 43.8028C68.2884 45.5699 67.2103 47.4697 66.3429 49.4677V49.4699ZM78.2167 57.5641V69.0834H66.8569C66.9806 64.529 67.6819 60.0091 68.944 55.632C71.9297 56.7034 75.0514 57.3534 78.2167 57.5641ZM78.2167 73.65V85.1693C75.0514 85.38 71.9297 86.03 68.944 87.1014C67.6819 82.7243 66.9806 78.2044 66.8569 73.65H78.2167ZM78.2167 89.7382V100.571C75.367 99.429 72.5998 96.2046 70.4993 91.3916C72.9855 90.4974 75.5821 89.9411 78.2167 89.7382ZM69.5694 98.9384C67.2527 98.013 65.0619 96.7989 63.0483 95.3261C64.103 94.5691 65.2057 93.8823 66.3507 93.2702C67.2181 95.2692 68.2984 97.169 69.5694 98.9384ZM82.7833 100.571V89.7382C85.4179 89.9411 88.0145 90.4974 90.5007 91.3916C88.4002 96.2046 85.633 99.4267 82.7833 100.571ZM94.6571 93.2635C95.801 93.8756 96.9048 94.5624 97.9584 95.3194C95.9448 96.7922 93.754 98.0063 91.4373 98.9306C92.7083 97.1623 93.7886 95.2637 94.6571 93.2657V93.2635ZM82.7833 85.1693V73.65H94.1431C94.0194 78.2044 93.3181 82.7243 92.056 87.1014C89.0703 86.03 85.9486 85.38 82.7833 85.1693V85.1693ZM82.7833 69.0834V57.5641C85.9486 57.3534 89.0703 56.7034 92.056 55.632C93.3181 60.0091 94.0194 64.529 94.1431 69.0834H82.7833ZM59.4929 50.4153C61.143 51.6997 62.9056 52.8325 64.7608 53.7991C63.2602 58.7604 62.4296 63.9013 62.2924 69.0834H50.9326C51.4655 62.0383 54.5014 55.4157 59.4929 50.4153ZM50.9326 73.65H62.2924C62.4307 78.8321 63.2613 83.973 64.7631 88.9343C62.9079 89.9009 61.1441 91.0326 59.4929 92.3181C54.5014 87.3177 51.4655 80.6951 50.9326 73.65ZM101.507 92.3181C99.857 91.0337 98.0944 89.9009 96.2392 88.9343C97.7398 83.973 98.5704 78.8321 98.7076 73.65H110.067C109.534 80.6951 106.499 87.3177 101.507 92.3181Z" fill="black"/>
<path d="M80.5 21.1333C42.7291 21.1333 12 43.6678 12 71.3666C12 95.8511 36.3976 116.878 69.0833 120.894V137.583C69.0833 138.506 69.6397 139.339 70.4926 139.693C70.7691 139.809 71.0668 139.868 71.3667 139.867C71.9721 139.867 72.5529 139.626 72.9811 139.198L91.1953 120.983C124.208 117.195 149 95.9716 149 71.3666C149 43.6678 118.271 21.1333 80.5 21.1333V21.1333ZM89.9054 116.533C89.3869 116.588 88.9031 116.82 88.5351 117.188L73.65 132.071V118.86C73.65 117.688 72.7614 116.706 71.5952 116.588C40.2217 113.444 16.5667 94.006 16.5667 71.3666C16.5667 46.1864 45.2477 25.7 80.5 25.7C115.752 25.7 144.433 46.1864 144.433 71.3666C144.433 93.8298 120.99 113.247 89.9054 116.533V116.533Z" fill="black"/>
</svg>
