<svg width="162" height="162" viewBox="0 0 162 162" fill="none" xmlns="http://www.w3.org/2000/svg">
<g clip-path="url(#clip0)">
<path d="M59.4 -0.000244141H43.2C37.8145 0.0155762 33.2675 4.0023 32.5476 9.33901L11.8797 24.8403C10.9503 25.5377 10.5706 26.7519 10.9384 27.8541C11.3062 28.9562 12.3385 29.6998 13.5 29.6998H32.4V94.4998C32.429 113.449 47.4873 128.958 66.4282 129.546L60.8014 145.8H48.6C44.1281 145.805 40.5052 149.428 40.5 153.9V159.3C40.5 160.791 41.7089 162 43.2 162H116.1C117.591 162 118.8 160.791 118.8 159.3V153.9C118.795 149.428 115.172 145.805 110.7 145.8H107.015L112.631 129.573C122.444 129.471 131.22 123.444 134.839 114.323L151.007 73.9017C151.34 73.0698 151.238 72.1272 150.736 71.3863C150.234 70.644 149.396 70.1998 148.5 70.1998H70.2V10.7998C70.1934 4.83813 65.3616 0.00634764 59.4 -0.000244141ZM34.8469 14.3646L39.382 18.8998L33.982 24.2998H21.6L34.8469 14.3646ZM45.9 153.9C45.9013 152.409 47.1102 151.201 48.6 151.2H62.7236C63.8745 151.2 64.8989 150.471 65.2746 149.383L72.1221 129.6H77.2084L70.9725 147.616C70.7049 148.39 70.8025 149.243 71.2375 149.937C71.1835 150.033 71.1624 150.146 71.1123 150.244C70.9145 150.635 70.7484 151.043 70.6166 151.462C70.5586 151.644 70.4913 151.819 70.4465 152.007C70.2896 152.626 70.2066 153.262 70.2 153.9V156.6H45.9V153.9ZM96.1084 129.6L90.5014 145.8H77.3152L82.9221 129.6H96.1084ZM110.7 151.2C112.191 151.201 113.399 152.409 113.4 153.9V156.6H75.6V153.9C75.6013 152.409 76.8102 151.201 78.3 151.2H92.4236C93.5745 151.2 94.5989 150.471 94.9746 149.383L101.822 129.6H106.908L100.673 147.616C100.386 148.442 100.518 149.354 101.025 150.066C101.531 150.777 102.351 151.2 103.224 151.2H110.7ZM144.512 75.5998L129.824 112.319C126.975 119.512 120.012 124.225 112.275 124.2H67.5C51.1049 124.181 37.8184 110.895 37.8 94.4998V28.1177L45.109 20.8087C46.1636 19.7541 46.1636 18.0455 45.109 16.9908L37.8975 9.77935C38.3893 7.23887 40.612 5.40239 43.2 5.39976H59.4C62.3808 5.40371 64.7973 7.81895 64.8 10.7998V72.8998C64.8 74.3908 66.0089 75.5998 67.5 75.5998H144.512Z" fill="black"/>
<path d="M64.7999 83.7C64.7999 85.1911 66.0089 86.4 67.4999 86.4H108V94.5C107.988 104.933 99.5334 113.388 89.0999 113.4H67.4999C66.0089 113.4 64.7999 114.609 64.7999 116.1C64.7999 117.591 66.0089 118.8 67.4999 118.8H89.0999C102.514 118.785 113.385 107.914 113.4 94.5V83.7C113.4 82.2089 112.191 81 110.7 81H67.4999C66.0089 81 64.7999 82.2089 64.7999 83.7Z" fill="black"/>
<path d="M45.8999 10.7998H51.2999V16.1998H45.8999V10.7998Z" fill="black"/>
</g>
<defs>
<clipPath id="clip0">
<rect width="162" height="162" fill="white"/>
</clipPath>
</defs>
</svg>
