<svg width="163" height="163" viewBox="0 0 163 163" fill="none" xmlns="http://www.w3.org/2000/svg">
<path d="M32.4095 45.8113H37.8112V51.2129H32.4095V45.8113Z" fill="black"/>
<path d="M54.016 45.8113H59.4176V51.2129H54.016V45.8113Z" fill="black"/>
<path d="M43.2128 74.2645V78.2208H48.6144V74.2645L55.5155 69.6647L52.5179 65.1704L45.9136 69.5724L39.3106 65.1704L36.3131 69.6647L43.2128 74.2645Z" fill="black"/>
<path d="M43.2128 93.0941V97.0504H48.6144V93.0941L55.5155 88.4943L52.5179 84L45.9136 88.402L39.3106 84L36.3131 88.4943L43.2128 93.0941Z" fill="black"/>
<path d="M151.209 39.7002C150.827 31.0439 143.704 24.218 135.04 24.2048H2.70078C1.72754 24.2048 0.829466 24.7284 0.350759 25.575C-0.129266 26.4217 -0.116079 27.4608 0.385047 28.2956L8.48746 41.7996C8.9754 42.6133 9.855 43.1105 10.8032 43.1105C10.9812 43.1105 11.1593 43.0933 11.3333 43.0577L21.6064 41.0031V116.032C21.613 121.996 26.4462 126.83 32.4096 126.835H32.6668L35.1236 151.412C35.2621 152.792 36.4239 153.843 37.8112 153.843H48.6144C50.0018 153.843 51.1636 152.792 51.3021 151.412L53.7602 126.835H65.0764L67.5333 151.412C67.6717 152.792 68.8335 153.843 70.2209 153.843H81.0241C82.4114 153.843 83.5732 152.792 83.7117 151.412L86.1699 126.835H119.093L121.549 151.412C121.688 152.792 122.85 153.843 124.237 153.843H135.04C136.427 153.843 137.589 152.792 137.728 151.412L140.186 126.835H140.442C146.406 126.83 151.24 121.996 151.245 116.032V64.7169H159.347C160.284 64.7169 161.153 64.2316 161.645 63.4351C162.137 62.6399 162.181 61.6455 161.763 60.8081L151.209 39.7002ZM70.2209 29.6064H84.3553L79.6869 37.3871L70.2209 35.496V29.6064ZM64.8193 83.6225H27.008V29.6064H64.8193V83.6225ZM12.1404 37.3871L7.47202 29.6064H21.6064V35.496L12.1404 37.3871ZM46.1695 148.442H40.2562L38.0961 126.835H48.3296L46.1695 148.442ZM78.5791 148.442H72.6658L70.5057 126.835H80.7392L78.5791 148.442ZM132.595 148.442H126.682L124.522 126.835H134.755L132.595 148.442ZM145.843 116.032C145.839 119.014 143.423 121.43 140.442 121.434H32.4096C29.4279 121.43 27.012 119.014 27.008 116.032V89.0241H67.5201C68.2375 89.0241 68.9245 88.7406 69.4309 88.2342C69.9373 87.7265 70.2222 87.0394 70.2209 86.3233V41.0031L80.494 43.0577C80.6693 43.0933 80.8461 43.1105 81.0241 43.1105C81.9736 43.1105 82.8519 42.6133 83.3398 41.7996L90.6563 29.6064H135.04C141.005 29.613 145.838 34.4463 145.843 40.4097V116.032ZM151.245 59.3153V51.8511L154.977 59.3153H151.245Z" fill="black"/>
<path d="M28.5001 26L25.5012 26.0833L25.5822 29H28.5001V26ZM46.5001 11C48.1569 11 49.5001 9.65685 49.5001 8C49.5001 6.34315 48.1569 5 46.5001 5V11ZM38.5 26V29H41.5V26H38.5ZM31.4989 25.9167C31.4293 23.4103 32.1214 19.5929 34.3311 16.4904C36.4258 13.5494 40.0472 11 46.5001 11V5C38.1529 5 32.691 8.45064 29.444 13.0096C26.312 17.4071 25.4042 22.5897 25.5012 26.0833L31.4989 25.9167ZM46.5001 5C42.008 5 39.1988 8.19165 37.6635 11.9202C36.1347 15.633 35.5 20.5846 35.5 26H41.5C41.5 20.9154 42.1153 16.867 43.2116 14.2048C44.3013 11.5583 45.4921 11 46.5001 11V5ZM38.5 23C38.493 23 38.4859 23 38.4789 23C38.4719 23 38.4648 23 38.4578 23C38.4507 23 38.4437 23 38.4366 23C38.4296 23 38.4225 23 38.4154 23C38.4084 23 38.4013 23 38.3943 23C38.3872 23 38.3801 23 38.373 23C38.366 23 38.3589 23 38.3518 23C38.3447 23 38.3376 23 38.3306 23C38.3235 23 38.3164 23 38.3093 23C38.3022 23 38.2951 23 38.288 23C38.2809 23 38.2738 23 38.2667 23C38.2596 23 38.2524 23 38.2453 23C38.2382 23 38.2311 23 38.224 23C38.2168 23 38.2097 23 38.2026 23C38.1955 23 38.1883 23 38.1812 23C38.1741 23 38.1669 23 38.1598 23C38.1526 23 38.1455 23 38.1383 23C38.1312 23 38.124 23 38.1169 23C38.1097 23 38.1026 23 38.0954 23C38.0883 23 38.0811 23 38.0739 23C38.0668 23 38.0596 23 38.0524 23C38.0452 23 38.0381 23 38.0309 23C38.0237 23 38.0165 23 38.0093 23C38.0021 23 37.995 23 37.9878 23C37.9806 23 37.9734 23 37.9662 23C37.959 23 37.9518 23 37.9446 23C37.9374 23 37.9302 23 37.9229 23C37.9157 23 37.9085 23 37.9013 23C37.8941 23 37.8869 23 37.8797 23C37.8724 23 37.8652 23 37.858 23C37.8507 23 37.8435 23 37.8363 23C37.8291 23 37.8218 23 37.8146 23C37.8073 23 37.8001 23 37.7929 23C37.7856 23 37.7784 23 37.7711 23C37.7639 23 37.7566 23 37.7493 23C37.7421 23 37.7348 23 37.7276 23C37.7203 23 37.713 23 37.7058 23C37.6985 23 37.6912 23 37.684 23C37.6767 23 37.6694 23 37.6622 23C37.6549 23 37.6476 23 37.6403 23C37.633 23 37.6257 23 37.6185 23C37.6112 23 37.6039 23 37.5966 23C37.5893 23 37.582 23 37.5747 23C37.5674 23 37.5601 23 37.5528 23C37.5455 23 37.5382 23 37.5309 23C37.5236 23 37.5163 23 37.509 23C37.5017 23 37.4943 23 37.487 23C37.4797 23 37.4724 23 37.4651 23C37.4577 23 37.4504 23 37.4431 23C37.4358 23 37.4284 23 37.4211 23C37.4138 23 37.4064 23 37.3991 23C37.3918 23 37.3844 23 37.3771 23C37.3697 23 37.3624 23 37.3551 23C37.3477 23 37.3404 23 37.333 23C37.3257 23 37.3183 23 37.311 23C37.3036 23 37.2963 23 37.2889 23C37.2815 23 37.2742 23 37.2668 23C37.2595 23 37.2521 23 37.2447 23C37.2374 23 37.23 23 37.2226 23C37.2153 23 37.2079 23 37.2005 23C37.1931 23 37.1858 23 37.1784 23C37.171 23 37.1636 23 37.1562 23C37.1489 23 37.1415 23 37.1341 23C37.1267 23 37.1193 23 37.1119 23C37.1045 23 37.0971 23 37.0897 23C37.0823 23 37.0749 23 37.0676 23C37.0602 23 37.0528 23 37.0454 23C37.038 23 37.0305 23 37.0231 23C37.0157 23 37.0083 23 37.0009 23C36.9935 23 36.9861 23 36.9787 23C36.9713 23 36.9639 23 36.9564 23C36.949 23 36.9416 23 36.9342 23C36.9268 23 36.9194 23 36.9119 23C36.9045 23 36.8971 23 36.8897 23C36.8822 23 36.8748 23 36.8674 23C36.8599 23 36.8525 23 36.8451 23C36.8376 23 36.8302 23 36.8228 23C36.8153 23 36.8079 23 36.8005 23C36.793 23 36.7856 23 36.7781 23C36.7707 23 36.7633 23 36.7558 23C36.7484 23 36.7409 23 36.7335 23C36.726 23 36.7186 23 36.7111 23C36.7037 23 36.6962 23 36.6888 23C36.6813 23 36.6739 23 36.6664 23C36.659 23 36.6515 23 36.644 23C36.6366 23 36.6291 23 36.6217 23C36.6142 23 36.6067 23 36.5993 23C36.5918 23 36.5843 23 36.5769 23C36.5694 23 36.5619 23 36.5545 23C36.547 23 36.5395 23 36.5321 23C36.5246 23 36.5171 23 36.5096 23C36.5022 23 36.4947 23 36.4872 23C36.4797 23 36.4723 23 36.4648 23C36.4573 23 36.4498 23 36.4423 23C36.4349 23 36.4274 23 36.4199 23C36.4124 23 36.4049 23 36.3974 23C36.39 23 36.3825 23 36.375 23C36.3675 23 36.36 23 36.3525 23C36.345 23 36.3375 23 36.33 23C36.3226 23 36.3151 23 36.3076 23C36.3001 23 36.2926 23 36.2851 23C36.2776 23 36.2701 23 36.2626 23C36.2551 23 36.2476 23 36.2401 23C36.2326 23 36.2251 23 36.2176 23C36.2101 23 36.2026 23 36.1951 23C36.1876 23 36.1801 23 36.1726 23C36.1651 23 36.1576 23 36.1501 23C36.1426 23 36.1351 23 36.1276 23C36.1201 23 36.1126 23 36.1051 23C36.0975 23 36.09 23 36.0825 23C36.075 23 36.0675 23 36.06 23C36.0525 23 36.045 23 36.0375 23C36.03 23 36.0224 23 36.0149 23C36.0074 23 35.9999 23 35.9924 23C35.9849 23 35.9774 23 35.9698 23C35.9623 23 35.9548 23 35.9473 23C35.9398 23 35.9323 23 35.9248 23C35.9172 23 35.9097 23 35.9022 23C35.8947 23 35.8872 23 35.8796 23C35.8721 23 35.8646 23 35.8571 23C35.8496 23 35.8421 23 35.8345 23C35.827 23 35.8195 23 35.812 23C35.8044 23 35.7969 23 35.7894 23C35.7819 23 35.7744 23 35.7668 23C35.7593 23 35.7518 23 35.7443 23C35.7368 23 35.7292 23 35.7217 23C35.7142 23 35.7067 23 35.6991 23C35.6916 23 35.6841 23 35.6766 23C35.669 23 35.6615 23 35.654 23C35.6465 23 35.639 23 35.6314 23C35.6239 23 35.6164 23 35.6089 23C35.6013 23 35.5938 23 35.5863 23C35.5788 23 35.5712 23 35.5637 23C35.5562 23 35.5487 23 35.5411 23C35.5336 23 35.5261 23 35.5186 23C35.511 23 35.5035 23 35.496 23C35.4885 23 35.4809 23 35.4734 23C35.4659 23 35.4584 23 35.4508 23C35.4433 23 35.4358 23 35.4283 23C35.4207 23 35.4132 23 35.4057 23C35.3982 23 35.3907 23 35.3831 23C35.3756 23 35.3681 23 35.3606 23C35.353 23 35.3455 23 35.338 23C35.3305 23 35.323 23 35.3154 23C35.3079 23 35.3004 23 35.2929 23C35.2853 23 35.2778 23 35.2703 23C35.2628 23 35.2553 23 35.2477 23C35.2402 23 35.2327 23 35.2252 23C35.2177 23 35.2101 23 35.2026 23C35.1951 23 35.1876 23 35.1801 23C35.1726 23 35.165 23 35.1575 23C35.15 23 35.1425 23 35.135 23C35.1275 23 35.1199 23 35.1124 23C35.1049 23 35.0974 23 35.0899 23C35.0824 23 35.0749 23 35.0674 23C35.0598 23 35.0523 23 35.0448 23C35.0373 23 35.0298 23 35.0223 23C35.0148 23 35.0073 23 34.9998 23C34.9923 23 34.9847 23 34.9772 23C34.9697 23 34.9622 23 34.9547 23C34.9472 23 34.9397 23 34.9322 23C34.9247 23 34.9172 23 34.9097 23C34.9022 23 34.8947 23 34.8872 23C34.8797 23 34.8722 23 34.8647 23C34.8572 23 34.8497 23 34.8422 23C34.8347 23 34.8272 23 34.8197 23C34.8122 23 34.8047 23 34.7972 23C34.7897 23 34.7822 23 34.7747 23C34.7673 23 34.7598 23 34.7523 23C34.7448 23 34.7373 23 34.7298 23C34.7223 23 34.7148 23 34.7073 23C34.6999 23 34.6924 23 34.6849 23C34.6774 23 34.6699 23 34.6624 23C34.655 23 34.6475 23 34.64 23C34.6325 23 34.625 23 34.6176 23C34.6101 23 34.6026 23 34.5951 23C34.5877 23 34.5802 23 34.5727 23C34.5652 23 34.5578 23 34.5503 23C34.5428 23 34.5353 23 34.5279 23C34.5204 23 34.5129 23 34.5055 23C34.498 23 34.4905 23 34.4831 23C34.4756 23 34.4682 23 34.4607 23C34.4532 23 34.4458 23 34.4383 23C34.4309 23 34.4234 23 34.416 23C34.4085 23 34.401 23 34.3936 23C34.3861 23 34.3787 23 34.3712 23C34.3638 23 34.3563 23 34.3489 23C34.3415 23 34.334 23 34.3266 23C34.3191 23 34.3117 23 34.3042 23C34.2968 23 34.2894 23 34.2819 23C34.2745 23 34.2671 23 34.2596 23C34.2522 23 34.2447 23 34.2373 23C34.2299 23 34.2225 23 34.215 23C34.2076 23 34.2002 23 34.1928 23C34.1853 23 34.1779 23 34.1705 23C34.1631 23 34.1556 23 34.1482 23C34.1408 23 34.1334 23 34.126 23C34.1186 23 34.1112 23 34.1037 23C34.0963 23 34.0889 23 34.0815 23C34.0741 23 34.0667 23 34.0593 23C34.0519 23 34.0445 23 34.0371 23C34.0297 23 34.0223 23 34.0149 23C34.0075 23 34.0001 23 33.9927 23C33.9853 23 33.9779 23 33.9705 23C33.9632 23 33.9558 23 33.9484 23C33.941 23 33.9336 23 33.9262 23C33.9189 23 33.9115 23 33.9041 23C33.8967 23 33.8893 23 33.882 23C33.8746 23 33.8672 23 33.8599 23C33.8525 23 33.8451 23 33.8378 23C33.8304 23 33.823 23 33.8157 23C33.8083 23 33.801 23 33.7936 23C33.7863 23 33.7789 23 33.7715 23C33.7642 23 33.7568 23 33.7495 23C33.7422 23 33.7348 23 33.7275 23C33.7201 23 33.7128 23 33.7054 23C33.6981 23 33.6908 23 33.6834 23C33.6761 23 33.6688 23 33.6614 23C33.6541 23 33.6468 23 33.6395 23C33.6321 23 33.6248 23 33.6175 23C33.6102 23 33.6029 23 33.5955 23C33.5882 23 33.5809 23 33.5736 23C33.5663 23 33.559 23 33.5517 23C33.5444 23 33.5371 23 33.5298 23C33.5225 23 33.5152 23 33.5079 23C33.5006 23 33.4933 23 33.486 23C33.4787 23 33.4714 23 33.4641 23C33.4569 23 33.4496 23 33.4423 23C33.435 23 33.4277 23 33.4205 23C33.4132 23 33.4059 23 33.3987 23C33.3914 23 33.3841 23 33.3769 23C33.3696 23 33.3623 23 33.3551 23C33.3478 23 33.3406 23 33.3333 23C33.326 23 33.3188 23 33.3116 23C33.3043 23 33.2971 23 33.2898 23C33.2826 23 33.2753 23 33.2681 23C33.2609 23 33.2536 23 33.2464 23C33.2392 23 33.2319 23 33.2247 23C33.2175 23 33.2103 23 33.203 23C33.1958 23 33.1886 23 33.1814 23C33.1742 23 33.167 23 33.1598 23C33.1526 23 33.1454 23 33.1382 23C33.131 23 33.1238 23 33.1166 23C33.1094 23 33.1022 23 33.095 23C33.0878 23 33.0806 23 33.0734 23C33.0662 23 33.0591 23 33.0519 23C33.0447 23 33.0375 23 33.0304 23C33.0232 23 33.016 23 33.0089 23C33.0017 23 32.9945 23 32.9874 23C32.9802 23 32.9731 23 32.9659 23C32.9588 23 32.9516 23 32.9445 23C32.9373 23 32.9302 23 32.923 23C32.9159 23 32.9088 23 32.9016 23C32.8945 23 32.8874 23 32.8802 23C32.8731 23 32.866 23 32.8589 23C32.8518 23 32.8446 23 32.8375 23C32.8304 23 32.8233 23 32.8162 23C32.8091 23 32.802 23 32.7949 23C32.7878 23 32.7807 23 32.7736 23C32.7665 23 32.7594 23 32.7523 23C32.7452 23 32.7382 23 32.7311 23C32.724 23 32.7169 23 32.7099 23C32.7028 23 32.6957 23 32.6887 23C32.6816 23 32.6745 23 32.6675 23C32.6604 23 32.6534 23 32.6463 23C32.6393 23 32.6322 23 32.6252 23C32.6181 23 32.6111 23 32.6041 23C32.597 23 32.59 23 32.583 23C32.5759 23 32.5689 23 32.5619 23C32.5549 23 32.5479 23 32.5409 23C32.5338 23 32.5268 23 32.5198 23C32.5128 23 32.5058 23 32.4988 23C32.4918 23 32.4848 23 32.4778 23C32.4708 23 32.4639 23 32.4569 23C32.4499 23 32.4429 23 32.4359 23C32.429 23 32.422 23 32.415 23C32.4081 23 32.4011 23 32.3941 23C32.3872 23 32.3802 23 32.3733 23C32.3663 23 32.3594 23 32.3524 23C32.3455 23 32.3386 23 32.3316 23C32.3247 23 32.3178 23 32.3108 23C32.3039 23 32.297 23 32.2901 23C32.2831 23 32.2762 23 32.2693 23C32.2624 23 32.2555 23 32.2486 23C32.2417 23 32.2348 23 32.2279 23C32.221 23 32.2141 23 32.2072 23C32.2003 23 32.1935 23 32.1866 23C32.1797 23 32.1728 23 32.166 23C32.1591 23 32.1522 23 32.1454 23C32.1385 23 32.1317 23 32.1248 23C32.118 23 32.1111 23 32.1043 23C32.0974 23 32.0906 23 32.0838 23C32.0769 23 32.0701 23 32.0633 23C32.0564 23 32.0496 23 32.0428 23C32.036 23 32.0292 23 32.0224 23C32.0156 23 32.0088 23 32.002 23C31.9952 23 31.9884 23 31.9816 23C31.9748 23 31.968 23 31.9612 23C31.9544 23 31.9477 23 31.9409 23C31.9341 23 31.9273 23 31.9206 23C31.9138 23 31.9071 23 31.9003 23C31.8936 23 31.8868 23 31.8801 23C31.8733 23 31.8666 23 31.8598 23C31.8531 23 31.8464 23 31.8397 23C31.8329 23 31.8262 23 31.8195 23C31.8128 23 31.8061 23 31.7994 23C31.7926 23 31.7859 23 31.7792 23C31.7726 23 31.7659 23 31.7592 23C31.7525 23 31.7458 23 31.7391 23C31.7324 23 31.7258 23 31.7191 23C31.7124 23 31.7058 23 31.6991 23C31.6925 23 31.6858 23 31.6792 23C31.6725 23 31.6659 23 31.6592 23C31.6526 23 31.6459 23 31.6393 23C31.6327 23 31.6261 23 31.6194 23C31.6128 23 31.6062 23 31.5996 23C31.593 23 31.5864 23 31.5798 23C31.5732 23 31.5666 23 31.56 23C31.5534 23 31.5468 23 31.5403 23C31.5337 23 31.5271 23 31.5205 23C31.514 23 31.5074 23 31.5008 23C31.4943 23 31.4877 23 31.4812 23C31.4746 23 31.4681 23 31.4616 23C31.455 23 31.4485 23 31.442 23C31.4354 23 31.4289 23 31.4224 23C31.4159 23 31.4094 23 31.4029 23C31.3964 23 31.3899 23 31.3834 23C31.3769 23 31.3704 23 31.3639 23C31.3574 23 31.3509 23 31.3445 23C31.338 23 31.3315 23 31.3251 23C31.3186 23 31.3121 23 31.3057 23C31.2992 23 31.2928 23 31.2863 23C31.2799 23 31.2735 23 31.267 23C31.2606 23 31.2542 23 31.2478 23C31.2413 23 31.2349 23 31.2285 23C31.2221 23 31.2157 23 31.2093 23C31.2029 23 31.1965 23 31.1901 23C31.1838 23 31.1774 23 31.171 23C31.1646 23 31.1583 23 31.1519 23C31.1455 23 31.1392 23 31.1328 23C31.1265 23 31.1201 23 31.1138 23C31.1074 23 31.1011 23 31.0948 23C31.0884 23 31.0821 23 31.0758 23C31.0695 23 31.0632 23 31.0569 23C31.0506 23 31.0443 23 31.038 23C31.0317 23 31.0254 23 31.0191 23C31.0128 23 31.0065 23 31.0003 23C30.994 23 30.9877 23 30.9815 23C30.9752 23 30.969 23 30.9627 23C30.9565 23 30.9502 23 30.944 23C30.9378 23 30.9315 23 30.9253 23C30.9191 23 30.9129 23 30.9067 23C30.9004 23 30.8942 23 30.888 23C30.8818 23 30.8756 23 30.8695 23C30.8633 23 30.8571 23 30.8509 23C30.8447 23 30.8386 23 30.8324 23C30.8262 23 30.8201 23 30.8139 23C30.8078 23 30.8016 23 30.7955 23C30.7894 23 30.7832 23 30.7771 23C30.771 23 30.7649 23 30.7587 23C30.7526 23 30.7465 23 30.7404 23C30.7343 23 30.7282 23 30.7221 23C30.7161 23 30.71 23 30.7039 23C30.6978 23 30.6917 23 30.6857 23C30.6796 23 30.6736 23 30.6675 23C30.6615 23 30.6554 23 30.6494 23C30.6433 23 30.6373 23 30.6313 23C30.6253 23 30.6192 23 30.6132 23C30.6072 23 30.6012 23 30.5952 23C30.5892 23 30.5832 23 30.5772 23C30.5713 23 30.5653 23 30.5593 23C30.5533 23 30.5474 23 30.5414 23C30.5354 23 30.5295 23 30.5235 23C30.5176 23 30.5117 23 30.5057 23C30.4998 23 30.4939 23 30.4879 23C30.482 23 30.4761 23 30.4702 23C30.4643 23 30.4584 23 30.4525 23C30.4466 23 30.4407 23 30.4348 23C30.429 23 30.4231 23 30.4172 23C30.4114 23 30.4055 23 30.3996 23C30.3938 23 30.3879 23 30.3821 23C30.3763 23 30.3704 23 30.3646 23C30.3588 23 30.353 23 30.3471 23C30.3413 23 30.3355 23 30.3297 23C30.3239 23 30.3181 23 30.3124 23C30.3066 23 30.3008 23 30.295 23C30.2893 23 30.2835 23 30.2777 23C30.272 23 30.2662 23 30.2605 23C30.2547 23 30.249 23 30.2433 23C30.2375 23 30.2318 23 30.2261 23C30.2204 23 30.2147 23 30.209 23C30.2033 23 30.1976 23 30.1919 23C30.1862 23 30.1805 23 30.1749 23C30.1692 23 30.1635 23 30.1579 23C30.1522 23 30.1466 23 30.1409 23C30.1353 23 30.1296 23 30.124 23C30.1184 23 30.1128 23 30.1072 23C30.1015 23 30.0959 23 30.0903 23C30.0847 23 30.0791 23 30.0736 23C30.068 23 30.0624 23 30.0568 23C30.0513 23 30.0457 23 30.0401 23C30.0346 23 30.029 23 30.0235 23C30.0179 23 30.0124 23 30.0069 23C30.0014 23 29.9958 23 29.9903 23C29.9848 23 29.9793 23 29.9738 23C29.9683 23 29.9628 23 29.9574 23C29.9519 23 29.9464 23 29.9409 23C29.9355 23 29.93 23 29.9246 23C29.9191 23 29.9137 23 29.9082 23C29.9028 23 29.8974 23 29.8919 23C29.8865 23 29.8811 23 29.8757 23C29.8703 23 29.8649 23 29.8595 23C29.8541 23 29.8487 23 29.8434 23C29.838 23 29.8326 23 29.8273 23C29.8219 23 29.8165 23 29.8112 23C29.8059 23 29.8005 23 29.7952 23C29.7899 23 29.7845 23 29.7792 23C29.7739 23 29.7686 23 29.7633 23C29.758 23 29.7527 23 29.7474 23C29.7422 23 29.7369 23 29.7316 23C29.7264 23 29.7211 23 29.7158 23C29.7106 23 29.7054 23 29.7001 23C29.6949 23 29.6897 23 29.6844 23C29.6792 23 29.674 23 29.6688 23C29.6636 23 29.6584 23 29.6532 23C29.648 23 29.6429 23 29.6377 23C29.6325 23 29.6274 23 29.6222 23C29.6171 23 29.6119 23 29.6068 23C29.6016 23 29.5965 23 29.5914 23C29.5863 23 29.5811 23 29.576 23C29.5709 23 29.5658 23 29.5607 23C29.5557 23 29.5506 23 29.5455 23C29.5404 23 29.5354 23 29.5303 23C29.5253 23 29.5202 23 29.5152 23C29.5101 23 29.5051 23 29.5001 23C29.4951 23 29.49 23 29.485 23C29.48 23 29.475 23 29.47 23C29.465 23 29.4601 23 29.4551 23C29.4501 23 29.4452 23 29.4402 23C29.4352 23 29.4303 23 29.4254 23C29.4204 23 29.4155 23 29.4106 23C29.4056 23 29.4007 23 29.3958 23C29.3909 23 29.386 23 29.3811 23C29.3762 23 29.3714 23 29.3665 23C29.3616 23 29.3568 23 29.3519 23C29.3471 23 29.3422 23 29.3374 23C29.3325 23 29.3277 23 29.3229 23C29.3181 23 29.3133 23 29.3084 23C29.3036 23 29.2989 23 29.2941 23C29.2893 23 29.2845 23 29.2797 23C29.275 23 29.2702 23 29.2655 23C29.2607 23 29.256 23 29.2512 23C29.2465 23 29.2418 23 29.2371 23C29.2324 23 29.2276 23 29.2229 23C29.2183 23 29.2136 23 29.2089 23C29.2042 23 29.1995 23 29.1949 23C29.1902 23 29.1856 23 29.1809 23C29.1763 23 29.1716 23 29.167 23C29.1624 23 29.1578 23 29.1532 23C29.1485 23 29.1439 23 29.1394 23C29.1348 23 29.1302 23 29.1256 23C29.121 23 29.1165 23 29.1119 23C29.1074 23 29.1028 23 29.0983 23C29.0937 23 29.0892 23 29.0847 23C29.0802 23 29.0757 23 29.0712 23C29.0667 23 29.0622 23 29.0577 23C29.0532 23 29.0487 23 29.0443 23C29.0398 23 29.0354 23 29.0309 23C29.0265 23 29.022 23 29.0176 23C29.0132 23 29.0088 23 29.0044 23C29 23 28.9956 23 28.9912 23C28.9868 23 28.9824 23 28.978 23C28.9737 23 28.9693 23 28.9649 23C28.9606 23 28.9562 23 28.9519 23C28.9476 23 28.9433 23 28.9389 23C28.9346 23 28.9303 23 28.926 23C28.9217 23 28.9174 23 28.9132 23C28.9089 23 28.9046 23 28.9004 23C28.8961 23 28.8919 23 28.8876 23C28.8834 23 28.8792 23 28.8749 23C28.8707 23 28.8665 23 28.8623 23C28.8581 23 28.8539 23 28.8497 23C28.8455 23 28.8414 23 28.8372 23C28.8331 23 28.8289 23 28.8248 23C28.8206 23 28.8165 23 28.8124 23C28.8082 23 28.8041 23 28.8 23C28.7959 23 28.7918 23 28.7877 23C28.7836 23 28.7796 23 28.7755 23C28.7714 23 28.7674 23 28.7633 23C28.7593 23 28.7553 23 28.7512 23C28.7472 23 28.7432 23 28.7392 23C28.7352 23 28.7312 23 28.7272 23C28.7232 23 28.7192 23 28.7153 23C28.7113 23 28.7073 23 28.7034 23C28.6994 23 28.6955 23 28.6916 23C28.6877 23 28.6837 23 28.6798 23C28.6759 23 28.672 23 28.6681 23C28.6642 23 28.6604 23 28.6565 23C28.6526 23 28.6488 23 28.6449 23C28.6411 23 28.6372 23 28.6334 23C28.6296 23 28.6258 23 28.622 23C28.6182 23 28.6144 23 28.6106 23C28.6068 23 28.603 23 28.5993 23C28.5955 23 28.5917 23 28.588 23C28.5842 23 28.5805 23 28.5768 23C28.5731 23 28.5693 23 28.5656 23C28.5619 23 28.5582 23 28.5545 23C28.5509 23 28.5472 23 28.5435 23C28.5399 23 28.5362 23 28.5326 23C28.5289 23 28.5253 23 28.5217 23C28.518 23 28.5144 23 28.5108 23C28.5072 23 28.5036 23 28.5001 23V29C28.5036 29 28.5072 29 28.5108 29C28.5144 29 28.518 29 28.5217 29C28.5253 29 28.5289 29 28.5326 29C28.5362 29 28.5399 29 28.5435 29C28.5472 29 28.5509 29 28.5545 29C28.5582 29 28.5619 29 28.5656 29C28.5693 29 28.5731 29 28.5768 29C28.5805 29 28.5842 29 28.588 29C28.5917 29 28.5955 29 28.5993 29C28.603 29 28.6068 29 28.6106 29C28.6144 29 28.6182 29 28.622 29C28.6258 29 28.6296 29 28.6334 29C28.6372 29 28.6411 29 28.6449 29C28.6488 29 28.6526 29 28.6565 29C28.6604 29 28.6642 29 28.6681 29C28.672 29 28.6759 29 28.6798 29C28.6837 29 28.6877 29 28.6916 29C28.6955 29 28.6994 29 28.7034 29C28.7073 29 28.7113 29 28.7153 29C28.7192 29 28.7232 29 28.7272 29C28.7312 29 28.7352 29 28.7392 29C28.7432 29 28.7472 29 28.7512 29C28.7553 29 28.7593 29 28.7633 29C28.7674 29 28.7714 29 28.7755 29C28.7796 29 28.7836 29 28.7877 29C28.7918 29 28.7959 29 28.8 29C28.8041 29 28.8082 29 28.8124 29C28.8165 29 28.8206 29 28.8248 29C28.8289 29 28.8331 29 28.8372 29C28.8414 29 28.8455 29 28.8497 29C28.8539 29 28.8581 29 28.8623 29C28.8665 29 28.8707 29 28.8749 29C28.8792 29 28.8834 29 28.8876 29C28.8919 29 28.8961 29 28.9004 29C28.9046 29 28.9089 29 28.9132 29C28.9174 29 28.9217 29 28.926 29C28.9303 29 28.9346 29 28.9389 29C28.9433 29 28.9476 29 28.9519 29C28.9562 29 28.9606 29 28.9649 29C28.9693 29 28.9737 29 28.978 29C28.9824 29 28.9868 29 28.9912 29C28.9956 29 29 29 29.0044 29C29.0088 29 29.0132 29 29.0176 29C29.022 29 29.0265 29 29.0309 29C29.0354 29 29.0398 29 29.0443 29C29.0487 29 29.0532 29 29.0577 29C29.0622 29 29.0667 29 29.0712 29C29.0757 29 29.0802 29 29.0847 29C29.0892 29 29.0937 29 29.0983 29C29.1028 29 29.1074 29 29.1119 29C29.1165 29 29.121 29 29.1256 29C29.1302 29 29.1348 29 29.1394 29C29.1439 29 29.1485 29 29.1532 29C29.1578 29 29.1624 29 29.167 29C29.1716 29 29.1763 29 29.1809 29C29.1856 29 29.1902 29 29.1949 29C29.1995 29 29.2042 29 29.2089 29C29.2136 29 29.2183 29 29.2229 29C29.2276 29 29.2324 29 29.2371 29C29.2418 29 29.2465 29 29.2512 29C29.256 29 29.2607 29 29.2655 29C29.2702 29 29.275 29 29.2797 29C29.2845 29 29.2893 29 29.2941 29C29.2989 29 29.3036 29 29.3084 29C29.3133 29 29.3181 29 29.3229 29C29.3277 29 29.3325 29 29.3374 29C29.3422 29 29.3471 29 29.3519 29C29.3568 29 29.3616 29 29.3665 29C29.3714 29 29.3762 29 29.3811 29C29.386 29 29.3909 29 29.3958 29C29.4007 29 29.4056 29 29.4106 29C29.4155 29 29.4204 29 29.4254 29C29.4303 29 29.4352 29 29.4402 29C29.4452 29 29.4501 29 29.4551 29C29.4601 29 29.465 29 29.47 29C29.475 29 29.48 29 29.485 29C29.49 29 29.4951 29 29.5001 29C29.5051 29 29.5101 29 29.5152 29C29.5202 29 29.5253 29 29.5303 29C29.5354 29 29.5404 29 29.5455 29C29.5506 29 29.5557 29 29.5607 29C29.5658 29 29.5709 29 29.576 29C29.5811 29 29.5863 29 29.5914 29C29.5965 29 29.6016 29 29.6068 29C29.6119 29 29.6171 29 29.6222 29C29.6274 29 29.6325 29 29.6377 29C29.6429 29 29.648 29 29.6532 29C29.6584 29 29.6636 29 29.6688 29C29.674 29 29.6792 29 29.6844 29C29.6897 29 29.6949 29 29.7001 29C29.7054 29 29.7106 29 29.7158 29C29.7211 29 29.7264 29 29.7316 29C29.7369 29 29.7422 29 29.7474 29C29.7527 29 29.758 29 29.7633 29C29.7686 29 29.7739 29 29.7792 29C29.7845 29 29.7899 29 29.7952 29C29.8005 29 29.8059 29 29.8112 29C29.8165 29 29.8219 29 29.8273 29C29.8326 29 29.838 29 29.8434 29C29.8487 29 29.8541 29 29.8595 29C29.8649 29 29.8703 29 29.8757 29C29.8811 29 29.8865 29 29.8919 29C29.8974 29 29.9028 29 29.9082 29C29.9137 29 29.9191 29 29.9246 29C29.93 29 29.9355 29 29.9409 29C29.9464 29 29.9519 29 29.9574 29C29.9628 29 29.9683 29 29.9738 29C29.9793 29 29.9848 29 29.9903 29C29.9958 29 30.0014 29 30.0069 29C30.0124 29 30.0179 29 30.0235 29C30.029 29 30.0346 29 30.0401 29C30.0457 29 30.0513 29 30.0568 29C30.0624 29 30.068 29 30.0736 29C30.0791 29 30.0847 29 30.0903 29C30.0959 29 30.1015 29 30.1072 29C30.1128 29 30.1184 29 30.124 29C30.1296 29 30.1353 29 30.1409 29C30.1466 29 30.1522 29 30.1579 29C30.1635 29 30.1692 29 30.1749 29C30.1805 29 30.1862 29 30.1919 29C30.1976 29 30.2033 29 30.209 29C30.2147 29 30.2204 29 30.2261 29C30.2318 29 30.2375 29 30.2433 29C30.249 29 30.2547 29 30.2605 29C30.2662 29 30.272 29 30.2777 29C30.2835 29 30.2893 29 30.295 29C30.3008 29 30.3066 29 30.3124 29C30.3181 29 30.3239 29 30.3297 29C30.3355 29 30.3413 29 30.3471 29C30.353 29 30.3588 29 30.3646 29C30.3704 29 30.3763 29 30.3821 29C30.3879 29 30.3938 29 30.3996 29C30.4055 29 30.4114 29 30.4172 29C30.4231 29 30.429 29 30.4348 29C30.4407 29 30.4466 29 30.4525 29C30.4584 29 30.4643 29 30.4702 29C30.4761 29 30.482 29 30.4879 29C30.4939 29 30.4998 29 30.5057 29C30.5117 29 30.5176 29 30.5235 29C30.5295 29 30.5354 29 30.5414 29C30.5474 29 30.5533 29 30.5593 29C30.5653 29 30.5713 29 30.5772 29C30.5832 29 30.5892 29 30.5952 29C30.6012 29 30.6072 29 30.6132 29C30.6192 29 30.6253 29 30.6313 29C30.6373 29 30.6433 29 30.6494 29C30.6554 29 30.6615 29 30.6675 29C30.6736 29 30.6796 29 30.6857 29C30.6917 29 30.6978 29 30.7039 29C30.71 29 30.7161 29 30.7221 29C30.7282 29 30.7343 29 30.7404 29C30.7465 29 30.7526 29 30.7587 29C30.7649 29 30.771 29 30.7771 29C30.7832 29 30.7894 29 30.7955 29C30.8016 29 30.8078 29 30.8139 29C30.8201 29 30.8262 29 30.8324 29C30.8386 29 30.8447 29 30.8509 29C30.8571 29 30.8633 29 30.8695 29C30.8756 29 30.8818 29 30.888 29C30.8942 29 30.9004 29 30.9067 29C30.9129 29 30.9191 29 30.9253 29C30.9315 29 30.9378 29 30.944 29C30.9502 29 30.9565 29 30.9627 29C30.969 29 30.9752 29 30.9815 29C30.9877 29 30.994 29 31.0003 29C31.0065 29 31.0128 29 31.0191 29C31.0254 29 31.0317 29 31.038 29C31.0443 29 31.0506 29 31.0569 29C31.0632 29 31.0695 29 31.0758 29C31.0821 29 31.0884 29 31.0948 29C31.1011 29 31.1074 29 31.1138 29C31.1201 29 31.1265 29 31.1328 29C31.1392 29 31.1455 29 31.1519 29C31.1583 29 31.1646 29 31.171 29C31.1774 29 31.1838 29 31.1901 29C31.1965 29 31.2029 29 31.2093 29C31.2157 29 31.2221 29 31.2285 29C31.2349 29 31.2413 29 31.2478 29C31.2542 29 31.2606 29 31.267 29C31.2735 29 31.2799 29 31.2863 29C31.2928 29 31.2992 29 31.3057 29C31.3121 29 31.3186 29 31.3251 29C31.3315 29 31.338 29 31.3445 29C31.3509 29 31.3574 29 31.3639 29C31.3704 29 31.3769 29 31.3834 29C31.3899 29 31.3964 29 31.4029 29C31.4094 29 31.4159 29 31.4224 29C31.4289 29 31.4354 29 31.442 29C31.4485 29 31.455 29 31.4616 29C31.4681 29 31.4746 29 31.4812 29C31.4877 29 31.4943 29 31.5008 29C31.5074 29 31.514 29 31.5205 29C31.5271 29 31.5337 29 31.5403 29C31.5468 29 31.5534 29 31.56 29C31.5666 29 31.5732 29 31.5798 29C31.5864 29 31.593 29 31.5996 29C31.6062 29 31.6128 29 31.6194 29C31.6261 29 31.6327 29 31.6393 29C31.6459 29 31.6526 29 31.6592 29C31.6659 29 31.6725 29 31.6792 29C31.6858 29 31.6925 29 31.6991 29C31.7058 29 31.7124 29 31.7191 29C31.7258 29 31.7324 29 31.7391 29C31.7458 29 31.7525 29 31.7592 29C31.7659 29 31.7726 29 31.7792 29C31.7859 29 31.7926 29 31.7994 29C31.8061 29 31.8128 29 31.8195 29C31.8262 29 31.8329 29 31.8397 29C31.8464 29 31.8531 29 31.8598 29C31.8666 29 31.8733 29 31.8801 29C31.8868 29 31.8936 29 31.9003 29C31.9071 29 31.9138 29 31.9206 29C31.9273 29 31.9341 29 31.9409 29C31.9477 29 31.9544 29 31.9612 29C31.968 29 31.9748 29 31.9816 29C31.9884 29 31.9952 29 32.002 29C32.0088 29 32.0156 29 32.0224 29C32.0292 29 32.036 29 32.0428 29C32.0496 29 32.0564 29 32.0633 29C32.0701 29 32.0769 29 32.0838 29C32.0906 29 32.0974 29 32.1043 29C32.1111 29 32.118 29 32.1248 29C32.1317 29 32.1385 29 32.1454 29C32.1522 29 32.1591 29 32.166 29C32.1728 29 32.1797 29 32.1866 29C32.1935 29 32.2003 29 32.2072 29C32.2141 29 32.221 29 32.2279 29C32.2348 29 32.2417 29 32.2486 29C32.2555 29 32.2624 29 32.2693 29C32.2762 29 32.2831 29 32.2901 29C32.297 29 32.3039 29 32.3108 29C32.3178 29 32.3247 29 32.3316 29C32.3386 29 32.3455 29 32.3524 29C32.3594 29 32.3663 29 32.3733 29C32.3802 29 32.3872 29 32.3941 29C32.4011 29 32.4081 29 32.415 29C32.422 29 32.429 29 32.4359 29C32.4429 29 32.4499 29 32.4569 29C32.4639 29 32.4708 29 32.4778 29C32.4848 29 32.4918 29 32.4988 29C32.5058 29 32.5128 29 32.5198 29C32.5268 29 32.5338 29 32.5409 29C32.5479 29 32.5549 29 32.5619 29C32.5689 29 32.5759 29 32.583 29C32.59 29 32.597 29 32.6041 29C32.6111 29 32.6181 29 32.6252 29C32.6322 29 32.6393 29 32.6463 29C32.6534 29 32.6604 29 32.6675 29C32.6745 29 32.6816 29 32.6887 29C32.6957 29 32.7028 29 32.7099 29C32.7169 29 32.724 29 32.7311 29C32.7382 29 32.7452 29 32.7523 29C32.7594 29 32.7665 29 32.7736 29C32.7807 29 32.7878 29 32.7949 29C32.802 29 32.8091 29 32.8162 29C32.8233 29 32.8304 29 32.8375 29C32.8446 29 32.8518 29 32.8589 29C32.866 29 32.8731 29 32.8802 29C32.8874 29 32.8945 29 32.9016 29C32.9088 29 32.9159 29 32.923 29C32.9302 29 32.9373 29 32.9445 29C32.9516 29 32.9588 29 32.9659 29C32.9731 29 32.9802 29 32.9874 29C32.9945 29 33.0017 29 33.0089 29C33.016 29 33.0232 29 33.0304 29C33.0375 29 33.0447 29 33.0519 29C33.0591 29 33.0662 29 33.0734 29C33.0806 29 33.0878 29 33.095 29C33.1022 29 33.1094 29 33.1166 29C33.1238 29 33.131 29 33.1382 29C33.1454 29 33.1526 29 33.1598 29C33.167 29 33.1742 29 33.1814 29C33.1886 29 33.1958 29 33.203 29C33.2103 29 33.2175 29 33.2247 29C33.2319 29 33.2392 29 33.2464 29C33.2536 29 33.2609 29 33.2681 29C33.2753 29 33.2826 29 33.2898 29C33.2971 29 33.3043 29 33.3116 29C33.3188 29 33.326 29 33.3333 29C33.3406 29 33.3478 29 33.3551 29C33.3623 29 33.3696 29 33.3769 29C33.3841 29 33.3914 29 33.3987 29C33.4059 29 33.4132 29 33.4205 29C33.4277 29 33.435 29 33.4423 29C33.4496 29 33.4569 29 33.4641 29C33.4714 29 33.4787 29 33.486 29C33.4933 29 33.5006 29 33.5079 29C33.5152 29 33.5225 29 33.5298 29C33.5371 29 33.5444 29 33.5517 29C33.559 29 33.5663 29 33.5736 29C33.5809 29 33.5882 29 33.5955 29C33.6029 29 33.6102 29 33.6175 29C33.6248 29 33.6321 29 33.6395 29C33.6468 29 33.6541 29 33.6614 29C33.6688 29 33.6761 29 33.6834 29C33.6908 29 33.6981 29 33.7054 29C33.7128 29 33.7201 29 33.7275 29C33.7348 29 33.7422 29 33.7495 29C33.7568 29 33.7642 29 33.7715 29C33.7789 29 33.7863 29 33.7936 29C33.801 29 33.8083 29 33.8157 29C33.823 29 33.8304 29 33.8378 29C33.8451 29 33.8525 29 33.8599 29C33.8672 29 33.8746 29 33.882 29C33.8893 29 33.8967 29 33.9041 29C33.9115 29 33.9189 29 33.9262 29C33.9336 29 33.941 29 33.9484 29C33.9558 29 33.9632 29 33.9705 29C33.9779 29 33.9853 29 33.9927 29C34.0001 29 34.0075 29 34.0149 29C34.0223 29 34.0297 29 34.0371 29C34.0445 29 34.0519 29 34.0593 29C34.0667 29 34.0741 29 34.0815 29C34.0889 29 34.0963 29 34.1037 29C34.1112 29 34.1186 29 34.126 29C34.1334 29 34.1408 29 34.1482 29C34.1556 29 34.1631 29 34.1705 29C34.1779 29 34.1853 29 34.1928 29C34.2002 29 34.2076 29 34.215 29C34.2225 29 34.2299 29 34.2373 29C34.2447 29 34.2522 29 34.2596 29C34.2671 29 34.2745 29 34.2819 29C34.2894 29 34.2968 29 34.3042 29C34.3117 29 34.3191 29 34.3266 29C34.334 29 34.3415 29 34.3489 29C34.3563 29 34.3638 29 34.3712 29C34.3787 29 34.3861 29 34.3936 29C34.401 29 34.4085 29 34.416 29C34.4234 29 34.4309 29 34.4383 29C34.4458 29 34.4532 29 34.4607 29C34.4682 29 34.4756 29 34.4831 29C34.4905 29 34.498 29 34.5055 29C34.5129 29 34.5204 29 34.5279 29C34.5353 29 34.5428 29 34.5503 29C34.5578 29 34.5652 29 34.5727 29C34.5802 29 34.5877 29 34.5951 29C34.6026 29 34.6101 29 34.6176 29C34.625 29 34.6325 29 34.64 29C34.6475 29 34.655 29 34.6624 29C34.6699 29 34.6774 29 34.6849 29C34.6924 29 34.6999 29 34.7073 29C34.7148 29 34.7223 29 34.7298 29C34.7373 29 34.7448 29 34.7523 29C34.7598 29 34.7673 29 34.7747 29C34.7822 29 34.7897 29 34.7972 29C34.8047 29 34.8122 29 34.8197 29C34.8272 29 34.8347 29 34.8422 29C34.8497 29 34.8572 29 34.8647 29C34.8722 29 34.8797 29 34.8872 29C34.8947 29 34.9022 29 34.9097 29C34.9172 29 34.9247 29 34.9322 29C34.9397 29 34.9472 29 34.9547 29C34.9622 29 34.9697 29 34.9772 29C34.9847 29 34.9923 29 34.9998 29C35.0073 29 35.0148 29 35.0223 29C35.0298 29 35.0373 29 35.0448 29C35.0523 29 35.0598 29 35.0674 29C35.0749 29 35.0824 29 35.0899 29C35.0974 29 35.1049 29 35.1124 29C35.1199 29 35.1275 29 35.135 29C35.1425 29 35.15 29 35.1575 29C35.165 29 35.1726 29 35.1801 29C35.1876 29 35.1951 29 35.2026 29C35.2101 29 35.2177 29 35.2252 29C35.2327 29 35.2402 29 35.2477 29C35.2553 29 35.2628 29 35.2703 29C35.2778 29 35.2853 29 35.2929 29C35.3004 29 35.3079 29 35.3154 29C35.323 29 35.3305 29 35.338 29C35.3455 29 35.353 29 35.3606 29C35.3681 29 35.3756 29 35.3831 29C35.3907 29 35.3982 29 35.4057 29C35.4132 29 35.4207 29 35.4283 29C35.4358 29 35.4433 29 35.4508 29C35.4584 29 35.4659 29 35.4734 29C35.4809 29 35.4885 29 35.496 29C35.5035 29 35.511 29 35.5186 29C35.5261 29 35.5336 29 35.5411 29C35.5487 29 35.5562 29 35.5637 29C35.5712 29 35.5788 29 35.5863 29C35.5938 29 35.6013 29 35.6089 29C35.6164 29 35.6239 29 35.6314 29C35.639 29 35.6465 29 35.654 29C35.6615 29 35.669 29 35.6766 29C35.6841 29 35.6916 29 35.6991 29C35.7067 29 35.7142 29 35.7217 29C35.7292 29 35.7368 29 35.7443 29C35.7518 29 35.7593 29 35.7668 29C35.7744 29 35.7819 29 35.7894 29C35.7969 29 35.8044 29 35.812 29C35.8195 29 35.827 29 35.8345 29C35.8421 29 35.8496 29 35.8571 29C35.8646 29 35.8721 29 35.8796 29C35.8872 29 35.8947 29 35.9022 29C35.9097 29 35.9172 29 35.9248 29C35.9323 29 35.9398 29 35.9473 29C35.9548 29 35.9623 29 35.9698 29C35.9774 29 35.9849 29 35.9924 29C35.9999 29 36.0074 29 36.0149 29C36.0224 29 36.03 29 36.0375 29C36.045 29 36.0525 29 36.06 29C36.0675 29 36.075 29 36.0825 29C36.09 29 36.0975 29 36.1051 29C36.1126 29 36.1201 29 36.1276 29C36.1351 29 36.1426 29 36.1501 29C36.1576 29 36.1651 29 36.1726 29C36.1801 29 36.1876 29 36.1951 29C36.2026 29 36.2101 29 36.2176 29C36.2251 29 36.2326 29 36.2401 29C36.2476 29 36.2551 29 36.2626 29C36.2701 29 36.2776 29 36.2851 29C36.2926 29 36.3001 29 36.3076 29C36.3151 29 36.3226 29 36.33 29C36.3375 29 36.345 29 36.3525 29C36.36 29 36.3675 29 36.375 29C36.3825 29 36.39 29 36.3974 29C36.4049 29 36.4124 29 36.4199 29C36.4274 29 36.4349 29 36.4423 29C36.4498 29 36.4573 29 36.4648 29C36.4723 29 36.4797 29 36.4872 29C36.4947 29 36.5022 29 36.5096 29C36.5171 29 36.5246 29 36.5321 29C36.5395 29 36.547 29 36.5545 29C36.5619 29 36.5694 29 36.5769 29C36.5843 29 36.5918 29 36.5993 29C36.6067 29 36.6142 29 36.6217 29C36.6291 29 36.6366 29 36.644 29C36.6515 29 36.659 29 36.6664 29C36.6739 29 36.6813 29 36.6888 29C36.6962 29 36.7037 29 36.7111 29C36.7186 29 36.726 29 36.7335 29C36.7409 29 36.7484 29 36.7558 29C36.7633 29 36.7707 29 36.7781 29C36.7856 29 36.793 29 36.8005 29C36.8079 29 36.8153 29 36.8228 29C36.8302 29 36.8376 29 36.8451 29C36.8525 29 36.8599 29 36.8674 29C36.8748 29 36.8822 29 36.8897 29C36.8971 29 36.9045 29 36.9119 29C36.9194 29 36.9268 29 36.9342 29C36.9416 29 36.949 29 36.9564 29C36.9639 29 36.9713 29 36.9787 29C36.9861 29 36.9935 29 37.0009 29C37.0083 29 37.0157 29 37.0231 29C37.0305 29 37.038 29 37.0454 29C37.0528 29 37.0602 29 37.0676 29C37.0749 29 37.0823 29 37.0897 29C37.0971 29 37.1045 29 37.1119 29C37.1193 29 37.1267 29 37.1341 29C37.1415 29 37.1489 29 37.1562 29C37.1636 29 37.171 29 37.1784 29C37.1858 29 37.1931 29 37.2005 29C37.2079 29 37.2153 29 37.2226 29C37.23 29 37.2374 29 37.2447 29C37.2521 29 37.2595 29 37.2668 29C37.2742 29 37.2815 29 37.2889 29C37.2963 29 37.3036 29 37.311 29C37.3183 29 37.3257 29 37.333 29C37.3404 29 37.3477 29 37.3551 29C37.3624 29 37.3697 29 37.3771 29C37.3844 29 37.3918 29 37.3991 29C37.4064 29 37.4138 29 37.4211 29C37.4284 29 37.4358 29 37.4431 29C37.4504 29 37.4577 29 37.4651 29C37.4724 29 37.4797 29 37.487 29C37.4943 29 37.5017 29 37.509 29C37.5163 29 37.5236 29 37.5309 29C37.5382 29 37.5455 29 37.5528 29C37.5601 29 37.5674 29 37.5747 29C37.582 29 37.5893 29 37.5966 29C37.6039 29 37.6112 29 37.6185 29C37.6257 29 37.633 29 37.6403 29C37.6476 29 37.6549 29 37.6622 29C37.6694 29 37.6767 29 37.684 29C37.6912 29 37.6985 29 37.7058 29C37.713 29 37.7203 29 37.7276 29C37.7348 29 37.7421 29 37.7493 29C37.7566 29 37.7639 29 37.7711 29C37.7784 29 37.7856 29 37.7929 29C37.8001 29 37.8073 29 37.8146 29C37.8218 29 37.8291 29 37.8363 29C37.8435 29 37.8507 29 37.858 29C37.8652 29 37.8724 29 37.8797 29C37.8869 29 37.8941 29 37.9013 29C37.9085 29 37.9157 29 37.9229 29C37.9302 29 37.9374 29 37.9446 29C37.9518 29 37.959 29 37.9662 29C37.9734 29 37.9806 29 37.9878 29C37.995 29 38.0021 29 38.0093 29C38.0165 29 38.0237 29 38.0309 29C38.0381 29 38.0452 29 38.0524 29C38.0596 29 38.0668 29 38.0739 29C38.0811 29 38.0883 29 38.0954 29C38.1026 29 38.1097 29 38.1169 29C38.124 29 38.1312 29 38.1383 29C38.1455 29 38.1526 29 38.1598 29C38.1669 29 38.1741 29 38.1812 29C38.1883 29 38.1955 29 38.2026 29C38.2097 29 38.2168 29 38.224 29C38.2311 29 38.2382 29 38.2453 29C38.2524 29 38.2596 29 38.2667 29C38.2738 29 38.2809 29 38.288 29C38.2951 29 38.3022 29 38.3093 29C38.3164 29 38.3235 29 38.3306 29C38.3376 29 38.3447 29 38.3518 29C38.3589 29 38.366 29 38.373 29C38.3801 29 38.3872 29 38.3943 29C38.4013 29 38.4084 29 38.4154 29C38.4225 29 38.4296 29 38.4366 29C38.4437 29 38.4507 29 38.4578 29C38.4648 29 38.4719 29 38.4789 29C38.4859 29 38.493 29 38.5 29V23Z" fill="black"/>
<path d="M51.0058 26L48.007 26.0833L48.088 29H51.0058V26ZM69.0058 11C70.6627 11 72.0058 9.65685 72.0058 8C72.0058 6.34315 70.6627 5 69.0058 5V11ZM61.0057 26V29H64.0057V26H61.0057ZM54.0046 25.9167C53.935 23.4103 54.6272 19.5929 56.8369 16.4904C58.9315 13.5494 62.553 11 69.0058 11V5C60.6586 5 55.1967 8.45064 51.9497 13.0096C48.8178 17.4071 47.9099 22.5897 48.007 26.0833L54.0046 25.9167ZM69.0058 5C64.5138 5 61.7046 8.19165 60.1692 11.9202C58.6404 15.633 58.0057 20.5846 58.0057 26H64.0057C64.0057 20.9154 64.6211 16.867 65.7173 14.2048C66.807 11.5583 67.9978 11 69.0058 11V5ZM61.0057 23C60.9987 23 60.9917 23 60.9846 23C60.9776 23 60.9706 23 60.9635 23C60.9565 23 60.9494 23 60.9424 23C60.9353 23 60.9282 23 60.9212 23C60.9141 23 60.9071 23 60.9 23C60.8929 23 60.8859 23 60.8788 23C60.8717 23 60.8646 23 60.8575 23C60.8505 23 60.8434 23 60.8363 23C60.8292 23 60.8221 23 60.815 23C60.8079 23 60.8008 23 60.7937 23C60.7866 23 60.7795 23 60.7724 23C60.7653 23 60.7582 23 60.7511 23C60.744 23 60.7368 23 60.7297 23C60.7226 23 60.7155 23 60.7083 23C60.7012 23 60.6941 23 60.6869 23C60.6798 23 60.6727 23 60.6655 23C60.6584 23 60.6512 23 60.6441 23C60.6369 23 60.6298 23 60.6226 23C60.6155 23 60.6083 23 60.6012 23C60.594 23 60.5868 23 60.5797 23C60.5725 23 60.5653 23 60.5581 23C60.551 23 60.5438 23 60.5366 23C60.5294 23 60.5223 23 60.5151 23C60.5079 23 60.5007 23 60.4935 23C60.4863 23 60.4791 23 60.4719 23C60.4647 23 60.4575 23 60.4503 23C60.4431 23 60.4359 23 60.4287 23C60.4215 23 60.4143 23 60.407 23C60.3998 23 60.3926 23 60.3854 23C60.3782 23 60.3709 23 60.3637 23C60.3565 23 60.3493 23 60.342 23C60.3348 23 60.3276 23 60.3203 23C60.3131 23 60.3058 23 60.2986 23C60.2913 23 60.2841 23 60.2768 23C60.2696 23 60.2623 23 60.2551 23C60.2478 23 60.2406 23 60.2333 23C60.2261 23 60.2188 23 60.2115 23C60.2043 23 60.197 23 60.1897 23C60.1824 23 60.1752 23 60.1679 23C60.1606 23 60.1533 23 60.1461 23C60.1388 23 60.1315 23 60.1242 23C60.1169 23 60.1096 23 60.1023 23C60.095 23 60.0877 23 60.0804 23C60.0731 23 60.0658 23 60.0585 23C60.0512 23 60.0439 23 60.0366 23C60.0293 23 60.022 23 60.0147 23C60.0074 23 60.0001 23 59.9928 23C59.9854 23 59.9781 23 59.9708 23C59.9635 23 59.9562 23 59.9488 23C59.9415 23 59.9342 23 59.9268 23C59.9195 23 59.9122 23 59.9048 23C59.8975 23 59.8902 23 59.8828 23C59.8755 23 59.8681 23 59.8608 23C59.8535 23 59.8461 23 59.8388 23C59.8314 23 59.8241 23 59.8167 23C59.8094 23 59.802 23 59.7946 23C59.7873 23 59.7799 23 59.7726 23C59.7652 23 59.7578 23 59.7505 23C59.7431 23 59.7357 23 59.7284 23C59.721 23 59.7136 23 59.7062 23C59.6989 23 59.6915 23 59.6841 23C59.6767 23 59.6694 23 59.662 23C59.6546 23 59.6472 23 59.6398 23C59.6324 23 59.625 23 59.6177 23C59.6103 23 59.6029 23 59.5955 23C59.5881 23 59.5807 23 59.5733 23C59.5659 23 59.5585 23 59.5511 23C59.5437 23 59.5363 23 59.5289 23C59.5215 23 59.5141 23 59.5067 23C59.4992 23 59.4918 23 59.4844 23C59.477 23 59.4696 23 59.4622 23C59.4548 23 59.4473 23 59.4399 23C59.4325 23 59.4251 23 59.4177 23C59.4102 23 59.4028 23 59.3954 23C59.388 23 59.3805 23 59.3731 23C59.3657 23 59.3583 23 59.3508 23C59.3434 23 59.336 23 59.3285 23C59.3211 23 59.3136 23 59.3062 23C59.2988 23 59.2913 23 59.2839 23C59.2764 23 59.269 23 59.2616 23C59.2541 23 59.2467 23 59.2392 23C59.2318 23 59.2243 23 59.2169 23C59.2094 23 59.202 23 59.1945 23C59.1871 23 59.1796 23 59.1721 23C59.1647 23 59.1572 23 59.1498 23C59.1423 23 59.1349 23 59.1274 23C59.1199 23 59.1125 23 59.105 23C59.0975 23 59.0901 23 59.0826 23C59.0751 23 59.0677 23 59.0602 23C59.0527 23 59.0453 23 59.0378 23C59.0303 23 59.0228 23 59.0154 23C59.0079 23 59.0004 23 58.9929 23C58.9855 23 58.978 23 58.9705 23C58.963 23 58.9556 23 58.9481 23C58.9406 23 58.9331 23 58.9256 23C58.9181 23 58.9107 23 58.9032 23C58.8957 23 58.8882 23 58.8807 23C58.8732 23 58.8657 23 58.8583 23C58.8508 23 58.8433 23 58.8358 23C58.8283 23 58.8208 23 58.8133 23C58.8058 23 58.7983 23 58.7908 23C58.7833 23 58.7758 23 58.7683 23C58.7608 23 58.7533 23 58.7458 23C58.7383 23 58.7308 23 58.7233 23C58.7158 23 58.7083 23 58.7008 23C58.6933 23 58.6858 23 58.6783 23C58.6708 23 58.6633 23 58.6558 23C58.6483 23 58.6408 23 58.6333 23C58.6258 23 58.6183 23 58.6108 23C58.6033 23 58.5958 23 58.5883 23C58.5808 23 58.5732 23 58.5657 23C58.5582 23 58.5507 23 58.5432 23C58.5357 23 58.5282 23 58.5207 23C58.5132 23 58.5056 23 58.4981 23C58.4906 23 58.4831 23 58.4756 23C58.4681 23 58.4606 23 58.453 23C58.4455 23 58.438 23 58.4305 23C58.423 23 58.4155 23 58.4079 23C58.4004 23 58.3929 23 58.3854 23C58.3779 23 58.3703 23 58.3628 23C58.3553 23 58.3478 23 58.3403 23C58.3327 23 58.3252 23 58.3177 23C58.3102 23 58.3027 23 58.2951 23C58.2876 23 58.2801 23 58.2726 23C58.2651 23 58.2575 23 58.25 23C58.2425 23 58.235 23 58.2274 23C58.2199 23 58.2124 23 58.2049 23C58.1974 23 58.1898 23 58.1823 23C58.1748 23 58.1673 23 58.1597 23C58.1522 23 58.1447 23 58.1372 23C58.1296 23 58.1221 23 58.1146 23C58.1071 23 58.0995 23 58.092 23C58.0845 23 58.077 23 58.0694 23C58.0619 23 58.0544 23 58.0469 23C58.0393 23 58.0318 23 58.0243 23C58.0168 23 58.0092 23 58.0017 23C57.9942 23 57.9867 23 57.9792 23C57.9716 23 57.9641 23 57.9566 23C57.9491 23 57.9415 23 57.934 23C57.9265 23 57.919 23 57.9114 23C57.9039 23 57.8964 23 57.8889 23C57.8813 23 57.8738 23 57.8663 23C57.8588 23 57.8513 23 57.8437 23C57.8362 23 57.8287 23 57.8212 23C57.8136 23 57.8061 23 57.7986 23C57.7911 23 57.7836 23 57.776 23C57.7685 23 57.761 23 57.7535 23C57.746 23 57.7384 23 57.7309 23C57.7234 23 57.7159 23 57.7084 23C57.7008 23 57.6933 23 57.6858 23C57.6783 23 57.6708 23 57.6633 23C57.6557 23 57.6482 23 57.6407 23C57.6332 23 57.6257 23 57.6182 23C57.6107 23 57.6031 23 57.5956 23C57.5881 23 57.5806 23 57.5731 23C57.5656 23 57.5581 23 57.5506 23C57.543 23 57.5355 23 57.528 23C57.5205 23 57.513 23 57.5055 23C57.498 23 57.4905 23 57.483 23C57.4755 23 57.468 23 57.4605 23C57.453 23 57.4454 23 57.4379 23C57.4304 23 57.4229 23 57.4154 23C57.4079 23 57.4004 23 57.3929 23C57.3854 23 57.3779 23 57.3704 23C57.3629 23 57.3554 23 57.3479 23C57.3404 23 57.3329 23 57.3254 23C57.3179 23 57.3105 23 57.303 23C57.2955 23 57.288 23 57.2805 23C57.273 23 57.2655 23 57.258 23C57.2505 23 57.243 23 57.2355 23C57.2281 23 57.2206 23 57.2131 23C57.2056 23 57.1981 23 57.1906 23C57.1831 23 57.1757 23 57.1682 23C57.1607 23 57.1532 23 57.1457 23C57.1382 23 57.1308 23 57.1233 23C57.1158 23 57.1083 23 57.1009 23C57.0934 23 57.0859 23 57.0784 23C57.071 23 57.0635 23 57.056 23C57.0486 23 57.0411 23 57.0336 23C57.0261 23 57.0187 23 57.0112 23C57.0038 23 56.9963 23 56.9888 23C56.9814 23 56.9739 23 56.9664 23C56.959 23 56.9515 23 56.9441 23C56.9366 23 56.9291 23 56.9217 23C56.9142 23 56.9068 23 56.8993 23C56.8919 23 56.8844 23 56.877 23C56.8695 23 56.8621 23 56.8546 23C56.8472 23 56.8397 23 56.8323 23C56.8249 23 56.8174 23 56.81 23C56.8025 23 56.7951 23 56.7877 23C56.7802 23 56.7728 23 56.7654 23C56.7579 23 56.7505 23 56.7431 23C56.7356 23 56.7282 23 56.7208 23C56.7133 23 56.7059 23 56.6985 23C56.6911 23 56.6836 23 56.6762 23C56.6688 23 56.6614 23 56.654 23C56.6465 23 56.6391 23 56.6317 23C56.6243 23 56.6169 23 56.6095 23C56.6021 23 56.5947 23 56.5873 23C56.5798 23 56.5724 23 56.565 23C56.5576 23 56.5502 23 56.5428 23C56.5354 23 56.528 23 56.5206 23C56.5132 23 56.5058 23 56.4985 23C56.4911 23 56.4837 23 56.4763 23C56.4689 23 56.4615 23 56.4541 23C56.4467 23 56.4394 23 56.432 23C56.4246 23 56.4172 23 56.4098 23C56.4025 23 56.3951 23 56.3877 23C56.3803 23 56.373 23 56.3656 23C56.3582 23 56.3509 23 56.3435 23C56.3361 23 56.3288 23 56.3214 23C56.3141 23 56.3067 23 56.2993 23C56.292 23 56.2846 23 56.2773 23C56.2699 23 56.2626 23 56.2552 23C56.2479 23 56.2405 23 56.2332 23C56.2259 23 56.2185 23 56.2112 23C56.2038 23 56.1965 23 56.1892 23C56.1818 23 56.1745 23 56.1672 23C56.1598 23 56.1525 23 56.1452 23C56.1379 23 56.1306 23 56.1232 23C56.1159 23 56.1086 23 56.1013 23C56.094 23 56.0867 23 56.0793 23C56.072 23 56.0647 23 56.0574 23C56.0501 23 56.0428 23 56.0355 23C56.0282 23 56.0209 23 56.0136 23C56.0063 23 55.999 23 55.9917 23C55.9845 23 55.9772 23 55.9699 23C55.9626 23 55.9553 23 55.948 23C55.9408 23 55.9335 23 55.9262 23C55.9189 23 55.9117 23 55.9044 23C55.8971 23 55.8899 23 55.8826 23C55.8753 23 55.8681 23 55.8608 23C55.8535 23 55.8463 23 55.839 23C55.8318 23 55.8245 23 55.8173 23C55.81 23 55.8028 23 55.7956 23C55.7883 23 55.7811 23 55.7738 23C55.7666 23 55.7594 23 55.7521 23C55.7449 23 55.7377 23 55.7305 23C55.7232 23 55.716 23 55.7088 23C55.7016 23 55.6944 23 55.6871 23C55.6799 23 55.6727 23 55.6655 23C55.6583 23 55.6511 23 55.6439 23C55.6367 23 55.6295 23 55.6223 23C55.6151 23 55.6079 23 55.6007 23C55.5935 23 55.5863 23 55.5792 23C55.572 23 55.5648 23 55.5576 23C55.5504 23 55.5433 23 55.5361 23C55.5289 23 55.5218 23 55.5146 23C55.5074 23 55.5003 23 55.4931 23C55.486 23 55.4788 23 55.4716 23C55.4645 23 55.4573 23 55.4502 23C55.4431 23 55.4359 23 55.4288 23C55.4216 23 55.4145 23 55.4074 23C55.4002 23 55.3931 23 55.386 23C55.3788 23 55.3717 23 55.3646 23C55.3575 23 55.3504 23 55.3433 23C55.3361 23 55.329 23 55.3219 23C55.3148 23 55.3077 23 55.3006 23C55.2935 23 55.2864 23 55.2793 23C55.2722 23 55.2652 23 55.2581 23C55.251 23 55.2439 23 55.2368 23C55.2297 23 55.2227 23 55.2156 23C55.2085 23 55.2015 23 55.1944 23C55.1873 23 55.1803 23 55.1732 23C55.1662 23 55.1591 23 55.1521 23C55.145 23 55.138 23 55.1309 23C55.1239 23 55.1168 23 55.1098 23C55.1028 23 55.0957 23 55.0887 23C55.0817 23 55.0747 23 55.0676 23C55.0606 23 55.0536 23 55.0466 23C55.0396 23 55.0326 23 55.0256 23C55.0186 23 55.0116 23 55.0046 23C54.9976 23 54.9906 23 54.9836 23C54.9766 23 54.9696 23 54.9626 23C54.9556 23 54.9487 23 54.9417 23C54.9347 23 54.9277 23 54.9208 23C54.9138 23 54.9068 23 54.8999 23C54.8929 23 54.886 23 54.879 23C54.8721 23 54.8651 23 54.8582 23C54.8512 23 54.8443 23 54.8374 23C54.8304 23 54.8235 23 54.8166 23C54.8096 23 54.8027 23 54.7958 23C54.7889 23 54.782 23 54.7751 23C54.7681 23 54.7612 23 54.7543 23C54.7474 23 54.7405 23 54.7336 23C54.7267 23 54.7199 23 54.713 23C54.7061 23 54.6992 23 54.6923 23C54.6854 23 54.6786 23 54.6717 23C54.6648 23 54.658 23 54.6511 23C54.6443 23 54.6374 23 54.6305 23C54.6237 23 54.6168 23 54.61 23C54.6032 23 54.5963 23 54.5895 23C54.5827 23 54.5758 23 54.569 23C54.5622 23 54.5554 23 54.5485 23C54.5417 23 54.5349 23 54.5281 23C54.5213 23 54.5145 23 54.5077 23C54.5009 23 54.4941 23 54.4873 23C54.4805 23 54.4737 23 54.4669 23C54.4602 23 54.4534 23 54.4466 23C54.4398 23 54.4331 23 54.4263 23C54.4196 23 54.4128 23 54.406 23C54.3993 23 54.3925 23 54.3858 23C54.3791 23 54.3723 23 54.3656 23C54.3588 23 54.3521 23 54.3454 23C54.3387 23 54.3319 23 54.3252 23C54.3185 23 54.3118 23 54.3051 23C54.2984 23 54.2917 23 54.285 23C54.2783 23 54.2716 23 54.2649 23C54.2582 23 54.2515 23 54.2449 23C54.2382 23 54.2315 23 54.2248 23C54.2182 23 54.2115 23 54.2048 23C54.1982 23 54.1915 23 54.1849 23C54.1782 23 54.1716 23 54.165 23C54.1583 23 54.1517 23 54.1451 23C54.1384 23 54.1318 23 54.1252 23C54.1186 23 54.112 23 54.1053 23C54.0987 23 54.0921 23 54.0855 23C54.0789 23 54.0723 23 54.0657 23C54.0592 23 54.0526 23 54.046 23C54.0394 23 54.0328 23 54.0263 23C54.0197 23 54.0131 23 54.0066 23C54 23 53.9935 23 53.9869 23C53.9804 23 53.9738 23 53.9673 23C53.9608 23 53.9542 23 53.9477 23C53.9412 23 53.9347 23 53.9281 23C53.9216 23 53.9151 23 53.9086 23C53.9021 23 53.8956 23 53.8891 23C53.8826 23 53.8761 23 53.8696 23C53.8632 23 53.8567 23 53.8502 23C53.8437 23 53.8373 23 53.8308 23C53.8243 23 53.8179 23 53.8114 23C53.805 23 53.7985 23 53.7921 23C53.7856 23 53.7792 23 53.7728 23C53.7663 23 53.7599 23 53.7535 23C53.7471 23 53.7407 23 53.7343 23C53.7279 23 53.7214 23 53.7151 23C53.7087 23 53.7023 23 53.6959 23C53.6895 23 53.6831 23 53.6767 23C53.6704 23 53.664 23 53.6576 23C53.6513 23 53.6449 23 53.6386 23C53.6322 23 53.6259 23 53.6195 23C53.6132 23 53.6068 23 53.6005 23C53.5942 23 53.5879 23 53.5815 23C53.5752 23 53.5689 23 53.5626 23C53.5563 23 53.55 23 53.5437 23C53.5374 23 53.5311 23 53.5248 23C53.5186 23 53.5123 23 53.506 23C53.4997 23 53.4935 23 53.4872 23C53.481 23 53.4747 23 53.4685 23C53.4622 23 53.456 23 53.4497 23C53.4435 23 53.4373 23 53.431 23C53.4248 23 53.4186 23 53.4124 23C53.4062 23 53.4 23 53.3938 23C53.3876 23 53.3814 23 53.3752 23C53.369 23 53.3628 23 53.3566 23C53.3505 23 53.3443 23 53.3381 23C53.332 23 53.3258 23 53.3197 23C53.3135 23 53.3074 23 53.3012 23C53.2951 23 53.289 23 53.2828 23C53.2767 23 53.2706 23 53.2645 23C53.2584 23 53.2523 23 53.2462 23C53.2401 23 53.234 23 53.2279 23C53.2218 23 53.2157 23 53.2096 23C53.2036 23 53.1975 23 53.1914 23C53.1854 23 53.1793 23 53.1733 23C53.1672 23 53.1612 23 53.1551 23C53.1491 23 53.143 23 53.137 23C53.131 23 53.125 23 53.119 23C53.113 23 53.107 23 53.101 23C53.095 23 53.089 23 53.083 23C53.077 23 53.071 23 53.065 23C53.0591 23 53.0531 23 53.0471 23C53.0412 23 53.0352 23 53.0293 23C53.0233 23 53.0174 23 53.0115 23C53.0055 23 52.9996 23 52.9937 23C52.9878 23 52.9818 23 52.9759 23C52.97 23 52.9641 23 52.9582 23C52.9523 23 52.9465 23 52.9406 23C52.9347 23 52.9288 23 52.923 23C52.9171 23 52.9112 23 52.9054 23C52.8995 23 52.8937 23 52.8878 23C52.882 23 52.8762 23 52.8703 23C52.8645 23 52.8587 23 52.8529 23C52.8471 23 52.8413 23 52.8355 23C52.8297 23 52.8239 23 52.8181 23C52.8123 23 52.8065 23 52.8008 23C52.795 23 52.7892 23 52.7835 23C52.7777 23 52.772 23 52.7662 23C52.7605 23 52.7547 23 52.749 23C52.7433 23 52.7376 23 52.7318 23C52.7261 23 52.7204 23 52.7147 23C52.709 23 52.7033 23 52.6976 23C52.692 23 52.6863 23 52.6806 23C52.6749 23 52.6693 23 52.6636 23C52.658 23 52.6523 23 52.6467 23C52.641 23 52.6354 23 52.6298 23C52.6241 23 52.6185 23 52.6129 23C52.6073 23 52.6017 23 52.5961 23C52.5905 23 52.5849 23 52.5793 23C52.5737 23 52.5681 23 52.5626 23C52.557 23 52.5514 23 52.5459 23C52.5403 23 52.5348 23 52.5292 23C52.5237 23 52.5181 23 52.5126 23C52.5071 23 52.5016 23 52.4961 23C52.4906 23 52.4851 23 52.4796 23C52.4741 23 52.4686 23 52.4631 23C52.4576 23 52.4521 23 52.4467 23C52.4412 23 52.4357 23 52.4303 23C52.4248 23 52.4194 23 52.414 23C52.4085 23 52.4031 23 52.3977 23C52.3923 23 52.3868 23 52.3814 23C52.376 23 52.3706 23 52.3652 23C52.3598 23 52.3545 23 52.3491 23C52.3437 23 52.3383 23 52.333 23C52.3276 23 52.3223 23 52.3169 23C52.3116 23 52.3063 23 52.3009 23C52.2956 23 52.2903 23 52.285 23C52.2796 23 52.2743 23 52.269 23C52.2638 23 52.2585 23 52.2532 23C52.2479 23 52.2426 23 52.2374 23C52.2321 23 52.2268 23 52.2216 23C52.2163 23 52.2111 23 52.2059 23C52.2006 23 52.1954 23 52.1902 23C52.185 23 52.1797 23 52.1745 23C52.1693 23 52.1642 23 52.159 23C52.1538 23 52.1486 23 52.1434 23C52.1383 23 52.1331 23 52.1279 23C52.1228 23 52.1176 23 52.1125 23C52.1074 23 52.1022 23 52.0971 23C52.092 23 52.0869 23 52.0818 23C52.0767 23 52.0716 23 52.0665 23C52.0614 23 52.0563 23 52.0512 23C52.0462 23 52.0411 23 52.036 23C52.031 23 52.0259 23 52.0209 23C52.0159 23 52.0108 23 52.0058 23C52.0008 23 51.9958 23 51.9908 23C51.9858 23 51.9808 23 51.9758 23C51.9708 23 51.9658 23 51.9608 23C51.9559 23 51.9509 23 51.9459 23C51.941 23 51.936 23 51.9311 23C51.9262 23 51.9212 23 51.9163 23C51.9114 23 51.9065 23 51.9016 23C51.8967 23 51.8918 23 51.8869 23C51.882 23 51.8771 23 51.8722 23C51.8674 23 51.8625 23 51.8576 23C51.8528 23 51.8479 23 51.8431 23C51.8383 23 51.8334 23 51.8286 23C51.8238 23 51.819 23 51.8142 23C51.8094 23 51.8046 23 51.7998 23C51.795 23 51.7902 23 51.7855 23C51.7807 23 51.7759 23 51.7712 23C51.7664 23 51.7617 23 51.757 23C51.7522 23 51.7475 23 51.7428 23C51.7381 23 51.7334 23 51.7287 23C51.724 23 51.7193 23 51.7146 23C51.7099 23 51.7053 23 51.7006 23C51.6959 23 51.6913 23 51.6866 23C51.682 23 51.6774 23 51.6727 23C51.6681 23 51.6635 23 51.6589 23C51.6543 23 51.6497 23 51.6451 23C51.6405 23 51.6359 23 51.6313 23C51.6268 23 51.6222 23 51.6177 23C51.6131 23 51.6086 23 51.604 23C51.5995 23 51.595 23 51.5904 23C51.5859 23 51.5814 23 51.5769 23C51.5724 23 51.5679 23 51.5634 23C51.559 23 51.5545 23 51.55 23C51.5456 23 51.5411 23 51.5367 23C51.5322 23 51.5278 23 51.5234 23C51.5189 23 51.5145 23 51.5101 23C51.5057 23 51.5013 23 51.4969 23C51.4925 23 51.4881 23 51.4838 23C51.4794 23 51.475 23 51.4707 23C51.4663 23 51.462 23 51.4577 23C51.4533 23 51.449 23 51.4447 23C51.4404 23 51.4361 23 51.4318 23C51.4275 23 51.4232 23 51.4189 23C51.4146 23 51.4104 23 51.4061 23C51.4018 23 51.3976 23 51.3934 23C51.3891 23 51.3849 23 51.3807 23C51.3765 23 51.3722 23 51.368 23C51.3638 23 51.3596 23 51.3555 23C51.3513 23 51.3471 23 51.343 23C51.3388 23 51.3346 23 51.3305 23C51.3264 23 51.3222 23 51.3181 23C51.314 23 51.3099 23 51.3058 23C51.3016 23 51.2976 23 51.2935 23C51.2894 23 51.2853 23 51.2812 23C51.2772 23 51.2731 23 51.2691 23C51.265 23 51.261 23 51.257 23C51.2529 23 51.2489 23 51.2449 23C51.2409 23 51.2369 23 51.2329 23C51.2289 23 51.225 23 51.221 23C51.217 23 51.2131 23 51.2091 23C51.2052 23 51.2012 23 51.1973 23C51.1934 23 51.1895 23 51.1856 23C51.1817 23 51.1778 23 51.1739 23C51.17 23 51.1661 23 51.1622 23C51.1584 23 51.1545 23 51.1507 23C51.1468 23 51.143 23 51.1392 23C51.1353 23 51.1315 23 51.1277 23C51.1239 23 51.1201 23 51.1163 23C51.1125 23 51.1088 23 51.105 23C51.1012 23 51.0975 23 51.0937 23C51.09 23 51.0862 23 51.0825 23C51.0788 23 51.0751 23 51.0714 23C51.0677 23 51.064 23 51.0603 23C51.0566 23 51.0529 23 51.0493 23C51.0456 23 51.0419 23 51.0383 23C51.0347 23 51.031 23 51.0274 23C51.0238 23 51.0202 23 51.0166 23C51.013 23 51.0094 23 51.0058 23V29C51.0094 29 51.013 29 51.0166 29C51.0202 29 51.0238 29 51.0274 29C51.031 29 51.0347 29 51.0383 29C51.0419 29 51.0456 29 51.0493 29C51.0529 29 51.0566 29 51.0603 29C51.064 29 51.0677 29 51.0714 29C51.0751 29 51.0788 29 51.0825 29C51.0862 29 51.09 29 51.0937 29C51.0975 29 51.1012 29 51.105 29C51.1088 29 51.1125 29 51.1163 29C51.1201 29 51.1239 29 51.1277 29C51.1315 29 51.1353 29 51.1392 29C51.143 29 51.1468 29 51.1507 29C51.1545 29 51.1584 29 51.1622 29C51.1661 29 51.17 29 51.1739 29C51.1778 29 51.1817 29 51.1856 29C51.1895 29 51.1934 29 51.1973 29C51.2012 29 51.2052 29 51.2091 29C51.2131 29 51.217 29 51.221 29C51.225 29 51.2289 29 51.2329 29C51.2369 29 51.2409 29 51.2449 29C51.2489 29 51.2529 29 51.257 29C51.261 29 51.265 29 51.2691 29C51.2731 29 51.2772 29 51.2812 29C51.2853 29 51.2894 29 51.2935 29C51.2976 29 51.3016 29 51.3058 29C51.3099 29 51.314 29 51.3181 29C51.3222 29 51.3264 29 51.3305 29C51.3346 29 51.3388 29 51.343 29C51.3471 29 51.3513 29 51.3555 29C51.3596 29 51.3638 29 51.368 29C51.3722 29 51.3765 29 51.3807 29C51.3849 29 51.3891 29 51.3934 29C51.3976 29 51.4018 29 51.4061 29C51.4104 29 51.4146 29 51.4189 29C51.4232 29 51.4275 29 51.4318 29C51.4361 29 51.4404 29 51.4447 29C51.449 29 51.4533 29 51.4577 29C51.462 29 51.4663 29 51.4707 29C51.475 29 51.4794 29 51.4838 29C51.4881 29 51.4925 29 51.4969 29C51.5013 29 51.5057 29 51.5101 29C51.5145 29 51.5189 29 51.5234 29C51.5278 29 51.5322 29 51.5367 29C51.5411 29 51.5456 29 51.55 29C51.5545 29 51.559 29 51.5634 29C51.5679 29 51.5724 29 51.5769 29C51.5814 29 51.5859 29 51.5904 29C51.595 29 51.5995 29 51.604 29C51.6086 29 51.6131 29 51.6177 29C51.6222 29 51.6268 29 51.6313 29C51.6359 29 51.6405 29 51.6451 29C51.6497 29 51.6543 29 51.6589 29C51.6635 29 51.6681 29 51.6727 29C51.6774 29 51.682 29 51.6866 29C51.6913 29 51.6959 29 51.7006 29C51.7053 29 51.7099 29 51.7146 29C51.7193 29 51.724 29 51.7287 29C51.7334 29 51.7381 29 51.7428 29C51.7475 29 51.7522 29 51.757 29C51.7617 29 51.7664 29 51.7712 29C51.7759 29 51.7807 29 51.7855 29C51.7902 29 51.795 29 51.7998 29C51.8046 29 51.8094 29 51.8142 29C51.819 29 51.8238 29 51.8286 29C51.8334 29 51.8383 29 51.8431 29C51.8479 29 51.8528 29 51.8576 29C51.8625 29 51.8674 29 51.8722 29C51.8771 29 51.882 29 51.8869 29C51.8918 29 51.8967 29 51.9016 29C51.9065 29 51.9114 29 51.9163 29C51.9212 29 51.9262 29 51.9311 29C51.936 29 51.941 29 51.9459 29C51.9509 29 51.9559 29 51.9608 29C51.9658 29 51.9708 29 51.9758 29C51.9808 29 51.9858 29 51.9908 29C51.9958 29 52.0008 29 52.0058 29C52.0108 29 52.0159 29 52.0209 29C52.0259 29 52.031 29 52.036 29C52.0411 29 52.0462 29 52.0512 29C52.0563 29 52.0614 29 52.0665 29C52.0716 29 52.0767 29 52.0818 29C52.0869 29 52.092 29 52.0971 29C52.1022 29 52.1074 29 52.1125 29C52.1176 29 52.1228 29 52.1279 29C52.1331 29 52.1383 29 52.1434 29C52.1486 29 52.1538 29 52.159 29C52.1642 29 52.1693 29 52.1745 29C52.1797 29 52.185 29 52.1902 29C52.1954 29 52.2006 29 52.2059 29C52.2111 29 52.2163 29 52.2216 29C52.2268 29 52.2321 29 52.2374 29C52.2426 29 52.2479 29 52.2532 29C52.2585 29 52.2638 29 52.269 29C52.2743 29 52.2796 29 52.285 29C52.2903 29 52.2956 29 52.3009 29C52.3063 29 52.3116 29 52.3169 29C52.3223 29 52.3276 29 52.333 29C52.3383 29 52.3437 29 52.3491 29C52.3545 29 52.3598 29 52.3652 29C52.3706 29 52.376 29 52.3814 29C52.3868 29 52.3923 29 52.3977 29C52.4031 29 52.4085 29 52.414 29C52.4194 29 52.4248 29 52.4303 29C52.4357 29 52.4412 29 52.4467 29C52.4521 29 52.4576 29 52.4631 29C52.4686 29 52.4741 29 52.4796 29C52.4851 29 52.4906 29 52.4961 29C52.5016 29 52.5071 29 52.5126 29C52.5181 29 52.5237 29 52.5292 29C52.5348 29 52.5403 29 52.5459 29C52.5514 29 52.557 29 52.5626 29C52.5681 29 52.5737 29 52.5793 29C52.5849 29 52.5905 29 52.5961 29C52.6017 29 52.6073 29 52.6129 29C52.6185 29 52.6241 29 52.6298 29C52.6354 29 52.641 29 52.6467 29C52.6523 29 52.658 29 52.6636 29C52.6693 29 52.6749 29 52.6806 29C52.6863 29 52.692 29 52.6976 29C52.7033 29 52.709 29 52.7147 29C52.7204 29 52.7261 29 52.7318 29C52.7376 29 52.7433 29 52.749 29C52.7547 29 52.7605 29 52.7662 29C52.772 29 52.7777 29 52.7835 29C52.7892 29 52.795 29 52.8008 29C52.8065 29 52.8123 29 52.8181 29C52.8239 29 52.8297 29 52.8355 29C52.8413 29 52.8471 29 52.8529 29C52.8587 29 52.8645 29 52.8703 29C52.8762 29 52.882 29 52.8878 29C52.8937 29 52.8995 29 52.9054 29C52.9112 29 52.9171 29 52.923 29C52.9288 29 52.9347 29 52.9406 29C52.9465 29 52.9523 29 52.9582 29C52.9641 29 52.97 29 52.9759 29C52.9818 29 52.9878 29 52.9937 29C52.9996 29 53.0055 29 53.0115 29C53.0174 29 53.0233 29 53.0293 29C53.0352 29 53.0412 29 53.0471 29C53.0531 29 53.0591 29 53.065 29C53.071 29 53.077 29 53.083 29C53.089 29 53.095 29 53.101 29C53.107 29 53.113 29 53.119 29C53.125 29 53.131 29 53.137 29C53.143 29 53.1491 29 53.1551 29C53.1612 29 53.1672 29 53.1733 29C53.1793 29 53.1854 29 53.1914 29C53.1975 29 53.2036 29 53.2096 29C53.2157 29 53.2218 29 53.2279 29C53.234 29 53.2401 29 53.2462 29C53.2523 29 53.2584 29 53.2645 29C53.2706 29 53.2767 29 53.2828 29C53.289 29 53.2951 29 53.3012 29C53.3074 29 53.3135 29 53.3197 29C53.3258 29 53.332 29 53.3381 29C53.3443 29 53.3505 29 53.3566 29C53.3628 29 53.369 29 53.3752 29C53.3814 29 53.3876 29 53.3938 29C53.4 29 53.4062 29 53.4124 29C53.4186 29 53.4248 29 53.431 29C53.4373 29 53.4435 29 53.4497 29C53.456 29 53.4622 29 53.4685 29C53.4747 29 53.481 29 53.4872 29C53.4935 29 53.4997 29 53.506 29C53.5123 29 53.5186 29 53.5248 29C53.5311 29 53.5374 29 53.5437 29C53.55 29 53.5563 29 53.5626 29C53.5689 29 53.5752 29 53.5815 29C53.5879 29 53.5942 29 53.6005 29C53.6068 29 53.6132 29 53.6195 29C53.6259 29 53.6322 29 53.6386 29C53.6449 29 53.6513 29 53.6576 29C53.664 29 53.6704 29 53.6767 29C53.6831 29 53.6895 29 53.6959 29C53.7023 29 53.7087 29 53.7151 29C53.7214 29 53.7279 29 53.7343 29C53.7407 29 53.7471 29 53.7535 29C53.7599 29 53.7663 29 53.7728 29C53.7792 29 53.7856 29 53.7921 29C53.7985 29 53.805 29 53.8114 29C53.8179 29 53.8243 29 53.8308 29C53.8373 29 53.8437 29 53.8502 29C53.8567 29 53.8632 29 53.8696 29C53.8761 29 53.8826 29 53.8891 29C53.8956 29 53.9021 29 53.9086 29C53.9151 29 53.9216 29 53.9281 29C53.9347 29 53.9412 29 53.9477 29C53.9542 29 53.9608 29 53.9673 29C53.9738 29 53.9804 29 53.9869 29C53.9935 29 54 29 54.0066 29C54.0131 29 54.0197 29 54.0263 29C54.0328 29 54.0394 29 54.046 29C54.0526 29 54.0592 29 54.0657 29C54.0723 29 54.0789 29 54.0855 29C54.0921 29 54.0987 29 54.1053 29C54.112 29 54.1186 29 54.1252 29C54.1318 29 54.1384 29 54.1451 29C54.1517 29 54.1583 29 54.165 29C54.1716 29 54.1782 29 54.1849 29C54.1915 29 54.1982 29 54.2048 29C54.2115 29 54.2182 29 54.2248 29C54.2315 29 54.2382 29 54.2449 29C54.2515 29 54.2582 29 54.2649 29C54.2716 29 54.2783 29 54.285 29C54.2917 29 54.2984 29 54.3051 29C54.3118 29 54.3185 29 54.3252 29C54.3319 29 54.3387 29 54.3454 29C54.3521 29 54.3588 29 54.3656 29C54.3723 29 54.3791 29 54.3858 29C54.3925 29 54.3993 29 54.406 29C54.4128 29 54.4196 29 54.4263 29C54.4331 29 54.4398 29 54.4466 29C54.4534 29 54.4602 29 54.4669 29C54.4737 29 54.4805 29 54.4873 29C54.4941 29 54.5009 29 54.5077 29C54.5145 29 54.5213 29 54.5281 29C54.5349 29 54.5417 29 54.5485 29C54.5554 29 54.5622 29 54.569 29C54.5758 29 54.5827 29 54.5895 29C54.5963 29 54.6032 29 54.61 29C54.6168 29 54.6237 29 54.6305 29C54.6374 29 54.6443 29 54.6511 29C54.658 29 54.6648 29 54.6717 29C54.6786 29 54.6854 29 54.6923 29C54.6992 29 54.7061 29 54.713 29C54.7199 29 54.7267 29 54.7336 29C54.7405 29 54.7474 29 54.7543 29C54.7612 29 54.7681 29 54.7751 29C54.782 29 54.7889 29 54.7958 29C54.8027 29 54.8096 29 54.8166 29C54.8235 29 54.8304 29 54.8374 29C54.8443 29 54.8512 29 54.8582 29C54.8651 29 54.8721 29 54.879 29C54.886 29 54.8929 29 54.8999 29C54.9068 29 54.9138 29 54.9208 29C54.9277 29 54.9347 29 54.9417 29C54.9487 29 54.9556 29 54.9626 29C54.9696 29 54.9766 29 54.9836 29C54.9906 29 54.9976 29 55.0046 29C55.0116 29 55.0186 29 55.0256 29C55.0326 29 55.0396 29 55.0466 29C55.0536 29 55.0606 29 55.0676 29C55.0747 29 55.0817 29 55.0887 29C55.0957 29 55.1028 29 55.1098 29C55.1168 29 55.1239 29 55.1309 29C55.138 29 55.145 29 55.1521 29C55.1591 29 55.1662 29 55.1732 29C55.1803 29 55.1873 29 55.1944 29C55.2015 29 55.2085 29 55.2156 29C55.2227 29 55.2297 29 55.2368 29C55.2439 29 55.251 29 55.2581 29C55.2652 29 55.2722 29 55.2793 29C55.2864 29 55.2935 29 55.3006 29C55.3077 29 55.3148 29 55.3219 29C55.329 29 55.3361 29 55.3433 29C55.3504 29 55.3575 29 55.3646 29C55.3717 29 55.3788 29 55.386 29C55.3931 29 55.4002 29 55.4074 29C55.4145 29 55.4216 29 55.4288 29C55.4359 29 55.4431 29 55.4502 29C55.4573 29 55.4645 29 55.4716 29C55.4788 29 55.486 29 55.4931 29C55.5003 29 55.5074 29 55.5146 29C55.5218 29 55.5289 29 55.5361 29C55.5433 29 55.5504 29 55.5576 29C55.5648 29 55.572 29 55.5792 29C55.5863 29 55.5935 29 55.6007 29C55.6079 29 55.6151 29 55.6223 29C55.6295 29 55.6367 29 55.6439 29C55.6511 29 55.6583 29 55.6655 29C55.6727 29 55.6799 29 55.6871 29C55.6944 29 55.7016 29 55.7088 29C55.716 29 55.7232 29 55.7305 29C55.7377 29 55.7449 29 55.7521 29C55.7594 29 55.7666 29 55.7738 29C55.7811 29 55.7883 29 55.7956 29C55.8028 29 55.81 29 55.8173 29C55.8245 29 55.8318 29 55.839 29C55.8463 29 55.8535 29 55.8608 29C55.8681 29 55.8753 29 55.8826 29C55.8899 29 55.8971 29 55.9044 29C55.9117 29 55.9189 29 55.9262 29C55.9335 29 55.9408 29 55.948 29C55.9553 29 55.9626 29 55.9699 29C55.9772 29 55.9845 29 55.9917 29C55.999 29 56.0063 29 56.0136 29C56.0209 29 56.0282 29 56.0355 29C56.0428 29 56.0501 29 56.0574 29C56.0647 29 56.072 29 56.0793 29C56.0867 29 56.094 29 56.1013 29C56.1086 29 56.1159 29 56.1232 29C56.1306 29 56.1379 29 56.1452 29C56.1525 29 56.1598 29 56.1672 29C56.1745 29 56.1818 29 56.1892 29C56.1965 29 56.2038 29 56.2112 29C56.2185 29 56.2259 29 56.2332 29C56.2405 29 56.2479 29 56.2552 29C56.2626 29 56.2699 29 56.2773 29C56.2846 29 56.292 29 56.2993 29C56.3067 29 56.3141 29 56.3214 29C56.3288 29 56.3361 29 56.3435 29C56.3509 29 56.3582 29 56.3656 29C56.373 29 56.3803 29 56.3877 29C56.3951 29 56.4025 29 56.4098 29C56.4172 29 56.4246 29 56.432 29C56.4394 29 56.4467 29 56.4541 29C56.4615 29 56.4689 29 56.4763 29C56.4837 29 56.4911 29 56.4985 29C56.5058 29 56.5132 29 56.5206 29C56.528 29 56.5354 29 56.5428 29C56.5502 29 56.5576 29 56.565 29C56.5724 29 56.5798 29 56.5873 29C56.5947 29 56.6021 29 56.6095 29C56.6169 29 56.6243 29 56.6317 29C56.6391 29 56.6465 29 56.654 29C56.6614 29 56.6688 29 56.6762 29C56.6836 29 56.6911 29 56.6985 29C56.7059 29 56.7133 29 56.7208 29C56.7282 29 56.7356 29 56.7431 29C56.7505 29 56.7579 29 56.7654 29C56.7728 29 56.7802 29 56.7877 29C56.7951 29 56.8025 29 56.81 29C56.8174 29 56.8249 29 56.8323 29C56.8397 29 56.8472 29 56.8546 29C56.8621 29 56.8695 29 56.877 29C56.8844 29 56.8919 29 56.8993 29C56.9068 29 56.9142 29 56.9217 29C56.9291 29 56.9366 29 56.9441 29C56.9515 29 56.959 29 56.9664 29C56.9739 29 56.9814 29 56.9888 29C56.9963 29 57.0038 29 57.0112 29C57.0187 29 57.0261 29 57.0336 29C57.0411 29 57.0486 29 57.056 29C57.0635 29 57.071 29 57.0784 29C57.0859 29 57.0934 29 57.1009 29C57.1083 29 57.1158 29 57.1233 29C57.1308 29 57.1382 29 57.1457 29C57.1532 29 57.1607 29 57.1682 29C57.1757 29 57.1831 29 57.1906 29C57.1981 29 57.2056 29 57.2131 29C57.2206 29 57.2281 29 57.2355 29C57.243 29 57.2505 29 57.258 29C57.2655 29 57.273 29 57.2805 29C57.288 29 57.2955 29 57.303 29C57.3105 29 57.3179 29 57.3254 29C57.3329 29 57.3404 29 57.3479 29C57.3554 29 57.3629 29 57.3704 29C57.3779 29 57.3854 29 57.3929 29C57.4004 29 57.4079 29 57.4154 29C57.4229 29 57.4304 29 57.4379 29C57.4454 29 57.453 29 57.4605 29C57.468 29 57.4755 29 57.483 29C57.4905 29 57.498 29 57.5055 29C57.513 29 57.5205 29 57.528 29C57.5355 29 57.543 29 57.5506 29C57.5581 29 57.5656 29 57.5731 29C57.5806 29 57.5881 29 57.5956 29C57.6031 29 57.6107 29 57.6182 29C57.6257 29 57.6332 29 57.6407 29C57.6482 29 57.6557 29 57.6633 29C57.6708 29 57.6783 29 57.6858 29C57.6933 29 57.7008 29 57.7084 29C57.7159 29 57.7234 29 57.7309 29C57.7384 29 57.746 29 57.7535 29C57.761 29 57.7685 29 57.776 29C57.7836 29 57.7911 29 57.7986 29C57.8061 29 57.8136 29 57.8212 29C57.8287 29 57.8362 29 57.8437 29C57.8513 29 57.8588 29 57.8663 29C57.8738 29 57.8813 29 57.8889 29C57.8964 29 57.9039 29 57.9114 29C57.919 29 57.9265 29 57.934 29C57.9415 29 57.9491 29 57.9566 29C57.9641 29 57.9716 29 57.9792 29C57.9867 29 57.9942 29 58.0017 29C58.0092 29 58.0168 29 58.0243 29C58.0318 29 58.0393 29 58.0469 29C58.0544 29 58.0619 29 58.0694 29C58.077 29 58.0845 29 58.092 29C58.0995 29 58.1071 29 58.1146 29C58.1221 29 58.1296 29 58.1372 29C58.1447 29 58.1522 29 58.1597 29C58.1673 29 58.1748 29 58.1823 29C58.1898 29 58.1974 29 58.2049 29C58.2124 29 58.2199 29 58.2274 29C58.235 29 58.2425 29 58.25 29C58.2575 29 58.2651 29 58.2726 29C58.2801 29 58.2876 29 58.2951 29C58.3027 29 58.3102 29 58.3177 29C58.3252 29 58.3327 29 58.3403 29C58.3478 29 58.3553 29 58.3628 29C58.3703 29 58.3779 29 58.3854 29C58.3929 29 58.4004 29 58.4079 29C58.4155 29 58.423 29 58.4305 29C58.438 29 58.4455 29 58.453 29C58.4606 29 58.4681 29 58.4756 29C58.4831 29 58.4906 29 58.4981 29C58.5056 29 58.5132 29 58.5207 29C58.5282 29 58.5357 29 58.5432 29C58.5507 29 58.5582 29 58.5657 29C58.5732 29 58.5808 29 58.5883 29C58.5958 29 58.6033 29 58.6108 29C58.6183 29 58.6258 29 58.6333 29C58.6408 29 58.6483 29 58.6558 29C58.6633 29 58.6708 29 58.6783 29C58.6858 29 58.6933 29 58.7008 29C58.7083 29 58.7158 29 58.7233 29C58.7308 29 58.7383 29 58.7458 29C58.7533 29 58.7608 29 58.7683 29C58.7758 29 58.7833 29 58.7908 29C58.7983 29 58.8058 29 58.8133 29C58.8208 29 58.8283 29 58.8358 29C58.8433 29 58.8508 29 58.8583 29C58.8657 29 58.8732 29 58.8807 29C58.8882 29 58.8957 29 58.9032 29C58.9107 29 58.9181 29 58.9256 29C58.9331 29 58.9406 29 58.9481 29C58.9556 29 58.963 29 58.9705 29C58.978 29 58.9855 29 58.9929 29C59.0004 29 59.0079 29 59.0154 29C59.0228 29 59.0303 29 59.0378 29C59.0453 29 59.0527 29 59.0602 29C59.0677 29 59.0751 29 59.0826 29C59.0901 29 59.0975 29 59.105 29C59.1125 29 59.1199 29 59.1274 29C59.1349 29 59.1423 29 59.1498 29C59.1572 29 59.1647 29 59.1721 29C59.1796 29 59.1871 29 59.1945 29C59.202 29 59.2094 29 59.2169 29C59.2243 29 59.2318 29 59.2392 29C59.2467 29 59.2541 29 59.2616 29C59.269 29 59.2764 29 59.2839 29C59.2913 29 59.2988 29 59.3062 29C59.3136 29 59.3211 29 59.3285 29C59.336 29 59.3434 29 59.3508 29C59.3583 29 59.3657 29 59.3731 29C59.3805 29 59.388 29 59.3954 29C59.4028 29 59.4102 29 59.4177 29C59.4251 29 59.4325 29 59.4399 29C59.4473 29 59.4548 29 59.4622 29C59.4696 29 59.477 29 59.4844 29C59.4918 29 59.4992 29 59.5067 29C59.5141 29 59.5215 29 59.5289 29C59.5363 29 59.5437 29 59.5511 29C59.5585 29 59.5659 29 59.5733 29C59.5807 29 59.5881 29 59.5955 29C59.6029 29 59.6103 29 59.6177 29C59.625 29 59.6324 29 59.6398 29C59.6472 29 59.6546 29 59.662 29C59.6694 29 59.6767 29 59.6841 29C59.6915 29 59.6989 29 59.7062 29C59.7136 29 59.721 29 59.7284 29C59.7357 29 59.7431 29 59.7505 29C59.7578 29 59.7652 29 59.7726 29C59.7799 29 59.7873 29 59.7946 29C59.802 29 59.8094 29 59.8167 29C59.8241 29 59.8314 29 59.8388 29C59.8461 29 59.8535 29 59.8608 29C59.8681 29 59.8755 29 59.8828 29C59.8902 29 59.8975 29 59.9048 29C59.9122 29 59.9195 29 59.9268 29C59.9342 29 59.9415 29 59.9488 29C59.9562 29 59.9635 29 59.9708 29C59.9781 29 59.9854 29 59.9928 29C60.0001 29 60.0074 29 60.0147 29C60.022 29 60.0293 29 60.0366 29C60.0439 29 60.0512 29 60.0585 29C60.0658 29 60.0731 29 60.0804 29C60.0877 29 60.095 29 60.1023 29C60.1096 29 60.1169 29 60.1242 29C60.1315 29 60.1388 29 60.1461 29C60.1533 29 60.1606 29 60.1679 29C60.1752 29 60.1824 29 60.1897 29C60.197 29 60.2043 29 60.2115 29C60.2188 29 60.2261 29 60.2333 29C60.2406 29 60.2478 29 60.2551 29C60.2623 29 60.2696 29 60.2768 29C60.2841 29 60.2913 29 60.2986 29C60.3058 29 60.3131 29 60.3203 29C60.3276 29 60.3348 29 60.342 29C60.3493 29 60.3565 29 60.3637 29C60.3709 29 60.3782 29 60.3854 29C60.3926 29 60.3998 29 60.407 29C60.4143 29 60.4215 29 60.4287 29C60.4359 29 60.4431 29 60.4503 29C60.4575 29 60.4647 29 60.4719 29C60.4791 29 60.4863 29 60.4935 29C60.5007 29 60.5079 29 60.5151 29C60.5223 29 60.5294 29 60.5366 29C60.5438 29 60.551 29 60.5581 29C60.5653 29 60.5725 29 60.5797 29C60.5868 29 60.594 29 60.6012 29C60.6083 29 60.6155 29 60.6226 29C60.6298 29 60.6369 29 60.6441 29C60.6512 29 60.6584 29 60.6655 29C60.6727 29 60.6798 29 60.6869 29C60.6941 29 60.7012 29 60.7083 29C60.7155 29 60.7226 29 60.7297 29C60.7368 29 60.744 29 60.7511 29C60.7582 29 60.7653 29 60.7724 29C60.7795 29 60.7866 29 60.7937 29C60.8008 29 60.8079 29 60.815 29C60.8221 29 60.8292 29 60.8363 29C60.8434 29 60.8505 29 60.8575 29C60.8646 29 60.8717 29 60.8788 29C60.8859 29 60.8929 29 60.9 29C60.9071 29 60.9141 29 60.9212 29C60.9282 29 60.9353 29 60.9424 29C60.9494 29 60.9565 29 60.9635 29C60.9706 29 60.9776 29 60.9846 29C60.9917 29 60.9987 29 61.0057 29V23Z" fill="black"/>
</svg>
