<svg width="162" height="144" viewBox="0 0 162 144" fill="none" xmlns="http://www.w3.org/2000/svg">
<path d="M35.1682 53.8942L22.7183 53.8942C19.6391 53.8942 17.7146 50.5608 19.2542 47.8942L25.4792 37.1123C27.0188 34.4457 30.8678 34.4457 32.4074 37.1123L38.6323 47.8942C40.1719 50.5609 38.2474 53.8942 35.1682 53.8942Z" stroke="black" stroke-width="6"/>
<mask id="path-2-inside-1" fill="white">
<path fill-rule="evenodd" clip-rule="evenodd" d="M61.7079 17.3571C61.4524 7.72767 53.5661 0 43.875 0C34.1838 0 26.2976 7.72767 26.0421 17.3571H26.0356V74.25H26.0391C26.0368 74.4105 26.0356 74.5712 26.0356 74.7322C26.0356 92.9445 40.6703 107.739 58.8214 107.997V108H59.3035H130.179V87.75C137.102 87.75 142.714 82.1376 142.714 75.2143C142.714 71.8461 141.386 68.7881 139.224 66.5357H149.464C156.388 66.5357 162 60.9233 162 54C162 47.0767 156.388 41.4643 149.464 41.4643H130.179H124.393H61.7142V17.8801L61.7143 17.8393L61.7142 17.7984V17.3571H61.7079Z"/>
</mask>
<path d="M61.7079 17.3571L55.71 17.5163L55.865 23.3571H61.7079V17.3571ZM26.0421 17.3571V23.3571H31.885L32.04 17.5163L26.0421 17.3571ZM26.0356 17.3571V11.3571H20.0356V17.3571H26.0356ZM26.0356 74.25H20.0356V80.25H26.0356V74.25ZM26.0391 74.25L32.0385 74.3352L32.1249 68.25H26.0391V74.25ZM58.8214 107.997H64.8214V102.081L58.9066 101.997L58.8214 107.997ZM58.8214 108H52.8214V114H58.8214V108ZM130.179 108V114H136.179V108H130.179ZM130.179 87.75V81.75H124.179V87.75H130.179ZM139.224 66.5357V60.5357H125.151L134.895 70.6901L139.224 66.5357ZM61.7142 41.4643H55.7142V47.4643H61.7142V41.4643ZM61.7142 17.8801L55.7142 17.8734V17.8801H61.7142ZM61.7143 17.8393L67.7143 17.846L67.7143 17.8326L61.7143 17.8393ZM61.7142 17.7984L55.7142 17.7984L55.7142 17.8052L61.7142 17.7984ZM61.7142 17.3571H67.7142V11.3571H61.7142V17.3571ZM43.875 6C50.3057 6 55.5405 11.1287 55.71 17.5163L67.7058 17.198C67.3642 4.32664 56.8265 -6 43.875 -6V6ZM32.04 17.5163C32.2095 11.1287 37.4442 6 43.875 6V-6C30.9234 -6 20.3857 4.32664 20.0442 17.198L32.04 17.5163ZM26.0356 23.3571H26.0421V11.3571H26.0356V23.3571ZM32.0356 74.25V17.3571H20.0356V74.25H32.0356ZM26.0391 68.25H26.0356V80.25H26.0391V68.25ZM32.0356 74.7322C32.0356 74.5996 32.0366 74.4673 32.0385 74.3352L20.0397 74.1648C20.037 74.3536 20.0356 74.5428 20.0356 74.7322H32.0356ZM58.9066 101.997C44.031 101.786 32.0356 89.6593 32.0356 74.7322H20.0356C20.0356 96.2297 37.3096 113.692 58.7361 113.996L58.9066 101.997ZM64.8214 108V107.997H52.8214V108H64.8214ZM59.3035 102H58.8214V114H59.3035V102ZM130.179 102H59.3035V114H130.179V102ZM124.179 87.75V108H136.179V87.75H124.179ZM136.714 75.2143C136.714 78.8239 133.788 81.75 130.179 81.75V93.75C140.416 93.75 148.714 85.4513 148.714 75.2143H136.714ZM134.895 70.6901C136.028 71.8701 136.714 73.4557 136.714 75.2143H148.714C148.714 70.2364 146.744 65.7061 143.553 62.3813L134.895 70.6901ZM149.464 60.5357H139.224V72.5357H149.464V60.5357ZM156 54C156 57.6096 153.074 60.5357 149.464 60.5357V72.5357C159.701 72.5357 168 64.237 168 54H156ZM149.464 47.4643C153.074 47.4643 156 50.3904 156 54H168C168 43.763 159.701 35.4643 149.464 35.4643V47.4643ZM130.179 47.4643H149.464V35.4643H130.179V47.4643ZM124.393 47.4643H130.179V35.4643H124.393V47.4643ZM61.7142 47.4643H124.393V35.4643H61.7142V47.4643ZM55.7142 17.8801V41.4643H67.7142V17.8801H55.7142ZM55.7143 17.8326L55.7142 17.8734L67.7142 17.8869L67.7143 17.846L55.7143 17.8326ZM55.7142 17.8052L55.7143 17.846L67.7143 17.8326L67.7142 17.7917L55.7142 17.8052ZM55.7142 17.3571V17.7984H67.7142V17.3571H55.7142ZM61.7079 23.3571H61.7142V11.3571H61.7079V23.3571Z" fill="black" mask="url(#path-2-inside-1)"/>
<path d="M36.3535 14.8499H41.5607V20.057H36.3535V14.8499Z" fill="black" fill-opacity="0.2"/>
<path d="M13.2195 25.1315L28.1945 16.4857L28.1945 33.7773L13.2195 25.1315Z" stroke="black" stroke-width="6"/>
<rect x="36.6428" y="14.4644" width="5.78572" height="5.78572" fill="black"/>
<path d="M78.0471 106H76.033L75.2704 107.864L67.833 126.044H57.3059C55.4887 126.044 53.3251 126.921 51.6731 128.929C50.0058 130.955 49 133.938 49 138V141H52H93H96V138V132.029C96 128.361 92.1583 126.044 86.7294 126.044H85.8922L92.4002 110.136L94.0922 106H89.6235H78.0471Z" stroke="black" stroke-width="6"/>
<path d="M55 56.7C55 58.1911 56.2089 59.4 57.7 59.4H114.4V72.9C114.388 83.3335 105.933 91.7881 95.5 91.8H68.5C67.0089 91.8 65.8 93.0089 65.8 94.5C65.8 95.9911 67.0089 97.2 68.5 97.2H95.5C108.914 97.1842 119.784 86.3143 119.8 72.9V56.7C119.8 55.2089 118.591 54 117.1 54H57.7C56.2089 54 55 55.2089 55 56.7Z" fill="black"/>
<path d="M95.0471 106H93.033L92.2704 107.864L84.833 126.044H74.3059C72.4887 126.044 70.3251 126.921 68.6731 128.929C67.0058 130.955 66 133.938 66 138V141H69H110H113V138V132.029C113 128.361 109.158 126.044 103.729 126.044H102.892L109.4 110.136L111.092 106H106.624H95.0471Z" stroke="black" stroke-width="6"/>
</svg>
