<svg width="162" height="162" viewBox="0 0 162 162" fill="none" xmlns="http://www.w3.org/2000/svg">
<path d="M72.7895 99.8092C68.0978 104.429 68.0396 112.005 72.6597 116.696C77.2797 121.388 84.8553 121.446 89.5469 116.826C94.2385 112.206 94.2967 104.63 89.6766 99.9389C85.0566 95.2473 77.481 95.1893 72.7895 99.8092ZM86.0312 113.256C83.308 115.938 78.9111 115.904 76.2295 113.181C73.548 110.458 73.5819 106.061 76.3049 103.379C79.0278 100.698 83.4249 100.731 86.1065 103.454C88.788 106.178 88.7543 110.574 86.0312 113.256Z" fill="black"/>
<path d="M116.674 79.5989C106.32 72.5572 94.1911 68.7705 81.5996 68.6484C68.9186 68.5258 56.6458 72.1245 46.1084 79.0558C44.5326 80.0924 43.5149 81.7617 43.316 83.6363C43.1173 85.5073 43.7607 87.3491 45.0808 88.6896L49.4205 93.0965C51.4931 95.2012 54.692 95.578 57.1995 94.0123C64.4235 89.5038 72.7673 87.1553 81.3296 87.221C89.8941 87.2871 98.2009 89.7631 105.352 94.3816C107.836 95.9856 111.04 95.6583 113.145 93.5857L117.551 89.2463C118.892 87.9264 119.563 86.0945 119.394 84.2208C119.224 82.3438 118.233 80.6596 116.674 79.5989ZM114.404 84.6722C114.424 84.8923 114.403 85.3154 114.036 85.6766L109.629 90.0159C109.209 90.4297 108.568 90.4944 108.07 90.173C100.119 85.0374 90.8853 82.2843 81.368 82.2112C71.8531 82.1381 62.5784 84.7493 54.5464 89.7624C54.0441 90.076 53.4043 90.0015 52.9903 89.5811L48.6506 85.1742C48.2898 84.8078 48.2751 84.3844 48.2982 84.1647C48.318 83.9822 48.392 83.6684 48.6611 83.4034C48.7186 83.3468 48.7848 83.2925 48.8618 83.2419C58.5649 76.8594 69.8685 73.5458 81.5509 73.6588C93.1508 73.7712 104.322 77.2578 113.856 83.742C114.286 84.0347 114.384 84.4505 114.404 84.6722Z" fill="black"/>
<path d="M136.601 60.5624C128.758 54.4551 120.021 49.7156 110.633 46.4758C101.48 43.3171 91.9135 41.6505 82.1992 41.5219C72.3115 41.3901 62.5402 42.8533 53.1569 45.8709C43.5331 48.9652 34.5574 53.6224 26.479 59.7125C25.0437 60.7955 24.1425 62.447 24.01 64.2437C23.8772 66.0455 24.5277 67.8169 25.795 69.1038L30.0875 73.4627C32.2551 75.6639 35.7743 75.9343 38.2736 74.0915C50.6763 64.9477 65.4183 60.1057 80.9049 60.0886C88.6794 60.0811 96.3496 61.3115 103.703 63.7459C111.237 66.24 118.26 69.9431 124.577 74.7516C127.05 76.635 130.579 76.4178 132.784 74.2463L137.137 69.96C138.424 68.6928 139.102 66.9316 138.997 65.1285C138.893 63.331 138.019 61.6667 136.601 60.5624ZM133.995 65.4185C134.007 65.6316 133.975 66.0412 133.621 66.3896L129.269 70.6759C128.82 71.1171 128.124 71.1546 127.612 70.7648C120.853 65.6195 113.339 61.6577 105.278 58.9888C97.4142 56.3857 89.2124 55.0698 80.9 55.0779C64.3371 55.0964 48.5688 60.2766 35.2998 70.0589C34.7856 70.4381 34.0947 70.391 33.6573 69.9468L29.3648 65.5879C29.0168 65.2344 28.9909 64.8246 29.0066 64.6118C29.0204 64.4275 29.0869 64.0992 29.3667 63.8236C29.4053 63.7856 29.4481 63.7488 29.495 63.7131C37.1248 57.9616 45.6017 53.563 54.6898 50.6402C63.5552 47.7894 72.788 46.4074 82.1316 46.5315C91.3117 46.6531 100.351 48.2277 108.997 51.2118C117.864 54.2712 126.115 58.7472 133.522 64.515C133.905 64.813 133.983 65.2091 133.995 65.4185Z" fill="black"/>
</svg>
