<?xml version="1.0" encoding="iso-8859-1"?>
<!-- Generator: Adobe Illustrator 19.0.0, SVG Export Plug-In . SVG Version: 6.00 Build 0)  -->
<svg version="1.1" id="Layer_1" xmlns="http://www.w3.org/2000/svg" xmlns:xlink="http://www.w3.org/1999/xlink" x="0px" y="0px"
	 viewBox="0 0 512.081 512.081" style="enable-background:new 0 0 512.081 512.081;" xml:space="preserve">
<g>
	<g>
		<path d="M503.467,113.875c-12.907-24.512-37.184-39.168-64.896-39.168H225.472c-26.752,0-52.331,11.435-70.72,32.021
			l-131.947,172.8C8.107,297.982,0,321.15,0,344.745v19.328c0,0.277,0,0.555,0.021,0.832c1.173,40.149,34.197,72.469,74.645,72.469
			H288c1.408,0,2.752-0.277,4.011-0.789c26.368-3.392,50.261-17.835,65.557-40.064l141.44-206.997
			C514.688,166.697,516.373,138.387,503.467,113.875z M481.408,177.47l-141.44,206.997c-13.589,19.776-36.032,31.573-60.032,31.573
			H74.667c-29.397,0-53.333-23.936-53.333-53.333s23.936-53.333,53.333-53.312h192c17.643,0,32,14.357,32,32
			c0,17.643-14.357,32-32,32h-192c-5.888,0-10.667-4.779-10.667-10.667c0-5.888,4.779-10.667,10.667-10.667h192
			c5.888,0,10.667-4.779,10.667-10.667s-4.779-10.667-10.667-10.667h-192c-17.643,0-32,14.357-32,32c0,17.643,14.357,32,32,32h192
			c29.397,0,53.333-23.936,53.333-53.333s-23.936-53.333-53.333-53.333h-192c-14.763,0-28.544,4.288-40.128,11.712
			c1.557-2.453,3.264-4.821,5.099-7.125L171.2,120.318c13.824-15.424,33.6-24.277,54.293-24.277h213.099
			c19.648,0,36.843,10.389,45.995,27.776S492.544,161.257,481.408,177.47z"/>
	</g>
</g>
<g>
</g>
<g>
</g>
<g>
</g>
<g>
</g>
<g>
</g>
<g>
</g>
<g>
</g>
<g>
</g>
<g>
</g>
<g>
</g>
<g>
</g>
<g>
</g>
<g>
</g>
<g>
</g>
<g>
</g>
</svg>
