<svg width="162" height="162" viewBox="0 0 162 162" fill="none" xmlns="http://www.w3.org/2000/svg">
<path d="M4.19234 40.7846C3.27739 41.2421 2.69995 42.1768 2.69995 43.1999C2.69995 44.2229 3.27739 45.1576 4.19234 45.6151L17.4985 52.2689L9.7189 62.6391C7.87847 65.0939 7.58316 68.3779 8.95557 71.1214C10.328 73.8662 13.1321 75.5998 16.1999 75.5998H18.8999V94.4999C18.921 113.876 34.624 129.579 53.9999 129.6H69.1083L63.5014 145.8H51.2999C46.8281 145.805 43.2052 149.428 43.1999 153.9V159.3C43.1999 160.791 44.4089 162 45.8999 162H118.8C120.291 162 121.5 160.791 121.5 159.3V153.9C121.495 149.428 117.872 145.805 113.4 145.8H109.715L115.322 129.6H118.8C123.272 129.595 126.895 125.972 126.9 121.5V108H129.136C136.197 108.074 142.184 102.827 143.038 95.8169C143.357 92.459 142.417 89.1025 140.4 86.3999H145.8C149.61 86.3999 153.242 84.7901 155.801 81.9675C158.36 79.1462 159.608 75.3744 159.237 71.5828C158.384 64.5731 152.397 59.326 145.336 59.3999H56.6999V35.0999C56.6999 11.5981 21.0794 10.1812 18.987 33.3873L4.19234 40.7846ZM24.2999 59.3999L29.1594 65.8796C29.7738 66.697 29.8727 67.7925 29.4152 68.7075C28.9577 69.6224 28.023 70.1999 26.9999 70.1999H24.2999V59.3999ZM18.8999 39.4689V46.9308L11.4367 43.1999L18.8999 39.4689ZM13.7847 68.7075C13.3154 67.7952 13.4156 66.6943 14.0392 65.8796L18.8999 59.3999V70.1999H16.1999C15.1743 70.2117 14.233 69.6303 13.7847 68.7075ZM48.5999 153.9C48.6013 152.41 49.8102 151.201 51.2999 151.2H65.4235C66.5745 151.2 67.5988 150.471 67.9746 149.383L74.8221 129.6H79.9083L73.6725 147.617C73.4049 148.39 73.5024 149.243 73.9375 149.937C73.8834 150.033 73.8623 150.146 73.8122 150.244C73.6132 150.637 73.4471 151.046 73.3152 151.465C73.2572 151.647 73.1913 151.819 73.1465 152.007C72.9896 152.625 72.9065 153.262 72.8999 153.9V156.6H48.5999V153.9ZM98.8083 129.6L93.2014 145.8H80.0151L85.6221 129.6H98.8083ZM103.725 150.066C104.231 150.778 105.051 151.2 105.924 151.2H113.4C114.89 151.201 116.099 152.41 116.1 153.9V156.6H78.2999V153.9C78.3013 152.41 79.5102 151.201 80.9999 151.2H95.1235C96.2745 151.2 97.2988 150.471 97.6746 149.383L104.522 129.6H109.608L103.373 147.617C103.086 148.442 103.217 149.354 103.725 150.066ZM145.336 64.7999C149.621 64.7076 153.291 67.8479 153.86 72.0957C154.087 74.3725 153.341 76.6387 151.805 78.3354C150.269 80.0322 148.089 80.9999 145.8 80.9999H124.2C122.709 80.9999 121.5 82.2088 121.5 83.6999C121.5 85.1909 122.709 86.3999 124.2 86.3999H129.6C131.889 86.3999 134.069 87.3675 135.605 89.0643C137.141 90.761 137.888 93.0272 137.662 95.3041C137.091 99.5518 133.421 102.692 129.136 102.6H124.2C122.709 102.6 121.5 103.809 121.5 105.3V121.5C121.499 122.99 120.29 124.199 118.8 124.2H53.9999C37.6048 124.181 24.3184 110.895 24.2999 94.4999V75.5998H26.9999C30.0678 75.5998 32.8732 73.8662 34.2443 71.1214C35.6167 68.3779 35.3201 65.0939 33.4797 62.6391L24.2999 50.4007V35.0999C24.3052 31.6444 25.6434 28.3235 28.0349 25.8291C28.4923 25.3638 28.9814 24.9313 29.4996 24.5345C29.7105 24.3684 29.899 24.1759 30.1192 24.023C30.5885 23.7145 31.0776 23.435 31.5826 23.1885C31.8897 23.0276 32.1745 22.8299 32.4949 22.6928C32.9602 22.5135 33.4362 22.3619 33.92 22.2366C34.3037 22.1206 34.6675 21.9624 35.0644 21.8807C36.8692 21.5062 38.7307 21.5062 40.5355 21.8807C40.9324 21.9624 41.2962 22.1206 41.6799 22.2366C42.1637 22.3619 42.6396 22.5135 43.105 22.6928C43.4254 22.8312 43.7101 23.0276 44.0173 23.1885C44.5223 23.435 45.0114 23.7145 45.4807 24.023C45.7009 24.1759 45.8894 24.3684 46.1003 24.5345C46.6184 24.9313 47.1076 25.3638 47.565 25.8291C49.9565 28.3235 51.2947 31.6444 51.2999 35.0999V62.0999C51.2999 63.5909 52.5089 64.7999 53.9999 64.7999H145.336Z" fill="black"/>
<path d="M51.3 72.8997C51.3 74.3908 52.509 75.5997 54 75.5997H110.7V89.0997C110.688 99.5332 102.234 107.988 91.8 108H64.8C63.309 108 62.1 109.209 62.1 110.7C62.1 112.191 63.309 113.4 64.8 113.4H91.8C105.214 113.384 116.084 102.514 116.1 89.0997V72.8997C116.1 71.4086 114.891 70.1997 113.4 70.1997H54C52.509 70.1997 51.3 71.4086 51.3 72.8997Z" fill="black"/>
<path d="M33 35H38.4016V40.4016H33V35Z" fill="black"/>
</svg>
